<svg width="19" height="18" viewBox="0 0 19 18" fill="none" xmlns="http://www.w3.org/2000/svg">
<path d="M7.34422 13.4546C6.09294 13.4546 5.07495 14.4741 5.07495 15.7273C5.07495 16.9804 6.09294 17.9999 7.34422 17.9999C8.5955 17.9999 9.61348 16.9804 9.61348 15.7273C9.61348 14.4741 8.59546 13.4546 7.34422 13.4546ZM7.34422 16.6363C6.84361 16.6363 6.43652 16.2286 6.43652 15.7273C6.43652 15.2259 6.84361 14.8182 7.34422 14.8182C7.84457 14.8182 8.25191 15.2259 8.25191 15.7273C8.25191 16.2286 7.84482 16.6363 7.34422 16.6363Z" fill="white"/>
<path d="M14.0613 13.4546C12.81 13.4546 11.792 14.4741 11.792 15.7273C11.792 16.9804 12.81 17.9999 14.0613 17.9999C15.3125 17.9999 16.3305 16.9804 16.3305 15.7273C16.3305 14.4741 15.3125 13.4546 14.0613 13.4546ZM14.0613 16.6363C13.5607 16.6363 13.1536 16.2286 13.1536 15.7273C13.1536 15.2259 13.5607 14.8182 14.0613 14.8182C14.5619 14.8182 14.9689 15.2259 14.9689 15.7273C14.9689 16.2286 14.5619 16.6363 14.0613 16.6363Z" fill="white"/>
<path d="M17.9979 4.43923C17.8686 4.2765 17.6725 4.18175 17.4651 4.18175H5.54473L4.9259 1.04957C4.87167 0.775256 4.65565 0.561862 4.38083 0.511414L1.65771 0.0114324C1.28717 -0.0569802 0.933153 0.188722 0.865299 0.559155C0.797445 0.929588 1.04229 1.2848 1.4122 1.35275L3.6801 1.7691L5.67795 11.8822C5.74103 12.2015 6.02083 12.4317 6.34578 12.4317H15.8767C16.1937 12.4317 16.4685 12.2128 16.54 11.9031L18.1284 5.01694C18.1752 4.81445 18.1271 4.60172 17.9979 4.43923ZM15.3352 11.0681H6.9049L5.81408 5.54557H16.6089L15.3352 11.0681Z" fill="white"/>
</svg>
