<svg width="19" height="19" viewBox="0 0 19 19" fill="none" xmlns="http://www.w3.org/2000/svg">
<path d="M6.35441 0.65H7.25314C8.38323 0.65 9.29934 1.56612 9.29934 2.6962V4.7424H6.35441C5.22432 4.7424 4.3082 3.82629 4.3082 2.6962C4.3082 1.56612 5.22432 0.65 6.35441 0.65Z" stroke="white" stroke-width="1.3"/>
<path d="M12.421 0.65H11.5223C10.3922 0.65 9.47605 1.56612 9.47605 2.6962V4.7424H12.421C13.5511 4.7424 14.4672 3.82629 14.4672 2.6962C14.4672 1.56612 13.5511 0.65 12.421 0.65Z" stroke="white" stroke-width="1.3"/>
<path d="M9.5 17.7504V4.71875" stroke="white" stroke-width="1.3"/>
<rect x="1.61191" y="4.91953" width="15.7759" height="4.09241" rx="1.35" stroke="white" stroke-width="1.3"/>
<path d="M2.75928 8.76172V15.7491C2.75928 16.8536 3.65471 17.7491 4.75928 17.7491H14.2403C15.3449 17.7491 16.2403 16.8536 16.2403 15.7491V8.76172" stroke="white" stroke-width="1.3"/>
</svg>
