<svg width="17" height="17" viewBox="0 0 17 17" fill="none" xmlns="http://www.w3.org/2000/svg">
<path d="M12.25 1H4.75C2.67893 1 1 2.67893 1 4.75V12.25C1 14.3211 2.67893 16 4.75 16H12.25C14.3211 16 16 14.3211 16 12.25V4.75C16 2.67893 14.3211 1 12.25 1Z" stroke="white" stroke-width="1.5" stroke-linecap="round" stroke-linejoin="round"/>
<path d="M11.5 8.02724C11.5926 8.65142 11.486 9.2889 11.1953 9.849C10.9047 10.4091 10.4449 10.8633 9.88124 11.147C9.3176 11.4307 8.67886 11.5294 8.05586 11.4292C7.43287 11.3289 6.85734 11.0348 6.41115 10.5886C5.96496 10.1424 5.67082 9.56689 5.57058 8.9439C5.47033 8.3209 5.56907 7.68216 5.85277 7.11852C6.13647 6.55488 6.59066 6.09504 7.15076 5.80442C7.71086 5.51379 8.34834 5.40718 8.97252 5.49974C9.60922 5.59415 10.1987 5.89084 10.6538 6.34597C11.1089 6.8011 11.4056 7.39055 11.5 8.02724Z" stroke="white" stroke-width="1.5" stroke-linecap="round" stroke-linejoin="round"/>
<path d="M12.625 4.37451H12.633" stroke="white" stroke-width="1.5" stroke-linecap="round" stroke-linejoin="round"/>
</svg>
