<svg width="38" height="38" viewBox="0 0 38 38" fill="none" xmlns="http://www.w3.org/2000/svg">
<g clip-path="url(#clip0)">
<path d="M19.4621 37.6681C29.6724 37.6681 37.9495 29.3911 37.9495 19.1808C37.9495 8.97045 29.6724 0.693359 19.4621 0.693359C9.25182 0.693359 0.974731 8.97045 0.974731 19.1808C0.974731 29.3911 9.25182 37.6681 19.4621 37.6681Z" fill="url(#paint0_radial)"/>
<path d="M15.8846 17.5411C15.6662 17.5411 15.4501 17.4458 15.3028 17.2627C14.8294 16.673 14.1882 16.3483 13.4986 16.3483C12.809 16.3483 12.1678 16.673 11.6943 17.2627C11.4363 17.5829 10.9669 17.6345 10.646 17.3765C10.3251 17.1188 10.2739 16.6494 10.5318 16.3285C11.2837 15.3935 12.3646 14.8574 13.4986 14.8574C14.6325 14.8574 15.7134 15.3935 16.4653 16.3285C16.7233 16.6495 16.672 17.1189 16.3511 17.3765C16.2136 17.4872 16.0482 17.5411 15.8846 17.5411Z" fill="#16181C"/>
<path d="M9.32395 14.5594C9.02808 14.5594 8.74853 14.3821 8.63205 14.0906C8.47888 13.7083 8.66469 13.2744 9.04729 13.1215L15.011 10.7361C15.389 10.5835 15.8263 10.7684 15.9795 11.1513C16.1327 11.5336 15.9468 11.9675 15.5642 12.1204L9.60054 14.5059C9.51034 14.5423 9.41653 14.5594 9.32395 14.5594Z" fill="#16181C"/>
<path d="M23.0398 17.5411C22.8761 17.5411 22.7113 17.4872 22.5733 17.3768C22.2523 17.1188 22.2011 16.6497 22.4591 16.3288C23.2104 15.3938 24.2919 14.8574 25.4258 14.8574C26.5597 14.8574 27.6406 15.3935 28.3925 16.3285C28.6506 16.6495 28.5993 17.1189 28.2784 17.3765C27.9574 17.6346 27.4874 17.583 27.2301 17.2627C26.7566 16.673 26.1154 16.3483 25.4258 16.3483C24.7357 16.3483 24.0951 16.673 23.6216 17.2624C23.4742 17.4459 23.2582 17.5411 23.0398 17.5411Z" fill="#16181C"/>
<path d="M29.6004 14.5593C29.5078 14.5593 29.4146 14.5421 29.3237 14.5057L23.36 12.1202C22.9774 11.9674 22.7916 11.5335 22.9448 11.1512C23.098 10.7686 23.5318 10.5836 23.9133 10.7359L29.877 13.1214C30.2596 13.2743 30.4454 13.7081 30.2922 14.0905C30.1758 14.3819 29.8963 14.5593 29.6004 14.5593Z" fill="#16181C"/>
<path d="M19.4621 22.7416C15.9002 22.7416 12.5001 22.328 9.38086 21.5804C8.97681 21.4836 8.62858 21.9057 8.75323 22.3456C10.1918 27.4241 14.438 31.1083 19.4621 31.1083C24.4863 31.1083 28.7325 27.4241 30.171 22.3456C30.2957 21.9057 29.9474 21.4836 29.5434 21.5804C26.4241 22.328 23.0241 22.7416 19.4621 22.7416Z" fill="#5C352C"/>
<path d="M29.5435 21.5804C26.4241 22.328 23.0241 22.7416 19.4621 22.7416C15.9001 22.7416 12.5001 22.3281 9.38086 21.5804C8.97681 21.4836 8.62858 21.9057 8.75323 22.3456C9.12977 23.675 9.70273 24.9052 10.4276 26.0024C13.3914 26.5654 16.4066 26.8752 19.4634 26.8752C22.5193 26.8752 25.5333 26.5656 28.4962 26.0031C29.2213 24.9057 29.7945 23.6753 30.1711 22.3457C30.2957 21.9056 29.9475 21.4836 29.5435 21.5804Z" fill="#42221A"/>
<path d="M27.4816 23.6169C27.804 23.0645 28.0737 22.4726 28.2999 21.8565C25.528 22.4285 22.5564 22.7413 19.4621 22.7413C16.366 22.7413 13.3928 22.4282 10.6194 21.8555C10.8467 22.4746 11.1209 23.0675 11.4454 23.6222C11.8206 24.2635 12.4557 24.6737 13.1467 24.7578C15.2156 25.0094 17.3242 25.1444 19.4621 25.1444C21.5997 25.1444 23.7077 25.0095 25.7762 24.7579C26.4695 24.6736 27.1059 24.2608 27.4816 23.6169Z" fill="white"/>
<path d="M2.02277 27.0783C0.625385 25.6809 0.625385 23.4153 2.02277 22.0179C4.10845 19.9322 8.48643 18.9928 9.96029 18.727C10.2048 18.6829 10.4181 18.8961 10.3739 19.1407C10.1082 20.6146 9.16873 24.9926 7.08305 27.0782C5.68573 28.4756 3.42009 28.4756 2.02277 27.0783Z" fill="#77CEFF"/>
<path d="M3.94864 26.9412C2.55125 25.5438 2.55125 23.2782 3.94864 21.8808C5.02466 20.8048 6.96642 19.7788 8.84318 18.9541C6.90763 19.3903 3.71292 20.3274 2.02277 22.0176C0.625385 23.415 0.625385 25.6806 2.02277 27.0779C3.03055 28.0857 4.48701 28.3551 5.74668 27.9092C5.08807 27.7721 4.45979 27.4523 3.94864 26.9412Z" fill="#1EA6F2"/>
<path d="M36.9015 27.0783C38.2989 25.6809 38.2989 23.4153 36.9015 22.0179C34.8158 19.9322 30.4378 18.9928 28.964 18.727C28.7194 18.6829 28.5062 18.8961 28.5502 19.1407C28.816 20.6146 29.7555 24.9926 31.8411 27.0782C33.2385 28.4756 35.5042 28.4756 36.9015 27.0783Z" fill="#77CEFF"/>
<path d="M33.4933 26.345C31.9611 24.8128 30.3111 21.3079 29.2473 18.78C29.1447 18.7603 29.0483 18.7422 28.9639 18.727C28.7193 18.6829 28.506 18.8961 28.5501 19.1407C28.8158 20.6146 29.7554 24.9926 31.841 27.0782C33.1388 28.376 35.1769 28.4524 36.5814 27.3396C35.4897 27.5113 34.3347 27.1863 33.4933 26.345Z" fill="#1EA6F2"/>
</g>
<defs>
<radialGradient id="paint0_radial" cx="0" cy="0" r="1" gradientUnits="userSpaceOnUse" gradientTransform="translate(19.4621 0.693359) rotate(90) scale(36.9748)">
<stop offset="0.412023" stop-color="#FBEA83"/>
<stop offset="1" stop-color="#EEAB52"/>
</radialGradient>
<clipPath id="clip0">
<rect width="36.9748" height="36.9748" fill="white" transform="translate(0.974731 0.693359)"/>
</clipPath>
</defs>
</svg>
