<svg width="37" height="38" viewBox="0 0 37 38" fill="none" xmlns="http://www.w3.org/2000/svg">
<path d="M18.4873 37.6681C8.27703 37.6681 -5.72205e-05 29.3911 -5.72205e-05 19.1808C-5.72205e-05 8.97045 8.27703 0.693359 18.4873 0.693359C28.6976 0.693359 36.9747 8.97045 36.9747 19.1808C36.9747 29.3911 28.6976 37.6681 18.4873 37.6681Z" fill="url(#paint0_radial)"/>
<path d="M18.4917 23.7873C21.8572 23.7873 25.0697 23.4254 28.017 22.771C28.3987 22.6863 28.7277 23.0557 28.61 23.4407C27.2508 27.8855 23.2389 31.11 18.4918 31.11C13.7447 31.11 9.73273 27.8855 8.37355 23.4407C8.25583 23.0556 8.58478 22.6863 8.96659 22.771C11.9137 23.4254 15.1262 23.7873 18.4917 23.7873Z" fill="#5C352C"/>
<path d="M18.4861 26.337C15.3635 26.337 12.2833 26.0416 9.25242 25.5127C8.89611 24.8592 8.59598 24.1685 8.37348 23.4408C8.25569 23.0557 8.58471 22.6863 8.96652 22.771C11.9137 23.4253 15.1262 23.7873 18.4917 23.7873C21.8572 23.7873 25.0698 23.4254 28.017 22.771C28.3987 22.6863 28.7277 23.0557 28.61 23.4408C28.3877 24.1677 28.088 24.8577 27.7322 25.5106C24.6973 26.0409 21.6129 26.337 18.4861 26.337Z" fill="#42221A"/>
<path d="M23.9255 18.5679C22.9118 17.2934 20.5118 13.8718 21.8806 11.5459C22.4097 10.6468 23.4509 10.1338 24.4875 10.2522C25.3293 10.3484 26.0047 10.7907 26.4285 11.3992C26.6022 11.6486 26.917 11.7516 27.2045 11.6534C27.9062 11.4136 28.7124 11.4566 29.448 11.8772C30.3537 12.395 30.8896 13.4245 30.7842 14.4624C30.5117 17.1474 26.5523 18.486 24.9811 18.9137C24.5923 19.0194 24.1764 18.8832 23.9255 18.5679Z" fill="#E21049"/>
<path d="M13.0487 18.5679C14.0624 17.2934 16.4624 13.8718 15.0936 11.5459C14.5645 10.6468 13.5233 10.1338 12.4868 10.2522C11.6449 10.3484 10.9695 10.7907 10.5457 11.3992C10.372 11.6486 10.0572 11.7516 9.76968 11.6534C9.06803 11.4136 8.26181 11.4566 7.52621 11.8772C6.62047 12.395 6.08463 13.4245 6.18999 14.4624C6.46254 17.1474 10.4219 18.486 11.9932 18.9137C12.3819 19.0194 12.7979 18.8832 13.0487 18.5679Z" fill="#E21049"/>
<path d="M23.4055 17.3561C24.9768 16.9283 28.9361 15.5897 29.2087 12.9048C29.2512 12.4859 29.1849 12.0701 29.0364 11.687C29.1751 11.7394 29.313 11.7996 29.448 11.8769C30.3537 12.3946 30.8896 13.4242 30.7842 14.4621C30.5117 17.1471 26.5523 18.4857 24.9811 18.9134C24.5923 19.0192 24.1764 18.883 23.9255 18.5676C23.6924 18.2746 23.3854 17.8643 23.0683 17.3834C23.1801 17.3916 23.2935 17.3865 23.4055 17.3561Z" fill="#B8284E"/>
<path d="M13.0487 18.5679C14.0624 17.2934 16.4624 13.8718 15.0936 11.5459C14.5645 10.6468 13.5233 10.1338 12.4868 10.2522C11.6449 10.3484 10.9695 10.7907 10.5457 11.3992C10.372 11.6486 10.0572 11.7516 9.76968 11.6534C9.06803 11.4136 8.26181 11.4566 7.52621 11.8772C6.62047 12.395 6.08463 13.4245 6.18999 14.4624C6.46254 17.1474 10.4219 18.486 11.9932 18.9137C12.3819 19.0194 12.7979 18.8832 13.0487 18.5679Z" fill="#E21049"/>
<path d="M11.0465 18.2033C12.0602 16.9288 14.4602 13.5072 13.0914 11.1814C12.8798 10.8218 12.5841 10.5277 12.2417 10.3072C12.3244 10.2903 12.4009 10.262 12.4872 10.2522C13.5238 10.1338 14.565 10.6468 15.0941 11.5459C16.4629 13.8718 14.0629 17.2935 13.0492 18.5679C12.7983 18.8832 12.3824 19.0194 11.9936 18.9136C11.646 18.819 11.1785 18.6768 10.6628 18.4884C10.8084 18.4236 10.9433 18.333 11.0465 18.2033Z" fill="#B8284E"/>
<defs>
<radialGradient id="paint0_radial" cx="0" cy="0" r="1" gradientUnits="userSpaceOnUse" gradientTransform="translate(18.4873 0.693359) rotate(90) scale(36.9748)">
<stop offset="0.412023" stop-color="#FBEA83"/>
<stop offset="1" stop-color="#EEAB52"/>
</radialGradient>
</defs>
</svg>
