<svg xmlns="http://www.w3.org/2000/svg" width="30" height="29" viewBox="-0.5 -0.5 31 30" fill="none">
<g filter="url(#filter0_b)">
<path d="M29.2742 6.47237C28.8087 5.33613 28.1375 4.30649 27.2983 3.44107C26.4583 2.57307 25.4681 1.88329 24.3813 1.40922C23.2543 0.915695 22.0456 0.66308 20.8253 0.666041C19.1133 0.666041 17.443 1.16027 15.9914 2.09383C15.6442 2.31715 15.3143 2.56243 15.0017 2.82969C14.6892 2.56243 14.3593 2.31715 14.012 2.09383C12.5605 1.16027 10.8901 0.666041 9.17813 0.666041C7.94535 0.666041 6.75077 0.914989 5.62217 1.40922C4.53177 1.88515 3.54902 2.56976 2.70517 3.44107C1.86479 4.30551 1.19346 5.3354 0.72925 6.47237C0.246556 7.65487 0 8.91059 0 10.2029C0 11.422 0.236138 12.6924 0.704942 13.9847C1.09735 15.0647 1.65991 16.185 2.37874 17.3162C3.51776 19.1064 5.08392 20.9735 7.02858 22.8663C10.2512 26.0037 13.4425 28.171 13.5779 28.2589L14.401 28.8154C14.7656 29.0607 15.2344 29.0607 15.599 28.8154L16.422 28.2589C16.5575 28.1674 19.7453 26.0037 22.9714 22.8663C24.916 20.9735 26.4822 19.1064 27.6212 17.3162C28.3401 16.185 28.9061 15.0647 29.295 13.9847C29.7638 12.6924 30 11.422 30 10.2029C30.0034 8.91059 29.7569 7.65487 29.2742 6.47237Z" fill="#F91956" fill-opacity="0.6" stroke="#e72257"/>

</g>
<defs>
<filter id="filter0_b" x="-4" y="-3.33398" width="38" height="36.3333" filterUnits="userSpaceOnUse" color-interpolation-filters="sRGB">
<feFlood flood-opacity="0" result="BackgroundImageFix"/>
<feGaussianBlur in="BackgroundImage" stdDeviation="2"/>
<feComposite in2="SourceAlpha" operator="in" result="effect1_backgroundBlur"/>
<feBlend mode="normal" in="SourceGraphic" in2="effect1_backgroundBlur" result="shape"/>
</filter>
</defs>
</svg>