<svg width="38" height="38" viewBox="0 0 38 38" fill="none" xmlns="http://www.w3.org/2000/svg">
<g clip-path="url(#clip0)">
<path d="M19.4369 37.6681C29.6472 37.6681 37.9243 29.3911 37.9243 19.1808C37.9243 8.97045 29.6472 0.693359 19.4369 0.693359C9.22655 0.693359 0.949463 8.97045 0.949463 19.1808C0.949463 29.3911 9.22655 37.6681 19.4369 37.6681Z" fill="url(#paint0_radial)"/>
<path d="M11.6121 16.509C10.3887 16.509 9.39697 15.5173 9.39697 14.2939V12.5218C9.39697 11.2984 10.3887 10.3066 11.6121 10.3066C12.8355 10.3066 13.8272 11.2984 13.8272 12.5218V14.2939C13.8272 15.5173 12.8355 16.509 11.6121 16.509Z" fill="#16181C"/>
<path d="M11.612 10.3066C11.4603 10.3066 11.3122 10.3222 11.1689 10.3513V13.4078C11.1689 14.1418 11.764 14.7369 12.498 14.7369C13.232 14.7369 13.8271 14.1418 13.8271 13.4078V12.5218C13.8271 11.2984 12.8355 10.3066 11.612 10.3066Z" fill="#3A404D"/>
<path d="M27.2614 16.509C26.038 16.509 25.0463 15.5173 25.0463 14.2939V12.5218C25.0463 11.2984 26.038 10.3066 27.2614 10.3066C28.4848 10.3066 29.4765 11.2984 29.4765 12.5218V14.2939C29.4765 15.5173 28.4848 16.509 27.2614 16.509Z" fill="#16181C"/>
<path d="M27.2613 10.3066C27.1095 10.3066 26.9615 10.3222 26.8182 10.3513V13.4078C26.8182 14.1418 27.4133 14.7369 28.1473 14.7369C28.8813 14.7369 29.4764 14.1418 29.4764 13.4078V12.5218C29.4764 11.2984 28.4847 10.3066 27.2613 10.3066Z" fill="#3A404D"/>
<path d="M19.4368 29.5338C16.5779 29.5338 14.2604 27.3691 14.2604 24.6987V21.7976C14.2604 19.1272 16.5779 16.9624 19.4368 16.9624C22.2958 16.9624 24.6133 19.1272 24.6133 21.7976V24.6987C24.6133 27.3691 22.2958 29.5338 19.4368 29.5338Z" fill="#5C352C"/>
<path d="M19.4368 16.9624C16.5779 16.9624 14.2604 19.1047 14.2604 21.7474V24.6184C14.2604 24.7822 14.2951 24.9372 14.3125 25.0969C14.5758 22.6822 16.7552 20.7904 19.4368 20.7904C22.1185 20.7904 24.2979 22.6822 24.5612 25.0969C24.5786 24.9372 24.6133 24.7822 24.6133 24.6184V21.7474C24.6134 19.1048 22.2958 16.9624 19.4368 16.9624Z" fill="#42221A"/>
<path fill-rule="evenodd" clip-rule="evenodd" d="M10.84 7.54291C9.77405 7.83675 8.95821 8.4857 8.52034 9.23072C8.3134 9.58282 7.8602 9.70049 7.5081 9.49355C7.156 9.28661 7.03832 8.83341 7.24527 8.48131C7.89276 7.37963 9.03927 6.50514 10.447 6.1171C11.6822 5.77662 12.9338 5.86117 13.9776 6.29954C14.3541 6.45769 14.5312 6.89115 14.373 7.2677C14.2149 7.64425 13.7814 7.8213 13.4049 7.66315C12.6831 7.36 11.7728 7.28581 10.84 7.54291Z" fill="black"/>
<path fill-rule="evenodd" clip-rule="evenodd" d="M27.8269 7.62249C26.7588 7.3363 25.7267 7.483 24.972 7.90387C24.6153 8.10278 24.1648 7.97486 23.9659 7.61816C23.767 7.26145 23.8949 6.81104 24.2516 6.61214C25.3677 5.98978 26.7992 5.81595 28.2097 6.1939C29.4473 6.52551 30.4838 7.23195 31.1621 8.13837C31.4068 8.46536 31.3401 8.92881 31.0131 9.1735C30.6861 9.41819 30.2227 9.35148 29.978 9.02448C29.5089 8.39766 28.7614 7.87291 27.8269 7.62249Z" fill="black"/>
</g>
<defs>
<radialGradient id="paint0_radial" cx="0" cy="0" r="1" gradientUnits="userSpaceOnUse" gradientTransform="translate(19.4369 0.693359) rotate(90) scale(36.9748)">
<stop offset="0.412023" stop-color="#FBEA83"/>
<stop offset="1" stop-color="#EEAB52"/>
</radialGradient>
<clipPath id="clip0">
<rect width="36.9748" height="36.9748" fill="white" transform="translate(0.949463 0.693359)"/>
</clipPath>
</defs>
</svg>
