<svg width="24" height="24" viewBox="0 0 24 24" fill="none" xmlns="http://www.w3.org/2000/svg">
<path fill-rule="evenodd" clip-rule="evenodd" d="M1.93681 8.34263C1.81567 8.53856 1.75 8.7659 1.75 9V15C1.75 15.3315 1.8817 15.6495 2.11612 15.8839C2.35054 16.1183 2.66848 16.25 3 16.25H7.32845L13.943 21.3947C14.0938 21.5119 14.2981 21.5331 14.4697 21.4492C14.6412 21.3653 14.75 21.191 14.75 21V19.0942L1.93681 8.34263ZM14.75 13.8725V16.4834L4.342 7.75H7.32845L7.39332 7.69955L14.75 13.8725ZM18.7625 14.6286L17.2299 13.3426C17.3836 13.1728 17.5072 12.9777 17.5951 12.7656C17.6956 12.5229 17.7473 12.2629 17.7473 12.0002C17.7473 11.7376 17.6956 11.4775 17.5951 11.2349C17.4946 10.9922 17.3473 10.7717 17.1615 10.586C16.771 10.1955 16.771 9.56232 17.1615 9.1718C17.5521 8.78128 18.1852 8.78127 18.5758 9.1718C18.9472 9.54323 19.2418 9.98419 19.4429 10.4695C19.6439 10.9548 19.7473 11.4749 19.7473 12.0002C19.7473 12.5255 19.6439 13.0457 19.4429 13.531C19.2768 13.9318 19.0469 14.3025 18.7625 14.6286ZM21.635 17.0389L20.1028 15.7532C20.5017 15.2904 20.8248 14.7662 21.0594 14.2C21.3483 13.5023 21.497 12.7546 21.497 11.9995C21.497 11.2444 21.3483 10.4967 21.0594 9.7991C20.7704 9.10148 20.3468 8.46761 19.8129 7.93367C19.4224 7.54315 19.4224 6.90998 19.8129 6.51946C20.2034 6.12893 20.8366 6.12893 21.2271 6.51946C21.9468 7.23911 22.5176 8.09346 22.9071 9.03374C23.2966 9.97401 23.497 10.9818 23.497 11.9995C23.497 13.0173 23.2966 14.0251 22.9071 14.9653C22.5944 15.7203 22.1647 16.4199 21.635 17.0389ZM14.75 11.2617L9.00804 6.44365L13.943 2.60533C14.0938 2.48809 14.2981 2.46694 14.4697 2.55085C14.6412 2.63475 14.75 2.80904 14.75 3V11.2617Z" fill="white"/>
<path d="M1.48941 2.74524L22.1809 20.1075L20.8954 21.6396L0.203835 4.27733L1.48941 2.74524Z" fill="white"/>
</svg>