<svg width="24" height="25" viewBox="0 0 24 25" fill="none" xmlns="http://www.w3.org/2000/svg">
<path d="M20.5202 7.92038C21.147 8.54718 21.6442 9.29129 21.9834 10.1102C22.3226 10.9292 22.4972 11.8069 22.4972 12.6934C22.4972 13.5798 22.3226 14.4575 21.9834 15.2765C21.6442 16.0954 21.147 16.8395 20.5202 17.4663" stroke="white" stroke-width="2" stroke-linecap="round" stroke-linejoin="round"/>
<path d="M7.5 16.4434H3C2.80109 16.4434 2.61032 16.3643 2.46967 16.2237C2.32902 16.083 2.25 15.8923 2.25 15.6934V9.69336C2.25 9.49445 2.32902 9.30368 2.46967 9.16303C2.61032 9.02238 2.80109 8.94336 3 8.94336H7.5L14.25 3.69336V21.6934L7.5 16.4434Z" fill="white" stroke="white" stroke-linecap="round" stroke-linejoin="round"/>
<path d="M17.8685 10.5721C18.1471 10.8506 18.3681 11.1813 18.5188 11.5453C18.6696 11.9093 18.7472 12.2994 18.7472 12.6934C18.7472 13.0873 18.6696 13.4774 18.5188 13.8414C18.3681 14.2054 18.1471 14.5361 17.8685 14.8147" stroke="white" stroke-width="2" stroke-linecap="round" stroke-linejoin="round"/>
</svg>
