<svg width="38" height="38" viewBox="0 0 38 38" fill="none" xmlns="http://www.w3.org/2000/svg">
<g clip-path="url(#clip0)">
<path d="M19.4125 37.6681C29.6228 37.6681 37.8999 29.391 37.8999 19.1807C37.8999 8.97043 29.6228 0.693359 19.4125 0.693359C9.20225 0.693359 0.925171 8.97043 0.925171 19.1807C0.925171 29.391 9.20225 37.6681 19.4125 37.6681Z" fill="url(#paint0_radial)"/>
<path d="M14.0444 37.6682C14.7004 37.6682 15.2371 37.1315 15.2371 36.4755C15.2371 35.8194 14.7004 35.2827 14.0444 35.2827H14.6408C15.2968 35.2827 15.8335 34.746 15.8335 34.09C15.8335 33.434 15.2968 32.8973 14.6408 32.8973H15.2371C15.8932 32.8973 16.4299 32.3606 16.4299 31.7046C16.4299 31.0485 15.8932 30.5118 15.2371 30.5118H21.7972C22.456 30.5118 22.9899 29.9778 22.9899 29.3191C22.9899 28.6604 22.4559 28.1264 21.7972 28.1264H11.0626C10.0746 28.1264 9.27353 27.3254 9.27353 26.3373V22.7591C9.27353 22.1004 8.73949 21.5664 8.08081 21.5664C7.42205 21.5664 6.88808 22.1004 6.88808 22.7591V25.6785C6.88808 26.491 6.61157 27.2794 6.10396 27.9139L5.54804 28.6087C4.8713 29.4547 4.50256 30.5058 4.50256 31.5891V34.0901C4.50256 36.0663 6.10461 37.6682 8.08073 37.6682H14.0444V37.6682Z" fill="url(#paint1_radial)"/>
<path d="M22.3923 25.2939C22.2799 25.2939 22.1657 25.2682 22.058 25.2141C22.0172 25.1937 17.9282 23.1612 13.4083 23.0575C12.9966 23.0482 12.6704 22.7069 12.6798 22.2952C12.6891 21.8837 13.0309 21.5427 13.4421 21.5672C18.3085 21.6787 22.5512 23.7931 22.7294 23.8831C23.097 24.0683 23.2443 24.5164 23.0591 24.8839C22.9281 25.144 22.6654 25.2939 22.3923 25.2939Z" fill="#42221A"/>
<path d="M14.6401 10.3843C14.4777 10.3843 14.314 10.3313 14.1772 10.2224C14.0648 10.1341 11.5005 8.16624 8.41388 9.70929C8.04695 9.89358 7.59741 9.74366 7.41391 9.37587C7.2299 9.00749 7.37895 8.55996 7.74762 8.3756C11.7067 6.39434 14.9698 8.9469 15.1067 9.05667C15.4282 9.31376 15.48 9.78288 15.2232 10.1044C15.0758 10.2885 14.8592 10.3843 14.6401 10.3843Z" fill="black"/>
<path d="M22.9894 11.577C22.6411 11.577 22.3301 11.3318 22.2591 10.9775C22.1781 10.5738 22.4402 10.1811 22.8438 10.1004L28.8075 8.90767C29.2134 8.82701 29.6036 9.0885 29.6845 9.49241C29.7655 9.89602 29.5034 10.2888 29.0998 10.3695L23.1361 11.5622C23.0867 11.572 23.0378 11.577 22.9894 11.577Z" fill="black"/>
<path d="M11.7466 17.9445C10.5291 17.8245 9.63949 16.7402 9.75956 15.5227L9.93348 13.7591C10.0535 12.5416 11.1378 11.652 12.3553 11.7721C13.5728 11.8922 14.4624 12.9764 14.3424 14.1939L14.1684 15.9575C14.0484 17.175 12.9641 18.0646 11.7466 17.9445Z" fill="#16181C"/>
<path d="M12.3552 11.772C12.2042 11.7571 12.0553 11.7581 11.9099 11.7729L11.6099 14.8147C11.5379 15.5452 12.0717 16.1958 12.8022 16.2678C13.5326 16.3399 14.1832 15.8061 14.2553 15.0756L14.3422 14.1938C14.4623 12.9763 13.5728 11.8921 12.3552 11.772Z" fill="#3A404D"/>
<path d="M25.8414 19.4807C24.624 19.3606 23.7343 18.2763 23.8544 17.0588L24.0283 15.2953C24.1484 14.0778 25.2327 13.1882 26.4502 13.3082C27.6677 13.4283 28.5573 14.5126 28.4372 15.7301L28.2633 17.4936C28.1432 18.7111 27.0589 19.6007 25.8414 19.4807Z" fill="#16181C"/>
<path d="M26.45 13.3081C26.2991 13.2932 26.1502 13.2942 26.0048 13.3091L25.7048 16.3509C25.6328 17.0813 26.1665 17.7319 26.897 17.804C27.6275 17.876 28.2781 17.3422 28.3501 16.6117L28.4371 15.73C28.5572 14.5125 27.6675 13.4282 26.45 13.3081Z" fill="#3A404D"/>
</g>
<defs>
<radialGradient id="paint0_radial" cx="0" cy="0" r="1" gradientUnits="userSpaceOnUse" gradientTransform="translate(19.4125 0.693359) rotate(90) scale(36.9747)">
<stop offset="0.412023" stop-color="#FBEA83"/>
<stop offset="1" stop-color="#EEAB52"/>
</radialGradient>
<radialGradient id="paint1_radial" cx="0" cy="0" r="1" gradientUnits="userSpaceOnUse" gradientTransform="translate(15.3444 26.9458) rotate(138.122) scale(14.4012 16.5348)">
<stop offset="0.412023" stop-color="#FBEA83"/>
<stop offset="1" stop-color="#EEAB52"/>
</radialGradient>
<clipPath id="clip0">
<rect width="36.9748" height="36.9748" fill="white" transform="translate(0.924194 0.693359)"/>
</clipPath>
</defs>
</svg>
