<svg width="24" height="24" viewBox="0 0 24 24" fill="none" xmlns="http://www.w3.org/2000/svg">
<path d="M16.0816 10.0396L16.4351 9.68608L16.0816 9.33253L14.6676 7.91853L14.314 7.56498L13.9604 7.91853L4.64645 17.2325L4.5 17.379V17.5861V19.0001V19.5001H5H6.414H6.62111L6.76755 19.3536L16.0816 10.0396ZM16.7884 8.62564L17.142 8.97919L17.4956 8.62564L18.9096 7.21164L19.2631 6.85808L18.9096 6.50453L17.4956 5.09053L17.142 4.73698L16.7884 5.09053L15.3744 6.50453L15.0209 6.85808L15.3744 7.21164L16.7884 8.62564ZM20.3244 7.21158L7.03589 20.5001H3.5V16.9642L16.7885 3.67569C16.7885 3.67567 16.7885 3.67565 16.7886 3.67564C16.8823 3.58193 17.0094 3.5293 17.142 3.5293C17.2746 3.5293 17.4017 3.58193 17.4954 3.67564C17.4955 3.67565 17.4955 3.67567 17.4955 3.67569L20.3244 6.50458C20.4181 6.59835 20.4708 6.7255 20.4708 6.85808C20.4708 6.99066 20.4181 7.11782 20.3244 7.21158Z" fill="#1CE4F0" stroke="#1CE4F0"/>
</svg>
