<svg width="16" height="16" viewBox="0 0 16 16" fill="none" xmlns="http://www.w3.org/2000/svg">
<path fill-rule="evenodd" clip-rule="evenodd" d="M6.14961 3.05039C6.14961 2.85709 6.30631 2.70039 6.49961 2.70039H9.49961C9.69291 2.70039 9.84961 2.85709 9.84961 3.05039V3.84961H6.14961V3.05039ZM4.84961 3.84961V3.05039C4.84961 2.13912 5.58834 1.40039 6.49961 1.40039H9.49961C10.4109 1.40039 11.1496 2.13912 11.1496 3.05039V3.84961H13.2141H13.4996C13.8586 3.84961 14.1496 4.14062 14.1496 4.49961C14.1496 4.85859 13.8586 5.14961 13.4996 5.14961H13.091L12.2852 13.6552C12.2049 14.5024 11.4935 15.1496 10.6425 15.1496H5.35675C4.50577 15.1496 3.79437 14.5024 3.71411 13.6552L2.90831 5.14961H2.49961C2.14062 5.14961 1.84961 4.85859 1.84961 4.49961C1.84961 4.14062 2.14062 3.84961 2.49961 3.84961H2.78516H4.84961ZM4.21413 5.14961H11.7852L10.991 13.5326C10.974 13.7123 10.823 13.8496 10.6425 13.8496H5.35675C5.17624 13.8496 5.02534 13.7123 5.00831 13.5326L4.21413 5.14961Z" fill="white"/>
</svg>
