<svg width="43" height="22" viewBox="0 0 43 22" fill="none" xmlns="http://www.w3.org/2000/svg">
<path d="M9.4722 0.914015L9.42115 0.883701L9.37009 0.914014L0.948947 5.91401L0.9 5.94308V6V16V16.0569L0.948946 16.0859L9.37009 21.086L9.42115 21.1163L9.4722 21.086L17.8932 16.0859L17.9421 16.0569V16V6V5.94308L17.8932 5.91401L9.4722 0.914015ZM9.42115 2.46954L15.9367 6.3382L9.42115 10.2052L2.90545 6.3382L9.42115 2.46954ZM2.23957 15.2664V7.52864L8.75136 11.3933V19.1328L2.23957 15.2664ZM16.6025 15.2665L10.0909 19.1328V11.3933L16.6025 7.52868V15.2665Z" fill="white" stroke="white" stroke-width="0.2"/>
<path d="M24.7335 17L28.1775 6.99H29.7735L33.1615 17H31.9575L30.9775 14.116H26.8475L25.8815 17H24.7335ZM28.9195 7.998L27.1835 13.15H30.6555L28.9195 7.998ZM34.9231 17V6.99H37.9331C38.9691 6.99 39.8091 7.21867 40.4531 7.676C41.1064 8.13333 41.4331 8.83333 41.4331 9.776V9.832C41.4331 10.6067 41.2044 11.2227 40.7471 11.68C40.2991 12.128 39.7018 12.422 38.9551 12.562L42.0211 17H40.6631L37.6811 12.646H36.1411V17H34.9231ZM36.1411 11.68H38.0171C39.4824 11.68 40.2151 11.064 40.2151 9.832V9.776C40.2151 9.12267 40.0284 8.66067 39.6551 8.39C39.2818 8.11 38.7358 7.97 38.0171 7.97H36.1411V11.68Z" fill="white"/>
</svg>
