<svg width="47" height="13" viewBox="0 0 47 13" fill="none" xmlns="http://www.w3.org/2000/svg">
<path d="M17.066 11V1.705H20.394C22.422 1.705 23.436 2.511 23.436 4.123V4.175C23.436 5.189 22.9463 5.84767 21.967 6.151C22.5997 6.28967 23.0677 6.53667 23.371 6.892C23.6743 7.24733 23.826 7.73267 23.826 8.348V8.4C23.826 9.258 23.553 9.908 23.007 10.35C22.461 10.7833 21.6723 11 20.641 11H17.066ZM18.756 9.765H20.433C21.5597 9.765 22.123 9.271 22.123 8.283V8.231C22.123 7.74567 21.9757 7.386 21.681 7.152C21.395 6.90933 20.94 6.788 20.316 6.788H18.756V9.765ZM18.756 5.618H20.186C20.7493 5.618 21.1523 5.50967 21.395 5.293C21.6463 5.07633 21.772 4.72967 21.772 4.253V4.201C21.772 3.759 21.642 3.43833 21.382 3.239C21.122 3.03967 20.7147 2.94 20.16 2.94H18.756V5.618ZM27.0959 11.13C26.4286 11.13 25.8826 10.9653 25.4579 10.636C25.0332 10.298 24.8209 9.791 24.8209 9.115C24.8209 8.36967 25.1372 7.82367 25.7699 7.477C26.4026 7.13033 27.2476 6.957 28.3049 6.957H29.1499V6.606C29.1499 6.138 29.0546 5.79567 28.8639 5.579C28.6819 5.35367 28.3656 5.241 27.9149 5.241C27.1262 5.241 26.6929 5.59633 26.6149 6.307H25.0939C25.1546 5.553 25.4492 4.98967 25.9779 4.617C26.5152 4.24433 27.1912 4.058 28.0059 4.058C29.8172 4.058 30.7229 4.88567 30.7229 6.541V11H29.1759V10.168C28.6906 10.8093 27.9972 11.13 27.0959 11.13ZM27.4729 9.999C27.9669 9.999 28.3699 9.87767 28.6819 9.635C28.9939 9.38367 29.1499 9.04567 29.1499 8.621V7.945H28.3439C27.0352 7.945 26.3809 8.31333 26.3809 9.05C26.3809 9.68267 26.7449 9.999 27.4729 9.999ZM35.5028 11.13C34.5062 11.13 33.6828 10.8223 33.0328 10.207C32.3915 9.583 32.0708 8.74233 32.0708 7.685V7.581C32.0708 6.52367 32.4002 5.67433 33.0588 5.033C33.7175 4.383 34.5322 4.058 35.5028 4.058C36.3348 4.058 37.0368 4.266 37.6088 4.682C38.1895 5.08933 38.5232 5.73067 38.6098 6.606H37.0888C36.9675 5.748 36.4475 5.319 35.5288 5.319C34.9828 5.319 34.5365 5.51833 34.1898 5.917C33.8518 6.31567 33.6828 6.86167 33.6828 7.555V7.659C33.6828 8.387 33.8475 8.946 34.1768 9.336C34.5148 9.726 34.9785 9.921 35.5678 9.921C36.0012 9.921 36.3695 9.79533 36.6728 9.544C36.9848 9.284 37.1625 8.92433 37.2058 8.465H38.6488C38.5882 9.26233 38.2762 9.908 37.7128 10.402C37.1495 10.8873 36.4128 11.13 35.5028 11.13ZM40.0034 11V1.055H41.5764V7.191L44.0074 4.201H45.7234L43.0844 7.321L45.9444 11H44.1244L41.5764 7.659V11H40.0034Z" fill="#565D66"/>
<path d="M6 1.08325L0 6.49992L6 11.9166V7.58325L12 7.58325V5.41659L6 5.41659L6 1.08325Z" fill="#A5AFBC"/>
</svg>
