<svg width="65" height="24" viewBox="0 0 65 24" fill="none" xmlns="http://www.w3.org/2000/svg">
<path d="M14.8371 6.77829L9.61541 12L14.8371 17.2217" stroke="#1CE4F0" stroke-width="2" stroke-linecap="round" stroke-linejoin="round"/>
<path d="M34.39 12.115C34.77 12.175 35.115 12.33 35.425 12.58C35.745 12.83 35.995 13.14 36.175 13.51C36.365 13.88 36.46 14.275 36.46 14.695C36.46 15.225 36.325 15.705 36.055 16.135C35.785 16.555 35.39 16.89 34.87 17.14C34.36 17.38 33.755 17.5 33.055 17.5H29.155V7.045H32.905C33.615 7.045 34.22 7.165 34.72 7.405C35.22 7.635 35.595 7.95 35.845 8.35C36.095 8.75 36.22 9.2 36.22 9.7C36.22 10.32 36.05 10.835 35.71 11.245C35.38 11.645 34.94 11.935 34.39 12.115ZM30.52 11.56H32.815C33.455 11.56 33.95 11.41 34.3 11.11C34.65 10.81 34.825 10.395 34.825 9.865C34.825 9.335 34.65 8.92 34.3 8.62C33.95 8.32 33.445 8.17 32.785 8.17H30.52V11.56ZM32.935 16.375C33.615 16.375 34.145 16.215 34.525 15.895C34.905 15.575 35.095 15.13 35.095 14.56C35.095 13.98 34.895 13.525 34.495 13.195C34.095 12.855 33.56 12.685 32.89 12.685H30.52V16.375H32.935ZM37.8442 13.36C37.8442 12.52 38.0142 11.785 38.3542 11.155C38.6942 10.515 39.1592 10.02 39.7492 9.67C40.3492 9.32 41.0142 9.145 41.7442 9.145C42.4642 9.145 43.0892 9.3 43.6192 9.61C44.1492 9.92 44.5442 10.31 44.8042 10.78V9.28H46.1842V17.5H44.8042V15.97C44.5342 16.45 44.1292 16.85 43.5892 17.17C43.0592 17.48 42.4392 17.635 41.7292 17.635C40.9992 17.635 40.3392 17.455 39.7492 17.095C39.1592 16.735 38.6942 16.23 38.3542 15.58C38.0142 14.93 37.8442 14.19 37.8442 13.36ZM44.8042 13.375C44.8042 12.755 44.6792 12.215 44.4292 11.755C44.1792 11.295 43.8392 10.945 43.4092 10.705C42.9892 10.455 42.5242 10.33 42.0142 10.33C41.5042 10.33 41.0392 10.45 40.6192 10.69C40.1992 10.93 39.8642 11.28 39.6142 11.74C39.3642 12.2 39.2392 12.74 39.2392 13.36C39.2392 13.99 39.3642 14.54 39.6142 15.01C39.8642 15.47 40.1992 15.825 40.6192 16.075C41.0392 16.315 41.5042 16.435 42.0142 16.435C42.5242 16.435 42.9892 16.315 43.4092 16.075C43.8392 15.825 44.1792 15.47 44.4292 15.01C44.6792 14.54 44.8042 13.995 44.8042 13.375ZM47.9809 13.375C47.9809 12.525 48.1509 11.785 48.4909 11.155C48.8309 10.515 49.3009 10.02 49.9009 9.67C50.5109 9.32 51.2059 9.145 51.9859 9.145C52.9959 9.145 53.8259 9.39 54.4759 9.88C55.1359 10.37 55.5709 11.05 55.7809 11.92H54.3109C54.1709 11.42 53.8959 11.025 53.4859 10.735C53.0859 10.445 52.5859 10.3 51.9859 10.3C51.2059 10.3 50.5759 10.57 50.0959 11.11C49.6159 11.64 49.3759 12.395 49.3759 13.375C49.3759 14.365 49.6159 15.13 50.0959 15.67C50.5759 16.21 51.2059 16.48 51.9859 16.48C52.5859 16.48 53.0859 16.34 53.4859 16.06C53.8859 15.78 54.1609 15.38 54.3109 14.86H55.7809C55.5609 15.7 55.1209 16.375 54.4609 16.885C53.8009 17.385 52.9759 17.635 51.9859 17.635C51.2059 17.635 50.5109 17.46 49.9009 17.11C49.3009 16.76 48.8309 16.265 48.4909 15.625C48.1509 14.985 47.9809 14.235 47.9809 13.375ZM62.1923 17.5L58.9673 13.87V17.5H57.6023V6.4H58.9673V12.925L62.1323 9.28H64.0373L60.1673 13.375L64.0523 17.5H62.1923Z" fill="#1CE4F0"/>
</svg>
