<svg width="16" height="17" viewBox="0 0 16 17" fill="none" xmlns="http://www.w3.org/2000/svg">
<path d="M1 4.02979H2.51479H14.6331" stroke="#FEFEFE" stroke-width="1.5" stroke-linecap="round" stroke-linejoin="round"/>
<path d="M4.78684 4.02958V2.51479C4.78684 2.11304 4.94643 1.72775 5.23051 1.44367C5.51459 1.15959 5.89988 1 6.30163 1H9.33121C9.73296 1 10.1183 1.15959 10.4023 1.44367C10.6864 1.72775 10.846 2.11304 10.846 2.51479V4.02958M13.1182 4.02958V14.6331C13.1182 15.0349 12.9586 15.4202 12.6745 15.7042C12.3904 15.9883 12.0051 16.1479 11.6034 16.1479H4.02944C3.62769 16.1479 3.2424 15.9883 2.95832 15.7042C2.67424 15.4202 2.51465 15.0349 2.51465 14.6331V4.02958H13.1182Z" stroke="#FEFEFE" stroke-width="1.5" stroke-linecap="round" stroke-linejoin="round"/>
<path d="M6.30176 7.81665V12.361" stroke="#FEFEFE" stroke-width="1.5" stroke-linecap="round" stroke-linejoin="round"/>
<path d="M9.33105 7.81665V12.361" stroke="#FEFEFE" stroke-width="1.5" stroke-linecap="round" stroke-linejoin="round"/>
</svg>
