<svg width="16" height="16" viewBox="0 0 16 16" fill="none" xmlns="http://www.w3.org/2000/svg">
<path d="M7.26214 2.37305H2.39159C2.02252 2.37305 1.66856 2.51996 1.40759 2.78148C1.14661 3.04299 1 3.39768 1 3.76752V13.5288C1 13.8987 1.14661 14.2534 1.40759 14.5149C1.66856 14.7764 2.02252 14.9233 2.39159 14.9233H12.1327C12.5018 14.9233 12.8557 14.7764 13.1167 14.5149C13.3777 14.2534 13.5243 13.8987 13.5243 13.5288V8.64818" stroke="white" stroke-width="1.5" stroke-linecap="round" stroke-linejoin="round"/>
<path d="M12.4806 1.32749C12.7574 1.05012 13.1329 0.894287 13.5243 0.894287C13.9158 0.894287 14.2912 1.05012 14.568 1.32749C14.8448 1.60487 15.0003 1.98108 15.0003 2.37335C15.0003 2.76562 14.8448 3.14183 14.568 3.41921L7.95798 10.043L5.1748 10.7402L5.8706 7.95125L12.4806 1.32749Z" stroke="white" stroke-width="1.5" stroke-linecap="round" stroke-linejoin="round"/>
</svg>
