<svg width="56" height="23" viewBox="0 0 56 23" fill="none" xmlns="http://www.w3.org/2000/svg">
<path d="M26.3245 18V7.99H32.1765V8.984H27.5425V12.526H31.1545V13.52H27.5425V18H26.3245ZM35.4436 18.126C34.7249 18.126 34.1369 17.9487 33.6796 17.594C33.2316 17.23 33.0076 16.6887 33.0076 15.97C33.0076 15.186 33.3529 14.612 34.0436 14.248C34.7436 13.884 35.6209 13.702 36.6756 13.702H37.7256V13.17C37.7256 12.582 37.6043 12.162 37.3616 11.91C37.1189 11.6487 36.7176 11.518 36.1576 11.518C35.1496 11.518 34.5896 11.9567 34.4776 12.834H33.3156C33.3903 12.05 33.6983 11.476 34.2396 11.112C34.7809 10.7387 35.4389 10.552 36.2136 10.552C37.9963 10.552 38.8876 11.4247 38.8876 13.17V18H37.7256V17.076C37.1656 17.776 36.4049 18.126 35.4436 18.126ZM35.5556 17.202C36.1903 17.202 36.7083 17.048 37.1096 16.74C37.5203 16.4227 37.7256 15.9887 37.7256 15.438V14.528H36.7176C35.0189 14.528 34.1696 15.0087 34.1696 15.97C34.1696 16.7913 34.6316 17.202 35.5556 17.202ZM44.2081 18.126C43.1721 18.126 42.3135 17.79 41.6321 17.118C40.9601 16.4367 40.6241 15.536 40.6241 14.416V14.304C40.6241 13.2027 40.9648 12.302 41.6461 11.602C42.3368 10.902 43.1815 10.552 44.1801 10.552C45.0201 10.552 45.7341 10.762 46.3221 11.182C46.9101 11.5927 47.2555 12.2367 47.3581 13.114H46.2101C46.0421 12.05 45.3655 11.518 44.1801 11.518C43.4988 11.518 42.9341 11.7747 42.4861 12.288C42.0475 12.792 41.8281 13.464 41.8281 14.304V14.416C41.8281 15.2933 42.0428 15.97 42.4721 16.446C42.9108 16.922 43.4941 17.16 44.2221 17.16C44.7728 17.16 45.2441 17.006 45.6361 16.698C46.0375 16.3807 46.2661 15.9373 46.3221 15.368H47.4001C47.3255 16.1707 46.9895 16.8333 46.3921 17.356C45.8041 17.8693 45.0761 18.126 44.2081 18.126ZM52.1505 18.126C51.1052 18.126 50.2512 17.79 49.5885 17.118C48.9352 16.4367 48.6085 15.536 48.6085 14.416V14.304C48.6085 13.2027 48.9258 12.302 49.5605 11.602C50.2045 10.902 51.0305 10.552 52.0385 10.552C52.9718 10.552 53.7512 10.8553 54.3765 11.462C55.0112 12.0593 55.3285 12.9693 55.3285 14.192V14.57H49.8125C49.8405 15.41 50.0505 16.054 50.4425 16.502C50.8438 16.9407 51.4178 17.16 52.1645 17.16C53.3125 17.16 53.9612 16.7353 54.1105 15.886H55.2725C55.1512 16.6047 54.8105 17.16 54.2505 17.552C53.6905 17.9347 52.9905 18.126 52.1505 18.126ZM49.8545 13.632H54.1385C54.0358 12.2227 53.3358 11.518 52.0385 11.518C51.4505 11.518 50.9652 11.7093 50.5825 12.092C50.1998 12.4653 49.9572 12.9787 49.8545 13.632Z" fill="white"/>
<path d="M8.03571 13.053L8.0357 13.053L7.965 13.7038L8.0357 13.7746C8.03571 13.7746 8.03571 13.7746 8.03571 13.7746C8.23498 13.5753 8.23497 13.2523 8.03571 13.053Z" fill="white" stroke="white" stroke-width="0.2"/>
<path d="M14.2945 13.053L14.2945 13.053L14.2238 13.7038L14.2945 13.7746C14.2945 13.7746 14.2945 13.7746 14.2945 13.7746C14.4938 13.5753 14.4938 13.2523 14.2945 13.053Z" fill="white" stroke="white" stroke-width="0.2"/>
<path d="M1.44788 15.1242L1.44787 15.1242C1.09381 14.7695 0.899094 14.2976 0.900003 13.7965L0.90189 12.7575C0.90361 11.8171 1.60219 11.037 2.50711 10.906V10.3515C2.50711 7.93692 3.69581 5.795 5.51809 4.47989C5.85671 2.42318 7.63392 0.9 9.7438 0.9C11.8537 0.9 13.6309 2.42318 13.9694 4.47989C15.7917 5.795 16.9804 7.93692 16.9804 10.3515V10.9073C17.8803 11.0428 18.5736 11.8207 18.5752 12.7576L18.5771 13.7965C18.578 14.2977 18.3833 14.7696 18.0293 15.1243L17.9585 15.0536L18.0293 15.1243C17.6752 15.4789 17.2037 15.6745 16.7025 15.6745H16.5849C16.4048 16.2766 16.1651 16.861 15.8673 17.4158C15.8673 17.4158 15.8672 17.4158 15.8672 17.4159L15.7791 17.3686C15.7052 17.5064 15.5636 17.5848 15.4174 17.5848C15.3519 17.5848 15.2855 17.5691 15.2238 17.5359L1.44788 15.1242ZM1.44788 15.1242C1.80197 15.4789 2.27347 15.6745 2.77462 15.6745H2.89849L1.44788 15.1242ZM2.50711 11.9506C2.16827 12.0636 1.92289 12.3836 1.9222 12.7595L1.92031 13.7984C1.91987 14.027 2.00843 14.2415 2.16998 14.4034L2.50711 11.9506ZM2.50711 11.9506V12.9859C2.50711 13.5506 2.55727 14.1054 2.65373 14.6457C2.47109 14.6201 2.30274 14.5363 2.16999 14.4034L2.50711 11.9506ZM10.1772 9.76671C11.5694 11.535 13.693 12.5829 15.9601 12.5989L11.9976 21.1551C12.1971 21.0479 12.2719 20.7992 12.1646 20.5997L12.2527 20.5523C12.2526 20.5523 12.2526 20.5523 12.2526 20.5523C12.1193 20.3041 11.81 20.2112 11.5618 20.3446L11.5617 20.3446C10.9864 20.6539 10.3738 20.8953 9.73929 21.0631C6.07531 20.0908 3.52738 16.7877 3.52738 12.9859V12.5422L3.62648 12.5198C5.94341 11.9954 8.17561 11.0541 10.1772 9.76671ZM15.9602 11.5786C14.0313 11.5627 12.2233 10.6815 11.0233 9.19199C11.279 9.00875 11.5306 8.8198 11.7772 8.62479L11.7772 8.62478C11.9982 8.45001 12.0357 8.12919 11.861 7.90819L11.861 7.90816C11.6862 7.68722 11.3654 7.64973 11.1444 7.82435L11.1444 7.82437C8.92033 9.58285 6.28898 10.8507 3.52746 11.4956V10.3515C3.52742 6.92388 6.31616 4.13514 9.7438 4.13514C13.1714 4.13514 15.9602 6.92388 15.9602 10.3515V11.4999V11.5786ZM9.7438 1.92031C11.0186 1.92031 12.1332 2.64994 12.6688 3.73287C11.7738 3.3358 10.7841 3.11483 9.7438 3.11483C8.70348 3.11483 7.71372 3.33579 6.81879 3.73289C7.35436 2.64994 8.469 1.92031 9.7438 1.92031ZM17.3072 14.4034C17.1763 14.5345 17.0106 14.6177 16.8308 14.6445C16.9295 14.0975 16.9805 13.5413 16.9805 12.9835V11.954C17.3139 12.0701 17.5543 12.3875 17.555 12.7594L17.5569 13.7983C17.5573 14.027 17.4688 14.2415 17.3072 14.4034Z" fill="white" stroke="white" stroke-width="0.2"/>
<path d="M17.1682 20.1734L17.1682 20.1734L14.9173 17.9226L14.0536 15.6644L14.0536 15.6644C13.9018 15.2677 13.4888 15.0351 13.0706 15.1115C11.4833 15.4013 10.2226 16.662 9.93304 18.248L9.93129 18.2576L9.93128 18.2577C9.85703 18.6642 10.0799 19.0735 10.4618 19.2317L12.6793 20.1503L14.4793 21.9503L14.4793 21.9503C14.5789 22.0498 14.7096 22.0997 14.84 22.0997C14.9704 22.0997 15.1012 22.0498 15.2007 21.9503L15.2008 21.9503C15.4 21.7511 15.4 21.428 15.2008 21.2288L15.2008 21.2288L13.6898 19.7178L14.4797 18.9279L16.4467 20.8949L16.4467 20.8949C16.646 21.094 16.9689 21.094 17.1682 20.8949L17.1682 20.8949C17.3674 20.6956 17.3674 20.3726 17.1682 20.1734ZM13.885 18.0797L12.8486 19.116L10.9567 18.3323C11.196 17.2449 12.0564 16.3814 13.1423 16.1378L13.885 18.0797Z" fill="white" stroke="white" stroke-width="0.2"/>
</svg>
