<svg width="117" height="35" viewBox="0 0 117 35" fill="none" xmlns="http://www.w3.org/2000/svg">
<circle cx="17.5" cy="17.5" r="17.5" fill="url(#paint0_linear)"/>
<path d="M19.0239 26.2501V18.2681H21.7021L22.1039 15.1564H19.0239V13.1701C19.0239 12.2695 19.273 11.6557 20.5659 11.6557L22.2123 11.655V8.87183C21.9276 8.83483 20.9503 8.75 19.8127 8.75C17.4375 8.75 15.8113 10.1999 15.8113 12.8619V15.1564H13.125V18.2681H15.8113V26.2501H19.0239Z" fill="white"/>
<path d="M48.23 22H50.225V17.605H53.885V16.06H50.225V12.865H54.875V11.275H48.23V22ZM58.2209 22.15C59.4209 22.15 60.1109 21.715 60.6209 21.04V22H62.4059V16.855C62.4059 14.71 61.0259 13.99 59.2709 13.99C57.5159 13.99 56.0609 14.755 55.9109 16.585H57.6659C57.7559 15.805 58.2209 15.355 59.1659 15.355C60.2309 15.355 60.5909 15.88 60.5909 16.93V17.335H59.6159C57.3659 17.335 55.5959 17.995 55.5959 19.825C55.5959 21.46 56.7809 22.15 58.2209 22.15ZM58.6559 20.845C57.7559 20.845 57.3959 20.41 57.3959 19.75C57.3959 18.79 58.2809 18.475 59.6609 18.475H60.5909V19.255C60.5909 20.26 59.7659 20.845 58.6559 20.845ZM67.9213 22.15C70.0513 22.15 71.4163 20.875 71.5513 19.075H69.8863C69.7813 20.185 68.9563 20.755 67.9963 20.755C66.6613 20.755 65.8213 19.855 65.8213 18.145V18.025C65.8213 16.405 66.7063 15.445 67.9513 15.445C68.9113 15.445 69.6013 15.88 69.7513 16.93H71.5063C71.2963 14.77 69.6613 13.99 67.9213 13.99C65.7313 13.99 63.9613 15.565 63.9613 18.055V18.175C63.9613 20.68 65.6713 22.15 67.9213 22.15ZM76.5642 22.15C78.5742 22.15 79.9092 21.25 80.1642 19.6H78.4092C78.2742 20.365 77.7042 20.8 76.6092 20.8C75.2592 20.8 74.5092 19.96 74.4492 18.475H80.1942V17.95C80.1942 15.145 78.4392 13.99 76.4892 13.99C74.2542 13.99 72.5892 15.61 72.5892 18.04V18.16C72.5892 20.635 74.2542 22.15 76.5642 22.15ZM74.4792 17.26C74.6592 16.045 75.3942 15.31 76.4892 15.31C77.6142 15.31 78.3042 15.91 78.3942 17.26H74.4792ZM86.1954 22.15C88.2204 22.15 89.6754 20.62 89.6754 18.1V17.98C89.6754 15.445 88.1604 13.99 86.1954 13.99C85.0404 13.99 84.0654 14.665 83.6304 15.415V10.525H81.8154V22H83.6304V20.74C84.0504 21.535 84.9504 22.15 86.1954 22.15ZM85.7454 20.71C84.4254 20.71 83.5704 19.885 83.5704 18.13V18.01C83.5704 16.27 84.4704 15.415 85.7304 15.415C86.9154 15.415 87.8154 16.27 87.8154 18.01V18.13C87.8154 19.81 87.0804 20.71 85.7454 20.71ZM94.8175 20.74C93.4375 20.74 92.6425 19.735 92.6425 18.13V18.01C92.6425 16.39 93.4675 15.415 94.8175 15.415C96.1675 15.415 96.9775 16.405 96.9775 18.025V18.13C96.9775 19.735 96.1675 20.74 94.8175 20.74ZM94.8025 22.15C97.1125 22.15 98.8375 20.56 98.8375 18.115V17.995C98.8375 15.595 97.1125 13.99 94.8175 13.99C92.5075 13.99 90.7825 15.61 90.7825 18.04V18.16C90.7825 20.545 92.4925 22.15 94.8025 22.15ZM103.987 20.74C102.607 20.74 101.812 19.735 101.812 18.13V18.01C101.812 16.39 102.637 15.415 103.987 15.415C105.337 15.415 106.147 16.405 106.147 18.025V18.13C106.147 19.735 105.337 20.74 103.987 20.74ZM103.972 22.15C106.282 22.15 108.007 20.56 108.007 18.115V17.995C108.007 15.595 106.282 13.99 103.987 13.99C101.677 13.99 99.9525 15.61 99.9525 18.04V18.16C99.9525 20.545 101.662 22.15 103.972 22.15ZM109.647 22H111.462V18.145L114.402 22H116.502L113.202 17.755L116.247 14.155H114.267L111.462 17.605V10.525H109.647V22Z" fill="#2C2F34"/>
<defs>
<linearGradient id="paint0_linear" x1="2.66083" y1="6.52857" x2="29.6861" y2="30.3654" gradientUnits="userSpaceOnUse">
<stop stop-color="#DF3388"/>
<stop offset="1" stop-color="#63C2DC"/>
</linearGradient>
</defs>
</svg>
