<svg width="63" height="18" viewBox="0 0 63 18" fill="none" xmlns="http://www.w3.org/2000/svg">
<circle cx="5.16121" cy="10.8387" r="4.41121" stroke="white" stroke-width="1.5"/>
<circle cx="11.3546" cy="10.8387" r="4.41121" stroke="white" stroke-width="1.5"/>
<circle cx="8.2574" cy="5.16121" r="4.41121" stroke="white" stroke-width="1.5"/>
<path d="M24.5041 14V3.99H30.3561V4.984H25.7221V8.526H29.3341V9.52H25.7221V14H24.5041ZM31.954 14V6.678H33.116V14H31.954ZM33.046 4.928C32.8967 5.07733 32.7193 5.152 32.514 5.152C32.3087 5.152 32.1267 5.07733 31.968 4.928C31.8187 4.77867 31.744 4.59667 31.744 4.382C31.744 4.16733 31.8187 3.98533 31.968 3.836C32.1267 3.68667 32.3087 3.612 32.514 3.612C32.7193 3.612 32.8967 3.68667 33.046 3.836C33.2047 3.98533 33.284 4.16733 33.284 4.382C33.284 4.59667 33.2047 4.77867 33.046 4.928ZM35.5224 14V3.178H36.6984V14H35.5224ZM41.3024 14.098C40.6584 14.098 40.1684 13.9253 39.8324 13.58C39.4964 13.2347 39.3284 12.7633 39.3284 12.166V7.658H38.2784V6.678H39.3284V5.012H40.4904V6.678H42.1984V7.658H40.4904V12.054C40.4904 12.7633 40.7937 13.118 41.4004 13.118C41.7364 13.118 42.0351 13.0667 42.2964 12.964V13.944C42.0071 14.0467 41.6757 14.098 41.3024 14.098ZM47.049 14.126C46.0036 14.126 45.1496 13.79 44.487 13.118C43.8336 12.4367 43.507 11.536 43.507 10.416V10.304C43.507 9.20267 43.8243 8.302 44.459 7.602C45.103 6.902 45.929 6.552 46.937 6.552C47.8703 6.552 48.6496 6.85533 49.275 7.462C49.9096 8.05933 50.227 8.96933 50.227 10.192V10.57H44.711C44.739 11.41 44.949 12.054 45.341 12.502C45.7423 12.9407 46.3163 13.16 47.063 13.16C48.211 13.16 48.8596 12.7353 49.009 11.886H50.171C50.0496 12.6047 49.709 13.16 49.149 13.552C48.589 13.9347 47.889 14.126 47.049 14.126ZM44.753 9.632H49.037C48.9343 8.22267 48.2343 7.518 46.937 7.518C46.349 7.518 45.8636 7.70933 45.481 8.092C45.0983 8.46533 44.8556 8.97867 44.753 9.632ZM52.01 14V6.678H53.172V7.994C53.424 7.53667 53.732 7.18667 54.096 6.944C54.4693 6.70133 54.964 6.57067 55.58 6.552V7.644C54.7773 7.68133 54.1753 7.868 53.774 8.204C53.3727 8.54 53.172 9.13267 53.172 9.982V14H52.01ZM59.4733 14.126C58.596 14.126 57.9053 13.916 57.4013 13.496C56.9066 13.076 56.6406 12.4927 56.6033 11.746H57.7373C57.8306 12.6887 58.4046 13.16 59.4593 13.16C60.5233 13.16 61.0553 12.7727 61.0553 11.998C61.0553 11.634 60.92 11.368 60.6493 11.2C60.388 11.0227 59.954 10.878 59.3473 10.766C58.3953 10.5887 57.7326 10.346 57.3593 10.038C56.986 9.72067 56.7993 9.24467 56.7993 8.61C56.7993 7.97533 57.0513 7.476 57.5553 7.112C58.0686 6.73867 58.6426 6.552 59.2773 6.552C60.864 6.552 61.746 7.25667 61.9233 8.666H60.8033C60.7193 8.26467 60.556 7.97533 60.3133 7.798C60.0706 7.61133 59.7206 7.518 59.2633 7.518C58.8433 7.518 58.5073 7.616 58.2553 7.812C58.0033 7.99867 57.8773 8.25067 57.8773 8.568C57.8773 8.904 57.994 9.15133 58.2273 9.31C58.47 9.46867 58.9226 9.60867 59.5853 9.73C60.024 9.814 60.374 9.898 60.6353 9.982C60.906 10.0567 61.1673 10.1733 61.4193 10.332C61.6806 10.4907 61.8673 10.7007 61.9793 10.962C62.1006 11.214 62.1613 11.5267 62.1613 11.9C62.1613 12.5813 61.928 13.1227 61.4613 13.524C61.004 13.9253 60.3413 14.126 59.4733 14.126Z" fill="white"/>
</svg>
