<svg width="120" height="35" viewBox="0 0 120 35" fill="none" xmlns="http://www.w3.org/2000/svg">
<path d="M48.29 22H50.3V11.275H48.29V22ZM52.6796 22H54.4946V17.38C54.4946 16.135 55.3196 15.505 56.3396 15.505C57.4196 15.505 57.8996 16.045 57.8996 17.23V22H59.7146V17.065C59.7146 14.905 58.6046 13.99 57.0296 13.99C55.7396 13.99 54.8696 14.635 54.4946 15.4V14.155H52.6796V22ZM64.4906 22.15C66.5006 22.15 67.6256 21.235 67.6256 19.645C67.6256 17.98 66.5306 17.53 64.6856 17.245C63.4406 17.035 63.0656 16.81 63.0656 16.24C63.0656 15.685 63.5306 15.31 64.3106 15.31C65.1506 15.31 65.5556 15.64 65.7056 16.36H67.3856C67.1906 14.59 65.9156 13.99 64.3106 13.99C62.8406 13.99 61.3706 14.77 61.3706 16.345C61.3706 17.815 62.1356 18.4 64.2056 18.73C65.3606 18.925 65.8856 19.165 65.8856 19.81C65.8856 20.47 65.4506 20.815 64.4756 20.815C63.4106 20.815 63.0056 20.35 62.9156 19.555H61.2056C61.2806 21.22 62.4656 22.15 64.4906 22.15ZM71.8877 22.135C72.4427 22.135 72.8327 22.045 73.1177 21.94V20.5C72.8627 20.605 72.5927 20.65 72.2327 20.65C71.6627 20.65 71.3327 20.335 71.3327 19.645V15.52H73.0577V14.155H71.3327V12.43H69.5177V14.155H68.4677V15.52H69.5177V19.81C69.5177 21.295 70.3277 22.135 71.8877 22.135ZM76.883 22.15C78.083 22.15 78.773 21.715 79.283 21.04V22H81.068V16.855C81.068 14.71 79.688 13.99 77.933 13.99C76.178 13.99 74.723 14.755 74.573 16.585H76.328C76.418 15.805 76.883 15.355 77.828 15.355C78.893 15.355 79.253 15.88 79.253 16.93V17.335H78.278C76.028 17.335 74.258 17.995 74.258 19.825C74.258 21.46 75.443 22.15 76.883 22.15ZM77.318 20.845C76.418 20.845 76.058 20.41 76.058 19.75C76.058 18.79 76.943 18.475 78.323 18.475H79.253V19.255C79.253 20.26 78.428 20.845 77.318 20.845ZM86.4934 24.88C88.9234 24.88 90.4684 23.725 90.4834 21.415V14.155H88.6684V15.355C88.2184 14.575 87.4384 13.99 86.1484 13.99C84.1234 13.99 82.6234 15.64 82.6234 17.845V17.95C82.6234 20.215 84.1384 21.685 86.1034 21.685C87.2584 21.685 88.2334 20.98 88.6684 20.23V21.385C88.6684 22.795 87.8884 23.5 86.4784 23.5C85.2934 23.5 84.6934 23.05 84.5434 22.27H82.7134C82.9234 23.77 84.0334 24.88 86.4934 24.88ZM86.5534 20.29C85.3834 20.29 84.4834 19.39 84.4834 17.935V17.815C84.4834 16.39 85.2634 15.415 86.6134 15.415C87.9184 15.415 88.7284 16.3 88.7284 17.785V17.89C88.7284 19.39 87.8134 20.29 86.5534 20.29ZM92.6405 22H94.4555V17.92C94.4555 16.255 95.4155 15.745 97.0055 15.73V14.035C95.6855 14.05 94.9505 14.635 94.4555 15.625V14.155H92.6405V22ZM100.511 22.15C101.711 22.15 102.401 21.715 102.911 21.04V22H104.696V16.855C104.696 14.71 103.316 13.99 101.561 13.99C99.806 13.99 98.351 14.755 98.201 16.585H99.956C100.046 15.805 100.511 15.355 101.456 15.355C102.521 15.355 102.881 15.88 102.881 16.93V17.335H101.906C99.656 17.335 97.886 17.995 97.886 19.825C97.886 21.46 99.071 22.15 100.511 22.15ZM100.946 20.845C100.046 20.845 99.686 20.41 99.686 19.75C99.686 18.79 100.571 18.475 101.951 18.475H102.881V19.255C102.881 20.26 102.056 20.845 100.946 20.845ZM106.776 22H108.591V17.305C108.591 16.105 109.416 15.505 110.316 15.505C111.201 15.505 111.711 16 111.711 17.155V22H113.526V17.305C113.526 16.105 114.351 15.505 115.251 15.505C116.151 15.505 116.646 16 116.646 17.155V22H118.461V17.035C118.461 14.875 117.291 13.99 115.851 13.99C114.876 13.99 113.796 14.425 113.196 15.4C112.806 14.425 111.996 13.99 110.976 13.99C109.821 13.99 108.966 14.62 108.591 15.355V14.155H106.776V22Z" fill="#2C2F34"/>
<circle cx="17.5" cy="17.5" r="17.5" fill="url(#paint0_linear)"/>
<path d="M17.4974 14.2903C15.7301 14.2903 14.2878 15.7326 14.2878 17.5C14.2878 19.2674 15.7301 20.7097 17.4974 20.7097C19.2648 20.7097 20.7071 19.2674 20.7071 17.5C20.7071 15.7326 19.2648 14.2903 17.4974 14.2903ZM27.1239 17.5C27.1239 16.1709 27.136 14.8537 27.0613 13.527C26.9867 11.986 26.6351 10.6183 25.5083 9.4914C24.379 8.36211 23.0138 8.01297 21.4727 7.93832C20.1436 7.86368 18.8265 7.87572 17.4998 7.87572C16.1707 7.87572 14.8536 7.86368 13.5269 7.93832C11.9859 8.01297 10.6182 8.36452 9.49137 9.4914C8.3621 10.6207 8.01296 11.986 7.93832 13.527C7.86368 14.8562 7.87572 16.1733 7.87572 17.5C7.87572 18.8267 7.86368 20.1463 7.93832 21.473C8.01296 23.014 8.36451 24.3817 9.49137 25.5086C10.6206 26.6379 11.9859 26.987 13.5269 27.0617C14.856 27.1363 16.1731 27.1243 17.4998 27.1243C18.8289 27.1243 20.146 27.1363 21.4727 27.0617C23.0138 26.987 24.3814 26.6355 25.5083 25.5086C26.6375 24.3793 26.9867 23.014 27.0613 21.473C27.1384 20.1463 27.1239 18.8291 27.1239 17.5ZM17.4974 22.4386C14.7645 22.4386 12.5589 20.2329 12.5589 17.5C12.5589 14.7671 14.7645 12.5614 17.4974 12.5614C20.2303 12.5614 22.4359 14.7671 22.4359 17.5C22.4359 20.2329 20.2303 22.4386 17.4974 22.4386ZM22.6381 13.5126C22.0001 13.5126 21.4848 12.9973 21.4848 12.3592C21.4848 11.7211 22.0001 11.2058 22.6381 11.2058C23.2762 11.2058 23.7915 11.7211 23.7915 12.3592C23.7917 12.5107 23.762 12.6608 23.7041 12.8008C23.6462 12.9408 23.5612 13.068 23.4541 13.1752C23.347 13.2823 23.2197 13.3673 23.0797 13.4251C22.9397 13.483 22.7896 13.5127 22.6381 13.5126Z" fill="white"/>
<defs>
<linearGradient id="paint0_linear" x1="2.66083" y1="6.52857" x2="29.6861" y2="30.3654" gradientUnits="userSpaceOnUse">
<stop stop-color="#DF3388"/>
<stop offset="1" stop-color="#63C2DC"/>
</linearGradient>
</defs>
</svg>
