<svg width="108" height="35" viewBox="0 0 108 35" fill="none" xmlns="http://www.w3.org/2000/svg">
<circle cx="17.5" cy="17.5" r="17.5" fill="url(#paint0_linear)"/>
<path d="M26.2471 24.7737V24.773H26.2515V18.3548C26.2515 15.215 25.5756 12.7964 21.9049 12.7964C20.1404 12.7964 18.9562 13.7647 18.4728 14.6827H18.4217V13.0895H14.9414V24.773H18.5654V18.9877C18.5654 17.4645 18.8541 15.9916 20.7405 15.9916C22.5991 15.9916 22.6268 17.7299 22.6268 19.0855V24.7737H26.2471Z" fill="white"/>
<path d="M9.03906 13.0908H12.6674V24.7743H9.03906V13.0908Z" fill="white"/>
<path d="M10.8515 7.27393C9.69135 7.27393 8.75 8.21528 8.75 9.37538C8.75 10.5355 9.69135 11.4965 10.8515 11.4965C12.0116 11.4965 12.9529 10.5355 12.9529 9.37538C12.9522 8.21528 12.0108 7.27393 10.8515 7.27393V7.27393Z" fill="white"/>
<path d="M48.23 22H54.8V20.41H50.225V11.275H48.23V22ZM56.3867 22H58.2017V14.155H56.3867V22ZM57.2717 12.865C57.8717 12.865 58.3517 12.415 58.3517 11.83C58.3517 11.23 57.8717 10.78 57.2717 10.78C56.6717 10.78 56.1917 11.23 56.1917 11.83C56.1917 12.415 56.6717 12.865 57.2717 12.865ZM60.414 22H62.229V17.38C62.229 16.135 63.054 15.505 64.074 15.505C65.154 15.505 65.634 16.045 65.634 17.23V22H67.449V17.065C67.449 14.905 66.339 13.99 64.764 13.99C63.474 13.99 62.604 14.635 62.229 15.4V14.155H60.414V22ZM69.54 22H71.355V18.145L74.295 22H76.395L73.095 17.755L76.14 14.155H74.16L71.355 17.605V10.525H69.54V22ZM80.7097 22.15C82.7197 22.15 84.0547 21.25 84.3097 19.6H82.5547C82.4197 20.365 81.8497 20.8 80.7547 20.8C79.4047 20.8 78.6547 19.96 78.5947 18.475H84.3397V17.95C84.3397 15.145 82.5847 13.99 80.6347 13.99C78.3997 13.99 76.7347 15.61 76.7347 18.04V18.16C76.7347 20.635 78.3997 22.15 80.7097 22.15ZM78.6247 17.26C78.8047 16.045 79.5397 15.31 80.6347 15.31C81.7597 15.31 82.4497 15.91 82.5397 17.26H78.6247ZM88.9009 22.15C90.0559 22.15 91.0609 21.46 91.4809 20.68V22H93.2959V10.525H91.4809V15.355C91.0459 14.575 90.2509 13.99 88.9759 13.99C86.9359 13.99 85.4509 15.58 85.4509 18.085V18.205C85.4509 20.755 86.9359 22.15 88.9009 22.15ZM89.3509 20.71C88.1809 20.71 87.3109 19.885 87.3109 18.16V18.04C87.3109 16.345 88.0909 15.415 89.4259 15.415C90.7459 15.415 91.5409 16.27 91.5409 17.995V18.115C91.5409 19.87 90.6109 20.71 89.3509 20.71ZM95.498 22H97.313V14.155H95.498V22ZM96.383 12.865C96.983 12.865 97.463 12.415 97.463 11.83C97.463 11.23 96.983 10.78 96.383 10.78C95.783 10.78 95.303 11.23 95.303 11.83C95.303 12.415 95.783 12.865 96.383 12.865ZM99.5253 22H101.34V17.38C101.34 16.135 102.165 15.505 103.185 15.505C104.265 15.505 104.745 16.045 104.745 17.23V22H106.56V17.065C106.56 14.905 105.45 13.99 103.875 13.99C102.585 13.99 101.715 14.635 101.34 15.4V14.155H99.5253V22Z" fill="#2C2F34"/>
<defs>
<linearGradient id="paint0_linear" x1="2.66083" y1="6.52857" x2="29.6861" y2="30.3654" gradientUnits="userSpaceOnUse">
<stop stop-color="#DF3388"/>
<stop offset="1" stop-color="#63C2DC"/>
</linearGradient>
</defs>
</svg>
