<svg width="80" height="20" viewBox="0 0 80 20" fill="none" xmlns="http://www.w3.org/2000/svg">
<path d="M29.9305 16.126C28.6892 16.126 27.7652 15.8367 27.1585 15.258C26.5612 14.67 26.2112 13.9 26.1085 12.948H27.2845C27.3312 13.2747 27.3965 13.5593 27.4805 13.802C27.5739 14.0447 27.7139 14.2733 27.9005 14.488C28.0872 14.7027 28.3485 14.866 28.6845 14.978C29.0299 15.09 29.4452 15.146 29.9305 15.146C30.5839 15.146 31.1252 14.9733 31.5545 14.628C31.9932 14.2733 32.2125 13.816 32.2125 13.256C32.2125 12.6773 32.0445 12.2527 31.7085 11.982C31.3725 11.702 30.7332 11.4873 29.7905 11.338C28.6612 11.17 27.8212 10.8807 27.2705 10.47C26.7199 10.05 26.4445 9.42 26.4445 8.58C26.4445 7.80533 26.7479 7.16133 27.3545 6.648C27.9612 6.12533 28.7312 5.864 29.6645 5.864C30.6725 5.864 31.4752 6.102 32.0725 6.578C32.6699 7.054 33.0152 7.73533 33.1085 8.622H32.0165C31.8952 7.99667 31.6479 7.544 31.2745 7.264C30.9012 6.984 30.3645 6.844 29.6645 6.844C29.0019 6.844 28.4885 6.99333 28.1245 7.292C27.7605 7.59067 27.5785 7.98267 27.5785 8.468C27.5785 8.99067 27.7372 9.38267 28.0545 9.644C28.3719 9.90533 29.0159 10.1107 29.9865 10.26C31.1625 10.4467 32.0212 10.7547 32.5625 11.184C33.1132 11.604 33.3885 12.2667 33.3885 13.172C33.3885 14.012 33.0572 14.7167 32.3945 15.286C31.7412 15.846 30.9199 16.126 29.9305 16.126ZM38.3859 16.126C37.3405 16.126 36.4865 15.79 35.8239 15.118C35.1705 14.4367 34.8439 13.536 34.8439 12.416V12.304C34.8439 11.2027 35.1612 10.302 35.7959 9.602C36.4399 8.902 37.2659 8.552 38.2739 8.552C39.2072 8.552 39.9865 8.85533 40.6119 9.462C41.2465 10.0593 41.5639 10.9693 41.5639 12.192V12.57H36.0479C36.0759 13.41 36.2859 14.054 36.6779 14.502C37.0792 14.9407 37.6532 15.16 38.3999 15.16C39.5479 15.16 40.1965 14.7353 40.3459 13.886H41.5079C41.3865 14.6047 41.0459 15.16 40.4859 15.552C39.9259 15.9347 39.2259 16.126 38.3859 16.126ZM36.0899 11.632H40.3739C40.2712 10.2227 39.5712 9.518 38.2739 9.518C37.6859 9.518 37.2005 9.70933 36.8179 10.092C36.4352 10.4653 36.1925 10.9787 36.0899 11.632ZM45.5729 16.098C44.9289 16.098 44.4389 15.9253 44.1029 15.58C43.7669 15.2347 43.5989 14.7633 43.5989 14.166V9.658H42.5489V8.678H43.5989V7.012H44.7609V8.678H46.4689V9.658H44.7609V14.054C44.7609 14.7633 45.0642 15.118 45.6709 15.118C46.0069 15.118 46.3056 15.0667 46.5669 14.964V15.944C46.2776 16.0467 45.9462 16.098 45.5729 16.098ZM50.5495 16.098C49.9055 16.098 49.4155 15.9253 49.0795 15.58C48.7435 15.2347 48.5755 14.7633 48.5755 14.166V9.658H47.5255V8.678H48.5755V7.012H49.7375V8.678H51.4455V9.658H49.7375V14.054C49.7375 14.7633 50.0408 15.118 50.6475 15.118C50.9835 15.118 51.2821 15.0667 51.5435 14.964V15.944C51.2541 16.0467 50.9228 16.098 50.5495 16.098ZM53.328 16V8.678H54.49V16H53.328ZM54.42 6.928C54.2707 7.07733 54.0934 7.152 53.888 7.152C53.6827 7.152 53.5007 7.07733 53.342 6.928C53.1927 6.77867 53.118 6.59667 53.118 6.382C53.118 6.16733 53.1927 5.98533 53.342 5.836C53.5007 5.68667 53.6827 5.612 53.888 5.612C54.0934 5.612 54.2707 5.68667 54.42 5.836C54.5787 5.98533 54.658 6.16733 54.658 6.382C54.658 6.59667 54.5787 6.77867 54.42 6.928ZM56.8684 16V8.678H58.0304V9.84C58.2077 9.46667 58.5017 9.15867 58.9124 8.916C59.323 8.67333 59.813 8.552 60.3824 8.552C61.185 8.552 61.815 8.79 62.2724 9.266C62.7297 9.742 62.9584 10.4887 62.9584 11.506V16H61.7964V11.422C61.7964 10.778 61.6564 10.3067 61.3764 10.008C61.0964 9.70933 60.6624 9.56 60.0744 9.56C59.505 9.56 59.0197 9.73733 58.6184 10.092C58.2264 10.4467 58.0304 10.9367 58.0304 11.562V16H56.8684ZM68.1616 18.674C67.1442 18.674 66.3602 18.464 65.8096 18.044C65.2682 17.6333 64.9462 17.092 64.8436 16.42H66.0336C66.2016 17.2693 66.9062 17.694 68.1476 17.694C68.8942 17.694 69.4729 17.5073 69.8836 17.134C70.2942 16.77 70.4996 16.2053 70.4996 15.44V14.376C70.2756 14.7587 69.9349 15.0853 69.4776 15.356C69.0202 15.6267 68.5349 15.762 68.0216 15.762C67.0602 15.762 66.2622 15.4353 65.6276 14.782C65.0022 14.1287 64.6896 13.298 64.6896 12.29V12.192C64.6896 11.1747 65.0116 10.316 65.6556 9.616C66.2996 8.90667 67.1162 8.552 68.1056 8.552C69.1882 8.552 69.9862 8.986 70.4996 9.854V8.678H71.6616V15.51C71.6522 16.546 71.3302 17.33 70.6956 17.862C70.0609 18.4033 69.2162 18.674 68.1616 18.674ZM68.1476 14.796C68.8476 14.796 69.4216 14.5673 69.8696 14.11C70.3176 13.6433 70.5416 13.0087 70.5416 12.206V12.108C70.5416 11.296 70.3316 10.6613 69.9116 10.204C69.5009 9.74667 68.9362 9.518 68.2176 9.518C67.4989 9.518 66.9296 9.76067 66.5096 10.246C66.0989 10.722 65.8936 11.352 65.8936 12.136V12.248C65.8936 13.0227 66.1082 13.6433 66.5376 14.11C66.9762 14.5673 67.5129 14.796 68.1476 14.796ZM76.2809 16.126C75.4036 16.126 74.7129 15.916 74.2089 15.496C73.7142 15.076 73.4482 14.4927 73.4109 13.746H74.5449C74.6382 14.6887 75.2122 15.16 76.2669 15.16C77.3309 15.16 77.8629 14.7727 77.8629 13.998C77.8629 13.634 77.7276 13.368 77.4569 13.2C77.1956 13.0227 76.7616 12.878 76.1549 12.766C75.2029 12.5887 74.5402 12.346 74.1669 12.038C73.7936 11.7207 73.6069 11.2447 73.6069 10.61C73.6069 9.97533 73.8589 9.476 74.3629 9.112C74.8762 8.73867 75.4502 8.552 76.0849 8.552C77.6716 8.552 78.5536 9.25667 78.7309 10.666H77.6109C77.5269 10.2647 77.3636 9.97533 77.1209 9.798C76.8782 9.61133 76.5282 9.518 76.0709 9.518C75.6509 9.518 75.3149 9.616 75.0629 9.812C74.8109 9.99867 74.6849 10.2507 74.6849 10.568C74.6849 10.904 74.8016 11.1513 75.0349 11.31C75.2776 11.4687 75.7302 11.6087 76.3929 11.73C76.8316 11.814 77.1816 11.898 77.4429 11.982C77.7136 12.0567 77.9749 12.1733 78.2269 12.332C78.4882 12.4907 78.6749 12.7007 78.7869 12.962C78.9082 13.214 78.9689 13.5267 78.9689 13.9C78.9689 14.5813 78.7356 15.1227 78.2689 15.524C77.8116 15.9253 77.1489 16.126 76.2809 16.126Z" fill="white"/>
<path d="M10.0004 12.4547C11.3561 12.4547 12.455 11.3558 12.455 10.0002C12.455 8.64459 11.3561 7.54565 10.0004 7.54565C8.64484 7.54565 7.5459 8.64459 7.5459 10.0002C7.5459 11.3558 8.64484 12.4547 10.0004 12.4547Z" stroke="white" stroke-width="1.5" stroke-linecap="round" stroke-linejoin="round"/>
<path d="M16.0545 12.4545C15.9456 12.7013 15.9131 12.9751 15.9613 13.2405C16.0094 13.5059 16.1359 13.7508 16.3245 13.9436L16.3736 13.9927C16.5258 14.1447 16.6465 14.3252 16.7288 14.5238C16.8112 14.7225 16.8536 14.9354 16.8536 15.1505C16.8536 15.3655 16.8112 15.5784 16.7288 15.7771C16.6465 15.9757 16.5258 16.1562 16.3736 16.3082C16.2217 16.4603 16.0412 16.581 15.8425 16.6634C15.6439 16.7457 15.431 16.7881 15.2159 16.7881C15.0009 16.7881 14.7879 16.7457 14.5893 16.6634C14.3906 16.581 14.2102 16.4603 14.0582 16.3082L14.0091 16.2591C13.8163 16.0705 13.5714 15.9439 13.3059 15.8958C13.0405 15.8477 12.7668 15.8802 12.52 15.9891C12.278 16.0928 12.0716 16.265 11.9263 16.4845C11.7809 16.704 11.7029 16.9613 11.7018 17.2245V17.3636C11.7018 17.7976 11.5294 18.2138 11.2225 18.5207C10.9157 18.8276 10.4994 19 10.0655 19C9.63146 19 9.21525 18.8276 8.90837 18.5207C8.60149 18.2138 8.42909 17.7976 8.42909 17.3636V17.29C8.42276 17.0192 8.3351 16.7565 8.17751 16.5362C8.01992 16.3159 7.79969 16.1481 7.54545 16.0545C7.29868 15.9456 7.02493 15.9131 6.75952 15.9613C6.4941 16.0094 6.24919 16.1359 6.05636 16.3245L6.00727 16.3736C5.8553 16.5258 5.67483 16.6465 5.47617 16.7288C5.27752 16.8112 5.06459 16.8536 4.84955 16.8536C4.6345 16.8536 4.42157 16.8112 4.22292 16.7288C4.02426 16.6465 3.84379 16.5258 3.69182 16.3736C3.53967 16.2217 3.41898 16.0412 3.33663 15.8425C3.25428 15.6439 3.21189 15.431 3.21189 15.2159C3.21189 15.0009 3.25428 14.7879 3.33663 14.5893C3.41898 14.3906 3.53967 14.2102 3.69182 14.0582L3.74091 14.0091C3.92953 13.8163 4.05606 13.5714 4.10419 13.3059C4.15231 13.0405 4.11982 12.7668 4.01091 12.52C3.90719 12.278 3.73498 12.0716 3.51547 11.9263C3.29596 11.7809 3.03873 11.7029 2.77545 11.7018H2.63636C2.20237 11.7018 1.78616 11.5294 1.47928 11.2225C1.1724 10.9157 1 10.4994 1 10.0655C1 9.63146 1.1724 9.21525 1.47928 8.90837C1.78616 8.60149 2.20237 8.42909 2.63636 8.42909H2.71C2.98081 8.42276 3.24346 8.3351 3.46379 8.17751C3.68412 8.01992 3.85195 7.79969 3.94545 7.54545C4.05437 7.29868 4.08686 7.02493 4.03873 6.75952C3.99061 6.4941 3.86408 6.24919 3.67545 6.05636L3.62636 6.00727C3.47422 5.8553 3.35352 5.67483 3.27118 5.47617C3.18883 5.27752 3.14644 5.06459 3.14644 4.84955C3.14644 4.6345 3.18883 4.42157 3.27118 4.22292C3.35352 4.02426 3.47422 3.84379 3.62636 3.69182C3.77834 3.53967 3.95881 3.41898 4.15746 3.33663C4.35611 3.25428 4.56905 3.21189 4.78409 3.21189C4.99913 3.21189 5.21207 3.25428 5.41072 3.33663C5.60937 3.41898 5.78984 3.53967 5.94182 3.69182L5.99091 3.74091C6.18374 3.92953 6.42865 4.05606 6.69406 4.10419C6.95948 4.15231 7.23322 4.11982 7.48 4.01091H7.54545C7.78745 3.90719 7.99383 3.73498 8.1392 3.51547C8.28457 3.29596 8.36259 3.03873 8.36364 2.77545V2.63636C8.36364 2.20237 8.53604 1.78616 8.84292 1.47928C9.14979 1.1724 9.56601 1 10 1C10.434 1 10.8502 1.1724 11.1571 1.47928C11.464 1.78616 11.6364 2.20237 11.6364 2.63636V2.71C11.6374 2.97328 11.7154 3.23051 11.8608 3.45002C12.0062 3.66953 12.2126 3.84174 12.4545 3.94545C12.7013 4.05437 12.9751 4.08686 13.2405 4.03873C13.5059 3.99061 13.7508 3.86408 13.9436 3.67545L13.9927 3.62636C14.1447 3.47422 14.3252 3.35352 14.5238 3.27118C14.7225 3.18883 14.9354 3.14644 15.1505 3.14644C15.3655 3.14644 15.5784 3.18883 15.7771 3.27118C15.9757 3.35352 16.1562 3.47422 16.3082 3.62636C16.4603 3.77834 16.581 3.95881 16.6634 4.15746C16.7457 4.35611 16.7881 4.56905 16.7881 4.78409C16.7881 4.99913 16.7457 5.21207 16.6634 5.41072C16.581 5.60937 16.4603 5.78984 16.3082 5.94182L16.2591 5.99091C16.0705 6.18374 15.9439 6.42865 15.8958 6.69406C15.8477 6.95948 15.8802 7.23322 15.9891 7.48V7.54545C16.0928 7.78745 16.265 7.99383 16.4845 8.1392C16.704 8.28457 16.9613 8.36259 17.2245 8.36364H17.3636C17.7976 8.36364 18.2138 8.53604 18.5207 8.84292C18.8276 9.14979 19 9.56601 19 10C19 10.434 18.8276 10.8502 18.5207 11.1571C18.2138 11.464 17.7976 11.6364 17.3636 11.6364H17.29C17.0267 11.6374 16.7695 11.7154 16.55 11.8608C16.3305 12.0062 16.1583 12.2126 16.0545 12.4545V12.4545Z" stroke="white" stroke-width="1.5" stroke-linecap="round" stroke-linejoin="round"/>
</svg>
