<svg width="98" height="35" viewBox="0 0 98 35" fill="none" xmlns="http://www.w3.org/2000/svg">
<circle cx="17.5" cy="17.5" r="17.5" fill="url(#paint0_linear)"/>
<path d="M26.7545 11.6565C26.0537 11.964 25.3069 12.1677 24.5283 12.2667C25.3293 11.7885 25.9406 11.037 26.228 10.1312C25.4812 10.5764 24.6567 10.8909 23.778 11.0664C23.0689 10.3114 22.0582 9.84375 20.9557 9.84375C18.8167 9.84375 17.0946 11.58 17.0946 13.7084C17.0946 14.0147 17.1205 14.3091 17.1841 14.5895C13.972 14.4328 11.1297 12.8933 9.22038 10.5481C8.88703 11.1265 8.6915 11.7885 8.6915 12.5011C8.6915 13.8392 9.38057 15.0253 10.4077 15.712C9.78694 15.7002 9.17797 15.52 8.66206 15.2361C8.66206 15.2479 8.66206 15.2632 8.66206 15.2786C8.66206 17.1561 10.0013 18.7156 11.7576 19.0749C11.4431 19.1609 11.1003 19.2021 10.7446 19.2021C10.4972 19.2021 10.2475 19.188 10.0131 19.1362C10.5137 20.6662 11.9342 21.7911 13.6233 21.8276C12.3088 22.8559 10.6397 23.4755 8.83285 23.4755C8.516 23.4755 8.2121 23.4614 7.9082 23.4225C9.61968 24.5262 11.648 25.1564 13.8354 25.1564C20.9451 25.1564 24.8322 19.2669 24.8322 14.1619C24.8322 13.9911 24.8263 13.8262 24.818 13.6625C25.5849 13.1183 26.2292 12.4387 26.7545 11.6565Z" fill="white"/>
<path d="M50.375 22H52.385V12.85H55.37V11.275H47.39V12.85H50.375V22ZM57.7713 22H59.6313L61.2213 16.72L62.6763 22H64.5213L66.9813 14.155H65.2113L63.5763 19.825L62.0463 14.155H60.5313L58.8663 19.825L57.3063 14.155H55.3713L57.7713 22ZM68.4131 22H70.2281V14.155H68.4131V22ZM69.2981 12.865C69.8981 12.865 70.3781 12.415 70.3781 11.83C70.3781 11.23 69.8981 10.78 69.2981 10.78C68.6981 10.78 68.2181 11.23 68.2181 11.83C68.2181 12.415 68.6981 12.865 69.2981 12.865ZM75.1104 22.135C75.6654 22.135 76.0554 22.045 76.3404 21.94V20.5C76.0854 20.605 75.8154 20.65 75.4554 20.65C74.8854 20.65 74.5554 20.335 74.5554 19.645V15.52H76.2804V14.155H74.5554V12.43H72.7404V14.155H71.6904V15.52H72.7404V19.81C72.7404 21.295 73.5504 22.135 75.1104 22.135ZM80.6475 22.135C81.2025 22.135 81.5925 22.045 81.8775 21.94V20.5C81.6225 20.605 81.3525 20.65 80.9925 20.65C80.4225 20.65 80.0925 20.335 80.0925 19.645V15.52H81.8175V14.155H80.0925V12.43H78.2775V14.155H77.2275V15.52H78.2775V19.81C78.2775 21.295 79.0875 22.135 80.6475 22.135ZM86.9646 22.15C88.9746 22.15 90.3096 21.25 90.5646 19.6H88.8096C88.6746 20.365 88.1046 20.8 87.0096 20.8C85.6596 20.8 84.9096 19.96 84.8496 18.475H90.5946V17.95C90.5946 15.145 88.8396 13.99 86.8896 13.99C84.6546 13.99 82.9896 15.61 82.9896 18.04V18.16C82.9896 20.635 84.6546 22.15 86.9646 22.15ZM84.8796 17.26C85.0596 16.045 85.7946 15.31 86.8896 15.31C88.0146 15.31 88.7046 15.91 88.7946 17.26H84.8796ZM92.2157 22H94.0307V17.92C94.0307 16.255 94.9907 15.745 96.5807 15.73V14.035C95.2607 14.05 94.5257 14.635 94.0307 15.625V14.155H92.2157V22Z" fill="#2C2F34"/>
<defs>
<linearGradient id="paint0_linear" x1="2.66083" y1="6.52857" x2="29.6861" y2="30.3654" gradientUnits="userSpaceOnUse">
<stop stop-color="#DF3388"/>
<stop offset="1" stop-color="#63C2DC"/>
</linearGradient>
</defs>
</svg>
