<svg width="61" height="61" viewBox="0 0 61 61" fill="none" xmlns="http://www.w3.org/2000/svg">
<path d="M47.8848 17.814C45.7641 7.50802 35.6902 0.872587 25.3842 2.99327C16.5594 4.80924 10.2133 12.5588 10.1729 21.5683C10.1729 21.9976 10.1906 22.4371 10.2287 22.9019C3.95061 23.5665 -0.600103 29.1946 0.0644407 35.4727C0.680403 41.2917 5.59131 45.7061 11.4429 45.7004H12.7765C12.746 45.2788 12.713 44.8596 12.713 44.4303C12.713 35.3113 20.1054 27.9188 29.2245 27.9188C38.3435 27.9188 45.7358 35.3113 45.7358 44.4303C45.7358 44.8595 45.7028 45.2786 45.6723 45.7004H47.0059C54.7135 45.7215 60.9788 39.4903 60.9999 31.7826C61.0201 24.3869 55.2673 18.2595 47.8848 17.814Z" fill="#D1D7DD"/>
<path d="M29.2246 58.4014C36.9406 58.4014 43.1957 52.1463 43.1957 44.4302C43.1957 36.7142 36.9406 30.4591 29.2246 30.4591C21.5085 30.4591 15.2534 36.7142 15.2534 44.4302C15.2534 52.1463 21.5085 58.4014 29.2246 58.4014Z" fill="#D1D7DD"/>
<path d="M29.2243 53.321C28.5228 53.321 27.9541 52.7523 27.9541 52.0508V36.8096C27.9541 36.1081 28.5228 35.5394 29.2243 35.5394C29.9257 35.5394 30.4944 36.1081 30.4944 36.8096V52.0508C30.4943 52.7523 29.9257 53.321 29.2243 53.321Z" fill="#FAFAFA"/>
<path d="M34.3049 43.1607C33.9678 43.1613 33.6443 43.0279 33.4056 42.7898L29.2244 38.6061L25.0432 42.7898C24.5387 43.2772 23.7346 43.2631 23.2472 42.7586C22.7718 42.2664 22.7718 41.4861 23.2472 40.9938L28.3277 35.9134C28.8236 35.4175 29.6276 35.4175 30.1237 35.9134L35.2041 40.9938C35.6993 41.4906 35.6981 42.2948 35.2013 42.79C34.9634 43.0273 34.641 43.1606 34.3049 43.1607Z" fill="#FAFAFA"/>
</svg>
