<svg width="109" height="35" viewBox="0 0 109 35" fill="none" xmlns="http://www.w3.org/2000/svg">
<path d="M50.81 22H52.82V17.365L56.18 11.275H54.23L51.875 15.715L49.46 11.275H47.255L50.81 17.35V22ZM59.8224 20.74C58.4424 20.74 57.6474 19.735 57.6474 18.13V18.01C57.6474 16.39 58.4724 15.415 59.8224 15.415C61.1724 15.415 61.9824 16.405 61.9824 18.025V18.13C61.9824 19.735 61.1724 20.74 59.8224 20.74ZM59.8074 22.15C62.1174 22.15 63.8424 20.56 63.8424 18.115V17.995C63.8424 15.595 62.1174 13.99 59.8224 13.99C57.5124 13.99 55.7874 15.61 55.7874 18.04V18.16C55.7874 20.545 57.4974 22.15 59.8074 22.15ZM68.1073 22.15C69.3823 22.15 70.2073 21.535 70.5973 20.77V22H72.4123V14.155H70.5973V18.82C70.5973 20.065 69.7423 20.695 68.7673 20.695C67.7173 20.695 67.2223 20.155 67.2223 18.97V14.155H65.4073V19.18C65.4073 21.265 66.5623 22.15 68.1073 22.15ZM76.8594 22H78.8694V12.85H81.8544V11.275H73.8744V12.85H76.8594V22ZM85.1142 22.15C86.3892 22.15 87.2142 21.535 87.6042 20.77V22H89.4192V14.155H87.6042V18.82C87.6042 20.065 86.7492 20.695 85.7742 20.695C84.7242 20.695 84.2292 20.155 84.2292 18.97V14.155H82.4142V19.18C82.4142 21.265 83.5692 22.15 85.1142 22.15ZM95.9512 22.15C97.9762 22.15 99.4312 20.62 99.4312 18.1V17.98C99.4312 15.445 97.9162 13.99 95.9512 13.99C94.7962 13.99 93.8212 14.665 93.3862 15.415V10.525H91.5712V22H93.3862V20.74C93.8062 21.535 94.7062 22.15 95.9512 22.15ZM95.5012 20.71C94.1812 20.71 93.3262 19.885 93.3262 18.13V18.01C93.3262 16.27 94.2262 15.415 95.4862 15.415C96.6712 15.415 97.5712 16.27 97.5712 18.01V18.13C97.5712 19.81 96.8362 20.71 95.5012 20.71ZM104.513 22.15C106.523 22.15 107.858 21.25 108.113 19.6H106.358C106.223 20.365 105.653 20.8 104.558 20.8C103.208 20.8 102.458 19.96 102.398 18.475H108.143V17.95C108.143 15.145 106.388 13.99 104.438 13.99C102.203 13.99 100.538 15.61 100.538 18.04V18.16C100.538 20.635 102.203 22.15 104.513 22.15ZM102.428 17.26C102.608 16.045 103.343 15.31 104.438 15.31C105.563 15.31 106.253 15.91 106.343 17.26H102.428Z" fill="#2C2F34"/>
<circle cx="17.5" cy="17.5" r="17.5" fill="url(#paint0_linear)"/>
<path d="M27.5617 12.8236C27.4422 12.3737 27.2078 11.9634 26.882 11.6337C26.5563 11.3041 26.1505 11.0667 25.7055 10.9453C24.0672 10.5 17.5 10.5 17.5 10.5C17.5 10.5 10.9328 10.5 9.29453 10.9429C8.84927 11.0639 8.44334 11.3012 8.11751 11.6309C7.79169 11.9606 7.55744 12.3711 7.43828 12.8213C7 14.4793 7 17.9375 7 17.9375C7 17.9375 7 21.3957 7.43828 23.0514C7.67969 23.9657 8.39219 24.6857 9.29453 24.9297C10.9328 25.375 17.5 25.375 17.5 25.375C17.5 25.375 24.0672 25.375 25.7055 24.9297C26.6102 24.6857 27.3203 23.9657 27.5617 23.0514C28 21.3957 28 17.9375 28 17.9375C28 17.9375 28 14.4793 27.5617 12.8236ZM15.4141 21.1115V14.7635L20.8516 17.9138L15.4141 21.1115Z" fill="white"/>
<defs>
<linearGradient id="paint0_linear" x1="2.66083" y1="6.52857" x2="29.6861" y2="30.3654" gradientUnits="userSpaceOnUse">
<stop stop-color="#DF3388"/>
<stop offset="1" stop-color="#63C2DC"/>
</linearGradient>
</defs>
</svg>
