<svg width="40" height="40" viewBox="0 0 40 40" fill="none" xmlns="http://www.w3.org/2000/svg">
<circle cx="20" cy="20" r="20" fill="#97A2B0"/>
<path d="M25.885 20.1547C25.8741 18.2694 26.714 16.8486 28.4102 15.8009C27.4615 14.4187 26.0263 13.6586 24.1345 13.512C22.3432 13.3683 20.3834 14.5735 19.6658 14.5735C18.9074 14.5735 17.1732 13.5618 15.8087 13.5618C12.9927 13.606 10 15.8451 10 20.4007C10 21.7469 10.2419 23.1374 10.7258 24.5693C11.3727 26.4546 13.7049 31.0737 16.1376 30.9991C17.4097 30.9687 18.3094 30.0814 19.9648 30.0814C21.5712 30.0814 22.403 30.9991 23.8219 30.9991C26.2764 30.9632 28.3857 26.7642 29 24.8734C25.7083 23.295 25.885 20.2514 25.885 20.1547ZM23.0282 11.7235C24.4063 10.0594 24.2813 8.54457 24.2405 8C23.0227 8.07187 21.6147 8.84312 20.8129 9.79128C19.9295 10.8085 19.4103 12.0663 19.5217 13.4844C20.8373 13.5867 22.0388 12.8984 23.0282 11.7235Z" fill="white"/>
</svg>
