<svg width="16" height="17" viewBox="0 0 16 17" fill="none" xmlns="http://www.w3.org/2000/svg">
<path d="M1 3.99902H2.5H14.5" stroke="#F91956" stroke-width="1.5" stroke-linecap="round" stroke-linejoin="round"/>
<path d="M4.75293 4V2.5C4.75293 2.10218 4.91097 1.72064 5.19227 1.43934C5.47357 1.15804 5.85511 1 6.25293 1H9.25293C9.65076 1 10.0323 1.15804 10.3136 1.43934C10.5949 1.72064 10.7529 2.10218 10.7529 2.5V4M13.0029 4V14.5C13.0029 14.8978 12.8449 15.2794 12.5636 15.5607C12.2823 15.842 11.9008 16 11.5029 16H4.00293C3.60511 16 3.22357 15.842 2.94227 15.5607C2.66096 15.2794 2.50293 14.8978 2.50293 14.5V4H13.0029Z" stroke="#F91956" stroke-width="1.5" stroke-linecap="round" stroke-linejoin="round"/>
<path d="M6.24902 7.74902V12.249" stroke="#F91956" stroke-width="1.5" stroke-linecap="round" stroke-linejoin="round"/>
<path d="M9.24805 7.74902V12.249" stroke="#F91956" stroke-width="1.5" stroke-linecap="round" stroke-linejoin="round"/>
</svg>
