<svg width="24" height="25" viewBox="0 0 24 25" fill="none" xmlns="http://www.w3.org/2000/svg">
<path d="M5 7.625H6.5H18.5" stroke="white" stroke-width="1.5" stroke-linecap="round" stroke-linejoin="round"/>
<path d="M8.75195 7.62422V6.16172C8.75195 5.77384 8.90999 5.40185 9.19129 5.12758C9.4726 4.8533 9.85413 4.69922 10.252 4.69922H13.252C13.6498 4.69922 14.0313 4.8533 14.3126 5.12758C14.5939 5.40185 14.752 5.77384 14.752 6.16172V7.62422M17.002 7.62422V17.8617C17.002 18.2496 16.8439 18.6216 16.5626 18.8959C16.2813 19.1701 15.8998 19.3242 15.502 19.3242H8.00195C7.60413 19.3242 7.2226 19.1701 6.94129 18.8959C6.65999 18.6216 6.50195 18.2496 6.50195 17.8617V7.62422H17.002Z" stroke="white" stroke-width="1.5" stroke-linecap="round" stroke-linejoin="round"/>
<path d="M10.25 11.2812V15.6687" stroke="white" stroke-width="1.5" stroke-linecap="round" stroke-linejoin="round"/>
<path d="M13.248 11.2812V15.6687" stroke="white" stroke-width="1.5" stroke-linecap="round" stroke-linejoin="round"/>
</svg>
