<svg width="24" height="24" viewBox="0 0 24 24" fill="none" xmlns="http://www.w3.org/2000/svg">
<path d="M16.0816 10.0377L16.4351 9.68413L16.0816 9.33058L14.6676 7.91658L14.314 7.56302L13.9604 7.91658L4.64645 17.2306L4.5 17.377V17.5841V18.9981V19.4981H5H6.414H6.62111L6.76755 19.3517L16.0816 10.0377ZM16.7884 8.62368L17.142 8.97724L17.4956 8.62368L18.9096 7.20968L19.2631 6.85613L18.9096 6.50258L17.4956 5.08858L17.142 4.73502L16.7884 5.08858L15.3744 6.50258L15.0209 6.85613L15.3744 7.20968L16.7884 8.62368ZM20.3244 7.20963L7.03589 20.4981H3.5V16.9622L16.7885 3.67374C16.7885 3.67372 16.7885 3.6737 16.7886 3.67368C16.8823 3.57998 17.0094 3.52734 17.142 3.52734C17.2746 3.52734 17.4017 3.57998 17.4954 3.67368C17.4955 3.6737 17.4955 3.67372 17.4955 3.67374L20.3244 6.50263C20.4181 6.5964 20.4708 6.72355 20.4708 6.85613C20.4708 6.98871 20.4181 7.11587 20.3244 7.20963Z" fill="#1CE4F0" stroke="#D9D1D8"/>
</svg>
