<svg width="40" height="40" viewBox="0 0 40 40" fill="none" xmlns="http://www.w3.org/2000/svg">
<circle cx="20" cy="20" r="20" fill="#97A2B0"/>
<path fill-rule="evenodd" clip-rule="evenodd" d="M23.5365 14.3237L27.181 11.34C25.2327 9.72234 22.7298 8.75 20.0001 8.75C15.6521 8.75 11.8803 11.2164 10.0079 14.8263H10.0085L10.0089 14.8266L10.0085 14.8265H10.0079C9.2037 16.3756 8.75 18.1348 8.75 20.0004C8.75 21.9296 9.23525 23.745 10.0907 25.3318L10.0912 25.3318C11.9914 28.8557 15.7163 31.2503 20.0005 31.2503C22.6665 31.2503 25.1156 30.323 27.0436 28.7734L27.0436 28.7734C29.0257 27.1798 30.4566 24.9281 31.0042 22.3494C31.1655 21.5915 31.2502 20.8059 31.2502 20.0004C31.2502 19.2821 31.1828 18.5793 31.0536 17.8988H26.3509H20.2474V22.3494H26.2631C25.7217 23.7944 24.6939 25.0016 23.3787 25.773L23.3786 25.7729C22.3878 26.3546 21.2331 26.6878 20.0005 26.6878C17.133 26.6878 14.687 24.8828 13.7369 22.3472L13.7365 22.3476L13.7365 22.3474C13.4621 21.6174 13.3125 20.8262 13.3124 20.0004C13.3124 19.2394 13.4398 18.5082 13.6734 17.827L13.6732 17.8265L13.6735 17.8267C14.5759 15.2002 17.0677 13.3124 20.0001 13.3124C21.2988 13.3124 22.511 13.6827 23.5365 14.3237Z" fill="white"/>
</svg>
