<svg width="40" height="40" viewBox="0 0 40 40" fill="none" xmlns="http://www.w3.org/2000/svg">
<circle cx="20" cy="20" r="20" fill="#97A2B0"/>
<path d="M29.9957 28.3132V28.3124H30.0007V20.9774C30.0007 17.389 29.2282 14.6249 25.0332 14.6249C23.0165 14.6249 21.6632 15.7315 21.1107 16.7807H21.0523V14.9599H17.0748V28.3124H21.2165V21.7007C21.2165 19.9599 21.5465 18.2765 23.7023 18.2765C25.8265 18.2765 25.8582 20.2632 25.8582 21.8124V28.3132H29.9957Z" fill="white"/>
<path d="M10.3304 14.9608H14.4771V28.3133H10.3304V14.9608Z" fill="white"/>
<path d="M12.4018 8.31311C11.076 8.31311 10.0001 9.38894 10.0001 10.7148C10.0001 12.0406 11.076 13.1389 12.4018 13.1389C13.7276 13.1389 14.8035 12.0406 14.8035 10.7148C14.8026 9.38894 13.7268 8.31311 12.4018 8.31311V8.31311Z" fill="white"/>
</svg>
