<svg width="40" height="40" viewBox="0 0 40 40" fill="none" xmlns="http://www.w3.org/2000/svg">
<circle cx="20" cy="20" r="20" fill="#97A2B0"/>
<path d="M30.5768 13.3219C29.7759 13.6732 28.9224 13.9061 28.0326 14.0192C28.948 13.4726 29.6466 12.6138 29.9751 11.5786C29.1216 12.0874 28.1793 12.4469 27.1751 12.6474C26.3647 11.7845 25.2097 11.2501 23.9497 11.2501C21.505 11.2501 19.5369 13.2344 19.5369 15.6669C19.5369 16.0169 19.5666 16.3534 19.6393 16.6738C15.9683 16.4948 12.72 14.7353 10.5378 12.0551C10.1569 12.7161 9.93341 13.4726 9.93341 14.2871C9.93341 15.8163 10.7209 17.1719 11.8948 17.9567C11.1853 17.9433 10.4894 17.7373 9.89975 17.4129C9.89975 17.4263 9.89975 17.4438 9.89975 17.4613C9.89975 19.6071 11.4303 21.3894 13.4375 21.8C13.078 21.8983 12.6863 21.9454 12.2798 21.9454C11.9971 21.9454 11.7117 21.9292 11.4438 21.87C12.0159 23.6187 13.6394 24.9043 15.5698 24.946C14.0675 26.1212 12.16 26.8293 10.0949 26.8293C9.73283 26.8293 9.38552 26.8131 9.03821 26.7687C10.9942 28.0301 13.3123 28.7503 15.8121 28.7503C23.9376 28.7503 28.3799 22.0194 28.3799 16.1852C28.3799 15.99 28.3732 15.8015 28.3637 15.6144C29.2401 14.9925 29.9765 14.2157 30.5768 13.3219Z" fill="white"/>
</svg>
