<svg width="138" height="18" viewBox="0 0 138 18" fill="none" xmlns="http://www.w3.org/2000/svg">
<path d="M8.51043 2.63712C8.19572 2.45026 7.80407 2.45026 7.48936 2.63711L3.15597 5.21003C2.85252 5.39021 2.6665 5.71698 2.6665 6.06989V11.2647C2.6665 11.6176 2.85252 11.9444 3.15597 12.1246L7.48935 14.6975C7.80407 14.8844 8.19572 14.8844 8.51044 14.6975L12.8437 12.1246C13.1472 11.9444 13.3332 11.6176 13.3332 11.2647V6.06988C13.3332 5.71698 13.1472 5.39021 12.8437 5.21003L8.51043 2.63712ZM12.2505 5.71486L7.9999 8.23757L3.74921 5.71486L7.9999 3.19104L12.2505 5.71486ZM3.38823 6.70882C3.38823 6.55379 3.55699 6.45771 3.69031 6.53683L7.54111 8.82224C7.60182 8.85827 7.63903 8.92364 7.63903 8.99423V13.578C7.63903 13.733 7.47024 13.8291 7.33693 13.75L3.48612 11.4636C3.42543 11.4275 3.38823 11.3622 3.38823 11.2916V6.70882ZM8.66287 13.75C8.52955 13.8291 8.36076 13.733 8.36076 13.578V8.99423C8.36076 8.92364 8.39798 8.85827 8.45868 8.82224L12.3094 6.53686C12.4427 6.45774 12.6114 6.55382 12.6114 6.70885V11.2916C12.6114 11.3622 12.5742 11.4276 12.5136 11.4636L8.66287 13.75Z" fill="white"/>
<path d="M26.958 12.138H23.066L22.422 14H20.364L23.878 4.214H26.16L29.674 14H27.602L26.958 12.138ZM26.426 10.57L25.012 6.482L23.598 10.57H26.426ZM36.0275 14L33.8715 10.192H32.9475V14H30.9875V4.228H34.6555C35.4115 4.228 36.0555 4.36333 36.5875 4.634C37.1195 4.89533 37.5162 5.25467 37.7775 5.712C38.0482 6.16 38.1835 6.664 38.1835 7.224C38.1835 7.868 37.9968 8.45133 37.6235 8.974C37.2502 9.48733 36.6948 9.842 35.9575 10.038L38.2955 14H36.0275ZM32.9475 8.722H34.5855C35.1175 8.722 35.5142 8.596 35.7755 8.344C36.0368 8.08267 36.1675 7.72333 36.1675 7.266C36.1675 6.818 36.0368 6.47267 35.7755 6.23C35.5142 5.978 35.1175 5.852 34.5855 5.852H32.9475V8.722ZM48.8362 8.988C49.3868 9.09067 49.8395 9.366 50.1942 9.814C50.5488 10.262 50.7262 10.7753 50.7262 11.354C50.7262 11.8767 50.5955 12.3387 50.3342 12.74C50.0822 13.132 49.7135 13.44 49.2282 13.664C48.7428 13.888 48.1688 14 47.5062 14H43.2922V4.228H47.3242C47.9868 4.228 48.5562 4.33533 49.0322 4.55C49.5175 4.76467 49.8815 5.06333 50.1242 5.446C50.3762 5.82867 50.5022 6.26267 50.5022 6.748C50.5022 7.31733 50.3482 7.79333 50.0402 8.176C49.7415 8.55867 49.3402 8.82933 48.8362 8.988ZM45.2522 8.26H47.0442C47.5108 8.26 47.8702 8.15733 48.1222 7.952C48.3742 7.73733 48.5002 7.434 48.5002 7.042C48.5002 6.65 48.3742 6.34667 48.1222 6.132C47.8702 5.91733 47.5108 5.81 47.0442 5.81H45.2522V8.26ZM47.2262 12.404C47.7022 12.404 48.0708 12.292 48.3322 12.068C48.6028 11.844 48.7382 11.5267 48.7382 11.116C48.7382 10.696 48.5982 10.3693 48.3182 10.136C48.0382 9.89333 47.6602 9.772 47.1842 9.772H45.2522V12.404H47.2262ZM51.7843 10.094C51.7843 9.31 51.9383 8.61467 52.2463 8.008C52.5636 7.40133 52.9883 6.93467 53.5203 6.608C54.0616 6.28133 54.6636 6.118 55.3263 6.118C55.9049 6.118 56.4089 6.23467 56.8383 6.468C57.2769 6.70133 57.6269 6.99533 57.8883 7.35V6.244H59.8623V14H57.8883V12.866C57.6363 13.23 57.2863 13.5333 56.8383 13.776C56.3996 14.0093 55.8909 14.126 55.3123 14.126C54.6589 14.126 54.0616 13.958 53.5203 13.622C52.9883 13.286 52.5636 12.8147 52.2463 12.208C51.9383 11.592 51.7843 10.8873 51.7843 10.094ZM57.8883 10.122C57.8883 9.646 57.7949 9.24 57.6083 8.904C57.4216 8.55867 57.1696 8.29733 56.8523 8.12C56.5349 7.93333 56.1943 7.84 55.8303 7.84C55.4663 7.84 55.1303 7.92867 54.8223 8.106C54.5143 8.28333 54.2623 8.54467 54.0663 8.89C53.8796 9.226 53.7863 9.62733 53.7863 10.094C53.7863 10.5607 53.8796 10.9713 54.0663 11.326C54.2623 11.6713 54.5143 11.9373 54.8223 12.124C55.1396 12.3107 55.4756 12.404 55.8303 12.404C56.1943 12.404 56.5349 12.3153 56.8523 12.138C57.1696 11.9513 57.4216 11.69 57.6083 11.354C57.7949 11.0087 57.8883 10.598 57.8883 10.122ZM61.2725 10.122C61.2725 9.31933 61.4359 8.61933 61.7625 8.022C62.0892 7.41533 62.5419 6.94867 63.1205 6.622C63.6992 6.286 64.3619 6.118 65.1085 6.118C66.0699 6.118 66.8632 6.36067 67.4885 6.846C68.1232 7.322 68.5479 7.994 68.7625 8.862H66.6485C66.5365 8.526 66.3452 8.26467 66.0745 8.078C65.8132 7.882 65.4865 7.784 65.0945 7.784C64.5345 7.784 64.0912 7.98933 63.7645 8.4C63.4379 8.80133 63.2745 9.37533 63.2745 10.122C63.2745 10.8593 63.4379 11.4333 63.7645 11.844C64.0912 12.2453 64.5345 12.446 65.0945 12.446C65.8879 12.446 66.4059 12.0913 66.6485 11.382H68.7625C68.5479 12.222 68.1232 12.8893 67.4885 13.384C66.8539 13.8787 66.0605 14.126 65.1085 14.126C64.3619 14.126 63.6992 13.9627 63.1205 13.636C62.5419 13.3 62.0892 12.8333 61.7625 12.236C61.4359 11.6293 61.2725 10.9247 61.2725 10.122ZM74.7904 14L72.1584 10.696V14H70.1984V3.64H72.1584V9.534L74.7624 6.244H77.3104L73.8944 10.136L77.3384 14H74.7904ZM81.4122 6.118C81.9909 6.118 82.4995 6.23467 82.9382 6.468C83.3769 6.692 83.7222 6.986 83.9742 7.35V6.244H85.9482V14.056C85.9482 14.7747 85.8035 15.414 85.5142 15.974C85.2249 16.5433 84.7909 16.9913 84.2122 17.318C83.6335 17.654 82.9335 17.822 82.1122 17.822C81.0109 17.822 80.1055 17.5653 79.3962 17.052C78.6962 16.5387 78.2995 15.8387 78.2062 14.952H80.1522C80.2549 15.3067 80.4742 15.5867 80.8102 15.792C81.1555 16.0067 81.5709 16.114 82.0562 16.114C82.6255 16.114 83.0875 15.9413 83.4422 15.596C83.7969 15.26 83.9742 14.7467 83.9742 14.056V12.852C83.7222 13.216 83.3722 13.5193 82.9242 13.762C82.4855 14.0047 81.9815 14.126 81.4122 14.126C80.7589 14.126 80.1615 13.958 79.6202 13.622C79.0789 13.286 78.6495 12.8147 78.3322 12.208C78.0242 11.592 77.8702 10.8873 77.8702 10.094C77.8702 9.31 78.0242 8.61467 78.3322 8.008C78.6495 7.40133 79.0742 6.93467 79.6062 6.608C80.1475 6.28133 80.7495 6.118 81.4122 6.118ZM83.9742 10.122C83.9742 9.646 83.8809 9.24 83.6942 8.904C83.5075 8.55867 83.2555 8.29733 82.9382 8.12C82.6209 7.93333 82.2802 7.84 81.9162 7.84C81.5522 7.84 81.2162 7.92867 80.9082 8.106C80.6002 8.28333 80.3482 8.54467 80.1522 8.89C79.9655 9.226 79.8722 9.62733 79.8722 10.094C79.8722 10.5607 79.9655 10.9713 80.1522 11.326C80.3482 11.6713 80.6002 11.9373 80.9082 12.124C81.2255 12.3107 81.5615 12.404 81.9162 12.404C82.2802 12.404 82.6209 12.3153 82.9382 12.138C83.2555 11.9513 83.5075 11.69 83.6942 11.354C83.8809 11.0087 83.9742 10.598 83.9742 10.122ZM89.8225 7.448C90.0745 7.03733 90.4012 6.71533 90.8025 6.482C91.2132 6.24867 91.6798 6.132 92.2025 6.132V8.19H91.6845C91.0685 8.19 90.6018 8.33467 90.2845 8.624C89.9765 8.91333 89.8225 9.41733 89.8225 10.136V14H87.8625V6.244H89.8225V7.448ZM96.9666 14.126C96.22 14.126 95.548 13.9627 94.9506 13.636C94.3533 13.3 93.882 12.8287 93.5366 12.222C93.2006 11.6153 93.0326 10.9153 93.0326 10.122C93.0326 9.32867 93.2053 8.62867 93.5506 8.022C93.9053 7.41533 94.386 6.94867 94.9926 6.622C95.5993 6.286 96.276 6.118 97.0226 6.118C97.7693 6.118 98.446 6.286 99.0526 6.622C99.6593 6.94867 100.135 7.41533 100.481 8.022C100.835 8.62867 101.013 9.32867 101.013 10.122C101.013 10.9153 100.831 11.6153 100.467 12.222C100.112 12.8287 99.6266 13.3 99.0106 13.636C98.404 13.9627 97.7226 14.126 96.9666 14.126ZM96.9666 12.418C97.3213 12.418 97.6526 12.334 97.9606 12.166C98.278 11.9887 98.53 11.7273 98.7166 11.382C98.9033 11.0367 98.9966 10.6167 98.9966 10.122C98.9966 9.38467 98.8006 8.82 98.4086 8.428C98.026 8.02667 97.5546 7.826 96.9946 7.826C96.4346 7.826 95.9633 8.02667 95.5806 8.428C95.2073 8.82 95.0206 9.38467 95.0206 10.122C95.0206 10.8593 95.2026 11.4287 95.5666 11.83C95.94 12.222 96.4066 12.418 96.9666 12.418ZM109.772 6.244V14H107.798V13.02C107.546 13.356 107.215 13.622 106.804 13.818C106.403 14.0047 105.964 14.098 105.488 14.098C104.882 14.098 104.345 13.972 103.878 13.72C103.412 13.4587 103.043 13.0807 102.772 12.586C102.511 12.082 102.38 11.4847 102.38 10.794V6.244H104.34V10.514C104.34 11.13 104.494 11.606 104.802 11.942C105.11 12.2687 105.53 12.432 106.062 12.432C106.604 12.432 107.028 12.2687 107.336 11.942C107.644 11.606 107.798 11.13 107.798 10.514V6.244H109.772ZM116.004 6.132C116.928 6.132 117.675 6.426 118.244 7.014C118.814 7.59267 119.098 8.40467 119.098 9.45V14H117.138V9.716C117.138 9.1 116.984 8.62867 116.676 8.302C116.368 7.966 115.948 7.798 115.416 7.798C114.875 7.798 114.446 7.966 114.128 8.302C113.82 8.62867 113.666 9.1 113.666 9.716V14H111.706V6.244H113.666V7.21C113.928 6.874 114.259 6.61267 114.66 6.426C115.071 6.23 115.519 6.132 116.004 6.132ZM120.458 10.094C120.458 9.31 120.612 8.61467 120.92 8.008C121.237 7.40133 121.667 6.93467 122.208 6.608C122.749 6.28133 123.351 6.118 124.014 6.118C124.518 6.118 124.999 6.23 125.456 6.454C125.913 6.66867 126.277 6.958 126.548 7.322V3.64H128.536V14H126.548V12.852C126.305 13.2347 125.965 13.5427 125.526 13.776C125.087 14.0093 124.579 14.126 124 14.126C123.347 14.126 122.749 13.958 122.208 13.622C121.667 13.286 121.237 12.8147 120.92 12.208C120.612 11.592 120.458 10.8873 120.458 10.094ZM126.562 10.122C126.562 9.646 126.469 9.24 126.282 8.904C126.095 8.55867 125.843 8.29733 125.526 8.12C125.209 7.93333 124.868 7.84 124.504 7.84C124.14 7.84 123.804 7.92867 123.496 8.106C123.188 8.28333 122.936 8.54467 122.74 8.89C122.553 9.226 122.46 9.62733 122.46 10.094C122.46 10.5607 122.553 10.9713 122.74 11.326C122.936 11.6713 123.188 11.9373 123.496 12.124C123.813 12.3107 124.149 12.404 124.504 12.404C124.868 12.404 125.209 12.3153 125.526 12.138C125.843 11.9513 126.095 11.69 126.282 11.354C126.469 11.0087 126.562 10.598 126.562 10.122ZM133.418 14.126C132.784 14.126 132.214 14.014 131.71 13.79C131.206 13.5567 130.805 13.244 130.506 12.852C130.217 12.46 130.058 12.026 130.03 11.55H132.004C132.042 11.8487 132.186 12.096 132.438 12.292C132.7 12.488 133.022 12.586 133.404 12.586C133.778 12.586 134.067 12.5113 134.272 12.362C134.487 12.2127 134.594 12.0213 134.594 11.788C134.594 11.536 134.464 11.3493 134.202 11.228C133.95 11.0973 133.544 10.9573 132.984 10.808C132.406 10.668 131.93 10.5233 131.556 10.374C131.192 10.2247 130.875 9.996 130.604 9.688C130.343 9.38 130.212 8.96467 130.212 8.442C130.212 8.01267 130.334 7.62067 130.576 7.266C130.828 6.91133 131.183 6.63133 131.64 6.426C132.107 6.22067 132.653 6.118 133.278 6.118C134.202 6.118 134.94 6.35133 135.49 6.818C136.041 7.27533 136.344 7.896 136.4 8.68H134.524C134.496 8.372 134.366 8.12933 134.132 7.952C133.908 7.76533 133.605 7.672 133.222 7.672C132.868 7.672 132.592 7.73733 132.396 7.868C132.21 7.99867 132.116 8.18067 132.116 8.414C132.116 8.67533 132.247 8.876 132.508 9.016C132.77 9.14667 133.176 9.282 133.726 9.422C134.286 9.562 134.748 9.70667 135.112 9.856C135.476 10.0053 135.789 10.2387 136.05 10.556C136.321 10.864 136.461 11.2747 136.47 11.788C136.47 12.236 136.344 12.6373 136.092 12.992C135.85 13.3467 135.495 13.6267 135.028 13.832C134.571 14.028 134.034 14.126 133.418 14.126Z" fill="white"/>
</svg>
