<svg width="63" height="18" viewBox="0 0 63 18" fill="none" xmlns="http://www.w3.org/2000/svg">
<path fill-rule="evenodd" clip-rule="evenodd" d="M9.51973 3.43333C9.51973 3.19401 9.32572 3 9.08639 3C8.84707 3 8.65306 3.19401 8.65306 3.43333V4.27984C8.65306 4.51916 8.84707 4.71317 9.08639 4.71317C9.32572 4.71317 9.51973 4.51916 9.51973 4.27984V3.43333ZM9.08634 6.40605C8.39064 6.40605 7.82666 6.97003 7.82666 7.66573C7.82666 8.36143 8.39064 8.92541 9.08634 8.92541C9.78204 8.92541 10.346 8.36143 10.346 7.66573C10.346 6.97003 9.78204 6.40605 9.08634 6.40605ZM6.95999 7.66573C6.95999 6.49138 7.91199 5.53939 9.08634 5.53939C10.2607 5.53939 11.2127 6.49138 11.2127 7.66573C11.2127 8.84008 10.2607 9.79208 9.08634 9.79208C7.91199 9.79208 6.95999 8.84008 6.95999 7.66573ZM4.42061 7.66576C4.42061 7.42643 4.61462 7.23242 4.85394 7.23242H5.70044C5.93977 7.23242 6.13378 7.42643 6.13378 7.66576C6.13378 7.90508 5.93977 8.09909 5.70044 8.09909H4.85394C4.61461 8.09909 4.42061 7.90508 4.42061 7.66576ZM9.08639 10.6185C9.32572 10.6185 9.51973 10.8125 9.51973 11.0518V11.8983C9.51973 12.1377 9.32572 12.3317 9.08639 12.3317C8.84707 12.3317 8.65306 12.1377 8.65306 11.8983V11.0518C8.65306 10.8125 8.84707 10.6185 9.08639 10.6185ZM12.4724 7.23242C12.2331 7.23242 12.0391 7.42643 12.0391 7.66576C12.0391 7.90508 12.2331 8.09909 12.4724 8.09909H13.3189C13.5583 8.09909 13.7523 7.90508 13.7523 7.66576C13.7523 7.42643 13.5583 7.23242 13.3189 7.23242H12.4724ZM2.12691 14.6248C1.95769 14.4555 1.9577 14.1812 2.12693 14.0119L6.38576 9.75335C6.55499 9.58413 6.82936 9.58414 6.99858 9.75337C7.16781 9.9226 7.1678 10.197 6.99857 10.3662L2.73974 14.6248C2.57051 14.794 2.29613 14.794 2.12691 14.6248ZM6.40003 4.36696C6.2308 4.19773 5.95643 4.19773 5.78721 4.36696C5.61798 4.53619 5.61798 4.81056 5.78721 4.97979L6.38578 5.57835C6.555 5.74758 6.82937 5.74758 6.9986 5.57835C7.16783 5.40913 7.16783 5.13476 6.9986 4.96553L6.40003 4.36696ZM11.1743 9.75335C11.3435 9.58413 11.6178 9.58413 11.7871 9.75335L12.3856 10.3519C12.5549 10.5211 12.5549 10.7955 12.3856 10.9647C12.2164 11.134 11.942 11.134 11.7728 10.9647L11.1743 10.3662C11.005 10.197 11.005 9.92258 11.1743 9.75335ZM11.1743 4.9654C11.0051 5.13462 11.0051 5.409 11.1743 5.57822C11.3435 5.74745 11.6179 5.74745 11.7871 5.57822L12.3857 4.97965C12.5549 4.81043 12.5549 4.53606 12.3857 4.36683C12.2165 4.1976 11.9421 4.1976 11.7729 4.36683L11.1743 4.9654Z" fill="white"/>
<path d="M27 4.228V5.81H22.926V8.316H26.048V9.87H22.926V14H20.966V4.228H27ZM29.3838 5.32C29.0385 5.32 28.7492 5.21267 28.5158 4.998C28.2918 4.774 28.1798 4.49867 28.1798 4.172C28.1798 3.84533 28.2918 3.57467 28.5158 3.36C28.7492 3.136 29.0385 3.024 29.3838 3.024C29.7292 3.024 30.0138 3.136 30.2378 3.36C30.4712 3.57467 30.5878 3.84533 30.5878 4.172C30.5878 4.49867 30.4712 4.774 30.2378 4.998C30.0138 5.21267 29.7292 5.32 29.3838 5.32ZM30.3498 6.244V14H28.3898V6.244H30.3498ZM34.2463 3.64V14H32.2863V3.64H34.2463ZM38.4648 7.854V11.606C38.4648 11.8673 38.5255 12.0587 38.6468 12.18C38.7775 12.292 38.9921 12.348 39.2908 12.348H40.2008V14H38.9688C37.3168 14 36.4908 13.1973 36.4908 11.592V7.854H35.5668V6.244H36.4908V4.326H38.4648V6.244H40.2008V7.854H38.4648ZM48.8205 9.954C48.8205 10.234 48.8019 10.486 48.7645 10.71H43.0945C43.1412 11.27 43.3372 11.7087 43.6825 12.026C44.0279 12.3433 44.4525 12.502 44.9565 12.502C45.6845 12.502 46.2025 12.1893 46.5105 11.564H48.6245C48.4005 12.3107 47.9712 12.9267 47.3365 13.412C46.7019 13.888 45.9225 14.126 44.9985 14.126C44.2519 14.126 43.5799 13.9627 42.9825 13.636C42.3945 13.3 41.9325 12.8287 41.5965 12.222C41.2699 11.6153 41.1065 10.9153 41.1065 10.122C41.1065 9.31933 41.2699 8.61467 41.5965 8.008C41.9232 7.40133 42.3805 6.93467 42.9685 6.608C43.5565 6.28133 44.2332 6.118 44.9985 6.118C45.7359 6.118 46.3939 6.27667 46.9725 6.594C47.5605 6.91133 48.0132 7.364 48.3305 7.952C48.6572 8.53067 48.8205 9.198 48.8205 9.954ZM46.7905 9.394C46.7812 8.89 46.5992 8.48867 46.2445 8.19C45.8899 7.882 45.4559 7.728 44.9425 7.728C44.4572 7.728 44.0465 7.87733 43.7105 8.176C43.3839 8.46533 43.1832 8.87133 43.1085 9.394H46.7905ZM52.2112 7.448C52.4632 7.03733 52.7898 6.71533 53.1912 6.482C53.6018 6.24867 54.0685 6.132 54.5912 6.132V8.19H54.0732C53.4572 8.19 52.9905 8.33467 52.6732 8.624C52.3652 8.91333 52.2112 9.41733 52.2112 10.136V14H50.2512V6.244H52.2112V7.448ZM58.8793 14.126C58.2446 14.126 57.6753 14.014 57.1713 13.79C56.6673 13.5567 56.266 13.244 55.9673 12.852C55.678 12.46 55.5193 12.026 55.4913 11.55H57.4653C57.5026 11.8487 57.6473 12.096 57.8993 12.292C58.1606 12.488 58.4826 12.586 58.8653 12.586C59.2386 12.586 59.528 12.5113 59.7333 12.362C59.948 12.2127 60.0553 12.0213 60.0553 11.788C60.0553 11.536 59.9246 11.3493 59.6633 11.228C59.4113 11.0973 59.0053 10.9573 58.4453 10.808C57.8666 10.668 57.3906 10.5233 57.0173 10.374C56.6533 10.2247 56.336 9.996 56.0653 9.688C55.804 9.38 55.6733 8.96467 55.6733 8.442C55.6733 8.01267 55.7946 7.62067 56.0373 7.266C56.2893 6.91133 56.644 6.63133 57.1013 6.426C57.568 6.22067 58.114 6.118 58.7393 6.118C59.6633 6.118 60.4006 6.35133 60.9513 6.818C61.502 7.27533 61.8053 7.896 61.8613 8.68H59.9853C59.9573 8.372 59.8266 8.12933 59.5933 7.952C59.3693 7.76533 59.066 7.672 58.6833 7.672C58.3286 7.672 58.0533 7.73733 57.8573 7.868C57.6706 7.99867 57.5773 8.18067 57.5773 8.414C57.5773 8.67533 57.708 8.876 57.9693 9.016C58.2306 9.14667 58.6366 9.282 59.1873 9.422C59.7473 9.562 60.2093 9.70667 60.5733 9.856C60.9373 10.0053 61.25 10.2387 61.5113 10.556C61.782 10.864 61.922 11.2747 61.9313 11.788C61.9313 12.236 61.8053 12.6373 61.5533 12.992C61.3106 13.3467 60.956 13.6267 60.4893 13.832C60.032 14.028 59.4953 14.126 58.8793 14.126Z" fill="white"/>
</svg>
