<svg width="35" height="35" viewBox="0 0 35 35" fill="none" xmlns="http://www.w3.org/2000/svg">
<path d="M17.5 35C27.165 35 35 27.165 35 17.5C35 7.83502 27.165 0 17.5 0C7.83502 0 0 7.83502 0 17.5C0 27.165 7.83502 35 17.5 35Z" fill="white" fill-opacity="0.15"/>
<path fill-rule="evenodd" clip-rule="evenodd" d="M17.5 1C8.3873 1 1 8.3873 1 17.5C1 26.6127 8.3873 34 17.5 34C26.6127 34 34 26.6127 34 17.5C34 8.3873 26.6127 1 17.5 1ZM0 17.5C0 7.83502 7.83502 0 17.5 0C27.165 0 35 7.83502 35 17.5C35 27.165 27.165 35 17.5 35C7.83502 35 0 27.165 0 17.5Z" fill="white" fill-opacity="0.15"/>
<path d="M17.5 26C12.8055 26 9 22.1946 9 17.5C9 12.8055 12.8055 9 17.5 9C22.1946 9 26 12.8055 26 17.5C26 22.1946 22.1946 26 17.5 26ZM17.5 24.3C19.3035 24.3 21.0331 23.5836 22.3083 22.3083C23.5836 21.0331 24.3 19.3035 24.3 17.5C24.3 15.6965 23.5836 13.9669 22.3083 12.6917C21.0331 11.4164 19.3035 10.7 17.5 10.7C15.6965 10.7 13.9669 11.4164 12.6917 12.6917C11.4164 13.9669 10.7 15.6965 10.7 17.5C10.7 19.3035 11.4164 21.0331 12.6917 22.3083C13.9669 23.5836 15.6965 24.3 17.5 24.3V24.3ZM16.6526 20.9L13.046 17.2935L14.2479 16.0916L16.6526 18.4962L21.4602 13.6878L22.6629 14.8897L16.6526 20.9Z" fill="white"/>
<path d="M52.7751 11.32C54.0651 11.32 55.1301 11.64 55.9701 12.28C56.8101 12.91 57.3901 13.775 57.7101 14.875H56.2701C56.0001 14.175 55.5651 13.62 54.9651 13.21C54.3651 12.79 53.6301 12.58 52.7601 12.58C52.0701 12.58 51.4501 12.75 50.9001 13.09C50.3601 13.42 49.9301 13.9 49.6101 14.53C49.3001 15.15 49.1451 15.88 49.1451 16.72C49.1451 17.55 49.3001 18.275 49.6101 18.895C49.9301 19.515 50.3601 19.995 50.9001 20.335C51.4501 20.665 52.0701 20.83 52.7601 20.83C53.6301 20.83 54.3651 20.625 54.9651 20.215C55.5651 19.795 56.0001 19.235 56.2701 18.535H57.7101C57.3901 19.635 56.8101 20.505 55.9701 21.145C55.1301 21.775 54.0651 22.09 52.7751 22.09C51.7851 22.09 50.9101 21.865 50.1501 21.415C49.3901 20.955 48.7951 20.32 48.3651 19.51C47.9451 18.69 47.7351 17.76 47.7351 16.72C47.7351 15.67 47.9451 14.735 48.3651 13.915C48.7951 13.095 49.3901 12.46 50.1501 12.01C50.9101 11.55 51.7851 11.32 52.7751 11.32Z" fill="#E7D1E8"/>

</svg>
