<svg width="35" height="35" viewBox="0 0 35 35" fill="none" xmlns="http://www.w3.org/2000/svg">
<circle cx="17.5" cy="17.5" r="17.5" fill="white" fill-opacity="0.15"/>
<circle cx="17.5" cy="17.5" r="17" stroke="white" stroke-opacity="0.15"/>
<path d="M19.4156 16.5853C18.6648 15.8347 17.6466 15.4131 16.5849 15.4131C15.5233 15.4131 14.5051 15.8347 13.7543 16.5853L10.9227 19.4159C10.1718 20.1668 9.75 21.1852 9.75 22.2471C9.75 23.309 10.1718 24.3273 10.9227 25.0782C11.6736 25.8291 12.6919 26.2509 13.7538 26.2509C14.8157 26.2509 15.8341 25.8291 16.5849 25.0782L18.0003 23.6629M16.5849 19.4159C17.3358 20.1668 18.3542 20.5886 19.4161 20.5886C20.4779 20.5886 21.4963 20.1668 22.2472 19.4159L25.0779 16.5853C25.8168 15.832 26.2286 14.8174 26.2235 13.7621C26.2184 12.7069 25.797 11.6963 25.0508 10.9501C24.3046 10.2039 23.294 9.78246 22.2388 9.77739C21.1835 9.77232 20.1689 10.184 19.4156 10.923L18.0003 12.3384" stroke="white" stroke-width="2" stroke-linecap="round" stroke-linejoin="round"/>
</svg>
