<svg width="54" height="54" viewBox="0 0 54 54" fill="none" xmlns="http://www.w3.org/2000/svg">
<g filter="url(#filter0_d)">
<g filter="url(#filter1_b)">
<circle cx="27" cy="25" r="24" fill="#F91956"/>
</g>
<path d="M16.4893 15.7461L37.1808 33.1083L35.8952 34.6404L15.2037 17.2782L16.4893 15.7461Z" fill="white"/>
<path fill-rule="evenodd" clip-rule="evenodd" d="M17 21.3953V31C17 32.1046 17.8954 33 19 33H30.8299L28.4464 31H19L19 23.0735L17 21.3953ZM31.5578 31L33.3339 32.4903C33.7427 32.1241 34 31.5921 34 31V30.4384L32 28.7602V31H31.5578ZM20.3682 19H19V20.4627L17.0105 18.7934C17.0851 18.067 17.5484 17.4558 18.1889 17.1713L20.3682 19ZM32 26.1494V19H23.4797L21.0962 17H32C33.1046 17 34 17.8954 34 19V23L38 20V30L34 27V27.8276L32 26.1494Z" fill="white"/>
</g>
<defs>
<filter id="filter0_d" x="0" y="0" width="54" height="54" filterUnits="userSpaceOnUse" color-interpolation-filters="sRGB">
<feFlood flood-opacity="0" result="BackgroundImageFix"/>
<feColorMatrix in="SourceAlpha" type="matrix" values="0 0 0 0 0 0 0 0 0 0 0 0 0 0 0 0 0 0 127 0"/>
<feOffset dy="2"/>
<feGaussianBlur stdDeviation="1.5"/>
<feColorMatrix type="matrix" values="0 0 0 0 0 0 0 0 0 0 0 0 0 0 0 0 0 0 0.05 0"/>
<feBlend mode="normal" in2="BackgroundImageFix" result="effect1_dropShadow"/>
<feBlend mode="normal" in="SourceGraphic" in2="effect1_dropShadow" result="shape"/>
</filter>
<filter id="filter1_b" x="-13" y="-15" width="80" height="80" filterUnits="userSpaceOnUse" color-interpolation-filters="sRGB">
<feFlood flood-opacity="0" result="BackgroundImageFix"/>
<feGaussianBlur in="BackgroundImage" stdDeviation="8"/>
<feComposite in2="SourceAlpha" operator="in" result="effect1_backgroundBlur"/>
<feBlend mode="normal" in="SourceGraphic" in2="effect1_backgroundBlur" result="shape"/>
</filter>
</defs>
</svg>
