<svg width="24" height="24" viewBox="0 0 24 24" fill="none" xmlns="http://www.w3.org/2000/svg">
<path d="M5 7H6.5H18.5" stroke="#1CE4F0" stroke-width="1.5" stroke-linecap="round" stroke-linejoin="round"/>
<path d="M8.75293 7V5.5C8.75293 5.10218 8.91097 4.72064 9.19227 4.43934C9.47357 4.15804 9.85511 4 10.2529 4H13.2529C13.6508 4 14.0323 4.15804 14.3136 4.43934C14.5949 4.72064 14.7529 5.10218 14.7529 5.5V7M17.0029 7V17.5C17.0029 17.8978 16.8449 18.2794 16.5636 18.5607C16.2823 18.842 15.9008 19 15.5029 19H8.00293C7.60511 19 7.22357 18.842 6.94227 18.5607C6.66096 18.2794 6.50293 17.8978 6.50293 17.5V7H17.0029Z" stroke="#1CE4F0" stroke-width="1.5" stroke-linecap="round" stroke-linejoin="round"/>
<path d="M10.249 10.75V15.25" stroke="#1CE4F0" stroke-width="1.5" stroke-linecap="round" stroke-linejoin="round"/>
<path d="M13.248 10.75V15.25" stroke="#1CE4F0" stroke-width="1.5" stroke-linecap="round" stroke-linejoin="round"/>
</svg>
