<svg width="20" height="20" viewBox="0 0 20 20" fill="none" xmlns="http://www.w3.org/2000/svg">
<circle cx="10" cy="10" r="10" fill="white" fill-opacity="0.15"/>
<circle cx="10" cy="10" r="9.75" stroke="white" stroke-opacity="0.15" stroke-width="0.5"/>
<path fill-rule="evenodd" clip-rule="evenodd" d="M10.7938 6.25C10.7938 6.02563 10.5251 5.84375 10.1938 5.84375C9.86239 5.84375 9.59376 6.02563 9.59376 6.25V9.59375H6.25C6.02563 9.59375 5.84375 9.86238 5.84375 10.1937C5.84375 10.5251 6.02563 10.7937 6.25 10.7937H9.59376V13.75C9.59376 13.9744 9.86239 14.1562 10.1938 14.1562C10.5251 14.1562 10.7938 13.9744 10.7938 13.75V10.7937H13.75C13.9744 10.7937 14.1562 10.5251 14.1562 10.1937C14.1562 9.86238 13.9744 9.59375 13.75 9.59375H10.7938V6.25Z" fill="#0D979F"/>
</svg>
