<svg width="42" height="24" viewBox="0 0 42 24" fill="none" xmlns="http://www.w3.org/2000/svg">
<rect width="42" height="24" rx="12" fill="white"/>
<path d="M16.8996 15.8309L18.271 8.25195H20.4139L19.0853 15.8309H16.8996Z" fill="#16315D"/>
<path d="M16.8996 15.8309L18.6567 8.25195H20.4139L19.0853 15.8309H16.8996Z" fill="#16315D"/>
<path d="M26.8431 8.33684C26.4146 8.16842 25.7288 8 24.8717 8C22.7288 8 21.1859 9.05263 21.1859 10.5684C21.1859 11.7053 22.2573 12.2947 23.1145 12.6737C23.9716 13.0526 24.2288 13.3053 24.2288 13.6421C24.2288 14.1474 23.5431 14.4 22.9431 14.4C22.0859 14.4 21.6144 14.2737 20.8859 13.9789L20.5859 13.8526L20.2858 15.5789C20.8001 15.7895 21.743 16 22.7288 16C25.0002 16 26.5003 14.9474 26.5003 13.3474C26.5003 12.4632 25.9431 11.7895 24.6574 11.2421C23.8859 10.8632 23.4145 10.6526 23.4145 10.2737C23.4145 9.93684 23.8002 9.6 24.6574 9.6C25.386 9.6 25.9003 9.72632 26.286 9.89474L26.5003 9.97895L26.8431 8.33684Z" fill="#16315D"/>
<path d="M26.8431 8.33684C26.4146 8.16842 25.7288 8 24.8717 8C22.7288 8 21.5716 9.05263 21.5716 10.5684C21.5716 11.7053 22.2573 12.2947 23.1145 12.6737C23.9716 13.0526 24.2288 13.3053 24.2288 13.6421C24.2288 14.1474 23.5431 14.4 22.9431 14.4C22.0859 14.4 21.6144 14.2737 20.8859 13.9789L20.5859 13.8526L20.2858 15.5789C20.8001 15.7895 21.743 16 22.7288 16C25.0002 16 26.5003 14.9474 26.5003 13.3474C26.5003 12.4632 25.9431 11.7895 24.6574 11.2421C23.8859 10.8632 23.4145 10.6526 23.4145 10.2737C23.4145 9.93684 23.8002 9.6 24.6574 9.6C25.386 9.6 25.9003 9.72632 26.286 9.89474L26.5003 9.97895L26.8431 8.33684Z" fill="#16315D"/>
<path fill-rule="evenodd" clip-rule="evenodd" d="M29.4148 8.79932C29.629 8.29406 30.0148 8.25195 30.5291 8.25195H32.2005L34.0006 15.8309H31.9434L31.6862 14.5677H28.9433L28.5147 15.8309H26.2004L29.4148 8.79932ZM30.3994 11.0734C30.3994 11.0734 29.6708 12.9261 29.5422 13.305V13.3471H31.3422C31.2565 12.9261 30.8279 11.0313 30.8279 11.0313L30.6994 10.3155C30.5708 10.6103 30.3994 11.0734 30.3994 11.0734Z" fill="#16315D"/>
<path d="M12.9582 13.5581L12.7439 12.4633C12.3582 11.2002 11.1153 9.81071 9.74384 9.13703L11.6725 15.8739H13.9868L17.4583 8.29492H15.144L12.9582 13.5581Z" fill="#16315D"/>
<path d="M12.9582 13.5581L12.7439 12.4633C12.3582 11.2002 11.1153 9.81071 9.74384 9.13703L11.6725 15.8739H13.9868L17.4583 8.29492H15.5725L12.9582 13.5581Z" fill="#16315D"/>
<path d="M6.9998 8.25195L7.38553 8.33616C10.1284 8.96774 12.0142 10.5677 12.7428 12.4625L11.9714 8.88353C11.8428 8.37827 11.4571 8.25195 10.9856 8.25195H6.9998V8.25195Z" fill="#16315D"/>
<path d="M6.9998 8.25195C9.74273 8.88353 12.0142 10.5256 12.7428 12.4204L12.0142 9.4309C11.8856 8.92564 11.4571 8.6309 10.9856 8.6309L6.9998 8.25195Z" fill="#16315D"/>
<path d="M6.9998 8.25195C9.74273 8.88353 12.0142 10.5256 12.7428 12.4204L12.2285 10.7783C12.0999 10.273 11.9285 9.76774 11.3285 9.55722L6.9998 8.25195Z" fill="#16315D"/>
</svg>
