<svg width="24" height="24" viewBox="0 0 24 24" fill="none" xmlns="http://www.w3.org/2000/svg">
<path fill-rule="evenodd" clip-rule="evenodd" d="M10.1516 7.05039C10.1516 6.85709 10.3083 6.70039 10.5016 6.70039H13.5016C13.6949 6.70039 13.8516 6.85709 13.8516 7.05039V7.84961H10.1516V7.05039ZM8.85156 7.84961V7.05039C8.85156 6.13912 9.59029 5.40039 10.5016 5.40039H13.5016C14.4128 5.40039 15.1516 6.13912 15.1516 7.05039V7.84961H17.2161H17.5016C17.8605 7.84961 18.1516 8.14062 18.1516 8.49961C18.1516 8.85859 17.8605 9.14961 17.5016 9.14961H17.0929L16.2871 17.6552C16.2069 18.5024 15.4955 19.1496 14.6445 19.1496H9.35871C8.50772 19.1496 7.79632 18.5024 7.71606 17.6552L6.91027 9.14961H6.50156C6.14258 9.14961 5.85156 8.85859 5.85156 8.49961C5.85156 8.14062 6.14258 7.84961 6.50156 7.84961H6.78711H8.85156ZM8.21609 9.14961H15.7871L14.9929 17.5326C14.9759 17.7123 14.825 17.8496 14.6445 17.8496H9.35871C9.1782 17.8496 9.02729 17.7123 9.01027 17.5326L8.21609 9.14961Z" fill="white"/>
</svg>
