<svg width="24" height="24" viewBox="0 0 24 24" fill="none" xmlns="http://www.w3.org/2000/svg">
<circle cx="12" cy="12" r="12" fill="white" fill-opacity="0.15"/>
<circle cx="12" cy="12" r="11.5" stroke="white" stroke-opacity="0.15"/>
<path d="M11.9986 9.7975C10.7867 9.7975 9.79772 10.7865 9.79772 11.9984C9.79772 13.2104 10.7867 14.1994 11.9986 14.1994C13.2105 14.1994 14.1995 13.2104 14.1995 11.9984C14.1995 10.7865 13.2105 9.7975 11.9986 9.7975ZM18.5997 11.9984C18.5997 11.087 18.6079 10.1839 18.5567 9.2741C18.5055 8.21738 18.2645 7.27955 17.4918 6.50683C16.7174 5.73245 15.7813 5.49304 14.7246 5.44186C13.8132 5.39067 12.91 5.39893 12.0003 5.39893C11.0889 5.39893 10.1857 5.39067 9.27598 5.44186C8.21928 5.49304 7.28147 5.7341 6.50876 6.50683C5.7344 7.2812 5.49499 8.21738 5.44381 9.2741C5.39263 10.1855 5.40088 11.0887 5.40088 11.9984C5.40088 12.9082 5.39263 13.813 5.44381 14.7228C5.49499 15.7795 5.73605 16.7173 6.50876 17.49C7.28312 18.2644 8.21928 18.5038 9.27598 18.555C10.1874 18.6062 11.0905 18.5979 12.0003 18.5979C12.9117 18.5979 13.8148 18.6062 14.7246 18.555C15.7813 18.5038 16.7191 18.2628 17.4918 17.49C18.2661 16.7157 18.5055 15.7795 18.5567 14.7228C18.6096 13.813 18.5997 12.9099 18.5997 11.9984ZM11.9986 15.3849C10.1246 15.3849 8.61224 13.8725 8.61224 11.9984C8.61224 10.1244 10.1246 8.612 11.9986 8.612C13.8726 8.612 15.385 10.1244 15.385 11.9984C15.385 13.8725 13.8726 15.3849 11.9986 15.3849ZM15.5237 9.26419C15.0861 9.26419 14.7328 8.91085 14.7328 8.47331C14.7328 8.03576 15.0861 7.68242 15.5237 7.68242C15.9612 7.68242 16.3146 8.03576 16.3146 8.47331C16.3147 8.5772 16.2943 8.6801 16.2546 8.77612C16.2149 8.87213 16.1567 8.95937 16.0832 9.03284C16.0097 9.1063 15.9225 9.16455 15.8265 9.20425C15.7305 9.24395 15.6276 9.26432 15.5237 9.26419Z" fill="white"/>
</svg>
