<svg width="24" height="24" viewBox="0 0 24 24" fill="none" xmlns="http://www.w3.org/2000/svg">
<circle cx="12" cy="12" r="12" fill="white" fill-opacity="0.15"/>
<circle cx="12" cy="12" r="11.5" stroke="white" stroke-opacity="0.15"/>
<path d="M17.9986 16.9864V16.9859H18.0016V12.5849C18.0016 10.4319 17.5381 8.77344 15.0211 8.77344C13.8111 8.77344 12.9991 9.43744 12.6676 10.0669H12.6326V8.97444H10.2461V16.9859H12.7311V13.0189C12.7311 11.9744 12.9291 10.9644 14.2226 10.9644C15.4971 10.9644 15.5161 12.1564 15.5161 13.0859V16.9864H17.9986Z" fill="white"/>
<path d="M6.19824 8.97656H8.68624V16.9881H6.19824V8.97656Z" fill="white"/>
<path d="M7.441 4.98828C6.6455 4.98828 6 5.63378 6 6.42928C6 7.22478 6.6455 7.88378 7.441 7.88378C8.2365 7.88378 8.882 7.22478 8.882 6.42928C8.8815 5.63378 8.236 4.98828 7.441 4.98828V4.98828Z" fill="white"/>
</svg>
