<svg width="24" height="24" viewBox="0 0 24 24" fill="none" xmlns="http://www.w3.org/2000/svg">
<circle cx="12" cy="12" r="12" fill="white" fill-opacity="0.15"/>
<circle cx="12" cy="12" r="11.5" stroke="white" stroke-opacity="0.15"/>
<path d="M18.346 7.99305C17.8655 8.20386 17.3534 8.34359 16.8195 8.41144C17.3687 8.08351 17.7879 7.5682 17.985 6.94708C17.4729 7.25239 16.9075 7.46804 16.305 7.58839C15.8187 7.07066 15.1257 6.75 14.3697 6.75C12.9029 6.75 11.7221 7.94055 11.7221 9.40006C11.7221 9.61006 11.7399 9.81199 11.7835 10.0042C9.58088 9.89679 7.63191 8.84113 6.32263 7.233C6.09405 7.62958 5.95997 8.08351 5.95997 8.57217C5.95997 9.48971 6.43247 10.3031 7.13679 10.774C6.71113 10.7659 6.29355 10.6423 5.93978 10.4476C5.93978 10.4557 5.93978 10.4662 5.93978 10.4767C5.93978 11.7642 6.85813 12.8336 8.06241 13.0799C7.84676 13.1389 7.61172 13.1672 7.36779 13.1672C7.19817 13.1672 7.02694 13.1575 6.86621 13.1219C7.20948 14.1711 8.18357 14.9425 9.34181 14.9675C8.44041 15.6726 7.2959 16.0975 6.0569 16.0975C5.83962 16.0975 5.63124 16.0878 5.42285 16.0612C6.59644 16.818 7.9873 17.2501 9.48719 17.2501C14.3625 17.2501 17.0279 13.2116 17.0279 9.71102C17.0279 9.59391 17.0238 9.48083 17.0182 9.36856C17.544 8.9954 17.9858 8.52936 18.346 7.99305Z" fill="white"/>
</svg>
