<svg width="32" height="32" viewBox="0 0 32 32" fill="none" xmlns="http://www.w3.org/2000/svg">
<g filter="url(#filter0_b)">
<rect width="32" height="32" rx="16" fill="white" fill-opacity="0.15"/>
<rect x="0.5" y="0.5" width="31" height="31" rx="15.5" stroke="white" stroke-opacity="0.15"/>
</g>
<path d="M19.7652 17.7311C18.7614 16.869 17.4504 16.3471 16.0143 16.3471C14.5782 16.3471 13.2672 16.869 12.2616 17.7329C12.2338 17.7576 12.2168 17.792 12.2142 17.8288C12.2115 17.8656 12.2234 17.902 12.2473 17.9304L12.8903 18.6867C12.9421 18.7467 13.0332 18.7537 13.0939 18.7026C13.8727 18.0256 14.8944 17.6165 16.0143 17.6165C17.1342 17.6165 18.1559 18.0256 18.9347 18.7008C18.9954 18.752 19.0865 18.7449 19.1383 18.685L19.7813 17.9286C19.8313 17.8704 19.8242 17.7823 19.7652 17.7311ZM21.8622 15.261C20.2779 13.9581 18.2399 13.1736 16.0143 13.1736C13.7888 13.1736 11.7507 13.9581 10.1646 15.261C10.1356 15.2852 10.1175 15.3197 10.1141 15.357C10.1108 15.3944 10.1225 15.4315 10.1468 15.4603L10.7898 16.2166C10.8398 16.2766 10.9309 16.2836 10.9898 16.2343C12.3527 15.1165 14.1049 14.443 16.0143 14.443C17.9237 14.443 19.6759 15.1165 21.037 16.2343C21.0977 16.2836 21.187 16.2766 21.237 16.2166L21.8801 15.4603C21.9301 15.4003 21.9229 15.3104 21.8622 15.261ZM23.9466 12.8104C21.7782 11.0543 19.0026 10 15.9786 10C12.9743 10 10.2164 11.0402 8.0534 12.7751C8.03854 12.7869 8.02621 12.8015 8.01716 12.818C8.0081 12.8346 8.00249 12.8528 8.00066 12.8715C7.99883 12.8902 8.00081 12.9091 8.0065 12.9271C8.01218 12.9451 8.02144 12.9617 8.03375 12.9761L8.67677 13.7325C8.72678 13.7906 8.81609 13.7994 8.87503 13.7518C10.8166 12.1986 13.2868 11.2694 15.9786 11.2694C18.69 11.2694 21.1763 12.2127 23.1232 13.7853C23.184 13.8347 23.2733 13.8259 23.3233 13.766L23.9663 13.0096C24.0181 12.9496 24.0092 12.8597 23.9466 12.8104ZM14.8533 20.508C14.8533 20.8073 14.9737 21.0943 15.1881 21.3059C15.4025 21.5175 15.6933 21.6364 15.9964 21.6364C16.2996 21.6364 16.5904 21.5175 16.8048 21.3059C17.0191 21.0943 17.1396 20.8073 17.1396 20.508C17.1396 20.2087 17.0191 19.9217 16.8048 19.7101C16.5904 19.4985 16.2996 19.3796 15.9964 19.3796C15.6933 19.3796 15.4025 19.4985 15.1881 19.7101C14.9737 19.9217 14.8533 20.2087 14.8533 20.508Z" fill="white"/>
<defs>
<filter id="filter0_b" x="-12" y="-12" width="56" height="56" filterUnits="userSpaceOnUse" color-interpolation-filters="sRGB">
<feFlood flood-opacity="0" result="BackgroundImageFix"/>
<feGaussianBlur in="BackgroundImage" stdDeviation="6"/>
<feComposite in2="SourceAlpha" operator="in" result="effect1_backgroundBlur"/>
<feBlend mode="normal" in="SourceGraphic" in2="effect1_backgroundBlur" result="shape"/>
</filter>
</defs>
</svg>
