<svg width="32" height="32" viewBox="0 0 32 32" fill="none" xmlns="http://www.w3.org/2000/svg">
<g filter="url(#filter0_b)">
<rect width="32" height="32" rx="16" fill="white" fill-opacity="0.15"/>
<rect x="0.5" y="0.5" width="31" height="31" rx="15.5" stroke="white" stroke-opacity="0.15"/>
</g>
<path d="M13.4596 22.2828L9.67926 18.4003C9.30122 18.0121 9.30122 17.3933 9.67926 17.0051L16.2018 10.3063C16.3113 10.1938 16.4458 10.1086 16.5944 10.0578L19.0458 9.21856C19.4316 9.08648 19.8589 9.20189 20.1258 9.51023L22.2624 11.9788C22.4915 12.2436 22.5655 12.6089 22.4574 12.942L21.6025 15.5761C21.5525 15.7303 21.4657 15.87 21.3497 15.9831L14.8744 22.3009C14.4788 22.6869 13.8451 22.6788 13.4596 22.2828Z" stroke="white" stroke-width="1.3"/>
<ellipse cx="18.8824" cy="13.2521" rx="1.64706" ry="1.69157" fill="white"/>
<path d="M19.2403 11.9512L18.7869 12.4169L19.7183 13.3238L20.1718 12.8581L19.2403 11.9512ZM23.4659 9.47494C23.7163 9.21773 23.7108 8.80621 23.4536 8.55578C23.1964 8.30534 22.7849 8.31083 22.5345 8.56803L23.4659 9.47494ZM20.1718 12.8581L23.4659 9.47494L22.5345 8.56803L19.2403 11.9512L20.1718 12.8581Z" fill="white"/>
<defs>
<filter id="filter0_b" x="-12" y="-12" width="56" height="56" filterUnits="userSpaceOnUse" color-interpolation-filters="sRGB">
<feFlood flood-opacity="0" result="BackgroundImageFix"/>
<feGaussianBlur in="BackgroundImage" stdDeviation="6"/>
<feComposite in2="SourceAlpha" operator="in" result="effect1_backgroundBlur"/>
<feBlend mode="normal" in="SourceGraphic" in2="effect1_backgroundBlur" result="shape"/>
</filter>
</defs>
</svg>
