<svg width="32" height="32" viewBox="0 0 32 32" fill="none" xmlns="http://www.w3.org/2000/svg">
<g filter="url(#filter0_b)">
<rect width="32" height="32" rx="16" fill="white" fill-opacity="0.15"/>
<rect x="0.5" y="0.5" width="31" height="31" rx="15.5" stroke="white" stroke-opacity="0.15"/>
</g>
<path d="M16.0004 9.99935C15.47 9.99935 14.9613 10.2101 14.5862 10.5851C14.2112 10.9602 14.0004 11.4689 14.0004 11.9993V14.666C14.0004 15.1964 14.2112 15.7052 14.5862 16.0802C14.9613 16.4553 15.47 16.666 16.0004 16.666C16.5309 16.666 17.0396 16.4553 17.4147 16.0802C17.7897 15.7052 18.0004 15.1964 18.0004 14.666V11.9993C18.0004 11.4689 17.7897 10.9602 17.4147 10.5851C17.0396 10.2101 16.5309 9.99935 16.0004 9.99935ZM16.0004 8.66602C16.4382 8.66602 16.8716 8.75223 17.2761 8.91975C17.6805 9.08727 18.0479 9.3328 18.3575 9.64233C18.667 9.95185 18.9125 10.3193 19.08 10.7237C19.2476 11.1282 19.3338 11.5616 19.3338 11.9993V14.666C19.3338 15.5501 18.9826 16.3979 18.3575 17.023C17.7323 17.6482 16.8845 17.9993 16.0004 17.9993C15.1164 17.9993 14.2685 17.6482 13.6434 17.023C13.0183 16.3979 12.6671 15.5501 12.6671 14.666V11.9993C12.6671 11.1153 13.0183 10.2674 13.6434 9.64233C14.2685 9.01721 15.1164 8.66602 16.0004 8.66602ZM10.0371 15.3327H11.3804C11.542 16.4425 12.0977 17.4571 12.9459 18.1909C13.7942 18.9246 14.8782 19.3284 15.9998 19.3284C17.1213 19.3284 18.2054 18.9246 19.0536 18.1909C19.9019 17.4571 20.4576 16.4425 20.6191 15.3327H21.9631C21.8115 16.6852 21.2049 17.946 20.2426 18.9084C19.2803 19.8708 18.0196 20.4776 16.6671 20.6293V23.3327H15.3338V20.6293C13.9812 20.4777 12.7203 19.871 11.7579 18.9086C10.7955 17.9462 10.1887 16.6853 10.0371 15.3327Z" fill="white"/>
<defs>
<filter id="filter0_b" x="-12" y="-12" width="56" height="56" filterUnits="userSpaceOnUse" color-interpolation-filters="sRGB">
<feFlood flood-opacity="0" result="BackgroundImageFix"/>
<feGaussianBlur in="BackgroundImage" stdDeviation="6"/>
<feComposite in2="SourceAlpha" operator="in" result="effect1_backgroundBlur"/>
<feBlend mode="normal" in="SourceGraphic" in2="effect1_backgroundBlur" result="shape"/>
</filter>
</defs>
</svg>
