<svg width="143" height="20" viewBox="0 0 143 20" fill="none" xmlns="http://www.w3.org/2000/svg">
<path d="M32.4226 4.81818H34.267V11.4702C34.267 12.1993 34.0947 12.8407 33.75 13.3942C33.4086 13.9477 32.928 14.3802 32.3082 14.6918C31.6884 15 30.9643 15.1541 30.1357 15.1541C29.3037 15.1541 28.5779 15 27.9581 14.6918C27.3383 14.3802 26.8577 13.9477 26.5163 13.3942C26.175 12.8407 26.0043 12.1993 26.0043 11.4702V4.81818H27.8487V11.3161C27.8487 11.7403 27.9415 12.1181 28.1271 12.4496C28.3161 12.781 28.5812 13.0412 28.9226 13.2301C29.264 13.4157 29.6683 13.5085 30.1357 13.5085C30.603 13.5085 31.0073 13.4157 31.3487 13.2301C31.6934 13.0412 31.9586 12.781 32.1442 12.4496C32.3298 12.1181 32.4226 11.7403 32.4226 11.3161V4.81818ZM36.1923 17.8636V7.36364H37.9622V8.62642H38.0666C38.1594 8.44081 38.2903 8.24361 38.4593 8.0348C38.6284 7.82268 38.8571 7.64205 39.1454 7.4929C39.4338 7.34044 39.8017 7.2642 40.2491 7.2642C40.8391 7.2642 41.371 7.41501 41.845 7.71662C42.3223 8.01491 42.7001 8.45739 42.9785 9.04403C43.2602 9.62737 43.4011 10.3433 43.4011 11.1918C43.4011 12.0303 43.2636 12.7429 42.9885 13.3295C42.7134 13.9162 42.3388 14.3636 41.8649 14.6719C41.3909 14.9801 40.854 15.1342 40.2541 15.1342C39.8166 15.1342 39.4537 15.0613 39.1653 14.9155C38.877 14.7696 38.6449 14.594 38.4693 14.3885C38.2969 14.1797 38.1627 13.9825 38.0666 13.7969H37.992V17.8636H36.1923ZM37.9572 11.1818C37.9572 11.6757 38.0268 12.1082 38.166 12.4794C38.3085 12.8506 38.5124 13.1406 38.7775 13.3494C39.046 13.5549 39.3708 13.6577 39.752 13.6577C40.1497 13.6577 40.4828 13.5516 40.7512 13.3395C41.0197 13.1241 41.2219 12.8307 41.3578 12.4595C41.497 12.085 41.5666 11.6591 41.5666 11.1818C41.5666 10.7079 41.4986 10.2869 41.3627 9.91903C41.2269 9.55114 41.0247 9.26278 40.7562 9.05398C40.4877 8.84517 40.153 8.74077 39.752 8.74077C39.3675 8.74077 39.041 8.84186 38.7725 9.04403C38.5041 9.24621 38.3002 9.52959 38.161 9.89418C38.0252 10.2588 37.9572 10.688 37.9572 11.1818ZM47.7761 15.1342C47.1762 15.1342 46.6393 14.9801 46.1653 14.6719C45.6913 14.3636 45.3168 13.9162 45.0417 13.3295C44.7666 12.7429 44.6291 12.0303 44.6291 11.1918C44.6291 10.3433 44.7683 9.62737 45.0467 9.04403C45.3284 8.45739 45.7079 8.01491 46.1852 7.71662C46.6625 7.41501 47.1944 7.2642 47.7811 7.2642C48.2285 7.2642 48.5964 7.34044 48.8848 7.4929C49.1731 7.64205 49.4018 7.82268 49.5708 8.0348C49.7399 8.24361 49.8708 8.44081 49.9636 8.62642H50.0382V4.81818H51.8429V15H50.073V13.7969H49.9636C49.8708 13.9825 49.7366 14.1797 49.5609 14.3885C49.3852 14.594 49.1532 14.7696 48.8649 14.9155C48.5765 15.0613 48.2136 15.1342 47.7761 15.1342ZM48.2782 13.6577C48.6594 13.6577 48.9842 13.5549 49.2527 13.3494C49.5211 13.1406 49.725 12.8506 49.8642 12.4794C50.0034 12.1082 50.073 11.6757 50.073 11.1818C50.073 10.688 50.0034 10.2588 49.8642 9.89418C49.7283 9.52959 49.5261 9.24621 49.2576 9.04403C48.9925 8.84186 48.666 8.74077 48.2782 8.74077C47.8772 8.74077 47.5424 8.84517 47.274 9.05398C47.0055 9.26278 46.8033 9.55114 46.6674 9.91903C46.5315 10.2869 46.4636 10.7079 46.4636 11.1818C46.4636 11.6591 46.5315 12.085 46.6674 12.4595C46.8066 12.8307 47.0105 13.1241 47.2789 13.3395C47.5507 13.5516 47.8838 13.6577 48.2782 13.6577ZM55.9581 15.1541C55.4742 15.1541 55.0384 15.0679 54.6506 14.8956C54.2661 14.7199 53.9612 14.4614 53.7358 14.12C53.5137 13.7786 53.4027 13.3577 53.4027 12.8572C53.4027 12.4264 53.4822 12.0701 53.6413 11.7884C53.8004 11.5066 54.0175 11.2812 54.2926 11.1122C54.5677 10.9432 54.8776 10.8156 55.2223 10.7294C55.5703 10.6399 55.9299 10.5753 56.3011 10.5355C56.7486 10.4891 57.1115 10.4477 57.3899 10.4112C57.6683 10.3714 57.8705 10.3118 57.9964 10.2322C58.1257 10.1494 58.1903 10.0218 58.1903 9.84943V9.8196C58.1903 9.44508 58.0793 9.15507 57.8572 8.94957C57.6352 8.74408 57.3153 8.64134 56.8977 8.64134C56.4569 8.64134 56.1072 8.73745 55.8487 8.92969C55.5935 9.12192 55.4212 9.34896 55.3317 9.6108L53.6513 9.37216C53.7839 8.90814 54.0026 8.52036 54.3075 8.20881C54.6125 7.89394 54.9853 7.65862 55.4261 7.50284C55.867 7.34375 56.3542 7.2642 56.8878 7.2642C57.2557 7.2642 57.6219 7.30729 57.9865 7.39347C58.3511 7.47964 58.6842 7.62216 58.9858 7.82102C59.2874 8.01657 59.5294 8.28338 59.7116 8.62145C59.8973 8.95952 59.9901 9.3821 59.9901 9.8892V15H58.2599V13.951H58.2003C58.0909 14.1631 57.9368 14.362 57.7379 14.5476C57.5424 14.7299 57.2955 14.8774 56.9972 14.9901C56.7022 15.0994 56.3558 15.1541 55.9581 15.1541ZM56.4254 13.8317C56.7867 13.8317 57.0999 13.7604 57.3651 13.6179C57.6302 13.4721 57.834 13.2798 57.9766 13.0412C58.1224 12.8026 58.1953 12.5424 58.1953 12.2607V11.3608C58.139 11.4072 58.0429 11.4503 57.907 11.4901C57.7744 11.5298 57.6252 11.5646 57.4595 11.5945C57.2938 11.6243 57.1297 11.6508 56.9673 11.674C56.8049 11.6972 56.6641 11.7171 56.5447 11.7337C56.2763 11.7701 56.036 11.8298 55.8239 11.9126C55.6117 11.9955 55.4444 12.1115 55.3217 12.2607C55.1991 12.4065 55.1378 12.5954 55.1378 12.8274C55.1378 13.1589 55.2588 13.4091 55.5007 13.5781C55.7427 13.7472 56.0509 13.8317 56.4254 13.8317ZM65.6129 7.36364V8.75568H61.223V7.36364H65.6129ZM62.3068 5.53409H64.1065V12.7031C64.1065 12.9451 64.143 13.1307 64.2159 13.2599C64.2921 13.3859 64.3916 13.4721 64.5142 13.5185C64.6368 13.5649 64.7727 13.5881 64.9219 13.5881C65.0346 13.5881 65.1373 13.5798 65.2301 13.5632C65.3262 13.5466 65.3991 13.5317 65.4489 13.5185L65.7521 14.9254C65.656 14.9586 65.5185 14.995 65.3395 15.0348C65.1638 15.0746 64.9484 15.0978 64.6932 15.1044C64.2424 15.1177 63.8364 15.0497 63.4751 14.9006C63.1139 14.7481 62.8272 14.5128 62.6151 14.1946C62.4063 13.8764 62.3035 13.4787 62.3068 13.0014V5.53409ZM70.4167 15.1491C69.6511 15.1491 68.9899 14.9901 68.4331 14.6719C67.8796 14.3504 67.4537 13.8963 67.1554 13.3097C66.8571 12.7197 66.7079 12.0253 66.7079 11.2266C66.7079 10.4411 66.8571 9.75166 67.1554 9.15838C67.457 8.56179 67.8779 8.09777 68.4181 7.76633C68.9584 7.43158 69.5931 7.2642 70.3223 7.2642C70.7929 7.2642 71.237 7.34044 71.6547 7.4929C72.0756 7.64205 72.4468 7.87405 72.7683 8.18892C73.0931 8.50379 73.3483 8.90483 73.5339 9.39205C73.7195 9.87595 73.8123 10.4527 73.8123 11.1222V11.674H67.5531V10.4609H72.0872C72.0839 10.1162 72.0093 9.80966 71.8635 9.54119C71.7176 9.26941 71.5138 9.05563 71.252 8.89986C70.9934 8.74408 70.6918 8.66619 70.3471 8.66619C69.9792 8.66619 69.6561 8.75568 69.3777 8.93466C69.0993 9.11032 68.8822 9.34233 68.7264 9.63068C68.5739 9.91572 68.496 10.2289 68.4927 10.5703V11.6293C68.4927 12.0734 68.5739 12.4545 68.7363 12.7727C68.8987 13.0876 69.1258 13.3295 69.4174 13.4986C69.7091 13.6643 70.0505 13.7472 70.4416 13.7472C70.7034 13.7472 70.9404 13.7107 71.1525 13.6378C71.3646 13.5616 71.5486 13.4505 71.7044 13.3047C71.8601 13.1589 71.9778 12.9782 72.0574 12.7628L73.7377 12.9517C73.6317 13.3958 73.4295 13.7836 73.1312 14.1151C72.8362 14.4432 72.4584 14.6984 71.9977 14.8807C71.537 15.0597 71.01 15.1491 70.4167 15.1491ZM80.3835 15L78.2259 7.36364H80.0604L81.4027 12.733H81.4723L82.8445 7.36364H84.6591L86.0312 12.7031H86.1058L87.4283 7.36364H89.2678L87.1051 15H85.2308L83.799 9.83949H83.6946L82.2628 15H80.3835ZM90.5243 15V7.36364H92.324V15H90.5243ZM91.4292 6.27983C91.1408 6.27983 90.8939 6.18537 90.6884 5.99645C90.4862 5.80421 90.3851 5.57386 90.3851 5.3054C90.3851 5.03362 90.4879 4.80327 90.6934 4.61435C90.8989 4.42211 91.1441 4.32599 91.4292 4.32599C91.7142 4.32599 91.9578 4.42211 92.16 4.61435C92.3655 4.80327 92.4682 5.03362 92.4682 5.3054C92.4682 5.57386 92.3655 5.80421 92.16 5.99645C91.9578 6.18537 91.7142 6.27983 91.4292 6.27983ZM97.9879 7.36364V8.75568H93.598V7.36364H97.9879ZM94.6818 5.53409H96.4815V12.7031C96.4815 12.9451 96.518 13.1307 96.5909 13.2599C96.6671 13.3859 96.7666 13.4721 96.8892 13.5185C97.0118 13.5649 97.1477 13.5881 97.2969 13.5881C97.4096 13.5881 97.5123 13.5798 97.6051 13.5632C97.7012 13.5466 97.7741 13.5317 97.8239 13.5185L98.1271 14.9254C98.031 14.9586 97.8935 14.995 97.7145 15.0348C97.5388 15.0746 97.3234 15.0978 97.0682 15.1044C96.6174 15.1177 96.2114 15.0497 95.8501 14.9006C95.4889 14.7481 95.2022 14.5128 94.9901 14.1946C94.7813 13.8764 94.6785 13.4787 94.6818 13.0014V5.53409ZM101.457 10.5256V15H99.6571V4.81818H101.417V8.66122H101.507C101.686 8.23035 101.962 7.89062 102.337 7.64205C102.715 7.39015 103.195 7.2642 103.779 7.2642C104.309 7.2642 104.771 7.37524 105.166 7.5973C105.56 7.81937 105.865 8.14418 106.08 8.57173C106.299 8.99929 106.409 9.52131 106.409 10.1378V15H104.609V10.4162C104.609 9.90246 104.476 9.50308 104.211 9.21804C103.949 8.92969 103.581 8.78551 103.107 8.78551C102.789 8.78551 102.504 8.85511 102.252 8.99432C102.004 9.13021 101.808 9.32741 101.666 9.58594C101.526 9.84446 101.457 10.1577 101.457 10.5256ZM113.103 15H111.134L114.719 4.81818H116.996L120.585 15H118.616L115.897 6.90625H115.817L113.103 15ZM113.167 11.0078H118.537V12.4893H113.167V11.0078ZM121.926 15V4.81818H125.744C126.527 4.81818 127.183 4.95407 127.713 5.22585C128.247 5.49763 128.649 5.87879 128.921 6.36932C129.196 6.85653 129.334 7.42495 129.334 8.07457C129.334 8.72751 129.195 9.29427 128.916 9.77486C128.641 10.2521 128.235 10.6217 127.698 10.8835C127.161 11.142 126.502 11.2713 125.719 11.2713H123V9.74006H125.471C125.928 9.74006 126.303 9.67708 126.594 9.55114C126.886 9.42187 127.102 9.23461 127.241 8.98935C127.383 8.74077 127.455 8.43584 127.455 8.07457C127.455 7.7133 127.383 7.40507 127.241 7.14986C127.098 6.89134 126.881 6.69579 126.589 6.56321C126.298 6.42732 125.922 6.35938 125.461 6.35938H123.771V15H121.926ZM127.186 10.3864L129.707 15H127.648L125.173 10.3864H127.186Z" fill="#B8284E"/>
<path d="M138 6L141.293 9.29289C141.683 9.68342 141.683 10.3166 141.293 10.7071L138 14" stroke="#B8284E" stroke-width="2" stroke-linecap="round"/>
<path d="M8.68275 0L0 5V15L8.68275 20L17.3653 15V5L8.68275 0ZM15.6027 5.33822L8.68275 9.32145L1.76265 5.33822L8.68275 1.35324L15.6027 5.33822ZM1.17497 6.353L8.09527 10.3364V18.3085L1.17497 14.3234V6.353ZM9.27024 18.3085V10.3364L16.1903 6.35304V14.3234L9.27024 18.3085Z" fill="#B8284E"/>
</svg>
