<svg width="52" height="16" viewBox="0 0 52 16" fill="none" xmlns="http://www.w3.org/2000/svg">
<path d="M22.066 12.1113V2.81633H25.394C27.422 2.81633 28.436 3.62233 28.436 5.23433V5.28633C28.436 6.30033 27.9463 6.95899 26.967 7.26233C27.5997 7.40099 28.0677 7.64799 28.371 8.00333C28.6743 8.35866 28.826 8.84399 28.826 9.45933V9.51133C28.826 10.3693 28.553 11.0193 28.007 11.4613C27.461 11.8947 26.6723 12.1113 25.641 12.1113H22.066ZM23.756 10.8763H25.433C26.5597 10.8763 27.123 10.3823 27.123 9.39433V9.34233C27.123 8.85699 26.9757 8.49733 26.681 8.26333C26.395 8.02066 25.94 7.89933 25.316 7.89933H23.756V10.8763ZM23.756 6.72933H25.186C25.7493 6.72933 26.1523 6.62099 26.395 6.40433C26.6463 6.18766 26.772 5.84099 26.772 5.36433V5.31233C26.772 4.87033 26.642 4.54966 26.382 4.35033C26.122 4.15099 25.7147 4.05133 25.16 4.05133H23.756V6.72933ZM32.0959 12.2413C31.4286 12.2413 30.8826 12.0767 30.4579 11.7473C30.0332 11.4093 29.8209 10.9023 29.8209 10.2263C29.8209 9.48099 30.1372 8.93499 30.7699 8.58833C31.4026 8.24166 32.2476 8.06833 33.3049 8.06833H34.1499V7.71733C34.1499 7.24933 34.0546 6.90699 33.8639 6.69033C33.6819 6.46499 33.3656 6.35233 32.9149 6.35233C32.1262 6.35233 31.6929 6.70766 31.6149 7.41833H30.0939C30.1546 6.66433 30.4492 6.10099 30.9779 5.72833C31.5152 5.35566 32.1912 5.16933 33.0059 5.16933C34.8172 5.16933 35.7229 5.99699 35.7229 7.65233V12.1113H34.1759V11.2793C33.6906 11.9207 32.9972 12.2413 32.0959 12.2413ZM32.4729 11.1103C32.9669 11.1103 33.3699 10.989 33.6819 10.7463C33.9939 10.495 34.1499 10.157 34.1499 9.73233V9.05633H33.3439C32.0352 9.05633 31.3809 9.42466 31.3809 10.1613C31.3809 10.794 31.7449 11.1103 32.4729 11.1103ZM40.5028 12.2413C39.5062 12.2413 38.6828 11.9337 38.0328 11.3183C37.3915 10.6943 37.0708 9.85366 37.0708 8.79633V8.69233C37.0708 7.63499 37.4002 6.78566 38.0588 6.14433C38.7175 5.49433 39.5322 5.16933 40.5028 5.16933C41.3348 5.16933 42.0368 5.37733 42.6088 5.79333C43.1895 6.20066 43.5232 6.84199 43.6098 7.71733H42.0888C41.9675 6.85933 41.4475 6.43033 40.5288 6.43033C39.9828 6.43033 39.5365 6.62966 39.1898 7.02833C38.8518 7.42699 38.6828 7.97299 38.6828 8.66633V8.77033C38.6828 9.49833 38.8475 10.0573 39.1768 10.4473C39.5148 10.8373 39.9785 11.0323 40.5678 11.0323C41.0012 11.0323 41.3695 10.9067 41.6728 10.6553C41.9848 10.3953 42.1625 10.0357 42.2058 9.57633H43.6488C43.5882 10.3737 43.2762 11.0193 42.7128 11.5133C42.1495 11.9987 41.4128 12.2413 40.5028 12.2413ZM45.0034 12.1113V2.16633H46.5764V8.30233L49.0074 5.31233H50.7234L48.0844 8.43233L50.9444 12.1113H49.1244L46.5764 8.77033V12.1113H45.0034Z" fill="#565D66"/>
<path d="M7 1.29639L0 7.77787L7 14.2594V9.07417H14V6.48157H7V1.29639Z" fill="#97A2B0"/>
</svg>
