<svg width="59" height="20" viewBox="0 0 59 20" fill="none" xmlns="http://www.w3.org/2000/svg">
<path d="M28.6325 14.16C26.8618 14.16 25.4858 13.6373 24.5045 12.592C23.5338 11.5467 23.0485 10.1333 23.0485 8.352V8.224C23.0485 6.51733 23.5712 5.12 24.6165 4.032C25.6725 2.93333 27.0005 2.384 28.6005 2.384C29.9658 2.384 31.0912 2.72533 31.9765 3.408C32.8725 4.09067 33.3845 5.08267 33.5125 6.384H31.3525C31.1072 4.848 30.1952 4.08 28.6165 4.08C27.6032 4.08 26.7925 4.45333 26.1845 5.2C25.5872 5.936 25.2885 6.93867 25.2885 8.208V8.336C25.2885 9.62667 25.5818 10.6347 26.1685 11.36C26.7552 12.0747 27.5765 12.432 28.6325 12.432C29.4432 12.432 30.1045 12.2293 30.6165 11.824C31.1392 11.408 31.4538 10.8053 31.5605 10.016H33.6405C33.4805 11.36 32.9525 12.3893 32.0565 13.104C31.1712 13.808 30.0298 14.16 28.6325 14.16ZM35.3239 14V1.76H37.2599V6.96C37.4732 6.52267 37.8145 6.16533 38.2839 5.888C38.7532 5.6 39.3132 5.456 39.9639 5.456C40.8492 5.456 41.5479 5.728 42.0599 6.272C42.5719 6.80533 42.8279 7.62667 42.8279 8.736V14H40.8919V8.912C40.8919 8.28267 40.7585 7.81867 40.4919 7.52C40.2252 7.22133 39.8039 7.072 39.2279 7.072C38.6519 7.072 38.1772 7.248 37.8039 7.6C37.4412 7.94133 37.2599 8.432 37.2599 9.072V14H35.3239ZM47.2503 14.16C46.4289 14.16 45.7569 13.9573 45.2343 13.552C44.7116 13.136 44.4503 12.512 44.4503 11.68C44.4503 10.7627 44.8396 10.0907 45.6183 9.664C46.3969 9.23733 47.4369 9.024 48.7383 9.024H49.7783V8.592C49.7783 8.016 49.6609 7.59467 49.4263 7.328C49.2023 7.05067 48.8129 6.912 48.2583 6.912C47.2876 6.912 46.7543 7.34933 46.6583 8.224H44.7863C44.8609 7.296 45.2236 6.60267 45.8743 6.144C46.5356 5.68533 47.3676 5.456 48.3703 5.456C50.5996 5.456 51.7143 6.47467 51.7143 8.512V14H49.8103V12.976C49.2129 13.7653 48.3596 14.16 47.2503 14.16ZM47.7143 12.768C48.3223 12.768 48.8183 12.6187 49.2023 12.32C49.5863 12.0107 49.7783 11.5947 49.7783 11.072V10.24H48.7863C47.1756 10.24 46.3703 10.6933 46.3703 11.6C46.3703 12.3787 46.8183 12.768 47.7143 12.768ZM56.7812 14.144C55.9599 14.144 55.3306 13.9307 54.8932 13.504C54.4666 13.0773 54.2533 12.464 54.2533 11.664V7.088H53.1333V5.632H54.2533V3.792H56.1893V5.632H58.0293V7.088H56.1893V11.488C56.1893 12.2027 56.5093 12.56 57.1493 12.56C57.5226 12.56 57.8373 12.5067 58.0933 12.4V13.936C57.7199 14.0747 57.2826 14.144 56.7812 14.144Z" fill="#B8284E"/>
<path d="M14.9887 2.54004H5.01123C3.63623 2.54004 2.51123 3.66504 2.51123 5.04004V11.5954C2.51123 12.9704 3.63623 14.0954 5.01123 14.0954H7.32279V17.4604L11.4894 14.0954H14.9884C16.3634 14.0954 17.4884 12.9704 17.4884 11.5954V5.04004C17.4887 3.66504 16.3637 2.54004 14.9887 2.54004ZM15.9262 11.5954C15.9262 12.1035 15.4969 12.5329 14.9887 12.5329H11.4897H10.9375L10.5078 12.8797L8.8856 14.19V14.0954V12.5329H7.3231H5.01154C4.50342 12.5329 4.07404 12.1035 4.07404 11.5954V5.04004C4.07404 4.53191 4.50342 4.10254 5.01154 4.10254H14.989C15.4972 4.10254 15.9265 4.53191 15.9265 5.04004V11.5954H15.9262Z" fill="#B8284E"/>
<path d="M6.79459 9.22883C7.29734 9.22883 7.7049 8.82127 7.7049 8.31852C7.7049 7.81576 7.29734 7.4082 6.79459 7.4082C6.29184 7.4082 5.88428 7.81576 5.88428 8.31852C5.88428 8.82127 6.29184 9.22883 6.79459 9.22883Z" fill="#B8284E"/>
<path d="M9.99991 9.22883C10.5027 9.22883 10.9102 8.82127 10.9102 8.31852C10.9102 7.81576 10.5027 7.4082 9.99991 7.4082C9.49716 7.4082 9.0896 7.81576 9.0896 8.31852C9.0896 8.82127 9.49716 9.22883 9.99991 9.22883Z" fill="#B8284E"/>
<path d="M13.205 9.22883C13.7077 9.22883 14.1153 8.82127 14.1153 8.31852C14.1153 7.81576 13.7077 7.4082 13.205 7.4082C12.7022 7.4082 12.2947 7.81576 12.2947 8.31852C12.2947 8.82127 12.7022 9.22883 13.205 9.22883Z" fill="#B8284E"/>
</svg>
