<svg width="20" height="20" viewBox="0 0 20 20" fill="none" xmlns="http://www.w3.org/2000/svg">
<path d="M10 19C14.9706 19 19 14.9706 19 10C19 5.02944 14.9706 1 10 1C5.02944 1 1 5.02944 1 10C1 14.9706 5.02944 19 10 19Z" stroke="#00A8B2" stroke-width="1.5" stroke-linecap="round" stroke-linejoin="round"/>
<path fill-rule="evenodd" clip-rule="evenodd" d="M14.6316 7.98053C14.9245 7.68763 14.9245 7.21276 14.6316 6.91987C14.3387 6.62697 13.8638 6.62697 13.5709 6.91987L8.72709 11.7637L6.42901 9.46564C6.13612 9.17275 5.66124 9.17275 5.36835 9.46564C5.07546 9.75853 5.07546 10.2334 5.36835 10.5263L8.19678 13.3547C8.48967 13.6476 8.96455 13.6476 9.25744 13.3547C9.30646 13.3057 9.34727 13.2516 9.37988 13.1941C9.43736 13.1615 9.49144 13.1207 9.54043 13.0717L14.6316 7.98053Z" fill="#00A8B2"/>
</svg>
