<svg width="33" height="24" viewBox="0 0 33 24" fill="none" xmlns="http://www.w3.org/2000/svg">
<path d="M24.2658 15.9455C22.1954 14.1673 19.4914 13.0909 16.5295 13.0909C13.5676 13.0909 10.8636 14.1673 8.78952 15.9491C8.73225 16.0001 8.69719 16.0709 8.69169 16.1469C8.6862 16.2228 8.7107 16.2979 8.76005 16.3564L10.0863 17.9164C10.1931 18.04 10.381 18.0545 10.5062 17.9491C12.1125 16.5527 14.2197 15.7091 16.5295 15.7091C18.8393 15.7091 20.9466 16.5527 22.5528 17.9455C22.678 18.0509 22.8659 18.0364 22.9727 17.9127L24.299 16.3527C24.4021 16.2327 24.3874 16.0509 24.2658 15.9455ZM28.5908 10.8509C25.3231 8.16364 21.1197 6.54545 16.5295 6.54545C11.9393 6.54545 7.73591 8.16364 4.46456 10.8509C4.40472 10.9007 4.36726 10.9719 4.36036 11.0489C4.35346 11.1258 4.37767 11.2024 4.42772 11.2618L5.75395 12.8218C5.8571 12.9455 6.04498 12.96 6.16655 12.8582C8.97741 10.5527 12.5914 9.16364 16.5295 9.16364C20.4677 9.16364 24.0816 10.5527 26.8888 12.8582C27.014 12.96 27.1982 12.9455 27.3014 12.8218L28.6276 11.2618C28.7308 11.1382 28.716 10.9527 28.5908 10.8509ZM32.8899 5.79636C28.4176 2.17455 22.6928 0 16.4558 0C10.2594 0 4.5714 2.14545 0.11013 5.72364C0.0794801 5.74794 0.0540666 5.77806 0.0353869 5.81221C0.0167072 5.84636 0.00513871 5.88385 0.0013625 5.92248C-0.0024137 5.96111 0.00167879 6.00009 0.013399 6.03714C0.0251193 6.07418 0.0442302 6.10854 0.0696066 6.13818L1.39583 7.69818C1.49898 7.81818 1.68318 7.83636 1.80475 7.73818C5.80921 4.53455 10.9041 2.61818 16.4558 2.61818C22.0481 2.61818 27.1761 4.56364 31.1916 7.80727C31.3169 7.90909 31.5011 7.89091 31.6042 7.76727L32.9305 6.20727C33.0373 6.08364 33.0189 5.89818 32.8899 5.79636ZM14.1349 21.6727C14.1349 22.29 14.3833 22.8819 14.8255 23.3184C15.2677 23.7548 15.8674 24 16.4927 24C17.118 24 17.7177 23.7548 18.1598 23.3184C18.602 22.8819 18.8504 22.29 18.8504 21.6727C18.8504 21.0555 18.602 20.4635 18.1598 20.0271C17.7177 19.5906 17.118 19.3455 16.4927 19.3455C15.8674 19.3455 15.2677 19.5906 14.8255 20.0271C14.3833 20.4635 14.1349 21.0555 14.1349 21.6727Z" fill="#FF4949"/>
</svg>
