<svg width="264" height="24" viewBox="0 0 264 24" fill="none" xmlns="http://www.w3.org/2000/svg">
<path d="M8.01205 6.47V8.525H3.72205V10.745H6.93205V12.74H3.72205V17H1.15705V6.47H8.01205ZM8.85018 12.8C8.85018 11.94 9.01018 11.185 9.33018 10.535C9.66018 9.885 10.1052 9.385 10.6652 9.035C11.2252 8.685 11.8502 8.51 12.5402 8.51C13.1302 8.51 13.6452 8.63 14.0852 8.87C14.5352 9.11 14.8802 9.425 15.1202 9.815V8.63H17.6852V17H15.1202V15.815C14.8702 16.205 14.5202 16.52 14.0702 16.76C13.6302 17 13.1152 17.12 12.5252 17.12C11.8452 17.12 11.2252 16.945 10.6652 16.595C10.1052 16.235 9.66018 15.73 9.33018 15.08C9.01018 14.42 8.85018 13.66 8.85018 12.8ZM15.1202 12.815C15.1202 12.175 14.9402 11.67 14.5802 11.3C14.2302 10.93 13.8002 10.745 13.2902 10.745C12.7802 10.745 12.3452 10.93 11.9852 11.3C11.6352 11.66 11.4602 12.16 11.4602 12.8C11.4602 13.44 11.6352 13.95 11.9852 14.33C12.3452 14.7 12.7802 14.885 13.2902 14.885C13.8002 14.885 14.2302 14.7 14.5802 14.33C14.9402 13.96 15.1202 13.455 15.1202 12.815ZM19.0308 12.815C19.0308 11.945 19.2058 11.185 19.5558 10.535C19.9158 9.885 20.4108 9.385 21.0408 9.035C21.6808 8.685 22.4108 8.51 23.2308 8.51C24.2808 8.51 25.1558 8.785 25.8558 9.335C26.5658 9.885 27.0308 10.66 27.2508 11.66H24.5208C24.2908 11.02 23.8458 10.7 23.1858 10.7C22.7158 10.7 22.3408 10.885 22.0608 11.255C21.7808 11.615 21.6408 12.135 21.6408 12.815C21.6408 13.495 21.7808 14.02 22.0608 14.39C22.3408 14.75 22.7158 14.93 23.1858 14.93C23.8458 14.93 24.2908 14.61 24.5208 13.97H27.2508C27.0308 14.95 26.5658 15.72 25.8558 16.28C25.1458 16.84 24.2708 17.12 23.2308 17.12C22.4108 17.12 21.6808 16.945 21.0408 16.595C20.4108 16.245 19.9158 15.745 19.5558 15.095C19.2058 14.445 19.0308 13.685 19.0308 12.815ZM36.5129 12.68C36.5129 12.92 36.4979 13.17 36.4679 13.43H30.6629C30.7029 13.95 30.8679 14.35 31.1579 14.63C31.4579 14.9 31.8229 15.035 32.2529 15.035C32.8929 15.035 33.3379 14.765 33.5879 14.225H36.3179C36.1779 14.775 35.9229 15.27 35.5529 15.71C35.1929 16.15 34.7379 16.495 34.1879 16.745C33.6379 16.995 33.0229 17.12 32.3429 17.12C31.5229 17.12 30.7929 16.945 30.1529 16.595C29.5129 16.245 29.0129 15.745 28.6529 15.095C28.2929 14.445 28.1129 13.685 28.1129 12.815C28.1129 11.945 28.2879 11.185 28.6379 10.535C28.9979 9.885 29.4979 9.385 30.1379 9.035C30.7779 8.685 31.5129 8.51 32.3429 8.51C33.1529 8.51 33.8729 8.68 34.5029 9.02C35.1329 9.36 35.6229 9.845 35.9729 10.475C36.3329 11.105 36.5129 11.84 36.5129 12.68ZM33.8879 12.005C33.8879 11.565 33.7379 11.215 33.4379 10.955C33.1379 10.695 32.7629 10.565 32.3129 10.565C31.8829 10.565 31.5179 10.69 31.2179 10.94C30.9279 11.19 30.7479 11.545 30.6779 12.005H33.8879ZM42.531 14.825V17H41.226C40.296 17 39.571 16.775 39.051 16.325C38.531 15.865 38.271 15.12 38.271 14.09V10.76H37.251V8.63H38.271V6.59H40.836V8.63H42.516V10.76H40.836V14.12C40.836 14.37 40.896 14.55 41.016 14.66C41.136 14.77 41.336 14.825 41.616 14.825H42.531ZM45.2498 7.76C44.7998 7.76 44.4298 7.63 44.1398 7.37C43.8598 7.1 43.7198 6.77 43.7198 6.38C43.7198 5.98 43.8598 5.65 44.1398 5.39C44.4298 5.12 44.7998 4.985 45.2498 4.985C45.6898 4.985 46.0498 5.12 46.3298 5.39C46.6198 5.65 46.7648 5.98 46.7648 6.38C46.7648 6.77 46.6198 7.1 46.3298 7.37C46.0498 7.63 45.6898 7.76 45.2498 7.76ZM46.5248 8.63V17H43.9598V8.63H46.5248ZM59.0636 8.54C60.1036 8.54 60.9286 8.855 61.5386 9.485C62.1586 10.115 62.4686 10.99 62.4686 12.11V17H59.9186V12.455C59.9186 11.915 59.7736 11.5 59.4836 11.21C59.2036 10.91 58.8136 10.76 58.3136 10.76C57.8136 10.76 57.4186 10.91 57.1286 11.21C56.8486 11.5 56.7086 11.915 56.7086 12.455V17H54.1586V12.455C54.1586 11.915 54.0136 11.5 53.7236 11.21C53.4436 10.91 53.0536 10.76 52.5536 10.76C52.0536 10.76 51.6586 10.91 51.3686 11.21C51.0886 11.5 50.9486 11.915 50.9486 12.455V17H48.3836V8.63H50.9486V9.68C51.2086 9.33 51.5486 9.055 51.9686 8.855C52.3886 8.645 52.8636 8.54 53.3936 8.54C54.0236 8.54 54.5836 8.675 55.0736 8.945C55.5736 9.215 55.9636 9.6 56.2436 10.1C56.5336 9.64 56.9286 9.265 57.4286 8.975C57.9286 8.685 58.4736 8.54 59.0636 8.54ZM72.1525 12.68C72.1525 12.92 72.1375 13.17 72.1075 13.43H66.3025C66.3425 13.95 66.5075 14.35 66.7975 14.63C67.0975 14.9 67.4625 15.035 67.8925 15.035C68.5325 15.035 68.9775 14.765 69.2275 14.225H71.9575C71.8175 14.775 71.5625 15.27 71.1925 15.71C70.8325 16.15 70.3775 16.495 69.8275 16.745C69.2775 16.995 68.6625 17.12 67.9825 17.12C67.1625 17.12 66.4325 16.945 65.7925 16.595C65.1525 16.245 64.6525 15.745 64.2925 15.095C63.9325 14.445 63.7525 13.685 63.7525 12.815C63.7525 11.945 63.9275 11.185 64.2775 10.535C64.6375 9.885 65.1375 9.385 65.7775 9.035C66.4175 8.685 67.1525 8.51 67.9825 8.51C68.7925 8.51 69.5125 8.68 70.1425 9.02C70.7725 9.36 71.2625 9.845 71.6125 10.475C71.9725 11.105 72.1525 11.84 72.1525 12.68ZM69.5275 12.005C69.5275 11.565 69.3775 11.215 69.0775 10.955C68.7775 10.695 68.4025 10.565 67.9525 10.565C67.5225 10.565 67.1575 10.69 66.8575 10.94C66.5675 11.19 66.3875 11.545 66.3175 12.005H69.5275ZM85.8044 6.47V17H83.2394V12.665H79.2494V17H76.6844V6.47H79.2494V10.595H83.2394V6.47H85.8044ZM91.6011 6.47C92.7111 6.47 93.6811 6.69 94.5111 7.13C95.3411 7.57 95.9811 8.19 96.4311 8.99C96.8911 9.78 97.1211 10.695 97.1211 11.735C97.1211 12.765 96.8911 13.68 96.4311 14.48C95.9811 15.28 95.3361 15.9 94.4961 16.34C93.6661 16.78 92.7011 17 91.6011 17H87.6561V6.47H91.6011ZM91.4361 14.78C92.4061 14.78 93.1611 14.515 93.7011 13.985C94.2411 13.455 94.5111 12.705 94.5111 11.735C94.5111 10.765 94.2411 10.01 93.7011 9.47C93.1611 8.93 92.4061 8.66 91.4361 8.66H90.2211V14.78H91.4361ZM101.298 11.72C101.298 10.68 101.523 9.755 101.973 8.945C102.423 8.125 103.048 7.49 103.848 7.04C104.658 6.58 105.573 6.35 106.593 6.35C107.843 6.35 108.913 6.68 109.803 7.34C110.693 8 111.288 8.9 111.588 10.04H108.768C108.558 9.6 108.258 9.265 107.868 9.035C107.488 8.805 107.053 8.69 106.563 8.69C105.773 8.69 105.133 8.965 104.643 9.515C104.153 10.065 103.908 10.8 103.908 11.72C103.908 12.64 104.153 13.375 104.643 13.925C105.133 14.475 105.773 14.75 106.563 14.75C107.053 14.75 107.488 14.635 107.868 14.405C108.258 14.175 108.558 13.84 108.768 13.4H111.588C111.288 14.54 110.693 15.44 109.803 16.1C108.913 16.75 107.843 17.075 106.593 17.075C105.573 17.075 104.658 16.85 103.848 16.4C103.048 15.94 102.423 15.305 101.973 14.495C101.523 13.685 101.298 12.76 101.298 11.72ZM112.649 12.8C112.649 11.94 112.809 11.185 113.129 10.535C113.459 9.885 113.904 9.385 114.464 9.035C115.024 8.685 115.649 8.51 116.339 8.51C116.929 8.51 117.444 8.63 117.884 8.87C118.334 9.11 118.679 9.425 118.919 9.815V8.63H121.484V17H118.919V15.815C118.669 16.205 118.319 16.52 117.869 16.76C117.429 17 116.914 17.12 116.324 17.12C115.644 17.12 115.024 16.945 114.464 16.595C113.904 16.235 113.459 15.73 113.129 15.08C112.809 14.42 112.649 13.66 112.649 12.8ZM118.919 12.815C118.919 12.175 118.739 11.67 118.379 11.3C118.029 10.93 117.599 10.745 117.089 10.745C116.579 10.745 116.144 10.93 115.784 11.3C115.434 11.66 115.259 12.16 115.259 12.8C115.259 13.44 115.434 13.95 115.784 14.33C116.144 14.7 116.579 14.885 117.089 14.885C117.599 14.885 118.029 14.7 118.379 14.33C118.739 13.96 118.919 13.455 118.919 12.815ZM134.02 8.54C135.06 8.54 135.885 8.855 136.495 9.485C137.115 10.115 137.425 10.99 137.425 12.11V17H134.875V12.455C134.875 11.915 134.73 11.5 134.44 11.21C134.16 10.91 133.77 10.76 133.27 10.76C132.77 10.76 132.375 10.91 132.085 11.21C131.805 11.5 131.665 11.915 131.665 12.455V17H129.115V12.455C129.115 11.915 128.97 11.5 128.68 11.21C128.4 10.91 128.01 10.76 127.51 10.76C127.01 10.76 126.615 10.91 126.325 11.21C126.045 11.5 125.905 11.915 125.905 12.455V17H123.34V8.63H125.905V9.68C126.165 9.33 126.505 9.055 126.925 8.855C127.345 8.645 127.82 8.54 128.35 8.54C128.98 8.54 129.54 8.675 130.03 8.945C130.53 9.215 130.92 9.6 131.2 10.1C131.49 9.64 131.885 9.265 132.385 8.975C132.885 8.685 133.43 8.54 134.02 8.54ZM147.109 12.68C147.109 12.92 147.094 13.17 147.064 13.43H141.259C141.299 13.95 141.464 14.35 141.754 14.63C142.054 14.9 142.419 15.035 142.849 15.035C143.489 15.035 143.934 14.765 144.184 14.225H146.914C146.774 14.775 146.519 15.27 146.149 15.71C145.789 16.15 145.334 16.495 144.784 16.745C144.234 16.995 143.619 17.12 142.939 17.12C142.119 17.12 141.389 16.945 140.749 16.595C140.109 16.245 139.609 15.745 139.249 15.095C138.889 14.445 138.709 13.685 138.709 12.815C138.709 11.945 138.884 11.185 139.234 10.535C139.594 9.885 140.094 9.385 140.734 9.035C141.374 8.685 142.109 8.51 142.939 8.51C143.749 8.51 144.469 8.68 145.099 9.02C145.729 9.36 146.219 9.845 146.569 10.475C146.929 11.105 147.109 11.84 147.109 12.68ZM144.484 12.005C144.484 11.565 144.334 11.215 144.034 10.955C143.734 10.695 143.359 10.565 142.909 10.565C142.479 10.565 142.114 10.69 141.814 10.94C141.524 11.19 141.344 11.545 141.274 12.005H144.484ZM151.027 10.025C151.327 9.565 151.702 9.205 152.152 8.945C152.602 8.675 153.102 8.54 153.652 8.54V11.255H152.947C152.307 11.255 151.827 11.395 151.507 11.675C151.187 11.945 151.027 12.425 151.027 13.115V17H148.462V8.63H151.027V10.025ZM154.368 12.8C154.368 11.94 154.528 11.185 154.848 10.535C155.178 9.885 155.623 9.385 156.183 9.035C156.743 8.685 157.368 8.51 158.058 8.51C158.648 8.51 159.163 8.63 159.603 8.87C160.053 9.11 160.398 9.425 160.638 9.815V8.63H163.203V17H160.638V15.815C160.388 16.205 160.038 16.52 159.588 16.76C159.148 17 158.633 17.12 158.043 17.12C157.363 17.12 156.743 16.945 156.183 16.595C155.623 16.235 155.178 15.73 154.848 15.08C154.528 14.42 154.368 13.66 154.368 12.8ZM160.638 12.815C160.638 12.175 160.458 11.67 160.098 11.3C159.748 10.93 159.318 10.745 158.808 10.745C158.298 10.745 157.863 10.93 157.503 11.3C157.153 11.66 156.978 12.16 156.978 12.8C156.978 13.44 157.153 13.95 157.503 14.33C157.863 14.7 158.298 14.885 158.808 14.885C159.318 14.885 159.748 14.7 160.098 14.33C160.458 13.96 160.638 13.455 160.638 12.815ZM171.687 20.135C170.717 19.205 169.962 18.005 169.422 16.535C168.882 15.065 168.612 13.48 168.612 11.78C168.612 10.06 168.892 8.455 169.452 6.965C170.012 5.465 170.807 4.245 171.837 3.305H174.357V3.545C173.307 4.585 172.497 5.835 171.927 7.295C171.357 8.745 171.072 10.24 171.072 11.78C171.072 13.31 171.347 14.785 171.897 16.205C172.447 17.625 173.222 18.855 174.222 19.895V20.135H171.687ZM181.761 11.6C182.371 11.73 182.861 12.035 183.231 12.515C183.601 12.985 183.786 13.525 183.786 14.135C183.786 15.015 183.476 15.715 182.856 16.235C182.246 16.745 181.391 17 180.291 17H175.386V6.47H180.126C181.196 6.47 182.031 6.715 182.631 7.205C183.241 7.695 183.546 8.36 183.546 9.2C183.546 9.82 183.381 10.335 183.051 10.745C182.731 11.155 182.301 11.44 181.761 11.6ZM177.951 10.73H179.631C180.051 10.73 180.371 10.64 180.591 10.46C180.821 10.27 180.936 9.995 180.936 9.635C180.936 9.275 180.821 9 180.591 8.81C180.371 8.62 180.051 8.525 179.631 8.525H177.951V10.73ZM179.841 14.93C180.271 14.93 180.601 14.835 180.831 14.645C181.071 14.445 181.191 14.16 181.191 13.79C181.191 13.42 181.066 13.13 180.816 12.92C180.576 12.71 180.241 12.605 179.811 12.605H177.951V14.93H179.841ZM193.538 8.63V17H190.973V15.86C190.713 16.23 190.358 16.53 189.908 16.76C189.468 16.98 188.978 17.09 188.438 17.09C187.798 17.09 187.233 16.95 186.743 16.67C186.253 16.38 185.873 15.965 185.603 15.425C185.333 14.885 185.198 14.25 185.198 13.52V8.63H187.748V13.175C187.748 13.735 187.893 14.17 188.183 14.48C188.473 14.79 188.863 14.945 189.353 14.945C189.853 14.945 190.248 14.79 190.538 14.48C190.828 14.17 190.973 13.735 190.973 13.175V8.63H193.538ZM196.671 7.76C196.221 7.76 195.851 7.63 195.561 7.37C195.281 7.1 195.141 6.77 195.141 6.38C195.141 5.98 195.281 5.65 195.561 5.39C195.851 5.12 196.221 4.985 196.671 4.985C197.111 4.985 197.471 5.12 197.751 5.39C198.041 5.65 198.186 5.98 198.186 6.38C198.186 6.77 198.041 7.1 197.751 7.37C197.471 7.63 197.111 7.76 196.671 7.76ZM197.946 8.63V17H195.381V8.63H197.946ZM202.37 5.9V17H199.805V5.9H202.37ZM208.893 14.825V17H207.588C206.658 17 205.933 16.775 205.413 16.325C204.893 15.865 204.633 15.12 204.633 14.09V10.76H203.613V8.63H204.633V6.59H207.198V8.63H208.878V10.76H207.198V14.12C207.198 14.37 207.258 14.55 207.378 14.66C207.498 14.77 207.698 14.825 207.978 14.825H208.893ZM216.772 10.67V12.8H210.172V10.67H216.772ZM220.313 7.76C219.863 7.76 219.493 7.63 219.203 7.37C218.923 7.1 218.783 6.77 218.783 6.38C218.783 5.98 218.923 5.65 219.203 5.39C219.493 5.12 219.863 4.985 220.313 4.985C220.753 4.985 221.113 5.12 221.393 5.39C221.683 5.65 221.828 5.98 221.828 6.38C221.828 6.77 221.683 7.1 221.393 7.37C221.113 7.63 220.753 7.76 220.313 7.76ZM221.588 8.63V17H219.023V8.63H221.588ZM228.547 8.54C229.527 8.54 230.307 8.86 230.887 9.5C231.477 10.13 231.772 11 231.772 12.11V17H229.222V12.455C229.222 11.895 229.077 11.46 228.787 11.15C228.497 10.84 228.107 10.685 227.617 10.685C227.127 10.685 226.737 10.84 226.447 11.15C226.157 11.46 226.012 11.895 226.012 12.455V17H223.447V8.63H226.012V9.74C226.272 9.37 226.622 9.08 227.062 8.87C227.502 8.65 227.997 8.54 228.547 8.54ZM232.865 20.135V19.895C233.865 18.855 234.64 17.625 235.19 16.205C235.74 14.785 236.015 13.31 236.015 11.78C236.015 10.24 235.73 8.745 235.16 7.295C234.59 5.835 233.78 4.585 232.73 3.545V3.305H235.25C236.28 4.245 237.075 5.465 237.635 6.965C238.195 8.455 238.475 10.06 238.475 11.78C238.475 13.48 238.205 15.065 237.665 16.535C237.125 18.005 236.37 19.205 235.4 20.135H232.865Z" fill="#1CE4F0"/>
<path d="M257.222 10.2217L252 15.4434L246.778 10.2217" stroke="#1CE4F0" stroke-width="2" stroke-linecap="round" stroke-linejoin="round"/>
</svg>
