<svg width="32" height="32" viewBox="0 0 32 32" fill="none" xmlns="http://www.w3.org/2000/svg">
<g filter="url(#filter0_b)">
<rect width="32" height="32" rx="16" fill="white" fill-opacity="0.15"/>
<rect x="0.5" y="0.5" width="31" height="31" rx="15.5" stroke="white" stroke-opacity="0.15"/>
</g>
<path fill-rule="evenodd" clip-rule="evenodd" d="M16 13.7024L14.9592 12.3118C14.7329 12.0095 14.4254 11.7543 14.0571 11.575C13.6885 11.3957 13.2742 11.2999 12.8502 11.3C12.1464 11.3 11.4876 11.562 11.0151 12.0034C10.5456 12.442 10.3 13.0172 10.3 13.5967C10.3 14.9403 11.1317 16.3288 12.498 17.6879C13.5927 18.7767 14.8944 19.7127 16 20.4474C17.1056 19.7127 18.4073 18.7767 19.502 17.6879C20.8683 16.3288 21.7 14.9403 21.7 13.5967C21.7 13.3079 21.6392 13.0195 21.5185 12.7472C21.3977 12.4747 21.2179 12.2211 20.9849 12.0034C20.7517 11.7855 20.4701 11.6084 20.1542 11.4862C19.8382 11.3639 19.4967 11.3 19.15 11.3V10C19.6556 10 20.1562 10.093 20.6233 10.2738C21.0904 10.4545 21.5149 10.7195 21.8724 11.0535C22.2299 11.3874 22.5135 11.7839 22.7069 12.2203C22.9004 12.6567 23 13.1244 23 13.5967C23 17.3373 18.45 20.4227 16 22C13.55 20.4227 9 17.3373 9 13.5967C9 12.6428 9.40562 11.728 10.1276 11.0535C10.8497 10.3789 11.8289 10 12.85 10C13.4683 9.99992 14.0775 10.1392 14.6259 10.4061C14.7712 10.4768 14.9111 10.5559 15.0449 10.6428C15.4159 10.8839 15.7396 11.1849 16 11.5329C16.2604 11.1849 16.5841 10.8839 16.9551 10.6428C17.0889 10.5559 17.2288 10.4768 17.3741 10.4061C17.9225 10.1392 18.5317 9.99992 19.15 10V11.3C18.726 11.2999 18.3115 11.3957 17.9429 11.575C17.5746 11.7543 17.2671 12.0095 17.0408 12.3118L16 13.7024Z" fill="white"/>
<defs>
<filter id="filter0_b" x="-12" y="-12" width="56" height="56" filterUnits="userSpaceOnUse" color-interpolation-filters="sRGB">
<feFlood flood-opacity="0" result="BackgroundImageFix"/>
<feGaussianBlur in="BackgroundImage" stdDeviation="6"/>
<feComposite in2="SourceAlpha" operator="in" result="effect1_backgroundBlur"/>
<feBlend mode="normal" in="SourceGraphic" in2="effect1_backgroundBlur" result="shape"/>
</filter>
</defs>
</svg>
