<svg width="32" height="32" viewBox="0 0 32 32" fill="none" xmlns="http://www.w3.org/2000/svg">
<g filter="url(#filter0_b)">
<mask id="path-1-inside-1" fill="white">
<path fill-rule="evenodd" clip-rule="evenodd" d="M16 0C7.16344 0 0 7.16344 0 16C0 24.8366 7.16344 32 16 32C24.8366 32 32 24.8366 32 16C32 7.16344 24.8366 0 16 0ZM17.3741 11.4061C17.9225 11.1392 18.5317 10.9999 19.15 11C19.6556 11 20.1562 11.093 20.6233 11.2738C21.0904 11.4545 21.5149 11.7195 21.8724 12.0535C22.2299 12.3874 22.5135 12.7839 22.7069 13.2203C22.9004 13.6567 23 14.1244 23 14.5967C23 18.3373 18.45 21.4227 16 23C13.55 21.4227 9 18.3373 9 14.5967C9 13.6428 9.40562 12.728 10.1276 12.0535C10.8497 11.3789 11.8289 11 12.85 11C13.4683 10.9999 14.0775 11.1392 14.6259 11.4061C15.1743 11.6729 15.6457 12.0595 16 12.5329C16.3543 12.0595 16.8257 11.6729 17.3741 11.4061Z"/>
</mask>
<path fill-rule="evenodd" clip-rule="evenodd" d="M16 0C7.16344 0 0 7.16344 0 16C0 24.8366 7.16344 32 16 32C24.8366 32 32 24.8366 32 16C32 7.16344 24.8366 0 16 0ZM17.3741 11.4061C17.9225 11.1392 18.5317 10.9999 19.15 11C19.6556 11 20.1562 11.093 20.6233 11.2738C21.0904 11.4545 21.5149 11.7195 21.8724 12.0535C22.2299 12.3874 22.5135 12.7839 22.7069 13.2203C22.9004 13.6567 23 14.1244 23 14.5967C23 18.3373 18.45 21.4227 16 23C13.55 21.4227 9 18.3373 9 14.5967C9 13.6428 9.40562 12.728 10.1276 12.0535C10.8497 11.3789 11.8289 11 12.85 11C13.4683 10.9999 14.0775 11.1392 14.6259 11.4061C15.1743 11.6729 15.6457 12.0595 16 12.5329C16.3543 12.0595 16.8257 11.6729 17.3741 11.4061Z" fill="white"/>
<path d="M19.15 11L19.1499 12H19.15V11ZM17.3741 11.4061L16.9365 10.5069H16.9365L17.3741 11.4061ZM21.8724 12.0535L21.1897 12.7842L21.1897 12.7842L21.8724 12.0535ZM22.7069 13.2203L23.6211 12.815L23.6211 12.815L22.7069 13.2203ZM16 23L15.4587 23.8408L16 24.1893L16.5413 23.8408L16 23ZM10.1276 12.0535L9.44498 11.3227V11.3227L10.1276 12.0535ZM12.85 11V12H12.8501L12.85 11ZM16 12.5329L15.1994 13.1321L16 14.2017L16.8006 13.1321L16 12.5329ZM1 16C1 7.71573 7.71573 1 16 1V-1C6.61116 -1 -1 6.61116 -1 16H1ZM16 31C7.71573 31 1 24.2843 1 16H-1C-1 25.3888 6.61116 33 16 33V31ZM31 16C31 24.2843 24.2843 31 16 31V33C25.3888 33 33 25.3888 33 16H31ZM16 1C24.2843 1 31 7.71573 31 16H33C33 6.61116 25.3888 -1 16 -1V1ZM19.1501 10C18.3823 9.9999 17.6232 10.1727 16.9365 10.5069L17.8116 12.3053C18.2217 12.1057 18.681 11.9999 19.1499 12L19.1501 10ZM20.9842 10.3412C20.4009 10.1155 19.7778 10 19.15 10V12C19.5334 12 19.9116 12.0706 20.2624 12.2064L20.9842 10.3412ZM22.555 11.3227C22.1019 10.8994 21.5676 10.5669 20.9842 10.3412L20.2624 12.2064C20.6133 12.3422 20.9278 12.5395 21.1897 12.7842L22.555 11.3227ZM23.6211 12.815C23.3717 12.2526 23.0083 11.7462 22.555 11.3227L21.1897 12.7842C21.4514 13.0287 21.6552 13.3153 21.7928 13.6256L23.6211 12.815ZM24 14.5967C24 13.9833 23.8706 13.3776 23.6211 12.815L21.7928 13.6256C21.9303 13.9358 22 14.2655 22 14.5967H24ZM16.5413 23.8408C17.7699 23.0498 19.5988 21.8356 21.124 20.3186C22.6273 18.8233 24 16.8722 24 14.5967H22C22 16.0618 21.0977 17.5238 19.7135 18.9006C18.3512 20.2557 16.6801 21.3728 15.4587 22.1592L16.5413 23.8408ZM8 14.5967C8 16.8722 9.37273 18.8233 10.876 20.3186C12.4012 21.8356 14.2301 23.0498 15.4587 23.8408L16.5413 22.1592C15.3199 21.3728 13.6488 20.2557 12.2865 18.9006C10.9023 17.5238 10 16.0618 10 14.5967H8ZM9.44498 11.3227C8.52872 12.1787 8 13.3548 8 14.5967H10C10 13.9308 10.2825 13.2772 10.8103 12.7842L9.44498 11.3227ZM12.85 10C11.5848 10 10.3589 10.4689 9.44498 11.3227L10.8103 12.7842C11.3404 12.289 12.073 12 12.85 12V10ZM15.0635 10.5069C14.3768 10.1727 13.6177 9.9999 12.8499 10L12.8501 12C13.319 11.9999 13.7783 12.1057 14.1884 12.3053L15.0635 10.5069ZM16.8006 11.9336C16.3478 11.3287 15.7504 10.8411 15.0635 10.5069L14.1884 12.3053C14.5982 12.5047 14.9435 12.7902 15.1994 13.1321L16.8006 11.9336ZM16.9365 10.5069C16.2496 10.8411 15.6522 11.3287 15.1994 11.9336L16.8006 13.1321C17.0565 12.7902 17.4018 12.5047 17.8116 12.3053L16.9365 10.5069Z" fill="white" fill-opacity="0.15" mask="url(#path-1-inside-1)"/>
</g>
<defs>
<filter id="filter0_b" x="-12" y="-12" width="56" height="56" filterUnits="userSpaceOnUse" color-interpolation-filters="sRGB">
<feFlood flood-opacity="0" result="BackgroundImageFix"/>
<feGaussianBlur in="BackgroundImage" stdDeviation="6"/>
<feComposite in2="SourceAlpha" operator="in" result="effect1_backgroundBlur"/>
<feBlend mode="normal" in="SourceGraphic" in2="effect1_backgroundBlur" result="shape"/>
</filter>
</defs>
</svg>
