<svg width="179" height="24" viewBox="0 0 179 24" fill="none" xmlns="http://www.w3.org/2000/svg">
<path d="M5.33887 6.47C6.44887 6.47 7.41887 6.69 8.24887 7.13C9.07887 7.57 9.71887 8.19 10.1689 8.99C10.6289 9.78 10.8589 10.695 10.8589 11.735C10.8589 12.765 10.6289 13.68 10.1689 14.48C9.71887 15.28 9.07387 15.9 8.23387 16.34C7.40387 16.78 6.43887 17 5.33887 17H1.39387V6.47H5.33887ZM5.17387 14.78C6.14387 14.78 6.89887 14.515 7.43887 13.985C7.97887 13.455 8.24887 12.705 8.24887 11.735C8.24887 10.765 7.97887 10.01 7.43887 9.47C6.89887 8.93 6.14387 8.66 5.17387 8.66H3.95887V14.78H5.17387ZM20.1823 12.68C20.1823 12.92 20.1673 13.17 20.1373 13.43H14.3323C14.3723 13.95 14.5373 14.35 14.8273 14.63C15.1273 14.9 15.4923 15.035 15.9223 15.035C16.5623 15.035 17.0073 14.765 17.2573 14.225H19.9873C19.8473 14.775 19.5923 15.27 19.2223 15.71C18.8623 16.15 18.4073 16.495 17.8573 16.745C17.3073 16.995 16.6923 17.12 16.0123 17.12C15.1923 17.12 14.4623 16.945 13.8223 16.595C13.1823 16.245 12.6823 15.745 12.3223 15.095C11.9623 14.445 11.7823 13.685 11.7823 12.815C11.7823 11.945 11.9573 11.185 12.3073 10.535C12.6673 9.885 13.1673 9.385 13.8073 9.035C14.4473 8.685 15.1823 8.51 16.0123 8.51C16.8223 8.51 17.5423 8.68 18.1723 9.02C18.8023 9.36 19.2923 9.845 19.6423 10.475C20.0023 11.105 20.1823 11.84 20.1823 12.68ZM17.5573 12.005C17.5573 11.565 17.4073 11.215 17.1073 10.955C16.8073 10.695 16.4323 10.565 15.9823 10.565C15.5523 10.565 15.1873 10.69 14.8873 10.94C14.5973 11.19 14.4173 11.545 14.3473 12.005H17.5573ZM25.7355 10.76H24.3555V17H21.7905V10.76H20.8605V8.63H21.7905V8.39C21.7905 7.36 22.0855 6.58 22.6755 6.05C23.2655 5.51 24.1305 5.24 25.2705 5.24C25.4605 5.24 25.6005 5.245 25.6905 5.255V7.43C25.2005 7.4 24.8555 7.47 24.6555 7.64C24.4555 7.81 24.3555 8.115 24.3555 8.555V8.63H25.7355V10.76ZM26.4307 12.8C26.4307 11.94 26.5907 11.185 26.9107 10.535C27.2407 9.885 27.6857 9.385 28.2457 9.035C28.8057 8.685 29.4307 8.51 30.1207 8.51C30.7107 8.51 31.2257 8.63 31.6657 8.87C32.1157 9.11 32.4607 9.425 32.7007 9.815V8.63H35.2657V17H32.7007V15.815C32.4507 16.205 32.1007 16.52 31.6507 16.76C31.2107 17 30.6957 17.12 30.1057 17.12C29.4257 17.12 28.8057 16.945 28.2457 16.595C27.6857 16.235 27.2407 15.73 26.9107 15.08C26.5907 14.42 26.4307 13.66 26.4307 12.8ZM32.7007 12.815C32.7007 12.175 32.5207 11.67 32.1607 11.3C31.8107 10.93 31.3807 10.745 30.8707 10.745C30.3607 10.745 29.9257 10.93 29.5657 11.3C29.2157 11.66 29.0407 12.16 29.0407 12.8C29.0407 13.44 29.2157 13.95 29.5657 14.33C29.9257 14.7 30.3607 14.885 30.8707 14.885C31.3807 14.885 31.8107 14.7 32.1607 14.33C32.5207 13.96 32.7007 13.455 32.7007 12.815ZM45.3864 8.63V17H42.8214V15.86C42.5614 16.23 42.2064 16.53 41.7564 16.76C41.3164 16.98 40.8264 17.09 40.2864 17.09C39.6464 17.09 39.0814 16.95 38.5914 16.67C38.1014 16.38 37.7214 15.965 37.4514 15.425C37.1814 14.885 37.0464 14.25 37.0464 13.52V8.63H39.5964V13.175C39.5964 13.735 39.7414 14.17 40.0314 14.48C40.3214 14.79 40.7114 14.945 41.2014 14.945C41.7014 14.945 42.0964 14.79 42.3864 14.48C42.6764 14.17 42.8214 13.735 42.8214 13.175V8.63H45.3864ZM49.7938 5.9V17H47.2288V5.9H49.7938ZM56.3177 14.825V17H55.0127C54.0827 17 53.3577 16.775 52.8377 16.325C52.3177 15.865 52.0577 15.12 52.0577 14.09V10.76H51.0377V8.63H52.0577V6.59H54.6227V8.63H56.3027V10.76H54.6227V14.12C54.6227 14.37 54.6827 14.55 54.8027 14.66C54.9227 14.77 55.1227 14.825 55.4027 14.825H56.3177ZM71.6051 8.54C72.6451 8.54 73.4701 8.855 74.0801 9.485C74.7001 10.115 75.0101 10.99 75.0101 12.11V17H72.4601V12.455C72.4601 11.915 72.3151 11.5 72.0251 11.21C71.7451 10.91 71.3551 10.76 70.8551 10.76C70.3551 10.76 69.9601 10.91 69.6701 11.21C69.3901 11.5 69.2501 11.915 69.2501 12.455V17H66.7001V12.455C66.7001 11.915 66.5551 11.5 66.2651 11.21C65.9851 10.91 65.5951 10.76 65.0951 10.76C64.5951 10.76 64.2001 10.91 63.9101 11.21C63.6301 11.5 63.4901 11.915 63.4901 12.455V17H60.9251V8.63H63.4901V9.68C63.7501 9.33 64.0901 9.055 64.5101 8.855C64.9301 8.645 65.4051 8.54 65.9351 8.54C66.5651 8.54 67.1251 8.675 67.6151 8.945C68.1151 9.215 68.5051 9.6 68.7851 10.1C69.0751 9.64 69.4701 9.265 69.9701 8.975C70.4701 8.685 71.0151 8.54 71.6051 8.54ZM78.094 7.76C77.644 7.76 77.274 7.63 76.984 7.37C76.704 7.1 76.564 6.77 76.564 6.38C76.564 5.98 76.704 5.65 76.984 5.39C77.274 5.12 77.644 4.985 78.094 4.985C78.534 4.985 78.894 5.12 79.174 5.39C79.464 5.65 79.609 5.98 79.609 6.38C79.609 6.77 79.464 7.1 79.174 7.37C78.894 7.63 78.534 7.76 78.094 7.76ZM79.369 8.63V17H76.804V8.63H79.369ZM80.7179 12.815C80.7179 11.945 80.8929 11.185 81.2429 10.535C81.6029 9.885 82.0979 9.385 82.7279 9.035C83.3679 8.685 84.0979 8.51 84.9179 8.51C85.9679 8.51 86.8429 8.785 87.5429 9.335C88.2529 9.885 88.7179 10.66 88.9379 11.66H86.2079C85.9779 11.02 85.5329 10.7 84.8729 10.7C84.4029 10.7 84.0279 10.885 83.7479 11.255C83.4679 11.615 83.3279 12.135 83.3279 12.815C83.3279 13.495 83.4679 14.02 83.7479 14.39C84.0279 14.75 84.4029 14.93 84.8729 14.93C85.5329 14.93 85.9779 14.61 86.2079 13.97H88.9379C88.7179 14.95 88.2529 15.72 87.5429 16.28C86.8329 16.84 85.9579 17.12 84.9179 17.12C84.0979 17.12 83.3679 16.945 82.7279 16.595C82.0979 16.245 81.6029 15.745 81.2429 15.095C80.8929 14.445 80.7179 13.685 80.7179 12.815ZM92.8749 10.025C93.1749 9.565 93.5499 9.205 93.9999 8.945C94.4499 8.675 94.9499 8.54 95.4999 8.54V11.255H94.7949C94.1549 11.255 93.6749 11.395 93.3549 11.675C93.0349 11.945 92.8749 12.425 92.8749 13.115V17H90.3099V8.63H92.8749V10.025ZM100.536 17.12C99.7159 17.12 98.9759 16.945 98.3159 16.595C97.6659 16.245 97.1509 15.745 96.7709 15.095C96.4009 14.445 96.2159 13.685 96.2159 12.815C96.2159 11.955 96.4059 11.2 96.7859 10.55C97.1659 9.89 97.6859 9.385 98.3459 9.035C99.0059 8.685 99.7459 8.51 100.566 8.51C101.386 8.51 102.126 8.685 102.786 9.035C103.446 9.385 103.966 9.89 104.346 10.55C104.726 11.2 104.916 11.955 104.916 12.815C104.916 13.675 104.721 14.435 104.331 15.095C103.951 15.745 103.426 16.245 102.756 16.595C102.096 16.945 101.356 17.12 100.536 17.12ZM100.536 14.9C101.026 14.9 101.441 14.72 101.781 14.36C102.131 14 102.306 13.485 102.306 12.815C102.306 12.145 102.136 11.63 101.796 11.27C101.466 10.91 101.056 10.73 100.566 10.73C100.066 10.73 99.6509 10.91 99.3209 11.27C98.9909 11.62 98.8259 12.135 98.8259 12.815C98.8259 13.485 98.9859 14 99.3059 14.36C99.6359 14.72 100.046 14.9 100.536 14.9ZM108.842 9.815C109.092 9.425 109.437 9.11 109.877 8.87C110.317 8.63 110.832 8.51 111.422 8.51C112.112 8.51 112.737 8.685 113.297 9.035C113.857 9.385 114.297 9.885 114.617 10.535C114.947 11.185 115.112 11.94 115.112 12.8C115.112 13.66 114.947 14.42 114.617 15.08C114.297 15.73 113.857 16.235 113.297 16.595C112.737 16.945 112.112 17.12 111.422 17.12C110.842 17.12 110.327 17 109.877 16.76C109.437 16.52 109.092 16.21 108.842 15.83V20.99H106.277V8.63H108.842V9.815ZM112.502 12.8C112.502 12.16 112.322 11.66 111.962 11.3C111.612 10.93 111.177 10.745 110.657 10.745C110.147 10.745 109.712 10.93 109.352 11.3C109.002 11.67 108.827 12.175 108.827 12.815C108.827 13.455 109.002 13.96 109.352 14.33C109.712 14.7 110.147 14.885 110.657 14.885C111.167 14.885 111.602 14.7 111.962 14.33C112.322 13.95 112.502 13.44 112.502 12.8ZM121.602 8.54C122.562 8.54 123.332 8.86 123.912 9.5C124.492 10.13 124.782 11 124.782 12.11V17H122.232V12.455C122.232 11.895 122.087 11.46 121.797 11.15C121.507 10.84 121.117 10.685 120.627 10.685C120.137 10.685 119.747 10.84 119.457 11.15C119.167 11.46 119.022 11.895 119.022 12.455V17H116.457V5.9H119.022V9.755C119.282 9.385 119.637 9.09 120.087 8.87C120.537 8.65 121.042 8.54 121.602 8.54ZM130.375 17.12C129.555 17.12 128.815 16.945 128.155 16.595C127.505 16.245 126.99 15.745 126.61 15.095C126.24 14.445 126.055 13.685 126.055 12.815C126.055 11.955 126.245 11.2 126.625 10.55C127.005 9.89 127.525 9.385 128.185 9.035C128.845 8.685 129.585 8.51 130.405 8.51C131.225 8.51 131.965 8.685 132.625 9.035C133.285 9.385 133.805 9.89 134.185 10.55C134.565 11.2 134.755 11.955 134.755 12.815C134.755 13.675 134.56 14.435 134.17 15.095C133.79 15.745 133.265 16.245 132.595 16.595C131.935 16.945 131.195 17.12 130.375 17.12ZM130.375 14.9C130.865 14.9 131.28 14.72 131.62 14.36C131.97 14 132.145 13.485 132.145 12.815C132.145 12.145 131.975 11.63 131.635 11.27C131.305 10.91 130.895 10.73 130.405 10.73C129.905 10.73 129.49 10.91 129.16 11.27C128.83 11.62 128.665 12.135 128.665 12.815C128.665 13.485 128.825 14 129.145 14.36C129.475 14.72 129.885 14.9 130.375 14.9ZM141.216 8.54C142.196 8.54 142.976 8.86 143.556 9.5C144.146 10.13 144.441 11 144.441 12.11V17H141.891V12.455C141.891 11.895 141.746 11.46 141.456 11.15C141.166 10.84 140.776 10.685 140.286 10.685C139.796 10.685 139.406 10.84 139.116 11.15C138.826 11.46 138.681 11.895 138.681 12.455V17H136.116V8.63H138.681V9.74C138.941 9.37 139.291 9.08 139.731 8.87C140.171 8.65 140.666 8.54 141.216 8.54ZM154.113 12.68C154.113 12.92 154.098 13.17 154.068 13.43H148.263C148.303 13.95 148.468 14.35 148.758 14.63C149.058 14.9 149.423 15.035 149.853 15.035C150.493 15.035 150.938 14.765 151.188 14.225H153.918C153.778 14.775 153.523 15.27 153.153 15.71C152.793 16.15 152.338 16.495 151.788 16.745C151.238 16.995 150.623 17.12 149.943 17.12C149.123 17.12 148.393 16.945 147.753 16.595C147.113 16.245 146.613 15.745 146.253 15.095C145.893 14.445 145.713 13.685 145.713 12.815C145.713 11.945 145.888 11.185 146.238 10.535C146.598 9.885 147.098 9.385 147.738 9.035C148.378 8.685 149.113 8.51 149.943 8.51C150.753 8.51 151.473 8.68 152.103 9.02C152.733 9.36 153.223 9.845 153.573 10.475C153.933 11.105 154.113 11.84 154.113 12.68ZM151.488 12.005C151.488 11.565 151.338 11.215 151.038 10.955C150.738 10.695 150.363 10.565 149.913 10.565C149.483 10.565 149.118 10.69 148.818 10.94C148.528 11.19 148.348 11.545 148.278 12.005H151.488Z" fill="#1CE4F0"/>
<path d="M172.222 10.2217L167 15.4434L161.778 10.2217" stroke="#1CE4F0" stroke-width="2" stroke-linecap="round" stroke-linejoin="round"/>
</svg>
