<svg width="17" height="18" viewBox="0 0 17 18" fill="none" xmlns="http://www.w3.org/2000/svg">
<path d="M12.9162 5.76649C12.9162 4.50234 12.414 3.28996 11.5201 2.39607C10.6263 1.50218 9.41388 1 8.14973 1C6.88558 1 5.67321 1.50218 4.77932 2.39607C3.88543 3.28996 3.38324 4.50234 3.38324 5.76649C3.38324 11.3274 1 12.9162 1 12.9162H15.2995C15.2995 12.9162 12.9162 11.3274 12.9162 5.76649Z" stroke="#41464D" stroke-width="1.5" stroke-linecap="round" stroke-linejoin="round"/>
<path d="M9.52423 16.0937C9.38456 16.3345 9.18408 16.5343 8.94288 16.6733C8.70167 16.8122 8.4282 16.8853 8.14984 16.8853C7.87148 16.8853 7.59801 16.8122 7.35681 16.6733C7.1156 16.5343 6.91512 16.3345 6.77545 16.0937" stroke="#41464D" stroke-width="1.5" stroke-linecap="round" stroke-linejoin="round"/>
</svg>
