<svg width="141" height="88" viewBox="0 0 141 88" fill="none" xmlns="http://www.w3.org/2000/svg">
<path d="M42.5 51.9997V19L69.5 35.9997V69.4997L42.5 51.9997Z" fill="#4D1948"/>
<path d="M99.5 18.5L69.5 1L42.5 18.5L69.5 36L99.5 18.5Z" fill="#4D1948"/>
<path d="M69.5 69.5V36L99.5 18.5V52L69.5 69.5Z" fill="#4D1948"/>
<path d="M132.673 33.8711L102.817 50.6037M43.2124 85.5625L66.4477 71.9921L43.2124 85.5625Z" stroke="#83657F" stroke-linecap="round" stroke-dasharray="0.1 4"/>
<path d="M12.0598 69.0287L39.1034 54.666" stroke="#83657F" stroke-linecap="round" stroke-dasharray="0.1 4"/>
<path d="M12.1548 32.8555L39.1931 49.972M93.4348 86.625L72.2233 72.5336L93.4348 86.625Z" stroke="#83657F" stroke-linecap="round" stroke-dasharray="0.1 4"/>
<path d="M126.771 69.4135L102.185 54.4863" stroke="#83657F" stroke-linecap="round" stroke-dasharray="0.1 4"/>
<path d="M32.425 15.2742C32.6843 15.179 32.8173 14.8917 32.7221 14.6325C32.6269 14.3733 32.3396 14.2403 32.0804 14.3354L32.425 15.2742ZM114.717 16.8465C114.466 16.731 114.169 16.8407 114.054 17.0915C113.938 17.3423 114.048 17.6393 114.299 17.7548L114.717 16.8465ZM139.36 47.3177C139.36 57.7878 131.765 67.3701 119.257 74.3636C106.766 81.3479 89.4763 85.6835 70.351 85.6835V86.6835C89.6146 86.6835 107.079 82.3187 119.745 75.2364C132.396 68.1632 140.36 58.3126 140.36 47.3177H139.36ZM70.351 85.6835C51.2257 85.6835 33.9357 81.3479 21.4446 74.3636C8.93724 67.3701 1.3418 57.7878 1.3418 47.3177H0.341797C0.341797 58.3126 8.30652 68.1632 20.9566 75.2364C33.6229 82.3187 51.0874 86.6835 70.351 86.6835V85.6835ZM1.3418 47.3177C1.3418 34.0481 13.5591 22.1998 32.425 15.2742L32.0804 14.3354C13.1093 21.2996 0.341797 33.3879 0.341797 47.3177H1.3418ZM114.299 17.7548C129.716 24.8536 139.36 35.5237 139.36 47.3177H140.36C140.36 34.9338 130.262 24.0042 114.717 16.8465L114.299 17.7548Z" fill="white"/>
<path fill-rule="evenodd" clip-rule="evenodd" d="M69.6838 0.265625L69.9488 0.422665L99.7608 18.0892L100.006 18.2345V18.5194V52.1956V52.482L99.7588 52.6269L69.9468 70.1091L69.6839 70.2633L69.4264 70.1002L41.8228 52.618L41.5903 52.4707V52.1956V18.5194V18.2457L41.8208 18.0982L69.4244 0.431675L69.6838 0.265625ZM69.704 1.43998L42.9486 18.5637L69.6896 35.4187L98.6432 18.5894L69.704 1.43998ZM42.5903 51.9204V19.52L69.171 36.2738V68.7548L42.5903 51.9204ZM70.171 68.8184L99.0059 51.9091V19.5352L70.171 36.2955V68.8184Z" fill="white"/>
<path fill-rule="evenodd" clip-rule="evenodd" d="M69.6838 0.265625L69.9488 0.422665L99.7608 18.0892L100.006 18.2345V18.5194V52.1956V52.482L99.7588 52.6269L69.9468 70.1091L69.6839 70.2633L69.4264 70.1002L41.8228 52.618L41.5903 52.4707V52.1956V18.5194V18.2457L41.8208 18.0982L69.4244 0.431675L69.6838 0.265625ZM69.704 1.43998L42.9486 18.5637L69.6896 35.4187L98.6432 18.5894L69.704 1.43998ZM42.5903 51.9204V19.52L69.171 36.2738V68.7548L42.5903 51.9204ZM70.171 68.8184L99.0059 51.9091V19.5352L70.171 36.2955V68.8184Z" fill="url(#paint0_linear)"/>
<path d="M28.375 20.7215L22.692 19.1088L24.4294 13.8223" stroke="white" stroke-linecap="round"/>
<path d="M27.7247 73.2344L29.1931 78.9565L23.7508 80.1174" stroke="white" stroke-linecap="round"/>
<path d="M112.744 73.4434L118.198 75.713L115.851 80.7586" stroke="white" stroke-linecap="round"/>
<path d="M127.248 29.0003L125.398 23.3902L130.749 21.8652" stroke="white" stroke-linecap="round"/>
<defs>
<linearGradient id="paint0_linear" x1="46.0313" y1="13.3223" x2="98.0454" y2="51.6088" gradientUnits="userSpaceOnUse">
<stop stop-color="#F91956"/>
<stop offset="1" stop-color="#20E0EC"/>
</linearGradient>
</defs>
</svg>
