<svg width="17" height="16" viewBox="0 0 17 16" fill="none" xmlns="http://www.w3.org/2000/svg">
<path d="M15.4902 3.25H5.15625L4.92773 2.13281C4.87695 1.85352 4.62305 1.625 4.34375 1.625H1.80469C1.62695 1.625 1.5 1.77734 1.5 1.92969V2.53906C1.5 2.7168 1.62695 2.84375 1.80469 2.84375H3.83594L5.58789 11.8828C5.30859 12.1875 5.15625 12.5684 5.15625 13C5.15625 13.9141 5.86719 14.625 6.78125 14.625C7.66992 14.625 8.40625 13.9141 8.40625 13C8.40625 12.7207 8.30469 12.4414 8.17773 12.1875H11.8594C11.7324 12.4414 11.6562 12.7207 11.6562 13C11.6562 13.9141 12.3672 14.625 13.2812 14.625C14.1699 14.625 14.9062 13.9141 14.9062 13C14.9062 12.543 14.7031 12.1367 14.3984 11.832L14.4238 11.7305C14.5 11.3496 14.2207 10.9688 13.8145 10.9688H6.6543L6.42578 9.75H14.3477C14.6523 9.75 14.8809 9.57227 14.957 9.29297L16.0996 4.01172C16.1758 3.63086 15.8965 3.25 15.4902 3.25ZM6.78125 13.6094C6.42578 13.6094 6.17188 13.3555 6.17188 13C6.17188 12.6699 6.42578 12.3906 6.78125 12.3906C7.11133 12.3906 7.39062 12.6699 7.39062 13C7.39062 13.3555 7.11133 13.6094 6.78125 13.6094ZM13.2812 13.6094C12.9258 13.6094 12.6719 13.3555 12.6719 13C12.6719 12.6699 12.9258 12.3906 13.2812 12.3906C13.6113 12.3906 13.8906 12.6699 13.8906 13C13.8906 13.3555 13.6113 13.6094 13.2812 13.6094ZM13.8652 8.53125H6.17188L5.38477 4.46875H14.7539L13.8652 8.53125Z" fill="white"/>
</svg>
