<svg width="16" height="16" viewBox="0 0 16 16" fill="none" xmlns="http://www.w3.org/2000/svg">
<path fill-rule="evenodd" clip-rule="evenodd" d="M2.2584 2.53467C1.34713 2.53467 0.608398 3.27339 0.608398 4.18467V11.815C0.608398 12.7262 1.34713 13.465 2.2584 13.465H13.7408C14.6521 13.465 15.3908 12.7262 15.3908 11.815V4.18467C15.3908 3.2734 14.6521 2.53467 13.7408 2.53467H2.2584ZM2.09345 3.8759C2.1426 3.84959 2.19875 3.83467 2.2584 3.83467H13.7408C13.8005 3.83467 13.8566 3.84959 13.9058 3.8759L7.99961 7.25085L2.09345 3.8759ZM1.9084 5.26743V11.815C1.9084 12.0083 2.0651 12.165 2.2584 12.165H13.7408C13.9341 12.165 14.0908 12.0083 14.0908 11.815V5.26744L8.42133 8.50714C8.16001 8.65646 7.83921 8.65646 7.57789 8.50714L1.9084 5.26743Z" fill="#D9D1D8"/>
</svg>
