<svg width="16" height="16" viewBox="0 0 16 16" fill="none" xmlns="http://www.w3.org/2000/svg">
<path fill-rule="evenodd" clip-rule="evenodd" d="M3.15395 5.2604C2.99779 4.91183 2.58494 4.75669 2.23321 4.90669C1.87965 5.05748 1.71411 5.46274 1.87119 5.81336C1.95225 5.9943 2.04343 6.17041 2.14404 6.34121L1.05612 7.40265C0.780773 7.6713 0.780773 8.10843 1.05612 8.37707C1.3294 8.6437 1.77098 8.6437 2.04426 8.37707L2.99718 7.44734C3.59648 8.05618 4.33821 8.55024 5.17291 8.89492L4.80625 10.23C4.70461 10.6001 4.9307 10.9756 5.30228 11.0728C5.67256 11.1696 6.05795 10.9561 6.15918 10.5875L6.51264 9.30049C6.99187 9.3966 7.48991 9.44715 7.99982 9.44715C8.50878 9.44715 9.0059 9.39678 9.4843 9.30103L9.85231 10.641C9.95354 11.0096 10.3389 11.2231 10.7092 11.1263C11.0808 11.0291 11.3069 10.6536 11.2052 10.2835L10.8242 8.89597C11.6598 8.55129 12.4024 8.05691 13.0023 7.44756L13.955 8.37707C14.2282 8.6437 14.6698 8.6437 14.9431 8.37707C15.2184 8.10843 15.2184 7.6713 14.9431 7.40265L13.8554 6.34148C13.9561 6.17059 14.0473 5.9944 14.1285 5.81336C14.2855 5.46274 14.12 5.05748 13.7664 4.90669C13.4147 4.75669 13.0019 4.91183 12.8457 5.2604C12.1266 6.86557 10.2614 8.07279 7.99982 8.07279C5.73826 8.07279 3.87309 6.86557 3.15395 5.2604Z" fill="#97A2B0"/>
</svg>
