<svg width="16" height="16" viewBox="0 0 16 16" fill="none" xmlns="http://www.w3.org/2000/svg">
<path fill-rule="evenodd" clip-rule="evenodd" d="M2.85228 8.00039C3.71344 9.59676 5.66549 10.7627 8.00039 10.7627C10.3353 10.7627 12.2873 9.59676 13.1485 8.00039C12.2873 6.40402 10.3353 5.23813 8.00039 5.23813C5.66549 5.23813 3.71344 6.40402 2.85228 8.00039ZM8.00039 10.8627C10.3896 10.8627 12.3939 9.65806 13.2617 8.00044L13.2617 8.00049C12.394 9.65813 10.3896 10.8628 8.00039 10.8628C5.61117 10.8628 3.60681 9.65813 2.73903 8.00049L2.73906 8.00044C3.60685 9.65806 5.61119 10.8627 8.00039 10.8627ZM1.50043 7.97543C1.50135 7.90154 1.51738 7.8266 1.55016 7.75463C2.56434 5.52777 5.09701 4.00039 8.00039 4.00039C10.9038 4.00039 13.4364 5.52777 14.4506 7.75463C14.4748 7.80762 14.4898 7.86223 14.4964 7.91684C14.4898 7.86226 14.4747 7.80769 14.4506 7.75472C13.4364 5.52787 10.9038 4.00049 8.00039 4.00049C5.09701 4.00049 2.56434 5.52787 1.55016 7.75472C1.51739 7.82666 1.50136 7.90157 1.50043 7.97543ZM1.50069 8.00049L1.50046 8.01005L1.50069 8.00046L1.50069 8.00049ZM1.40065 8.00039C1.39793 7.90435 1.41668 7.80643 1.45915 7.71318C2.49213 5.44504 5.06439 3.90039 8.00039 3.90039C10.9364 3.90039 13.5086 5.44504 14.5416 7.71318C14.5841 7.80643 14.6029 7.90435 14.6001 8.00039C14.6029 8.09643 14.5841 8.19435 14.5416 8.2876C13.5086 10.5557 10.9364 12.1004 8.00039 12.1004C5.06439 12.1004 2.49213 10.5557 1.45915 8.2876C1.41668 8.19436 1.39793 8.09643 1.40065 8.00039ZM8.00039 10.0005C9.10496 10.0005 10.0004 9.10506 10.0004 8.00049C10.0004 6.89592 9.10496 6.00049 8.00039 6.00049C6.89582 6.00049 6.00039 6.89592 6.00039 8.00049C6.00039 9.10506 6.89582 10.0005 8.00039 10.0005Z" fill="#97A2B0"/>
</svg>
