<svg width="36" height="36" viewBox="0 0 36 36" fill="none" xmlns="http://www.w3.org/2000/svg">
<path d="M17.9957 12.1351C14.7639 12.1351 12.1266 14.7725 12.1266 18.0043C12.1266 21.2361 14.7639 23.8735 17.9957 23.8735C21.2274 23.8735 23.8647 21.2361 23.8647 18.0043C23.8647 14.7725 21.2274 12.1351 17.9957 12.1351ZM35.5984 18.0043C35.5984 15.5739 35.6204 13.1654 35.484 10.7394C35.3475 7.92148 34.7046 5.4206 32.6441 3.36C30.5791 1.29501 28.0827 0.656576 25.2648 0.520084C22.8344 0.383592 20.4261 0.405607 18.0001 0.405607C15.5697 0.405607 13.1613 0.383592 10.7353 0.520084C7.91744 0.656576 5.4166 1.29941 3.35604 3.36C1.29108 5.425 0.652665 7.92148 0.516175 10.7394C0.379686 13.1698 0.4017 15.5783 0.4017 18.0043C0.4017 20.4303 0.379686 22.8432 0.516175 25.2692C0.652665 28.0871 1.29549 30.588 3.35604 32.6486C5.421 34.7136 7.91744 35.352 10.7353 35.4885C13.1657 35.625 15.5741 35.603 18.0001 35.603C20.4305 35.603 22.8388 35.625 25.2648 35.4885C28.0827 35.352 30.5835 34.7092 32.6441 32.6486C34.709 30.5836 35.3475 28.0871 35.484 25.2692C35.6248 22.8432 35.5984 20.4347 35.5984 18.0043ZM17.9957 27.0348C12.9984 27.0348 8.96533 23.0017 8.96533 18.0043C8.96533 13.0069 12.9984 8.9738 17.9957 8.9738C22.9929 8.9738 27.026 13.0069 27.026 18.0043C27.026 23.0017 22.9929 27.0348 17.9957 27.0348ZM27.3958 10.713C26.2291 10.713 25.2869 9.77073 25.2869 8.60395C25.2869 7.43716 26.2291 6.49492 27.3958 6.49492C28.5626 6.49492 29.5048 7.43716 29.5048 8.60395C29.5052 8.88101 29.4509 9.15541 29.345 9.41145C29.2391 9.66748 29.0838 9.90012 28.8879 10.096C28.692 10.2919 28.4594 10.4473 28.2033 10.5531C27.9473 10.659 27.6729 10.7133 27.3958 10.713Z" fill="white"/>
</svg>
