<svg width="20" height="18" viewBox="0 0 20 18" fill="none" xmlns="http://www.w3.org/2000/svg">
  <path d="M19.4999 10.07V17.5H16.5499V11.43C16.5499 10.3296 16.2201 9.46885 15.6681 8.88447C15.1168 8.30079 14.379 8.03173 13.6471 8.05781C12.1657 8.11061 10.7799 9.35117 10.7799 11.43V17.5H7.83994V5.97999H10.8079L10.7801 7.14809L11.7184 7.40023C12.0636 6.77026 12.7095 6.25428 13.5254 5.9342C14.3385 5.61518 15.2847 5.5061 16.1787 5.65793C17.0698 5.80926 17.8922 6.21595 18.492 6.9125C19.0891 7.60589 19.4999 8.62641 19.4999 10.07ZM4.43994 1.99974C4.43974 2.39757 4.28152 2.77902 4.00007 3.06018C3.71863 3.34135 3.33702 3.49919 2.93919 3.49899C2.54137 3.49879 2.15991 3.34057 1.87875 3.05912C1.59759 2.77768 1.43974 2.39607 1.43994 1.99824C1.44014 1.60042 1.59837 1.21897 1.87981 0.937802C2.16126 0.656639 2.54287 0.498794 2.94069 0.498993C3.33852 0.499192 3.71997 0.657418 4.00113 0.938863C4.2823 1.22031 4.44014 1.60192 4.43994 1.99974ZM1.49994 17.5V5.97999H4.49994V17.5H1.49994Z" fill="white" stroke="white"/>
</svg>
