<svg width="16" height="16" viewBox="0 0 16 16" fill="none" xmlns="http://www.w3.org/2000/svg">
<path fill-rule="evenodd" clip-rule="evenodd" d="M7.99954 0.536621C6.01059 0.536621 4.39822 2.14899 4.39822 4.13794V5.30908H4.08066C3.16939 5.30908 2.43066 6.04781 2.43066 6.95908V11.813C2.43066 13.8289 4.06483 15.463 6.08067 15.463H9.91838C11.9342 15.463 13.5684 13.8289 13.5684 11.813V6.95908C13.5684 6.04781 12.8296 5.30908 11.9184 5.30908H11.5956C11.5991 5.28186 11.6009 5.25412 11.6009 5.22595V4.13794C11.6009 2.14899 9.98849 0.536621 7.99954 0.536621ZM10.3061 5.30908C10.3026 5.28186 10.3009 5.25412 10.3009 5.22595V4.13794C10.3009 2.86696 9.27052 1.83662 7.99954 1.83662C6.72856 1.83662 5.69822 2.86696 5.69822 4.13794V5.30908H10.3061ZM3.73066 6.95908C3.73066 6.76578 3.88736 6.60908 4.08066 6.60908H11.9184C12.1117 6.60908 12.2684 6.76578 12.2684 6.95908V11.813C12.2684 13.1109 11.2163 14.163 9.91838 14.163H6.08067C4.7828 14.163 3.73066 13.1109 3.73066 11.813V6.95908ZM8.64955 10.1412C8.8542 9.96091 8.98332 9.69689 8.98332 9.40272C8.98332 8.8594 8.54287 8.41895 7.99955 8.41895C7.45623 8.41895 7.01578 8.8594 7.01578 9.40272C7.01578 9.69689 7.14489 9.9609 7.34955 10.1412V11.3695C7.34955 11.7285 7.64056 12.0195 7.99955 12.0195C8.35853 12.0195 8.64955 11.7285 8.64955 11.3695V10.1412Z" fill="#B7B5B7"/>
</svg>
