<svg width="18" height="18" viewBox="0 0 18 18" fill="none" xmlns="http://www.w3.org/2000/svg">
<path d="M13.0816 7.03964L13.4351 6.68608L13.0816 6.33253L11.6676 4.91853L11.314 4.56498L10.9604 4.91853L1.64645 14.2325L1.5 14.379V14.5861V16.0001V16.5001H2H3.414H3.62111L3.76755 16.3536L13.0816 7.03964ZM13.7884 5.62564L14.142 5.97919L14.4956 5.62564L15.9096 4.21164L16.2631 3.85808L15.9096 3.50453L14.4956 2.09053L14.142 1.73698L13.7884 2.09053L12.3744 3.50453L12.0209 3.85808L12.3744 4.21164L13.7884 5.62564ZM17.3244 4.21158L4.03589 17.5001H0.5V13.9642L13.7885 0.67569C13.7885 0.675672 13.7885 0.675655 13.7886 0.675637C13.8823 0.581935 14.0094 0.529297 14.142 0.529297C14.2746 0.529297 14.4017 0.581935 14.4954 0.675637C14.4955 0.675655 14.4955 0.675672 14.4955 0.67569L17.3244 3.50458C17.4181 3.59835 17.4708 3.7255 17.4708 3.85808C17.4708 3.99066 17.4181 4.11782 17.3244 4.21158Z" fill="#1CE4F0" stroke="#D9D1D8"/>
</svg>
