<svg width="32" height="32" viewBox="0 0 32 32" fill="none" xmlns="http://www.w3.org/2000/svg">
<g filter="url(#filter0_b)">
<rect width="32" height="32" rx="16" fill="white" fill-opacity="0.15"/>
<rect x="0.25" y="0.25" width="31.5" height="31.5" rx="15.75" stroke="white" stroke-opacity="0.15" stroke-width="0.5"/>
</g>
<path fill-rule="evenodd" clip-rule="evenodd" d="M16.4088 14.4727C16.3341 14.5832 16.2905 14.7165 16.2905 14.8601C16.2905 15.2419 16.6011 15.5525 16.9829 15.5525H18.2526C19.1282 15.5525 19.8406 16.2648 19.8406 17.1405C19.8406 17.4364 19.7623 17.7308 19.6027 17.9842C19.7623 17.7308 19.8406 17.4364 19.8406 17.1405C19.8406 16.2648 19.1282 15.5524 18.2526 15.5524H16.9829C16.6011 15.5524 16.2906 15.2419 16.2906 14.8601C16.2906 14.7164 16.3342 14.5832 16.4088 14.4727ZM18.0656 18.7285C18.0656 18.7285 18.0655 18.7285 18.0655 18.7285V19.2651C18.0655 19.3523 18.0407 19.4336 17.9976 19.5024C18.0407 19.4336 18.0656 19.3522 18.0656 19.2651V18.7285ZM15.7953 17.7131C15.9446 17.5535 16.1924 17.5232 16.3773 17.6515C16.5459 17.7684 16.7324 17.8311 16.9168 17.8328H18.2441L18.2527 17.8329C18.3996 17.8329 18.5358 17.7872 18.6478 17.7092C18.5358 17.7872 18.3996 17.8328 18.2527 17.8328L18.2442 17.8328H16.9168C16.7324 17.8311 16.5459 17.7684 16.3774 17.6515C16.1924 17.5231 15.9446 17.5534 15.7953 17.7131ZM15.8126 13.7851C16.1075 13.4762 16.5591 13.2721 17.1699 13.2721V13.2721C16.5591 13.2721 16.1075 13.4762 15.8126 13.7851ZM17.3011 12.4188C17.3822 12.3378 17.4941 12.2877 17.6178 12.2877C17.8651 12.2877 18.0656 12.4882 18.0656 12.7355V13.2721C18.6433 13.2721 19.1306 13.4162 19.5543 13.8682C19.6966 14.0201 19.7126 14.2449 19.6065 14.4131C19.7127 14.2449 19.6967 14.0201 19.5543 13.8681C19.1307 13.4161 18.6433 13.2721 18.0656 13.2721V12.7355C18.0656 12.4882 17.8651 12.2876 17.6178 12.2876C17.4941 12.2876 17.3822 12.3378 17.3011 12.4188ZM16.9913 14.2678H18.2075C18.4346 14.27 18.6613 14.3714 18.8278 14.549C19.0347 14.7698 19.3814 14.7811 19.6022 14.5741C19.8229 14.3672 19.8342 14.0205 19.6273 13.7998C19.2051 13.3494 18.7211 13.19 18.1656 13.1735V12.7355C18.1656 12.4329 17.9203 12.1876 17.6178 12.1876C17.3152 12.1876 17.0699 12.4329 17.0699 12.7355V13.1739C16.5018 13.1944 16.065 13.3907 15.7658 13.6899C15.4501 14.0057 15.2949 14.429 15.2949 14.8601C15.2949 15.791 16.0521 16.5481 16.9829 16.5481H18.2526C18.5792 16.5481 18.845 16.8139 18.845 17.1405C18.845 17.4682 18.5797 17.7328 18.2527 17.7328L18.2442 17.7328H16.9173C16.7553 17.7312 16.5882 17.676 16.4344 17.5693C16.1858 17.3968 15.8444 17.4586 15.672 17.7071C15.4995 17.9557 15.5612 18.2971 15.8098 18.4696C16.3234 18.8259 16.7735 18.832 17.0699 18.8293V19.2651C17.0699 19.5676 17.3152 19.8129 17.6177 19.8129C17.9203 19.8129 18.1656 19.5676 18.1656 19.2651V18.8267C18.7405 18.806 19.1778 18.6061 19.4754 18.3047C19.7892 17.987 19.9406 17.5639 19.9406 17.1405C19.9406 16.2096 19.1835 15.4524 18.2526 15.4524H16.9829C16.6564 15.4524 16.3906 15.1866 16.3906 14.8601C16.3906 14.5323 16.6558 14.2677 16.9828 14.2677L16.9913 14.2678ZM8.28711 16.0003C8.28711 11.9913 12.1184 9.05314 16.0019 10.1219C19.8862 9.05207 23.7139 11.995 23.7139 16.0003C23.7139 20.0012 19.891 22.95 16.0019 21.8788C12.1254 22.9456 8.28711 20.0171 8.28711 16.0003ZM10.0287 11.8832C11.4889 10.3448 13.738 9.59186 16.0019 10.2257C19.8313 9.15274 23.6138 12.0516 23.6138 16.0004C23.6138 17.4795 23.0826 18.8124 22.2163 19.8441C23.0826 18.8124 23.6139 17.4795 23.6139 16.0003C23.6139 12.0515 19.8313 9.15272 16.002 10.2256C13.738 9.59183 11.4889 10.3448 10.0287 11.8832ZM9.3828 16.0003C9.3828 13.33 11.4868 11.1415 14.1255 11.0067C12.5525 12.1099 11.5217 13.9368 11.5217 16.0003C11.5217 18.0639 12.5525 19.8908 14.1255 20.994C11.4869 20.8592 9.3828 18.6707 9.3828 16.0003ZM10.4997 12.6974C9.74107 13.5879 9.28278 14.7417 9.28278 16.0004C9.28278 18.8404 11.6158 21.1459 14.4674 21.1C14.4674 21.1 14.4674 21.0999 14.4674 21.0999C14.405 21.1009 14.3429 21.1008 14.281 21.0996C11.5149 21.0447 9.2828 18.7782 9.2828 16.0003C9.2828 14.7416 9.74108 13.5879 10.4997 12.6974ZM13.7311 11.4384C13.9621 11.2414 14.2082 11.0615 14.4674 10.9008C14.4674 10.9008 14.4674 10.9008 14.4674 10.9008C14.415 10.9333 14.3631 10.9665 14.3118 11.0006C14.1093 11.1349 13.9154 11.2812 13.7311 11.4384ZM17.6178 21.0007C14.8606 21.0007 12.6174 18.7575 12.6174 16.0003C12.6174 13.2432 14.8606 10.9999 17.6178 10.9999C20.3749 10.9999 22.6182 13.2432 22.6182 16.0003C22.6182 18.7575 20.3749 21.0007 17.6178 21.0007ZM12.5174 16.0003C12.5174 18.8127 14.8054 21.1007 17.6178 21.1007C19.024 21.1007 20.2991 20.5287 21.2226 19.6052C20.2991 20.5287 19.024 21.1008 17.6178 21.1008C14.8054 21.1008 12.5174 18.8127 12.5174 16.0004C12.5174 14.6354 13.0563 13.3939 13.9327 12.4776C13.0564 13.3939 12.5174 14.6354 12.5174 16.0003Z" fill="white"/>
<defs>
<filter id="filter0_b" x="-12" y="-12" width="56" height="56" filterUnits="userSpaceOnUse" color-interpolation-filters="sRGB">
<feFlood flood-opacity="0" result="BackgroundImageFix"/>
<feGaussianBlur in="BackgroundImage" stdDeviation="6"/>
<feComposite in2="SourceAlpha" operator="in" result="effect1_backgroundBlur"/>
<feBlend mode="normal" in="SourceGraphic" in2="effect1_backgroundBlur" result="shape"/>
</filter>
</defs>
</svg>
