<svg width="25" height="25" viewBox="0 0 25 25" fill="none" xmlns="http://www.w3.org/2000/svg">
<path d="M7.35606 4.72117C7.51752 4.51076 7.75594 4.3731 8.01889 4.33848L13.8639 3.56897C14.1269 3.53435 14.3928 3.6056 14.6032 3.76706L19.2804 7.356C19.4908 7.51746 19.6285 7.75588 19.6631 8.01883L20.4326 13.8639C20.4672 14.1268 20.396 14.3928 20.2345 14.6032L16.6456 19.2804C16.4841 19.4908 16.2457 19.6284 15.9828 19.6631L10.1377 20.4326C9.87477 20.4672 9.60884 20.3959 9.39843 20.2345L4.72123 16.6455C4.51082 16.4841 4.37316 16.2457 4.33854 15.9827L3.56903 10.1377C3.53441 9.87471 3.60566 9.60878 3.76712 9.39837L7.35606 4.72117Z" stroke="white" stroke-width="1.5" stroke-linecap="round"/>
<circle cx="12.0002" cy="12.0011" r="2.57145" stroke="white" stroke-width="1.5" stroke-linecap="round"/>
</svg>
