<svg width="24" height="24" viewBox="0 0 24 24" fill="none" xmlns="http://www.w3.org/2000/svg">
<path fill-rule="evenodd" clip-rule="evenodd" d="M9.59348 5.26414C9.59348 5.01269 9.79732 4.80885 10.0488 4.80885H13.9512C14.2027 4.80885 14.4065 5.01269 14.4065 5.26414V6.30378H9.59348V5.26414ZM7.90243 6.30378V5.26414C7.90243 4.07875 8.86338 3.1178 10.0488 3.1178H13.9512C15.1366 3.1178 16.0975 4.07875 16.0975 5.26414V6.30378H18.7831H19.1545C19.6214 6.30378 20 6.68233 20 7.14931C20 7.61628 19.6214 7.99484 19.1545 7.99484H18.6229L17.5747 19.0591C17.4703 20.1611 16.5449 21.003 15.4379 21.003H8.56213C7.45516 21.003 6.52976 20.1611 6.42535 19.0591L5.37716 7.99484H4.84553C4.37856 7.99484 4 7.61628 4 7.14931C4 6.68233 4.37856 6.30378 4.84553 6.30378H5.21696H7.90243ZM7.07579 7.99484H16.9243L15.8912 18.8996C15.8691 19.1333 15.6728 19.3119 15.4379 19.3119H8.56213C8.32732 19.3119 8.13102 19.1333 8.10887 18.8996L7.07579 7.99484Z" fill="white"/>
</svg>
