<svg width="22" height="18" viewBox="0 0 22 18" fill="none" xmlns="http://www.w3.org/2000/svg">
  <path d="M18.5034 2.88489L18.8191 3.81051C19.1076 3.77622 19.3939 3.72784 19.6769 3.66565C19.3982 3.93695 19.0996 4.18807 18.7832 4.41676L18.5644 4.57485L18.5766 4.84445C18.5843 5.01671 18.5891 5.19105 18.5891 5.362C18.5891 10.674 14.5485 16.762 7.18905 16.762H7.18859C5.67689 16.7634 4.18713 16.4624 2.8047 15.884C3.26901 15.8304 3.72944 15.7402 4.18164 15.6137C5.30722 15.2988 6.35969 14.7651 7.27888 14.0432L8.38292 13.1761L6.97933 13.1501C6.21075 13.1358 5.46587 12.8815 4.84898 12.4229C4.4469 12.1239 4.11232 11.7479 3.863 11.3196C4.27408 11.3186 4.68457 11.2638 5.08383 11.1556L5.05222 10.1829C4.21878 10.0143 3.46932 9.56261 2.9309 8.90446C2.55138 8.44056 2.29318 7.89421 2.17377 7.31434C2.59349 7.45144 3.03198 7.52877 3.47632 7.54276L5.2216 7.5977L3.76992 6.62732C2.78124 5.96644 2.13205 4.83856 2.13205 3.562L2.13205 3.5613C2.13148 3.1551 2.19836 2.75337 2.32842 2.37205C3.32435 3.44881 4.50529 4.34152 5.81725 5.00663C7.36483 5.79119 9.06011 6.24152 10.793 6.32838L11.4571 6.36166L11.3047 5.71441C11.1188 4.92446 11.199 4.0952 11.5329 3.35553C11.8668 2.61586 12.4358 2.00724 13.1513 1.62429C13.8668 1.24133 14.6888 1.10549 15.4894 1.23789C16.2901 1.37029 17.0246 1.76351 17.5788 2.35641L17.7684 2.55933L18.0409 2.50553C18.5081 2.4133 18.9665 2.28417 19.4116 2.11932C19.1542 2.41943 18.8482 2.67867 18.5034 2.88489Z" fill="white" stroke="white"/>
</svg>
