<svg width="24" height="24" viewBox="0 0 24 24" fill="none" xmlns="http://www.w3.org/2000/svg">
<path d="M8.81528 15.1791L11.9955 11.9989L15.1758 15.1791" stroke="white" stroke-width="1.5" stroke-linecap="round" stroke-linejoin="round"/>
<path d="M11.9961 11.9989V19.1545" stroke="white" stroke-width="1.5" stroke-linecap="round" stroke-linejoin="round"/>
<path d="M5.3256 17.0795C4.55015 16.6568 3.93756 15.9878 3.58452 15.1782C3.23148 14.3686 3.15809 13.4645 3.37595 12.6086C3.5938 11.7527 4.09048 10.9937 4.78761 10.4514C5.48473 9.90915 6.34259 9.61446 7.2258 9.61388H8.22758C8.46823 8.68305 8.91677 7.81889 9.53947 7.08637C10.1622 6.35385 10.9428 5.77202 11.8228 5.38463C12.7027 4.99724 13.659 4.81437 14.6198 4.84977C15.5806 4.88517 16.5208 5.13792 17.3699 5.58901C18.2189 6.0401 18.9546 6.6778 19.5217 7.45416C20.0888 8.23052 20.4726 9.12534 20.6441 10.0714C20.8156 11.0174 20.7704 11.9899 20.5119 12.916C20.2534 13.842 19.7884 14.6974 19.1517 15.4178" stroke="white" stroke-width="1.5" stroke-linecap="round" stroke-linejoin="round"/>
<path d="M8.81528 15.1791L11.9955 11.9989L15.1758 15.1791" stroke="white" stroke-width="1.5" stroke-linecap="round" stroke-linejoin="round"/>
</svg>
