<svg width="16" height="16" viewBox="0 0 18 18" fill="none" xmlns="http://www.w3.org/2000/svg">
  <path d="M16.2 17C16.2 17.4418 16.5582 17.8 17 17.8C17.4418 17.8 17.8 17.4418 17.8 17H16.2ZM0.2 17C0.2 17.4418 0.558172 17.8 1 17.8C1.44183 17.8 1.8 17.4418 1.8 17H0.2ZM6 12.8H12V11.2H6V12.8ZM12 12.8C14.3196 12.8 16.2 14.6804 16.2 17H17.8C17.8 13.7967 15.2033 11.2 12 11.2V12.8ZM6 11.2C2.79675 11.2 0.2 13.7967 0.2 17H1.8C1.8 14.6804 3.6804 12.8 6 12.8V11.2Z" fill="#D9D1D8"/>
  <circle cx="9" cy="5" r="4" stroke="#D9D1D8" stroke-width="1.6"/>
</svg>
