<svg width="42" height="24" viewBox="0 0 42 24" fill="none" xmlns="http://www.w3.org/2000/svg">
<rect width="42" height="24" rx="12" fill="white"/>
<path d="M16.8994 15.8316L18.2709 8.25269H20.4138L19.0852 15.8316H16.8994Z" fill="#16315D"/>
<path d="M16.8994 15.8316L18.6566 8.25269H20.4138L19.0852 15.8316H16.8994Z" fill="#16315D"/>
<path d="M26.8432 8.33709C26.4146 8.16867 25.7289 8.00024 24.8717 8.00024C22.7288 8.00024 21.1859 9.05288 21.1859 10.5687C21.1859 11.7055 22.2574 12.295 23.1145 12.6739C23.9717 13.0529 24.2288 13.3055 24.2288 13.6423C24.2288 14.1476 23.5431 14.4002 22.9431 14.4002C22.0859 14.4002 21.6145 14.2739 20.8859 13.9792L20.5859 13.8529L20.2859 15.5792C20.8002 15.7897 21.7431 16.0002 22.7288 16.0002C25.0003 16.0002 26.5003 14.9476 26.5003 13.3476C26.5003 12.4634 25.9432 11.7897 24.6574 11.2423C23.886 10.8634 23.4145 10.6529 23.4145 10.2739C23.4145 9.93709 23.8003 9.60024 24.6574 9.60024C25.386 9.60024 25.9003 9.72656 26.286 9.89498L26.5003 9.97919L26.8432 8.33709Z" fill="#16315D"/>
<path d="M26.8432 8.33709C26.4146 8.16867 25.7289 8.00024 24.8717 8.00024C22.7288 8.00024 21.5716 9.05288 21.5716 10.5687C21.5716 11.7055 22.2574 12.295 23.1145 12.6739C23.9717 13.0529 24.2288 13.3055 24.2288 13.6423C24.2288 14.1476 23.5431 14.4002 22.9431 14.4002C22.0859 14.4002 21.6145 14.2739 20.8859 13.9792L20.5859 13.8529L20.2859 15.5792C20.8002 15.7897 21.7431 16.0002 22.7288 16.0002C25.0003 16.0002 26.5003 14.9476 26.5003 13.3476C26.5003 12.4634 25.9432 11.7897 24.6574 11.2423C23.886 10.8634 23.4145 10.6529 23.4145 10.2739C23.4145 9.93709 23.8003 9.60024 24.6574 9.60024C25.386 9.60024 25.9003 9.72656 26.286 9.89498L26.5003 9.97919L26.8432 8.33709Z" fill="#16315D"/>
<path fill-rule="evenodd" clip-rule="evenodd" d="M29.4148 8.80005C29.6291 8.29479 30.0148 8.25269 30.5291 8.25269H32.2006L34.0006 15.8316H31.9434L31.6863 14.5685H28.9434L28.5148 15.8316H26.2004L29.4148 8.80005ZM30.3994 11.0742C30.3994 11.0742 29.6708 12.9268 29.5422 13.3057V13.3478H31.3423C31.2566 12.9268 30.828 11.0321 30.828 11.0321L30.6994 10.3163C30.5708 10.611 30.3994 11.0742 30.3994 11.0742Z" fill="#16315D"/>
<path d="M12.9583 13.5582L12.744 12.4635C12.3582 11.2003 11.1154 9.81083 9.7439 9.13715L11.6725 15.874H13.9869L17.4584 8.29504H15.144L12.9583 13.5582Z" fill="#16315D"/>
<path d="M12.9583 13.5582L12.744 12.4635C12.3582 11.2003 11.1154 9.81083 9.7439 9.13715L11.6725 15.874H13.9869L17.4584 8.29504H15.5726L12.9583 13.5582Z" fill="#16315D"/>
<path d="M6.99976 8.25269L7.38548 8.3369C10.1284 8.96848 12.0142 10.5685 12.7428 12.4632L11.9713 8.88426C11.8427 8.379 11.457 8.25269 10.9856 8.25269H6.99976V8.25269Z" fill="#16315D"/>
<path d="M6.99976 8.25269C9.74268 8.88426 12.0142 10.5264 12.7428 12.4211L12.0142 9.43163C11.8856 8.92637 11.457 8.63163 10.9856 8.63163L6.99976 8.25269Z" fill="#16315D"/>
<path d="M6.99976 8.25269C9.74268 8.88426 12.0142 10.5264 12.7428 12.4211L12.2285 10.779C12.0999 10.2737 11.9284 9.76848 11.3284 9.55795L6.99976 8.25269Z" fill="#16315D"/>
</svg>
