<svg width="16" height="16" viewBox="0 0 16 16" fill="none" xmlns="http://www.w3.org/2000/svg">
<path fill-rule="evenodd" clip-rule="evenodd" d="M1.29102 2.19492C1.29102 1.83594 1.58203 1.54492 1.94102 1.54492H4.23828C4.53784 1.54492 4.79861 1.74965 4.86971 2.04065C4.97858 2.48629 5.37792 2.7998 5.83666 2.7998H14.0589C14.2653 2.7998 14.4595 2.89785 14.582 3.06397C14.7046 3.2301 14.7409 3.44454 14.6799 3.64176L13.1333 8.64545C13.0491 8.91778 12.7973 9.10349 12.5123 9.10349H7.19459C6.88953 9.10349 6.66511 9.38933 6.73752 9.68568C6.78898 9.89633 6.97775 10.0445 7.19459 10.0445H13.6463C14.0053 10.0445 14.2963 10.3355 14.2963 10.6945C14.2963 11.0535 14.0053 11.3445 13.6463 11.3445H6.31488C6.01532 11.3445 5.75455 11.1398 5.68345 10.8488L4.15207 4.58081C3.90311 3.56181 2.98999 2.84492 1.94102 2.84492C1.58203 2.84492 1.29102 2.55391 1.29102 2.19492ZM8.55084 13.5808C8.3826 14.2087 7.73719 14.5813 7.10929 14.413C6.48138 14.2448 6.10876 13.5994 6.277 12.9715C6.44525 12.3436 7.09066 11.971 7.71856 12.1392C8.34646 12.3075 8.71909 12.9529 8.55084 13.5808ZM12.0819 14.413C12.7098 14.5813 13.3553 14.2087 13.5235 13.5808C13.6917 12.9529 13.3191 12.3075 12.6912 12.1392C12.0633 11.971 11.4179 12.3436 11.2497 12.9715C11.0814 13.5994 11.454 14.2448 12.0819 14.413Z" fill="#1CE4F0"/>
</svg>
