<svg width="16" height="16" viewBox="0 0 16 16" fill="none" xmlns="http://www.w3.org/2000/svg">
<path d="M7.53954 2.08794C7.71173 1.68112 8.28827 1.68112 8.46046 2.08794L9.75472 5.14595C9.82693 5.31656 9.98755 5.43326 10.1721 5.44921L13.4804 5.73515C13.9205 5.77319 14.0987 6.32152 13.765 6.61099L11.2566 8.78689C11.1167 8.90828 11.0553 9.09711 11.0972 9.27757L11.8475 12.5123C11.9474 12.9426 11.4809 13.2815 11.1025 13.0536L8.25797 11.3404C8.09927 11.2448 7.90073 11.2448 7.74203 11.3404L4.8975 13.0536C4.51907 13.2815 4.05264 12.9426 4.15246 12.5123L4.90283 9.27757C4.9447 9.09711 4.88335 8.90828 4.7434 8.78689L2.23501 6.61099C1.9013 6.32152 2.07947 5.77319 2.51959 5.73515L5.82788 5.44921C6.01245 5.43326 6.17307 5.31656 6.24528 5.14595L7.53954 2.08794Z" fill="#FFFAF5"/>
<path d="M7.53954 1.08794C7.71173 0.681118 8.28827 0.681119 8.46046 1.08794L10.0222 4.77785C10.0944 4.94846 10.255 5.06516 10.4396 5.08111L14.4315 5.42614C14.8716 5.46418 15.0498 6.01251 14.716 6.30198L11.6893 8.92749C11.5494 9.04889 11.488 9.23771 11.5299 9.41818L12.4353 13.3213C12.5351 13.7517 12.0687 14.0905 11.6903 13.8626L8.25797 11.7954C8.09927 11.6998 7.90073 11.6998 7.74203 11.7954L4.30971 13.8626C3.93129 14.0905 3.46485 13.7517 3.56468 13.3213L4.4701 9.41818C4.51197 9.23771 4.45061 9.04889 4.31067 8.92749L1.28395 6.30198C0.950248 6.01251 1.12841 5.46418 1.56853 5.42614L5.56044 5.08111C5.74501 5.06516 5.90563 4.94846 5.97784 4.77785L7.53954 1.08794Z" fill="white"/>
</svg>
