<svg width="123" height="40" viewBox="0 0 123 40" fill="none" xmlns="http://www.w3.org/2000/svg">
<path d="M31.4438 16L27.4438 20L31.4438 24" stroke="white" stroke-width="2" stroke-linecap="round"/>
<path d="M33.6665 20L27.9999 20" stroke="white" stroke-width="2" stroke-linecap="round"/>
<path d="M43 20L37.6667 20" stroke="white" stroke-width="2" stroke-linecap="round"/>
<path d="M61.975 20.13C62.565 20.24 63.05 20.535 63.43 21.015C63.81 21.495 64 22.045 64 22.665C64 23.225 63.86 23.72 63.58 24.15C63.31 24.57 62.915 24.9 62.395 25.14C61.875 25.38 61.26 25.5 60.55 25.5H56.035V15.03H60.355C61.065 15.03 61.675 15.145 62.185 15.375C62.705 15.605 63.095 15.925 63.355 16.335C63.625 16.745 63.76 17.21 63.76 17.73C63.76 18.34 63.595 18.85 63.265 19.26C62.945 19.67 62.515 19.96 61.975 20.13ZM58.135 19.35H60.055C60.555 19.35 60.94 19.24 61.21 19.02C61.48 18.79 61.615 18.465 61.615 18.045C61.615 17.625 61.48 17.3 61.21 17.07C60.94 16.84 60.555 16.725 60.055 16.725H58.135V19.35ZM60.25 23.79C60.76 23.79 61.155 23.67 61.435 23.43C61.725 23.19 61.87 22.85 61.87 22.41C61.87 21.96 61.72 21.61 61.42 21.36C61.12 21.1 60.715 20.97 60.205 20.97H58.135V23.79H60.25ZM72.5437 23.505H68.3737L67.6837 25.5H65.4787L69.2437 15.015H71.6887L75.4537 25.5H73.2337L72.5437 23.505ZM71.9737 21.825L70.4587 17.445L68.9437 21.825H71.9737ZM76.801 20.25C76.801 19.22 77.031 18.3 77.491 17.49C77.961 16.67 78.596 16.035 79.396 15.585C80.206 15.125 81.111 14.895 82.111 14.895C83.281 14.895 84.306 15.195 85.186 15.795C86.066 16.395 86.681 17.225 87.031 18.285H84.616C84.376 17.785 84.036 17.41 83.596 17.16C83.166 16.91 82.666 16.785 82.096 16.785C81.486 16.785 80.941 16.93 80.461 17.22C79.991 17.5 79.621 17.9 79.351 18.42C79.091 18.94 78.961 19.55 78.961 20.25C78.961 20.94 79.091 21.55 79.351 22.08C79.621 22.6 79.991 23.005 80.461 23.295C80.941 23.575 81.486 23.715 82.096 23.715C82.666 23.715 83.166 23.59 83.596 23.34C84.036 23.08 84.376 22.7 84.616 22.2H87.031C86.681 23.27 86.066 24.105 85.186 24.705C84.316 25.295 83.291 25.59 82.111 25.59C81.111 25.59 80.206 25.365 79.396 24.915C78.596 24.455 77.961 23.82 77.491 23.01C77.031 22.2 76.801 21.28 76.801 20.25ZM95.1846 25.5L91.3746 20.835V25.5H89.2746V15.03H91.3746V19.725L95.1846 15.03H97.7196L93.3996 20.22L97.8396 25.5H95.1846Z" fill="white"/>
<path d="M20 2H103V-2H20V2ZM103 38H20V42H103V38ZM20 38C10.0589 38 2 29.9411 2 20H-2C-2 32.1503 7.84974 42 20 42V38ZM121 20C121 29.9411 112.941 38 103 38V42C115.15 42 125 32.1503 125 20H121ZM103 2C112.941 2 121 10.0589 121 20H125C125 7.84974 115.15 -2 103 -2V2ZM20 -2C7.84973 -2 -2 7.84974 -2 20H2C2 10.0589 10.0589 2 20 2V-2Z" fill="url(#paint0_linear)"/>
<defs>
<linearGradient id="paint0_linear" x1="9.35092" y1="7.46122" x2="29.559" y2="62.2699" gradientUnits="userSpaceOnUse">
<stop stop-color="#F91956"/>
<stop offset="1" stop-color="#20E0EC"/>
</linearGradient>
</defs>
</svg>
