<svg width="61" height="61" viewBox="0 0 61 61" fill="none" xmlns="http://www.w3.org/2000/svg">
<path d="M47.395 17.9149L47.4723 18.2901L47.8547 18.3132C54.9727 18.7428 60.5194 24.6506 60.4999 31.7814C60.4796 39.2129 54.4387 45.2208 47.0073 45.2005H47.0059H46.2084C46.2241 44.9493 46.2358 44.6919 46.2358 44.4304C46.2358 35.0353 38.6197 27.4189 29.2245 27.4189C19.8293 27.4189 12.213 35.0353 12.213 44.4304C12.213 44.6919 12.2247 44.9494 12.2403 45.2005H11.4429H11.4424C5.84679 45.206 1.15068 40.9847 0.561663 35.4202C-0.0738125 29.4167 4.27785 24.0348 10.2813 23.3993L10.7669 23.3479L10.727 22.8612C10.69 22.41 10.6729 21.9845 10.6729 21.5696C10.7128 12.797 16.8922 5.25137 25.485 3.48313C35.5205 1.4181 45.33 7.8794 47.395 17.9149Z" fill="#E7D1E8" stroke="black"/>
<path d="M29.2243 58.4012C36.9404 58.4012 43.1954 52.1461 43.1954 44.4301C43.1954 36.7141 36.9404 30.459 29.2243 30.459C21.5083 30.459 15.2532 36.7141 15.2532 44.4301C15.2532 52.1461 21.5083 58.4012 29.2243 58.4012Z" fill="#E7D1E8"/>
<path d="M29.2245 53.3206C28.523 53.3206 27.9543 52.7519 27.9543 52.0505V36.8092C27.9543 36.1078 28.523 35.5391 29.2245 35.5391C29.926 35.5391 30.4946 36.1078 30.4946 36.8092V52.0505C30.4945 52.7519 29.926 53.3206 29.2245 53.3206Z" fill="url(#paint0_linear)"/>
<path d="M29.2245 53.3206C28.523 53.3206 27.9543 52.7519 27.9543 52.0505V36.8092C27.9543 36.1078 28.523 35.5391 29.2245 35.5391C29.926 35.5391 30.4946 36.1078 30.4946 36.8092V52.0505C30.4945 52.7519 29.926 53.3206 29.2245 53.3206Z" fill="url(#paint1_linear)"/>
<path d="M34.3049 43.1602C33.9678 43.1608 33.6443 43.0275 33.4056 42.7893L29.2244 38.6056L25.0432 42.7893C24.5387 43.2767 23.7346 43.2626 23.2472 42.7581C22.7718 42.2659 22.7718 41.4856 23.2472 40.9933L28.3277 35.9129C28.8236 35.4171 29.6276 35.4171 30.1237 35.9129L35.2041 40.9933C35.6993 41.4901 35.6981 42.2943 35.2013 42.7895C34.9634 43.0269 34.641 43.1601 34.3049 43.1602Z" fill="url(#paint2_linear)"/>
<path d="M34.3049 43.1602C33.9678 43.1608 33.6443 43.0275 33.4056 42.7893L29.2244 38.6056L25.0432 42.7893C24.5387 43.2767 23.7346 43.2626 23.2472 42.7581C22.7718 42.2659 22.7718 41.4856 23.2472 40.9933L28.3277 35.9129C28.8236 35.4171 29.6276 35.4171 30.1237 35.9129L35.2041 40.9933C35.6993 41.4901 35.6981 42.2943 35.2013 42.7895C34.9634 43.0269 34.641 43.1601 34.3049 43.1602Z" fill="url(#paint3_linear)"/>
<defs>
<linearGradient id="paint0_linear" x1="27.9543" y1="35.5391" x2="35.1198" y2="51.2051" gradientUnits="userSpaceOnUse">
<stop stop-color="#4D1948"/>
<stop offset="0.48106" stop-color="#291326"/>
</linearGradient>
<linearGradient id="paint1_linear" x1="27.9543" y1="35.5391" x2="37.9296" y2="42.2208" gradientUnits="userSpaceOnUse">
<stop stop-color="#4D1948"/>
<stop offset="1" stop-color="#291326"/>
</linearGradient>
<linearGradient id="paint2_linear" x1="22.8906" y1="35.541" x2="23.2087" y2="43.6456" gradientUnits="userSpaceOnUse">
<stop stop-color="#4D1948"/>
<stop offset="0.48106" stop-color="#291326"/>
</linearGradient>
<linearGradient id="paint3_linear" x1="22.8906" y1="35.541" x2="24.0558" y2="44.636" gradientUnits="userSpaceOnUse">
<stop stop-color="#4D1948"/>
<stop offset="1" stop-color="#291326"/>
</linearGradient>
</defs>
</svg>
