<svg width="121" height="35" viewBox="0 0 121 35" fill="none" xmlns="http://www.w3.org/2000/svg">
<circle cx="17.5" cy="17.5" r="17.5" fill="white" fill-opacity="0.15"/>
<circle cx="17.5" cy="17.5" r="17" stroke="white" stroke-opacity="0.15"/>
<path d="M19.0239 26.2501V18.2681H21.7021L22.1039 15.1564H19.0239V13.1701C19.0239 12.2695 19.273 11.6557 20.5659 11.6557L22.2123 11.655V8.87183C21.9276 8.83483 20.9503 8.75 19.8127 8.75C17.4375 8.75 15.8113 10.1999 15.8113 12.8619V15.1564H13.125V18.2681H15.8113V26.2501H19.0239Z" fill="white"/>
<path d="M54.065 11.545V12.655H49.52V16.18H53.21V17.29H49.52V22H48.155V11.545H54.065ZM55.2036 17.86C55.2036 17.02 55.3736 16.285 55.7136 15.655C56.0536 15.015 56.5186 14.52 57.1086 14.17C57.7086 13.82 58.3736 13.645 59.1036 13.645C59.8236 13.645 60.4486 13.8 60.9786 14.11C61.5086 14.42 61.9036 14.81 62.1636 15.28V13.78H63.5436V22H62.1636V20.47C61.8936 20.95 61.4886 21.35 60.9486 21.67C60.4186 21.98 59.7986 22.135 59.0886 22.135C58.3586 22.135 57.6986 21.955 57.1086 21.595C56.5186 21.235 56.0536 20.73 55.7136 20.08C55.3736 19.43 55.2036 18.69 55.2036 17.86ZM62.1636 17.875C62.1636 17.255 62.0386 16.715 61.7886 16.255C61.5386 15.795 61.1986 15.445 60.7686 15.205C60.3486 14.955 59.8836 14.83 59.3736 14.83C58.8636 14.83 58.3986 14.95 57.9786 15.19C57.5586 15.43 57.2236 15.78 56.9736 16.24C56.7236 16.7 56.5986 17.24 56.5986 17.86C56.5986 18.49 56.7236 19.04 56.9736 19.51C57.2236 19.97 57.5586 20.325 57.9786 20.575C58.3986 20.815 58.8636 20.935 59.3736 20.935C59.8836 20.935 60.3486 20.815 60.7686 20.575C61.1986 20.325 61.5386 19.97 61.7886 19.51C62.0386 19.04 62.1636 18.495 62.1636 17.875ZM65.3403 17.875C65.3403 17.025 65.5103 16.285 65.8503 15.655C66.1903 15.015 66.6603 14.52 67.2603 14.17C67.8703 13.82 68.5653 13.645 69.3453 13.645C70.3553 13.645 71.1853 13.89 71.8353 14.38C72.4953 14.87 72.9303 15.55 73.1403 16.42H71.6703C71.5303 15.92 71.2553 15.525 70.8453 15.235C70.4453 14.945 69.9453 14.8 69.3453 14.8C68.5653 14.8 67.9353 15.07 67.4553 15.61C66.9753 16.14 66.7353 16.895 66.7353 17.875C66.7353 18.865 66.9753 19.63 67.4553 20.17C67.9353 20.71 68.5653 20.98 69.3453 20.98C69.9453 20.98 70.4453 20.84 70.8453 20.56C71.2453 20.28 71.5203 19.88 71.6703 19.36H73.1403C72.9203 20.2 72.4803 20.875 71.8203 21.385C71.1603 21.885 70.3353 22.135 69.3453 22.135C68.5653 22.135 67.8703 21.96 67.2603 21.61C66.6603 21.26 66.1903 20.765 65.8503 20.125C65.5103 19.485 65.3403 18.735 65.3403 17.875ZM82.4616 17.575C82.4616 17.835 82.4466 18.11 82.4166 18.4H75.8466C75.8966 19.21 76.1716 19.845 76.6716 20.305C77.1816 20.755 77.7966 20.98 78.5166 20.98C79.1066 20.98 79.5966 20.845 79.9866 20.575C80.3866 20.295 80.6666 19.925 80.8266 19.465H82.2966C82.0766 20.255 81.6366 20.9 80.9766 21.4C80.3166 21.89 79.4966 22.135 78.5166 22.135C77.7366 22.135 77.0366 21.96 76.4166 21.61C75.8066 21.26 75.3266 20.765 74.9766 20.125C74.6266 19.475 74.4516 18.725 74.4516 17.875C74.4516 17.025 74.6216 16.28 74.9616 15.64C75.3016 15 75.7766 14.51 76.3866 14.17C77.0066 13.82 77.7166 13.645 78.5166 13.645C79.2966 13.645 79.9866 13.815 80.5866 14.155C81.1866 14.495 81.6466 14.965 81.9666 15.565C82.2966 16.155 82.4616 16.825 82.4616 17.575ZM81.0516 17.29C81.0516 16.77 80.9366 16.325 80.7066 15.955C80.4766 15.575 80.1616 15.29 79.7616 15.1C79.3716 14.9 78.9366 14.8 78.4566 14.8C77.7666 14.8 77.1766 15.02 76.6866 15.46C76.2066 15.9 75.9316 16.51 75.8616 17.29H81.0516ZM85.6284 15.31C85.9084 14.82 86.3184 14.42 86.8584 14.11C87.3984 13.8 88.0134 13.645 88.7034 13.645C89.4434 13.645 90.1084 13.82 90.6984 14.17C91.2884 14.52 91.7534 15.015 92.0934 15.655C92.4334 16.285 92.6034 17.02 92.6034 17.86C92.6034 18.69 92.4334 19.43 92.0934 20.08C91.7534 20.73 91.2834 21.235 90.6834 21.595C90.0934 21.955 89.4334 22.135 88.7034 22.135C87.9934 22.135 87.3684 21.98 86.8284 21.67C86.2984 21.36 85.8984 20.965 85.6284 20.485V22H84.2634V10.9H85.6284V15.31ZM91.2084 17.86C91.2084 17.24 91.0834 16.7 90.8334 16.24C90.5834 15.78 90.2434 15.43 89.8134 15.19C89.3934 14.95 88.9284 14.83 88.4184 14.83C87.9184 14.83 87.4534 14.955 87.0234 15.205C86.6034 15.445 86.2634 15.8 86.0034 16.27C85.7534 16.73 85.6284 17.265 85.6284 17.875C85.6284 18.495 85.7534 19.04 86.0034 19.51C86.2634 19.97 86.6034 20.325 87.0234 20.575C87.4534 20.815 87.9184 20.935 88.4184 20.935C88.9284 20.935 89.3934 20.815 89.8134 20.575C90.2434 20.325 90.5834 19.97 90.8334 19.51C91.0834 19.04 91.2084 18.49 91.2084 17.86ZM97.9851 22.135C97.2151 22.135 96.5151 21.96 95.8851 21.61C95.2651 21.26 94.7751 20.765 94.4151 20.125C94.0651 19.475 93.8901 18.725 93.8901 17.875C93.8901 17.035 94.0701 16.295 94.4301 15.655C94.8001 15.005 95.3001 14.51 95.9301 14.17C96.5601 13.82 97.2651 13.645 98.0451 13.645C98.8251 13.645 99.5301 13.82 100.16 14.17C100.79 14.51 101.285 15 101.645 15.64C102.015 16.28 102.2 17.025 102.2 17.875C102.2 18.725 102.01 19.475 101.63 20.125C101.26 20.765 100.755 21.26 100.115 21.61C99.4751 21.96 98.7651 22.135 97.9851 22.135ZM97.9851 20.935C98.4751 20.935 98.9351 20.82 99.3651 20.59C99.7951 20.36 100.14 20.015 100.4 19.555C100.67 19.095 100.805 18.535 100.805 17.875C100.805 17.215 100.675 16.655 100.415 16.195C100.155 15.735 99.8151 15.395 99.3951 15.175C98.9751 14.945 98.5201 14.83 98.0301 14.83C97.5301 14.83 97.0701 14.945 96.6501 15.175C96.2401 15.395 95.9101 15.735 95.6601 16.195C95.4101 16.655 95.2851 17.215 95.2851 17.875C95.2851 18.545 95.4051 19.11 95.6451 19.57C95.8951 20.03 96.2251 20.375 96.6351 20.605C97.0451 20.825 97.4951 20.935 97.9851 20.935ZM107.58 22.135C106.81 22.135 106.11 21.96 105.48 21.61C104.86 21.26 104.37 20.765 104.01 20.125C103.66 19.475 103.485 18.725 103.485 17.875C103.485 17.035 103.665 16.295 104.025 15.655C104.395 15.005 104.895 14.51 105.525 14.17C106.155 13.82 106.86 13.645 107.64 13.645C108.42 13.645 109.125 13.82 109.755 14.17C110.385 14.51 110.88 15 111.24 15.64C111.61 16.28 111.795 17.025 111.795 17.875C111.795 18.725 111.605 19.475 111.225 20.125C110.855 20.765 110.35 21.26 109.71 21.61C109.07 21.96 108.36 22.135 107.58 22.135ZM107.58 20.935C108.07 20.935 108.53 20.82 108.96 20.59C109.39 20.36 109.735 20.015 109.995 19.555C110.265 19.095 110.4 18.535 110.4 17.875C110.4 17.215 110.27 16.655 110.01 16.195C109.75 15.735 109.41 15.395 108.99 15.175C108.57 14.945 108.115 14.83 107.625 14.83C107.125 14.83 106.665 14.945 106.245 15.175C105.835 15.395 105.505 15.735 105.255 16.195C105.005 16.655 104.88 17.215 104.88 17.875C104.88 18.545 105 19.11 105.24 19.57C105.49 20.03 105.82 20.375 106.23 20.605C106.64 20.825 107.09 20.935 107.58 20.935ZM118.18 22L114.955 18.37V22H113.59V10.9H114.955V17.425L118.12 13.78H120.025L116.155 17.875L120.04 22H118.18Z" fill="#E7D1E8"/>
</svg>
