<svg width="85" height="18" viewBox="0 0 85 18" fill="none" xmlns="http://www.w3.org/2000/svg">
<path d="M5.33333 4.69629C4.92608 5.10512 4.33034 5.36296 3.66667 5.36296C3.00299 5.36296 2.40726 5.10512 2 4.69629" stroke="white" stroke-width="1.3" stroke-linecap="round"/>
<path d="M13.3333 4.69687C12.9261 5.10571 12.3303 5.36354 11.6667 5.36354C11.003 5.36354 10.4073 5.10571 10 4.69687C9.33476 4.0293 8 4.36338 7.66667 5.03021C7.34982 5.66405 6.42922 8.81227 6.05332 10.4566C6.02494 10.5808 6.12007 10.6969 6.2474 10.6969H9" stroke="white" stroke-width="1.3" stroke-linecap="round"/>
<path d="M10.3337 13.3623C9.69026 13.78 8.8803 14.029 8.00033 14.029C7.12035 14.029 6.31039 13.78 5.66699 13.3623" stroke="white" stroke-width="1.3" stroke-linecap="round"/>
<path d="M27 4.228V5.81H22.926V8.316H26.048V9.87H22.926V14H20.966V4.228H27ZM27.8858 10.094C27.8858 9.31 28.0398 8.61467 28.3478 8.008C28.6652 7.40133 29.0898 6.93467 29.6218 6.608C30.1632 6.28133 30.7652 6.118 31.4278 6.118C32.0065 6.118 32.5105 6.23467 32.9398 6.468C33.3785 6.70133 33.7285 6.99533 33.9898 7.35V6.244H35.9638V14H33.9898V12.866C33.7378 13.23 33.3878 13.5333 32.9398 13.776C32.5012 14.0093 31.9925 14.126 31.4138 14.126C30.7605 14.126 30.1632 13.958 29.6218 13.622C29.0898 13.286 28.6652 12.8147 28.3478 12.208C28.0398 11.592 27.8858 10.8873 27.8858 10.094ZM33.9898 10.122C33.9898 9.646 33.8965 9.24 33.7098 8.904C33.5232 8.55867 33.2712 8.29733 32.9538 8.12C32.6365 7.93333 32.2958 7.84 31.9318 7.84C31.5678 7.84 31.2318 7.92867 30.9238 8.106C30.6158 8.28333 30.3638 8.54467 30.1678 8.89C29.9812 9.226 29.8878 9.62733 29.8878 10.094C29.8878 10.5607 29.9812 10.9713 30.1678 11.326C30.3638 11.6713 30.6158 11.9373 30.9238 12.124C31.2412 12.3107 31.5772 12.404 31.9318 12.404C32.2958 12.404 32.6365 12.3153 32.9538 12.138C33.2712 11.9513 33.5232 11.69 33.7098 11.354C33.8965 11.0087 33.9898 10.598 33.9898 10.122ZM37.3741 10.122C37.3741 9.31933 37.5374 8.61933 37.8641 8.022C38.1908 7.41533 38.6434 6.94867 39.2221 6.622C39.8008 6.286 40.4634 6.118 41.2101 6.118C42.1714 6.118 42.9648 6.36067 43.5901 6.846C44.2248 7.322 44.6494 7.994 44.8641 8.862H42.7501C42.6381 8.526 42.4468 8.26467 42.1761 8.078C41.9148 7.882 41.5881 7.784 41.1961 7.784C40.6361 7.784 40.1928 7.98933 39.8661 8.4C39.5394 8.80133 39.3761 9.37533 39.3761 10.122C39.3761 10.8593 39.5394 11.4333 39.8661 11.844C40.1928 12.2453 40.6361 12.446 41.1961 12.446C41.9894 12.446 42.5074 12.0913 42.7501 11.382H44.8641C44.6494 12.222 44.2248 12.8893 43.5901 13.384C42.9554 13.8787 42.1621 14.126 41.2101 14.126C40.4634 14.126 39.8008 13.9627 39.2221 13.636C38.6434 13.3 38.1908 12.8333 37.8641 12.236C37.5374 11.6293 37.3741 10.9247 37.3741 10.122ZM47.294 5.32C46.9487 5.32 46.6593 5.21267 46.426 4.998C46.202 4.774 46.09 4.49867 46.09 4.172C46.09 3.84533 46.202 3.57467 46.426 3.36C46.6593 3.136 46.9487 3.024 47.294 3.024C47.6393 3.024 47.924 3.136 48.148 3.36C48.3813 3.57467 48.498 3.84533 48.498 4.172C48.498 4.49867 48.3813 4.774 48.148 4.998C47.924 5.21267 47.6393 5.32 47.294 5.32ZM48.26 6.244V14H46.3V6.244H48.26ZM49.6925 10.094C49.6925 9.31 49.8465 8.61467 50.1545 8.008C50.4718 7.40133 50.8965 6.93467 51.4285 6.608C51.9698 6.28133 52.5718 6.118 53.2345 6.118C53.8131 6.118 54.3171 6.23467 54.7465 6.468C55.1851 6.70133 55.5351 6.99533 55.7965 7.35V6.244H57.7705V14H55.7965V12.866C55.5445 13.23 55.1945 13.5333 54.7465 13.776C54.3078 14.0093 53.7991 14.126 53.2205 14.126C52.5671 14.126 51.9698 13.958 51.4285 13.622C50.8965 13.286 50.4718 12.8147 50.1545 12.208C49.8465 11.592 49.6925 10.8873 49.6925 10.094ZM55.7965 10.122C55.7965 9.646 55.7031 9.24 55.5165 8.904C55.3298 8.55867 55.0778 8.29733 54.7605 8.12C54.4431 7.93333 54.1025 7.84 53.7385 7.84C53.3745 7.84 53.0385 7.92867 52.7305 8.106C52.4225 8.28333 52.1705 8.54467 51.9745 8.89C51.7878 9.226 51.6945 9.62733 51.6945 10.094C51.6945 10.5607 51.7878 10.9713 51.9745 11.326C52.1705 11.6713 52.4225 11.9373 52.7305 12.124C53.0478 12.3107 53.3838 12.404 53.7385 12.404C54.1025 12.404 54.4431 12.3153 54.7605 12.138C55.0778 11.9513 55.3298 11.69 55.5165 11.354C55.7031 11.0087 55.7965 10.598 55.7965 10.122ZM61.6448 3.64V14H59.6848V3.64H61.6448ZM72.9092 12.138H69.0172L68.3732 14H66.3152L69.8292 4.214H72.1112L75.6252 14H73.5532L72.9092 12.138ZM72.3772 10.57L70.9632 6.482L69.5492 10.57H72.3772ZM81.9787 14L79.8227 10.192H78.8987V14H76.9387V4.228H80.6067C81.3627 4.228 82.0067 4.36333 82.5387 4.634C83.0707 4.89533 83.4673 5.25467 83.7287 5.712C83.9993 6.16 84.1347 6.664 84.1347 7.224C84.1347 7.868 83.948 8.45133 83.5747 8.974C83.2013 9.48733 82.646 9.842 81.9087 10.038L84.2467 14H81.9787ZM78.8987 8.722H80.5367C81.0687 8.722 81.4653 8.596 81.7267 8.344C81.988 8.08267 82.1187 7.72333 82.1187 7.266C82.1187 6.818 81.988 6.47267 81.7267 6.23C81.4653 5.978 81.0687 5.852 80.5367 5.852H78.8987V8.722Z" fill="white"/>
</svg>
