<svg width="126" height="35" viewBox="0 0 126 35" fill="none" xmlns="http://www.w3.org/2000/svg">
<path d="M49.52 11.545V22H48.155V11.545H49.52ZM55.8514 13.63C56.8514 13.63 57.6614 13.935 58.2814 14.545C58.9014 15.145 59.2114 16.015 59.2114 17.155V22H57.8614V17.35C57.8614 16.53 57.6564 15.905 57.2464 15.475C56.8364 15.035 56.2764 14.815 55.5664 14.815C54.8464 14.815 54.2714 15.04 53.8414 15.49C53.4214 15.94 53.2114 16.595 53.2114 17.455V22H51.8464V13.78H53.2114V14.95C53.4814 14.53 53.8464 14.205 54.3064 13.975C54.7764 13.745 55.2914 13.63 55.8514 13.63ZM64.3511 22.135C63.7211 22.135 63.1561 22.03 62.6561 21.82C62.1561 21.6 61.7611 21.3 61.4711 20.92C61.1811 20.53 61.0211 20.085 60.9911 19.585H62.4011C62.4411 19.995 62.6311 20.33 62.9711 20.59C63.3211 20.85 63.7761 20.98 64.3361 20.98C64.8561 20.98 65.2661 20.865 65.5661 20.635C65.8661 20.405 66.0161 20.115 66.0161 19.765C66.0161 19.405 65.8561 19.14 65.5361 18.97C65.2161 18.79 64.7211 18.615 64.0511 18.445C63.4411 18.285 62.9411 18.125 62.5511 17.965C62.1711 17.795 61.8411 17.55 61.5611 17.23C61.2911 16.9 61.1561 16.47 61.1561 15.94C61.1561 15.52 61.2811 15.135 61.5311 14.785C61.7811 14.435 62.1361 14.16 62.5961 13.96C63.0561 13.75 63.5811 13.645 64.1711 13.645C65.0811 13.645 65.8161 13.875 66.3761 14.335C66.9361 14.795 67.2361 15.425 67.2761 16.225H65.9111C65.8811 15.795 65.7061 15.45 65.3861 15.19C65.0761 14.93 64.6561 14.8 64.1261 14.8C63.6361 14.8 63.2461 14.905 62.9561 15.115C62.6661 15.325 62.5211 15.6 62.5211 15.94C62.5211 16.21 62.6061 16.435 62.7761 16.615C62.9561 16.785 63.1761 16.925 63.4361 17.035C63.7061 17.135 64.0761 17.25 64.5461 17.38C65.1361 17.54 65.6161 17.7 65.9861 17.86C66.3561 18.01 66.6711 18.24 66.9311 18.55C67.2011 18.86 67.3411 19.265 67.3511 19.765C67.3511 20.215 67.2261 20.62 66.9761 20.98C66.7261 21.34 66.3711 21.625 65.9111 21.835C65.4611 22.035 64.9411 22.135 64.3511 22.135ZM70.943 14.905V19.75C70.943 20.15 71.028 20.435 71.198 20.605C71.368 20.765 71.663 20.845 72.083 20.845H73.088V22H71.858C71.098 22 70.528 21.825 70.148 21.475C69.768 21.125 69.578 20.55 69.578 19.75V14.905H68.513V13.78H69.578V11.71H70.943V13.78H73.088V14.905H70.943ZM74.2319 17.86C74.2319 17.02 74.4019 16.285 74.7419 15.655C75.0819 15.015 75.5469 14.52 76.1369 14.17C76.7369 13.82 77.4019 13.645 78.1319 13.645C78.8519 13.645 79.4769 13.8 80.0069 14.11C80.5369 14.42 80.9319 14.81 81.1919 15.28V13.78H82.5719V22H81.1919V20.47C80.9219 20.95 80.5169 21.35 79.9769 21.67C79.4469 21.98 78.8269 22.135 78.1169 22.135C77.3869 22.135 76.7269 21.955 76.1369 21.595C75.5469 21.235 75.0819 20.73 74.7419 20.08C74.4019 19.43 74.2319 18.69 74.2319 17.86ZM81.1919 17.875C81.1919 17.255 81.0669 16.715 80.8169 16.255C80.5669 15.795 80.2269 15.445 79.7969 15.205C79.3769 14.955 78.9119 14.83 78.4019 14.83C77.8919 14.83 77.4269 14.95 77.0069 15.19C76.5869 15.43 76.2519 15.78 76.0019 16.24C75.7519 16.7 75.6269 17.24 75.6269 17.86C75.6269 18.49 75.7519 19.04 76.0019 19.51C76.2519 19.97 76.5869 20.325 77.0069 20.575C77.4269 20.815 77.8919 20.935 78.4019 20.935C78.9119 20.935 79.3769 20.815 79.7969 20.575C80.2269 20.325 80.5669 19.97 80.8169 19.51C81.0669 19.04 81.1919 18.495 81.1919 17.875ZM88.2686 13.645C88.9786 13.645 89.5986 13.8 90.1286 14.11C90.6686 14.42 91.0686 14.81 91.3286 15.28V13.78H92.7086V22.18C92.7086 22.93 92.5486 23.595 92.2286 24.175C91.9086 24.765 91.4486 25.225 90.8486 25.555C90.2586 25.885 89.5686 26.05 88.7786 26.05C87.6986 26.05 86.7986 25.795 86.0786 25.285C85.3586 24.775 84.9336 24.08 84.8036 23.2H86.1536C86.3036 23.7 86.6136 24.1 87.0836 24.4C87.5536 24.71 88.1186 24.865 88.7786 24.865C89.5286 24.865 90.1386 24.63 90.6086 24.16C91.0886 23.69 91.3286 23.03 91.3286 22.18V20.455C91.0586 20.935 90.6586 21.335 90.1286 21.655C89.5986 21.975 88.9786 22.135 88.2686 22.135C87.5386 22.135 86.8736 21.955 86.2736 21.595C85.6836 21.235 85.2186 20.73 84.8786 20.08C84.5386 19.43 84.3686 18.69 84.3686 17.86C84.3686 17.02 84.5386 16.285 84.8786 15.655C85.2186 15.015 85.6836 14.52 86.2736 14.17C86.8736 13.82 87.5386 13.645 88.2686 13.645ZM91.3286 17.875C91.3286 17.255 91.2036 16.715 90.9536 16.255C90.7036 15.795 90.3636 15.445 89.9336 15.205C89.5136 14.955 89.0486 14.83 88.5386 14.83C88.0286 14.83 87.5636 14.95 87.1436 15.19C86.7236 15.43 86.3886 15.78 86.1386 16.24C85.8886 16.7 85.7636 17.24 85.7636 17.86C85.7636 18.49 85.8886 19.04 86.1386 19.51C86.3886 19.97 86.7236 20.325 87.1436 20.575C87.5636 20.815 88.0286 20.935 88.5386 20.935C89.0486 20.935 89.5136 20.815 89.9336 20.575C90.3636 20.325 90.7036 19.97 90.9536 19.51C91.2036 19.04 91.3286 18.495 91.3286 17.875ZM96.3804 15.115C96.6204 14.645 96.9604 14.28 97.4004 14.02C97.8504 13.76 98.3954 13.63 99.0354 13.63V15.04H98.6754C97.1454 15.04 96.3804 15.87 96.3804 17.53V22H95.0154V13.78H96.3804V15.115ZM100.101 17.86C100.101 17.02 100.271 16.285 100.611 15.655C100.951 15.015 101.416 14.52 102.006 14.17C102.606 13.82 103.271 13.645 104.001 13.645C104.721 13.645 105.346 13.8 105.876 14.11C106.406 14.42 106.801 14.81 107.061 15.28V13.78H108.441V22H107.061V20.47C106.791 20.95 106.386 21.35 105.846 21.67C105.316 21.98 104.696 22.135 103.986 22.135C103.256 22.135 102.596 21.955 102.006 21.595C101.416 21.235 100.951 20.73 100.611 20.08C100.271 19.43 100.101 18.69 100.101 17.86ZM107.061 17.875C107.061 17.255 106.936 16.715 106.686 16.255C106.436 15.795 106.096 15.445 105.666 15.205C105.246 14.955 104.781 14.83 104.271 14.83C103.761 14.83 103.296 14.95 102.876 15.19C102.456 15.43 102.121 15.78 101.871 16.24C101.621 16.7 101.496 17.24 101.496 17.86C101.496 18.49 101.621 19.04 101.871 19.51C102.121 19.97 102.456 20.325 102.876 20.575C103.296 20.815 103.761 20.935 104.271 20.935C104.781 20.935 105.246 20.815 105.666 20.575C106.096 20.325 106.436 19.97 106.686 19.51C106.936 19.04 107.061 18.495 107.061 17.875ZM120.633 13.63C121.273 13.63 121.843 13.765 122.343 14.035C122.843 14.295 123.238 14.69 123.528 15.22C123.818 15.75 123.963 16.395 123.963 17.155V22H122.613V17.35C122.613 16.53 122.408 15.905 121.998 15.475C121.598 15.035 121.053 14.815 120.363 14.815C119.653 14.815 119.088 15.045 118.668 15.505C118.248 15.955 118.038 16.61 118.038 17.47V22H116.688V17.35C116.688 16.53 116.483 15.905 116.073 15.475C115.673 15.035 115.128 14.815 114.438 14.815C113.728 14.815 113.163 15.045 112.743 15.505C112.323 15.955 112.113 16.61 112.113 17.47V22H110.748V13.78H112.113V14.965C112.383 14.535 112.743 14.205 113.193 13.975C113.653 13.745 114.158 13.63 114.708 13.63C115.398 13.63 116.008 13.785 116.538 14.095C117.068 14.405 117.463 14.86 117.723 15.46C117.953 14.88 118.333 14.43 118.863 14.11C119.393 13.79 119.983 13.63 120.633 13.63Z" fill="#E7D1E8"/>
<circle cx="17.5" cy="17.5" r="17.5" fill="white" fill-opacity="0.15"/>
<circle cx="17.5" cy="17.5" r="17" stroke="white" stroke-opacity="0.15"/>
<path d="M17.4974 14.2903C15.7301 14.2903 14.2878 15.7326 14.2878 17.5C14.2878 19.2674 15.7301 20.7097 17.4974 20.7097C19.2648 20.7097 20.7071 19.2674 20.7071 17.5C20.7071 15.7326 19.2648 14.2903 17.4974 14.2903ZM27.1239 17.5C27.1239 16.1709 27.136 14.8537 27.0613 13.527C26.9867 11.986 26.6351 10.6183 25.5083 9.4914C24.379 8.36211 23.0138 8.01297 21.4727 7.93832C20.1436 7.86368 18.8265 7.87572 17.4998 7.87572C16.1707 7.87572 14.8536 7.86368 13.5269 7.93832C11.9859 8.01297 10.6182 8.36452 9.49137 9.4914C8.3621 10.6207 8.01296 11.986 7.93832 13.527C7.86368 14.8562 7.87572 16.1733 7.87572 17.5C7.87572 18.8267 7.86368 20.1463 7.93832 21.473C8.01296 23.014 8.36451 24.3817 9.49137 25.5086C10.6206 26.6379 11.9859 26.987 13.5269 27.0617C14.856 27.1363 16.1731 27.1243 17.4998 27.1243C18.8289 27.1243 20.146 27.1363 21.4727 27.0617C23.0138 26.987 24.3814 26.6355 25.5083 25.5086C26.6375 24.3793 26.9867 23.014 27.0613 21.473C27.1384 20.1463 27.1239 18.8291 27.1239 17.5ZM17.4974 22.4386C14.7645 22.4386 12.5589 20.2329 12.5589 17.5C12.5589 14.7671 14.7645 12.5614 17.4974 12.5614C20.2303 12.5614 22.4359 14.7671 22.4359 17.5C22.4359 20.2329 20.2303 22.4386 17.4974 22.4386ZM22.6381 13.5126C22.0001 13.5126 21.4848 12.9973 21.4848 12.3592C21.4848 11.7211 22.0001 11.2058 22.6381 11.2058C23.2762 11.2058 23.7915 11.7211 23.7915 12.3592C23.7917 12.5107 23.762 12.6608 23.7041 12.8008C23.6462 12.9408 23.5612 13.068 23.4541 13.1752C23.347 13.2823 23.2197 13.3673 23.0797 13.4251C22.9397 13.483 22.7896 13.5127 22.6381 13.5126Z" fill="white"/>
</svg>
