<svg width="1440" height="412" viewBox="0 0 1440 412" fill="none" xmlns="http://www.w3.org/2000/svg">
<g style="mix-blend-mode:hard-light" opacity="0.2">
<path opacity="0.99" d="M-219 282.543V289.241H1701V282.543H-219Z" fill="#56646F"/>
<path opacity="0.99" d="M-219 188.481L-219 192.941H1701V188.48L-219 188.481Z" fill="#56646F"/>
<path opacity="0.99" d="M-219 125.789L-219 128.75H1701V125.789H-219Z" fill="#56646F"/>
<path opacity="0.99" d="M-219 83.9727V85.9551H1701V83.9727H-219Z" fill="#56646F"/>
<path opacity="0.99" d="M-219 56.1016V57.4211H1701V56.1016H-219Z" fill="#56646F"/>
<path opacity="0.99" d="M-219 37.5234V38.4072H1701V37.5234H-219Z" fill="#56646F"/>
<path opacity="0.99" d="M-219 25.1406V25.7247L1701 25.7249V25.1408L-219 25.1406Z" fill="#56646F"/>
<path opacity="0.99" d="M-219 16.8789V17.2724H1701V16.8789H-219Z" fill="#56646F"/>
<path opacity="0.99" d="M-219 11.3711V11.6304L1701 11.6306V11.3713L-219 11.3711Z" fill="#56646F"/>
<path opacity="0.99" d="M-219 7.70703V7.87955H1701V7.70703H-219Z" fill="#56646F"/>
<path opacity="0.99" d="M-219 5.25781V5.36636H1701V5.25781H-219Z" fill="#56646F"/>
<path opacity="0.99" d="M-219 3.62119V3.69919L1701 3.69909V3.62109L-219 3.62119Z" fill="#56646F"/>
<path opacity="0.99" d="M-219 1.80078V1.87274H1701V1.80078H-219Z" fill="#56646F"/>
<path opacity="0.99" d="M-219 1.3125V1.38486L1701 1.38448V1.3125H-219Z" fill="#56646F"/>
<path opacity="0.99" d="M-219 0.972656V1.04446H1701V0.972656H-219Z" fill="#56646F"/>
<path opacity="0.99" d="M-219 2.52344V2.59589H1701V2.52344H-219Z" fill="#56646F"/>
<path fill-rule="evenodd" clip-rule="evenodd" d="M-219.021 419.423C100.989 279.954 420.989 140.485 740.999 1.01562C429.319 140.485 117.639 279.954 -194.031 419.423H-219.019H-219.021Z" fill="#56646F"/>
<path fill-rule="evenodd" clip-rule="evenodd" d="M-219 289.249V282.557C101 188.71 421 94.8706 741 1.02344H741C421 97.0944 101 193.173 -219 289.244L-219 289.249Z" fill="#56646F"/>
<path fill-rule="evenodd" clip-rule="evenodd" d="M-219 125.763C101 84.1714 421 42.5771 741 0.984375C421 43.5635 101 86.1457 -219 128.722" fill="#56646F"/>
<path fill-rule="evenodd" clip-rule="evenodd" d="M-219 85.9355V83.953H-219L741 0.992188C421 29.3067 101 57.6213 -219 85.9366L-219 85.9355Z" fill="#56646F"/>
<path fill-rule="evenodd" clip-rule="evenodd" d="M-219 56.1034C101 37.74 421 19.3759 741 1.01172C421 19.8152 101 38.6187 -219 57.4229" fill="#56646F"/>
<path fill-rule="evenodd" clip-rule="evenodd" d="M-219 38.4383V37.5545H-219C101 25.3851 421 13.2156 741 1.04688L-219 38.4386L-219 38.4383Z" fill="#56646F"/>
<path fill-rule="evenodd" clip-rule="evenodd" d="M-219 25.7334V25.1492L741 1.02344H741L-219 25.7335L-219 25.7334Z" fill="#56646F"/>
<path fill-rule="evenodd" clip-rule="evenodd" d="M-219 192.939V188.477H-219L741 1.00781L-219 192.94L-219 192.939Z" fill="#56646F"/>
<path fill-rule="evenodd" clip-rule="evenodd" d="M-219 17.2869V16.8935C101 11.6049 421 6.31633 741 1.02734H741L-219 17.2863L-219 17.2869Z" fill="#56646F"/>
<path fill-rule="evenodd" clip-rule="evenodd" d="M-219 11.3955V11.6557C101 8.12485 421 4.59123 741 1.03516H741C421 4.48857 101 7.94204 -219 11.3954L-219 11.3955Z" fill="#56646F"/>
<path fill-rule="evenodd" clip-rule="evenodd" d="M-219 7.67632V7.84894C101 5.5608 421 3.27251 741 0.984375H741L-219 7.67632H-219Z" fill="#56646F"/>
<path fill-rule="evenodd" clip-rule="evenodd" d="M-219 5.27373C101 3.85829 421 2.44279 741 1.02734L-219 5.38269" fill="#56646F"/>
<path fill-rule="evenodd" clip-rule="evenodd" d="M-219 3.72592V3.64723L741 1.03516H741C421 1.93212 101 2.82896 -219 3.72592H-219Z" fill="#56646F"/>
<path fill-rule="evenodd" clip-rule="evenodd" d="M-219.006 2.64072C100.994 2.10684 420.994 1.57294 740.994 1.03906C420.994 1.57294 100.994 2.10684 -219.006 2.64072Z" fill="#56646F"/>
<path fill-rule="evenodd" clip-rule="evenodd" d="M-260.993 703.784C73.0105 469.528 407.014 235.272 741 1.01562C741 1.01562 741 1.01565 741 1.01578C421.36 235.272 101.736 469.528 -217.904 703.784H-261L-260.993 703.784Z" fill="#56646F"/>
<path fill-rule="evenodd" clip-rule="evenodd" d="M538.779 419.423C606.185 279.954 673.589 140.485 740.999 1.01562C740.999 1.01562 740.999 1.01564 740.999 1.01572C681.924 140.485 622.849 279.954 563.779 419.423H538.785L538.779 419.423Z" fill="#56646F"/>
<path fill-rule="evenodd" clip-rule="evenodd" d="M1701 419.423C1380.99 279.954 1060.99 140.485 740.98 1.01562C740.98 1.01562 740.981 1.01564 740.981 1.01572C1052.66 140.485 1364.34 279.954 1676.01 419.423H1701L1701 419.423Z" fill="#56646F"/>
<path fill-rule="evenodd" clip-rule="evenodd" d="M1648.99 682.089C1346.32 455.065 1043.65 228.04 741 1.01562C741 1.01562 741 1.01565 741 1.01578C1030.65 228.04 1320.29 455.065 1609.95 682.089H1649L1648.99 682.089Z" fill="#56646F"/>
<path fill-rule="evenodd" clip-rule="evenodd" d="M943.2 419.423C875.794 279.954 808.39 140.485 740.98 1.01562C740.98 1.01562 740.981 1.01564 740.981 1.01572C800.056 140.485 859.131 279.954 918.201 419.423H943.194L943.2 419.423Z" fill="#56646F"/>
<path fill-rule="evenodd" clip-rule="evenodd" d="M1701 289.249V282.557C1381 188.71 1061 94.8706 741 1.02344C1061 97.0943 1381 193.173 1701 289.244L1701 289.249Z" fill="#56646F"/>
<path fill-rule="evenodd" clip-rule="evenodd" d="M1701 125.763C1381 84.1714 1061 42.5771 741 0.984375C1061 43.5635 1381 86.1457 1701 128.722" fill="#56646F"/>
<path fill-rule="evenodd" clip-rule="evenodd" d="M1701 85.9355V83.953H1701C1381 56.2994 1061 28.6458 740.99 0.992188H740.99C1060.99 29.3067 1380.99 57.6213 1701 85.9366L1701 85.9355Z" fill="#56646F"/>
<path fill-rule="evenodd" clip-rule="evenodd" d="M1701 56.1034C1381 37.74 1061 19.3759 740.99 1.01172C1060.99 19.8152 1380.99 38.6187 1701 57.4229" fill="#56646F"/>
<path fill-rule="evenodd" clip-rule="evenodd" d="M1701 38.4383V37.5545C1381 25.3851 1061 13.2156 740.99 1.04688H740.99C1060.99 13.5108 1380.99 25.9747 1701 38.4386V38.4383Z" fill="#56646F"/>
<path fill-rule="evenodd" clip-rule="evenodd" d="M1701 25.7334V25.1492H1701C1381 17.1073 1061 9.06538 740.99 1.02344H740.99C1060.99 9.25987 1380.99 17.4963 1701 25.7335L1701 25.7334Z" fill="#56646F"/>
<path fill-rule="evenodd" clip-rule="evenodd" d="M1701 192.942V188.481C1381 125.991 1061 63.5015 740.99 1.01172H740.99C1060.99 64.9884 1380.99 128.967 1701 192.944V192.942Z" fill="#56646F"/>
<path fill-rule="evenodd" clip-rule="evenodd" d="M1701 17.2869V16.8935C1381 11.6049 1061 6.31633 740.99 1.02734H740.99C1060.99 6.44712 1380.99 11.8671 1701 17.2863L1701 17.2869Z" fill="#56646F"/>
<path fill-rule="evenodd" clip-rule="evenodd" d="M1701 11.3955V11.6557C1381 8.12485 1061 4.59123 741 1.03516H741C1061 4.48857 1381 7.94204 1701 11.3954V11.3955Z" fill="#56646F"/>
<path fill-rule="evenodd" clip-rule="evenodd" d="M1701 7.67632V7.84894H1701C1381 5.5608 1061 3.27251 740.99 0.984375H740.99C1060.99 3.21502 1380.99 5.44568 1701 7.67632H1701Z" fill="#56646F"/>
<path fill-rule="evenodd" clip-rule="evenodd" d="M1701 5.27373C1381 3.85829 1061 2.44279 740.99 1.02734C1060.99 2.47913 1380.99 3.93091 1701 5.38269" fill="#56646F"/>
<path fill-rule="evenodd" clip-rule="evenodd" d="M1701 3.72592V3.64723H1701C1381 2.77653 1061 1.90585 740.99 1.03516H740.99C1060.99 1.93212 1380.99 2.82896 1701 3.72592H1701Z" fill="#56646F"/>
<path fill-rule="evenodd" clip-rule="evenodd" d="M1701 2.64072C1381 2.10684 1061 1.57294 741 1.03906C1061 1.57294 1381 2.10684 1701 2.64072Z" fill="#56646F"/>
<path fill-rule="evenodd" clip-rule="evenodd" d="M-219 2.56265V2.49134L741 0.980469H741C421 1.50789 101 2.03523 -219 2.56265H-219Z" fill="#56646F"/>
<path fill-rule="evenodd" clip-rule="evenodd" d="M1701 2.56265V2.49134L741 0.980469H741C1061 1.50789 1381 2.03523 1701 2.56265Z" fill="#56646F"/>
<path fill-rule="evenodd" clip-rule="evenodd" d="M-219 1.86938L741 1.01172L-219 1.86938Z" fill="#56646F"/>
<path fill-rule="evenodd" clip-rule="evenodd" d="M741 1.86938L-219 1.01172L741 1.86938Z" fill="#56646F"/>
<path fill-rule="evenodd" clip-rule="evenodd" d="M-219 1.86633C101 1.58144 421 1.29661 741 1.01172C421 1.29661 101 1.58144 -219 1.86633Z" fill="#56646F"/>
<path fill-rule="evenodd" clip-rule="evenodd" d="M1701 1.86633C1381 1.58144 1061 1.29661 741 1.01172C1061 1.29661 1381 1.58144 1701 1.86633Z" fill="#56646F"/>
<path fill-rule="evenodd" clip-rule="evenodd" d="M-219 1.40082V1.328C101 1.22782 421 1.12752 741 1.02734H741C421 1.15185 101 1.27632 -219 1.40082H-219Z" fill="#56646F"/>
<path fill-rule="evenodd" clip-rule="evenodd" d="M1701 1.40082V1.328C1381 1.22782 1061 1.12752 741 1.02734H741C1061 1.15185 1381 1.27632 1701 1.40082Z" fill="#56646F"/>
<path fill-rule="evenodd" clip-rule="evenodd" d="M-219 1.86938V1.79656H-219C101 1.5349 421 1.27337 741 1.01172L-219 1.86938H-219Z" fill="#56646F"/>
<path fill-rule="evenodd" clip-rule="evenodd" d="M1701 1.86938V1.79656H1701C1381 1.5349 1061 1.27337 741 1.01172L1701 1.86938H1701Z" fill="#56646F"/>
</g>
</svg>
