<svg width="108" height="35" viewBox="0 0 108 35" fill="none" xmlns="http://www.w3.org/2000/svg">
<circle cx="17.5" cy="17.5" r="17.5" fill="white" fill-opacity="0.15"/>
<circle cx="17.5" cy="17.5" r="17" stroke="white" stroke-opacity="0.15"/>
<path d="M26.2471 24.7732V24.7725H26.2515V18.3543C26.2515 15.2145 25.5756 12.7959 21.9049 12.7959C20.1404 12.7959 18.9562 13.7642 18.4728 14.6823H18.4217V13.089H14.9414V24.7725H18.5654V18.9873C18.5654 17.464 18.8541 15.9911 20.7405 15.9911C22.5991 15.9911 22.6268 17.7294 22.6268 19.085V24.7732H26.2471Z" fill="white"/>
<path d="M9.03906 13.0898H12.6674V24.7733H9.03906V13.0898Z" fill="white"/>
<path d="M10.8515 7.27344C9.69135 7.27344 8.75 8.21479 8.75 9.3749C8.75 10.535 9.69135 11.496 10.8515 11.496C12.0116 11.496 12.9529 10.535 12.9529 9.3749C12.9522 8.21479 12.0108 7.27344 10.8515 7.27344V7.27344Z" fill="white"/>
<path d="M49.52 20.89H53.18V22H48.155V11.545H49.52V20.89ZM55.3346 12.445C55.0746 12.445 54.8546 12.355 54.6746 12.175C54.4946 11.995 54.4046 11.775 54.4046 11.515C54.4046 11.255 54.4946 11.035 54.6746 10.855C54.8546 10.675 55.0746 10.585 55.3346 10.585C55.5846 10.585 55.7946 10.675 55.9646 10.855C56.1446 11.035 56.2346 11.255 56.2346 11.515C56.2346 11.775 56.1446 11.995 55.9646 12.175C55.7946 12.355 55.5846 12.445 55.3346 12.445ZM55.9946 13.78V22H54.6296V13.78H55.9946ZM62.326 13.63C63.326 13.63 64.136 13.935 64.756 14.545C65.376 15.145 65.686 16.015 65.686 17.155V22H64.336V17.35C64.336 16.53 64.131 15.905 63.721 15.475C63.311 15.035 62.751 14.815 62.041 14.815C61.321 14.815 60.746 15.04 60.316 15.49C59.896 15.94 59.686 16.595 59.686 17.455V22H58.321V13.78H59.686V14.95C59.956 14.53 60.321 14.205 60.781 13.975C61.251 13.745 61.766 13.63 62.326 13.63ZM72.5057 22L69.2807 18.37V22H67.9157V10.9H69.2807V17.425L72.4457 13.78H74.3507L70.4807 17.875L74.3657 22H72.5057ZM83.1355 17.575C83.1355 17.835 83.1205 18.11 83.0905 18.4H76.5205C76.5705 19.21 76.8455 19.845 77.3455 20.305C77.8555 20.755 78.4705 20.98 79.1905 20.98C79.7805 20.98 80.2705 20.845 80.6605 20.575C81.0605 20.295 81.3405 19.925 81.5005 19.465H82.9705C82.7505 20.255 82.3105 20.9 81.6505 21.4C80.9905 21.89 80.1705 22.135 79.1905 22.135C78.4105 22.135 77.7105 21.96 77.0905 21.61C76.4805 21.26 76.0005 20.765 75.6505 20.125C75.3005 19.475 75.1255 18.725 75.1255 17.875C75.1255 17.025 75.2955 16.28 75.6355 15.64C75.9755 15 76.4505 14.51 77.0605 14.17C77.6805 13.82 78.3905 13.645 79.1905 13.645C79.9705 13.645 80.6605 13.815 81.2605 14.155C81.8605 14.495 82.3205 14.965 82.6405 15.565C82.9705 16.155 83.1355 16.825 83.1355 17.575ZM81.7255 17.29C81.7255 16.77 81.6105 16.325 81.3805 15.955C81.1505 15.575 80.8355 15.29 80.4355 15.1C80.0455 14.9 79.6105 14.8 79.1305 14.8C78.4405 14.8 77.8505 15.02 77.3605 15.46C76.8805 15.9 76.6055 16.51 76.5355 17.29H81.7255ZM84.4272 17.86C84.4272 17.02 84.5972 16.285 84.9372 15.655C85.2772 15.015 85.7422 14.52 86.3322 14.17C86.9322 13.82 87.6022 13.645 88.3422 13.645C88.9822 13.645 89.5772 13.795 90.1272 14.095C90.6772 14.385 91.0972 14.77 91.3872 15.25V10.9H92.7672V22H91.3872V20.455C91.1172 20.945 90.7172 21.35 90.1872 21.67C89.6572 21.98 89.0372 22.135 88.3272 22.135C87.5972 22.135 86.9322 21.955 86.3322 21.595C85.7422 21.235 85.2772 20.73 84.9372 20.08C84.5972 19.43 84.4272 18.69 84.4272 17.86ZM91.3872 17.875C91.3872 17.255 91.2622 16.715 91.0122 16.255C90.7622 15.795 90.4222 15.445 89.9922 15.205C89.5722 14.955 89.1072 14.83 88.5972 14.83C88.0872 14.83 87.6222 14.95 87.2022 15.19C86.7822 15.43 86.4472 15.78 86.1972 16.24C85.9472 16.7 85.8222 17.24 85.8222 17.86C85.8222 18.49 85.9472 19.04 86.1972 19.51C86.4472 19.97 86.7822 20.325 87.2022 20.575C87.6222 20.815 88.0872 20.935 88.5972 20.935C89.1072 20.935 89.5722 20.815 89.9922 20.575C90.4222 20.325 90.7622 19.97 91.0122 19.51C91.2622 19.04 91.3872 18.495 91.3872 17.875ZM95.7789 12.445C95.5189 12.445 95.2989 12.355 95.1189 12.175C94.9389 11.995 94.8489 11.775 94.8489 11.515C94.8489 11.255 94.9389 11.035 95.1189 10.855C95.2989 10.675 95.5189 10.585 95.7789 10.585C96.0289 10.585 96.2389 10.675 96.4089 10.855C96.5889 11.035 96.6789 11.255 96.6789 11.515C96.6789 11.775 96.5889 11.995 96.4089 12.175C96.2389 12.355 96.0289 12.445 95.7789 12.445ZM96.4389 13.78V22H95.0739V13.78H96.4389ZM102.77 13.63C103.77 13.63 104.58 13.935 105.2 14.545C105.82 15.145 106.13 16.015 106.13 17.155V22H104.78V17.35C104.78 16.53 104.575 15.905 104.165 15.475C103.755 15.035 103.195 14.815 102.485 14.815C101.765 14.815 101.19 15.04 100.76 15.49C100.34 15.94 100.13 16.595 100.13 17.455V22H98.7654V13.78H100.13V14.95C100.4 14.53 100.765 14.205 101.225 13.975C101.695 13.745 102.21 13.63 102.77 13.63Z" fill="#E7D1E8"/>
</svg>
