<svg width="101" height="24" viewBox="0 0 101 24" fill="none" xmlns="http://www.w3.org/2000/svg">
<path d="M17.2217 13.2216L12 7.99994L6.77829 13.2216" stroke="#1CE4F0" stroke-width="2" stroke-linecap="round" stroke-linejoin="round"/>
<path d="M32.47 17.605C31.78 17.605 31.16 17.485 30.61 17.245C30.07 16.995 29.645 16.655 29.335 16.225C29.025 15.785 28.865 15.28 28.855 14.71H30.31C30.36 15.2 30.56 15.615 30.91 15.955C31.27 16.285 31.79 16.45 32.47 16.45C33.12 16.45 33.63 16.29 34 15.97C34.38 15.64 34.57 15.22 34.57 14.71C34.57 14.31 34.46 13.985 34.24 13.735C34.02 13.485 33.745 13.295 33.415 13.165C33.085 13.035 32.64 12.895 32.08 12.745C31.39 12.565 30.835 12.385 30.415 12.205C30.005 12.025 29.65 11.745 29.35 11.365C29.06 10.975 28.915 10.455 28.915 9.805C28.915 9.235 29.06 8.73 29.35 8.29C29.64 7.85 30.045 7.51 30.565 7.27C31.095 7.03 31.7 6.91 32.38 6.91C33.36 6.91 34.16 7.155 34.78 7.645C35.41 8.135 35.765 8.785 35.845 9.595H34.345C34.295 9.195 34.085 8.845 33.715 8.545C33.345 8.235 32.855 8.08 32.245 8.08C31.675 8.08 31.21 8.23 30.85 8.53C30.49 8.82 30.31 9.23 30.31 9.76C30.31 10.14 30.415 10.45 30.625 10.69C30.845 10.93 31.11 11.115 31.42 11.245C31.74 11.365 32.185 11.505 32.755 11.665C33.445 11.855 34 12.045 34.42 12.235C34.84 12.415 35.2 12.7 35.5 13.09C35.8 13.47 35.95 13.99 35.95 14.65C35.95 15.16 35.815 15.64 35.545 16.09C35.275 16.54 34.875 16.905 34.345 17.185C33.815 17.465 33.19 17.605 32.47 17.605ZM42.0387 9.13C42.6587 9.13 43.2187 9.265 43.7187 9.535C44.2187 9.795 44.6087 10.19 44.8887 10.72C45.1787 11.25 45.3237 11.895 45.3237 12.655V17.5H43.9737V12.85C43.9737 12.03 43.7687 11.405 43.3587 10.975C42.9487 10.535 42.3887 10.315 41.6787 10.315C40.9587 10.315 40.3837 10.54 39.9537 10.99C39.5337 11.44 39.3237 12.095 39.3237 12.955V17.5H37.9587V6.4H39.3237V10.45C39.5937 10.03 39.9637 9.705 40.4337 9.475C40.9137 9.245 41.4487 9.13 42.0387 9.13ZM51.1384 17.635C50.3684 17.635 49.6684 17.46 49.0384 17.11C48.4184 16.76 47.9284 16.265 47.5684 15.625C47.2184 14.975 47.0434 14.225 47.0434 13.375C47.0434 12.535 47.2234 11.795 47.5834 11.155C47.9534 10.505 48.4534 10.01 49.0834 9.67C49.7134 9.32 50.4184 9.145 51.1984 9.145C51.9784 9.145 52.6834 9.32 53.3134 9.67C53.9434 10.01 54.4384 10.5 54.7984 11.14C55.1684 11.78 55.3534 12.525 55.3534 13.375C55.3534 14.225 55.1634 14.975 54.7834 15.625C54.4134 16.265 53.9084 16.76 53.2684 17.11C52.6284 17.46 51.9184 17.635 51.1384 17.635ZM51.1384 16.435C51.6284 16.435 52.0884 16.32 52.5184 16.09C52.9484 15.86 53.2934 15.515 53.5534 15.055C53.8234 14.595 53.9584 14.035 53.9584 13.375C53.9584 12.715 53.8284 12.155 53.5684 11.695C53.3084 11.235 52.9684 10.895 52.5484 10.675C52.1284 10.445 51.6734 10.33 51.1834 10.33C50.6834 10.33 50.2234 10.445 49.8034 10.675C49.3934 10.895 49.0634 11.235 48.8134 11.695C48.5634 12.155 48.4384 12.715 48.4384 13.375C48.4384 14.045 48.5584 14.61 48.7984 15.07C49.0484 15.53 49.3784 15.875 49.7884 16.105C50.1984 16.325 50.6484 16.435 51.1384 16.435ZM68.0982 9.28L65.5332 17.5H64.1232L62.1432 10.975L60.1632 17.5H58.7532L56.1732 9.28H57.5682L59.4582 16.18L61.4982 9.28H62.8932L64.8882 16.195L66.7482 9.28H68.0982ZM74.8169 6.4V17.5H73.4519V6.4H74.8169ZM84.6433 13.075C84.6433 13.335 84.6283 13.61 84.5983 13.9H78.0283C78.0783 14.71 78.3533 15.345 78.8533 15.805C79.3633 16.255 79.9783 16.48 80.6983 16.48C81.2883 16.48 81.7783 16.345 82.1683 16.075C82.5683 15.795 82.8483 15.425 83.0083 14.965H84.4783C84.2583 15.755 83.8183 16.4 83.1583 16.9C82.4983 17.39 81.6783 17.635 80.6983 17.635C79.9183 17.635 79.2183 17.46 78.5983 17.11C77.9883 16.76 77.5083 16.265 77.1583 15.625C76.8083 14.975 76.6333 14.225 76.6333 13.375C76.6333 12.525 76.8033 11.78 77.1433 11.14C77.4833 10.5 77.9583 10.01 78.5683 9.67C79.1883 9.32 79.8983 9.145 80.6983 9.145C81.4783 9.145 82.1683 9.315 82.7683 9.655C83.3683 9.995 83.8283 10.465 84.1483 11.065C84.4783 11.655 84.6433 12.325 84.6433 13.075ZM83.2333 12.79C83.2333 12.27 83.1183 11.825 82.8883 11.455C82.6583 11.075 82.3433 10.79 81.9433 10.6C81.5533 10.4 81.1183 10.3 80.6383 10.3C79.9483 10.3 79.3583 10.52 78.8683 10.96C78.3883 11.4 78.1133 12.01 78.0433 12.79H83.2333ZM89.355 17.635C88.725 17.635 88.16 17.53 87.66 17.32C87.16 17.1 86.765 16.8 86.475 16.42C86.185 16.03 86.025 15.585 85.995 15.085H87.405C87.445 15.495 87.635 15.83 87.975 16.09C88.325 16.35 88.78 16.48 89.34 16.48C89.86 16.48 90.27 16.365 90.57 16.135C90.87 15.905 91.02 15.615 91.02 15.265C91.02 14.905 90.86 14.64 90.54 14.47C90.22 14.29 89.725 14.115 89.055 13.945C88.445 13.785 87.945 13.625 87.555 13.465C87.175 13.295 86.845 13.05 86.565 12.73C86.295 12.4 86.16 11.97 86.16 11.44C86.16 11.02 86.285 10.635 86.535 10.285C86.785 9.935 87.14 9.66 87.6 9.46C88.06 9.25 88.585 9.145 89.175 9.145C90.085 9.145 90.82 9.375 91.38 9.835C91.94 10.295 92.24 10.925 92.28 11.725H90.915C90.885 11.295 90.71 10.95 90.39 10.69C90.08 10.43 89.66 10.3 89.13 10.3C88.64 10.3 88.25 10.405 87.96 10.615C87.67 10.825 87.525 11.1 87.525 11.44C87.525 11.71 87.61 11.935 87.78 12.115C87.96 12.285 88.18 12.425 88.44 12.535C88.71 12.635 89.08 12.75 89.55 12.88C90.14 13.04 90.62 13.2 90.99 13.36C91.36 13.51 91.675 13.74 91.935 14.05C92.205 14.36 92.345 14.765 92.355 15.265C92.355 15.715 92.23 16.12 91.98 16.48C91.73 16.84 91.375 17.125 90.915 17.335C90.465 17.535 89.945 17.635 89.355 17.635ZM97.192 17.635C96.562 17.635 95.997 17.53 95.497 17.32C94.997 17.1 94.602 16.8 94.312 16.42C94.022 16.03 93.862 15.585 93.832 15.085H95.242C95.282 15.495 95.472 15.83 95.812 16.09C96.162 16.35 96.617 16.48 97.177 16.48C97.697 16.48 98.107 16.365 98.407 16.135C98.707 15.905 98.857 15.615 98.857 15.265C98.857 14.905 98.697 14.64 98.377 14.47C98.057 14.29 97.562 14.115 96.892 13.945C96.282 13.785 95.782 13.625 95.392 13.465C95.012 13.295 94.682 13.05 94.402 12.73C94.132 12.4 93.997 11.97 93.997 11.44C93.997 11.02 94.122 10.635 94.372 10.285C94.622 9.935 94.977 9.66 95.437 9.46C95.897 9.25 96.422 9.145 97.012 9.145C97.922 9.145 98.657 9.375 99.217 9.835C99.777 10.295 100.077 10.925 100.117 11.725H98.752C98.722 11.295 98.547 10.95 98.227 10.69C97.917 10.43 97.497 10.3 96.967 10.3C96.477 10.3 96.087 10.405 95.797 10.615C95.507 10.825 95.362 11.1 95.362 11.44C95.362 11.71 95.447 11.935 95.617 12.115C95.797 12.285 96.017 12.425 96.277 12.535C96.547 12.635 96.917 12.75 97.387 12.88C97.977 13.04 98.457 13.2 98.827 13.36C99.197 13.51 99.512 13.74 99.772 14.05C100.042 14.36 100.182 14.765 100.192 15.265C100.192 15.715 100.067 16.12 99.817 16.48C99.567 16.84 99.212 17.125 98.752 17.335C98.302 17.535 97.782 17.635 97.192 17.635Z" fill="#1CE4F0"/>
</svg>
