<svg width="113" height="24" viewBox="0 0 113 24" fill="none" xmlns="http://www.w3.org/2000/svg">
<path d="M17.2217 10.2217L12 15.4434L6.77829 10.2217" stroke="#1CE4F0" stroke-width="2" stroke-linecap="round" stroke-linejoin="round"/>
<path d="M32.47 17.605C31.78 17.605 31.16 17.485 30.61 17.245C30.07 16.995 29.645 16.655 29.335 16.225C29.025 15.785 28.865 15.28 28.855 14.71H30.31C30.36 15.2 30.56 15.615 30.91 15.955C31.27 16.285 31.79 16.45 32.47 16.45C33.12 16.45 33.63 16.29 34 15.97C34.38 15.64 34.57 15.22 34.57 14.71C34.57 14.31 34.46 13.985 34.24 13.735C34.02 13.485 33.745 13.295 33.415 13.165C33.085 13.035 32.64 12.895 32.08 12.745C31.39 12.565 30.835 12.385 30.415 12.205C30.005 12.025 29.65 11.745 29.35 11.365C29.06 10.975 28.915 10.455 28.915 9.805C28.915 9.235 29.06 8.73 29.35 8.29C29.64 7.85 30.045 7.51 30.565 7.27C31.095 7.03 31.7 6.91 32.38 6.91C33.36 6.91 34.16 7.155 34.78 7.645C35.41 8.135 35.765 8.785 35.845 9.595H34.345C34.295 9.195 34.085 8.845 33.715 8.545C33.345 8.235 32.855 8.08 32.245 8.08C31.675 8.08 31.21 8.23 30.85 8.53C30.49 8.82 30.31 9.23 30.31 9.76C30.31 10.14 30.415 10.45 30.625 10.69C30.845 10.93 31.11 11.115 31.42 11.245C31.74 11.365 32.185 11.505 32.755 11.665C33.445 11.855 34 12.045 34.42 12.235C34.84 12.415 35.2 12.7 35.5 13.09C35.8 13.47 35.95 13.99 35.95 14.65C35.95 15.16 35.815 15.64 35.545 16.09C35.275 16.54 34.875 16.905 34.345 17.185C33.815 17.465 33.19 17.605 32.47 17.605ZM42.0387 9.13C42.6587 9.13 43.2187 9.265 43.7187 9.535C44.2187 9.795 44.6087 10.19 44.8887 10.72C45.1787 11.25 45.3237 11.895 45.3237 12.655V17.5H43.9737V12.85C43.9737 12.03 43.7687 11.405 43.3587 10.975C42.9487 10.535 42.3887 10.315 41.6787 10.315C40.9587 10.315 40.3837 10.54 39.9537 10.99C39.5337 11.44 39.3237 12.095 39.3237 12.955V17.5H37.9587V6.4H39.3237V10.45C39.5937 10.03 39.9637 9.705 40.4337 9.475C40.9137 9.245 41.4487 9.13 42.0387 9.13ZM51.1384 17.635C50.3684 17.635 49.6684 17.46 49.0384 17.11C48.4184 16.76 47.9284 16.265 47.5684 15.625C47.2184 14.975 47.0434 14.225 47.0434 13.375C47.0434 12.535 47.2234 11.795 47.5834 11.155C47.9534 10.505 48.4534 10.01 49.0834 9.67C49.7134 9.32 50.4184 9.145 51.1984 9.145C51.9784 9.145 52.6834 9.32 53.3134 9.67C53.9434 10.01 54.4384 10.5 54.7984 11.14C55.1684 11.78 55.3534 12.525 55.3534 13.375C55.3534 14.225 55.1634 14.975 54.7834 15.625C54.4134 16.265 53.9084 16.76 53.2684 17.11C52.6284 17.46 51.9184 17.635 51.1384 17.635ZM51.1384 16.435C51.6284 16.435 52.0884 16.32 52.5184 16.09C52.9484 15.86 53.2934 15.515 53.5534 15.055C53.8234 14.595 53.9584 14.035 53.9584 13.375C53.9584 12.715 53.8284 12.155 53.5684 11.695C53.3084 11.235 52.9684 10.895 52.5484 10.675C52.1284 10.445 51.6734 10.33 51.1834 10.33C50.6834 10.33 50.2234 10.445 49.8034 10.675C49.3934 10.895 49.0634 11.235 48.8134 11.695C48.5634 12.155 48.4384 12.715 48.4384 13.375C48.4384 14.045 48.5584 14.61 48.7984 15.07C49.0484 15.53 49.3784 15.875 49.7884 16.105C50.1984 16.325 50.6484 16.435 51.1384 16.435ZM68.0982 9.28L65.5332 17.5H64.1232L62.1432 10.975L60.1632 17.5H58.7532L56.1732 9.28H57.5682L59.4582 16.18L61.4982 9.28H62.8932L64.8882 16.195L66.7482 9.28H68.0982ZM83.3369 9.13C83.9769 9.13 84.5469 9.265 85.0469 9.535C85.5469 9.795 85.9419 10.19 86.2319 10.72C86.5219 11.25 86.6669 11.895 86.6669 12.655V17.5H85.3169V12.85C85.3169 12.03 85.1119 11.405 84.7019 10.975C84.3019 10.535 83.7569 10.315 83.0669 10.315C82.3569 10.315 81.7919 10.545 81.3719 11.005C80.9519 11.455 80.7419 12.11 80.7419 12.97V17.5H79.3919V12.85C79.3919 12.03 79.1869 11.405 78.7769 10.975C78.3769 10.535 77.8319 10.315 77.1419 10.315C76.4319 10.315 75.8669 10.545 75.4469 11.005C75.0269 11.455 74.8169 12.11 74.8169 12.97V17.5H73.4519V9.28H74.8169V10.465C75.0869 10.035 75.4469 9.705 75.8969 9.475C76.3569 9.245 76.8619 9.13 77.4119 9.13C78.1019 9.13 78.7119 9.285 79.2419 9.595C79.7719 9.905 80.1669 10.36 80.4269 10.96C80.6569 10.38 81.0369 9.93 81.5669 9.61C82.0969 9.29 82.6869 9.13 83.3369 9.13ZM92.491 17.635C91.721 17.635 91.021 17.46 90.391 17.11C89.771 16.76 89.281 16.265 88.921 15.625C88.571 14.975 88.396 14.225 88.396 13.375C88.396 12.535 88.576 11.795 88.936 11.155C89.306 10.505 89.806 10.01 90.436 9.67C91.066 9.32 91.771 9.145 92.551 9.145C93.331 9.145 94.036 9.32 94.666 9.67C95.296 10.01 95.791 10.5 96.151 11.14C96.521 11.78 96.706 12.525 96.706 13.375C96.706 14.225 96.516 14.975 96.136 15.625C95.766 16.265 95.261 16.76 94.621 17.11C93.981 17.46 93.271 17.635 92.491 17.635ZM92.491 16.435C92.981 16.435 93.441 16.32 93.871 16.09C94.301 15.86 94.646 15.515 94.906 15.055C95.176 14.595 95.311 14.035 95.311 13.375C95.311 12.715 95.181 12.155 94.921 11.695C94.661 11.235 94.321 10.895 93.901 10.675C93.481 10.445 93.026 10.33 92.536 10.33C92.036 10.33 91.576 10.445 91.156 10.675C90.746 10.895 90.416 11.235 90.166 11.695C89.916 12.155 89.791 12.715 89.791 13.375C89.791 14.045 89.911 14.61 90.151 15.07C90.401 15.53 90.731 15.875 91.141 16.105C91.551 16.325 92.001 16.435 92.491 16.435ZM99.8657 10.615C100.106 10.145 100.446 9.78 100.886 9.52C101.336 9.26 101.881 9.13 102.521 9.13V10.54H102.161C100.631 10.54 99.8657 11.37 99.8657 13.03V17.5H98.5007V9.28H99.8657V10.615ZM111.596 13.075C111.596 13.335 111.581 13.61 111.551 13.9H104.981C105.031 14.71 105.306 15.345 105.806 15.805C106.316 16.255 106.931 16.48 107.651 16.48C108.241 16.48 108.731 16.345 109.121 16.075C109.521 15.795 109.801 15.425 109.961 14.965H111.431C111.211 15.755 110.771 16.4 110.111 16.9C109.451 17.39 108.631 17.635 107.651 17.635C106.871 17.635 106.171 17.46 105.551 17.11C104.941 16.76 104.461 16.265 104.111 15.625C103.761 14.975 103.586 14.225 103.586 13.375C103.586 12.525 103.756 11.78 104.096 11.14C104.436 10.5 104.911 10.01 105.521 9.67C106.141 9.32 106.851 9.145 107.651 9.145C108.431 9.145 109.121 9.315 109.721 9.655C110.321 9.995 110.781 10.465 111.101 11.065C111.431 11.655 111.596 12.325 111.596 13.075ZM110.186 12.79C110.186 12.27 110.071 11.825 109.841 11.455C109.611 11.075 109.296 10.79 108.896 10.6C108.506 10.4 108.071 10.3 107.591 10.3C106.901 10.3 106.311 10.52 105.821 10.96C105.341 11.4 105.066 12.01 104.996 12.79H110.186Z" fill="#1CE4F0"/>
</svg>
