<svg width="97" height="35" viewBox="0 0 97 35" fill="none" xmlns="http://www.w3.org/2000/svg">
<circle cx="17.5" cy="17.5" r="17.5" fill="white" fill-opacity="0.15"/>
<circle cx="17.5" cy="17.5" r="17" stroke="white" stroke-opacity="0.15"/>
<path d="M26.7545 11.6565C26.0537 11.964 25.3069 12.1677 24.5283 12.2667C25.3293 11.7885 25.9406 11.037 26.228 10.1312C25.4812 10.5764 24.6567 10.8909 23.778 11.0664C23.0689 10.3114 22.0582 9.84375 20.9557 9.84375C18.8167 9.84375 17.0946 11.58 17.0946 13.7084C17.0946 14.0147 17.1205 14.3091 17.1841 14.5895C13.972 14.4328 11.1297 12.8933 9.22038 10.5481C8.88703 11.1265 8.6915 11.7885 8.6915 12.5011C8.6915 13.8392 9.38057 15.0253 10.4077 15.712C9.78694 15.7002 9.17797 15.52 8.66206 15.2361C8.66206 15.2479 8.66206 15.2632 8.66206 15.2786C8.66206 17.1561 10.0013 18.7156 11.7576 19.0749C11.4431 19.1609 11.1003 19.2021 10.7446 19.2021C10.4972 19.2021 10.2475 19.188 10.0131 19.1362C10.5137 20.6662 11.9342 21.7911 13.6233 21.8276C12.3088 22.8559 10.6397 23.4755 8.83285 23.4755C8.516 23.4755 8.2121 23.4614 7.9082 23.4225C9.61968 24.5262 11.648 25.1564 13.8354 25.1564C20.9451 25.1564 24.8322 19.2669 24.8322 14.1619C24.8322 13.9911 24.8263 13.8262 24.818 13.6625C25.5849 13.1183 26.2292 12.4387 26.7545 11.6565Z" fill="white"/>
<path d="M54.59 11.545V12.655H51.74V22H50.375V12.655H47.51V11.545H54.59ZM67.2202 13.78L64.6552 22H63.2452L61.2652 15.475L59.2852 22H57.8752L55.2952 13.78H56.6902L58.5802 20.68L60.6202 13.78H62.0152L64.0102 20.695L65.8702 13.78H67.2202ZM69.2799 12.445C69.0199 12.445 68.7999 12.355 68.6199 12.175C68.4399 11.995 68.3499 11.775 68.3499 11.515C68.3499 11.255 68.4399 11.035 68.6199 10.855C68.7999 10.675 69.0199 10.585 69.2799 10.585C69.5299 10.585 69.7399 10.675 69.9099 10.855C70.0899 11.035 70.1799 11.255 70.1799 11.515C70.1799 11.775 70.0899 11.995 69.9099 12.175C69.7399 12.355 69.5299 12.445 69.2799 12.445ZM69.9399 13.78V22H68.5749V13.78H69.9399ZM73.9313 14.905V19.75C73.9313 20.15 74.0163 20.435 74.1863 20.605C74.3563 20.765 74.6513 20.845 75.0713 20.845H76.0763V22H74.8463C74.0863 22 73.5163 21.825 73.1363 21.475C72.7563 21.125 72.5663 20.55 72.5663 19.75V14.905H71.5013V13.78H72.5663V11.71H73.9313V13.78H76.0763V14.905H73.9313ZM79.3952 14.905V19.75C79.3952 20.15 79.4802 20.435 79.6502 20.605C79.8202 20.765 80.1152 20.845 80.5352 20.845H81.5402V22H80.3102C79.5502 22 78.9802 21.825 78.6002 21.475C78.2202 21.125 78.0302 20.55 78.0302 19.75V14.905H76.9652V13.78H78.0302V11.71H79.3952V13.78H81.5402V14.905H79.3952ZM90.6941 17.575C90.6941 17.835 90.6791 18.11 90.6491 18.4H84.0791C84.1291 19.21 84.4041 19.845 84.9041 20.305C85.4141 20.755 86.0291 20.98 86.7491 20.98C87.3391 20.98 87.8291 20.845 88.2191 20.575C88.6191 20.295 88.8991 19.925 89.0591 19.465H90.5291C90.3091 20.255 89.8691 20.9 89.2091 21.4C88.5491 21.89 87.7291 22.135 86.7491 22.135C85.9691 22.135 85.2691 21.96 84.6491 21.61C84.0391 21.26 83.5591 20.765 83.2091 20.125C82.8591 19.475 82.6841 18.725 82.6841 17.875C82.6841 17.025 82.8541 16.28 83.1941 15.64C83.5341 15 84.0091 14.51 84.6191 14.17C85.2391 13.82 85.9491 13.645 86.7491 13.645C87.5291 13.645 88.2191 13.815 88.8191 14.155C89.4191 14.495 89.8791 14.965 90.1991 15.565C90.5291 16.155 90.6941 16.825 90.6941 17.575ZM89.2841 17.29C89.2841 16.77 89.1691 16.325 88.9391 15.955C88.7091 15.575 88.3941 15.29 87.9941 15.1C87.6041 14.9 87.1691 14.8 86.6891 14.8C85.9991 14.8 85.4091 15.02 84.9191 15.46C84.4391 15.9 84.1641 16.51 84.0941 17.29H89.2841ZM93.8608 15.115C94.1008 14.645 94.4408 14.28 94.8808 14.02C95.3308 13.76 95.8758 13.63 96.5158 13.63V15.04H96.1558C94.6258 15.04 93.8608 15.87 93.8608 17.53V22H92.4958V13.78H93.8608V15.115Z" fill="#E7D1E8"/>
</svg>
