<svg width="16" height="16" viewBox="0 0 16 16" fill="none" xmlns="http://www.w3.org/2000/svg">
<path fill-rule="evenodd" clip-rule="evenodd" d="M6.14961 3.05088C6.14961 2.85758 6.30631 2.70088 6.49961 2.70088H9.49961C9.69291 2.70088 9.84961 2.85758 9.84961 3.05088V3.8501H6.14961V3.05088ZM4.84961 3.8501V3.05088C4.84961 2.13961 5.58834 1.40088 6.49961 1.40088H9.49961C10.4109 1.40088 11.1496 2.13961 11.1496 3.05088V3.8501H13.2141H13.4996C13.8586 3.8501 14.1496 4.14111 14.1496 4.5001C14.1496 4.85908 13.8586 5.1501 13.4996 5.1501H13.091L12.2852 13.6557C12.2049 14.5029 11.4935 15.1501 10.6425 15.1501H5.35675C4.50577 15.1501 3.79437 14.5029 3.71411 13.6557L2.90831 5.1501H2.49961C2.14062 5.1501 1.84961 4.85908 1.84961 4.5001C1.84961 4.14111 2.14062 3.8501 2.49961 3.8501H2.78516H4.84961ZM4.21413 5.1501H11.7852L10.991 13.5331C10.974 13.7128 10.823 13.8501 10.6425 13.8501H5.35675C5.17624 13.8501 5.02534 13.7128 5.00831 13.5331L4.21413 5.1501Z" fill="white"/>
</svg>
