<svg width="32" height="32" viewBox="0 0 32 32" fill="none" xmlns="http://www.w3.org/2000/svg">
<g filter="url(#filter0_b)">
<rect width="32" height="32" rx="16" fill="white" fill-opacity="0.15"/>
<rect x="0.5" y="0.5" width="31" height="31" rx="15.5" stroke="white" stroke-opacity="0.15"/>
</g>
<path d="M12.418 10.7945C12.5966 10.4851 12.9267 10.2945 13.284 10.2945L18.7184 10.2945C19.0756 10.2945 19.4058 10.4851 19.5844 10.7945L22.3016 15.5008C22.4802 15.8102 22.4802 16.1914 22.3016 16.5008L19.5844 21.2071C19.4058 21.5165 19.0756 21.7071 18.7184 21.7071L13.284 21.7071C12.9267 21.7071 12.5966 21.5165 12.418 21.2071L9.70081 16.5008C9.52217 16.1914 9.52217 15.8102 9.70081 15.5008L12.418 10.7945Z" stroke="white" stroke-width="1.2" stroke-linecap="round"/>
<circle cx="16.0007" cy="16.0004" r="1.92864" stroke="white" stroke-width="1.2" stroke-linecap="round"/>
<defs>
<filter id="filter0_b" x="-12" y="-12" width="56" height="56" filterUnits="userSpaceOnUse" color-interpolation-filters="sRGB">
<feFlood flood-opacity="0" result="BackgroundImageFix"/>
<feGaussianBlur in="BackgroundImage" stdDeviation="6"/>
<feComposite in2="SourceAlpha" operator="in" result="effect1_backgroundBlur"/>
<feBlend mode="normal" in="SourceGraphic" in2="effect1_backgroundBlur" result="shape"/>
</filter>
</defs>
</svg>
