<svg width="24" height="24" viewBox="0 0 24 24" fill="none" xmlns="http://www.w3.org/2000/svg">
<path d="M16.3786 16.2286L16.3786 16.2286L16.2286 16.3786L16.2236 16.3835L16.2236 16.3835C14.8249 17.7435 12.9501 18.5031 10.9992 18.5M16.3786 16.2286L18.5 10.9992C18.4996 6.85539 15.1428 3.5 11 3.5C6.85586 3.5 3.5 6.85586 3.5 11C3.5 15.1428 6.85539 18.4996 10.9992 18.5M16.3786 16.2286L16.3835 16.2236M16.3786 16.2286L16.3835 16.2236M10.9992 18.5L11 18V18.5C10.9997 18.5 10.9995 18.5 10.9992 18.5ZM16.3835 16.2236C17.7433 14.8251 18.5029 12.9506 18.5 11L16.3835 16.2236ZM17.6409 16.3043L17.3607 16.6538L17.6775 16.9706L21.6069 20.899L20.899 21.6069L16.9706 17.6775L16.6538 17.3607L16.3043 17.6409C14.7999 18.8468 12.9288 19.5027 11.0007 19.5H11C6.30814 19.5 2.5 15.6919 2.5 11C2.5 6.30814 6.30814 2.5 11 2.5C15.6919 2.5 19.5 6.30814 19.5 11V11.0007C19.5027 12.9288 18.8468 14.7999 17.6409 16.3043Z" fill="white" stroke="white"/>
</svg>
