<svg width="16" height="16" viewBox="0 0 16 16" fill="none" xmlns="http://www.w3.org/2000/svg">
<path fill-rule="evenodd" clip-rule="evenodd" d="M8.40881 6.47269C8.33414 6.58318 8.29053 6.71646 8.29053 6.86012C8.29053 7.24189 8.60112 7.55246 8.98289 7.55246H10.2526C11.1282 7.55246 11.8406 8.26483 11.8406 9.14049C11.8406 9.43643 11.7623 9.73081 11.6027 9.98424C11.7623 9.7308 11.8406 9.43642 11.8406 9.14047C11.8406 8.26481 11.1282 7.55243 10.2526 7.55243H8.98292C8.60114 7.55243 8.29055 7.24187 8.29055 6.86009C8.29055 6.71645 8.33415 6.58317 8.40881 6.47269ZM10.0656 10.7285C10.0656 10.7285 10.0655 10.7285 10.0655 10.7285V11.2651C10.0655 11.3523 10.0407 11.4336 9.99758 11.5024C10.0407 11.4336 10.0656 11.3522 10.0656 11.2651V10.7285ZM7.7953 9.71311C7.94462 9.55346 8.19238 9.52317 8.37735 9.65151C8.54586 9.76843 8.73237 9.8311 8.91679 9.83283H10.2441L10.2527 9.83286C10.3996 9.83286 10.5358 9.78718 10.6478 9.70919C10.5358 9.78716 10.3996 9.83284 10.2527 9.83284L10.2442 9.83281H8.91681C8.73239 9.83107 8.54588 9.7684 8.37737 9.65149C8.19239 9.52314 7.94462 9.55344 7.7953 9.71311ZM7.81263 5.78509C8.10748 5.47618 8.55914 5.27209 9.16991 5.27209V5.27206C8.55913 5.27207 8.10748 5.47617 7.81263 5.78509ZM9.30111 4.41881C9.38215 4.33778 9.49411 4.28766 9.61776 4.28766C9.86509 4.28766 10.0656 4.48818 10.0656 4.73551V5.27209C10.6433 5.27209 11.1306 5.41617 11.5543 5.86817C11.6966 6.02008 11.7126 6.24489 11.6065 6.41312C11.7127 6.24489 11.6967 6.02006 11.5543 5.86814C11.1307 5.41615 10.6433 5.27206 10.0656 5.27206V4.73548C10.0656 4.48815 9.86511 4.28764 9.61778 4.28764C9.49412 4.28764 9.38216 4.33777 9.30111 4.41881ZM8.99134 6.26775H10.2075C10.4346 6.26998 10.6613 6.3714 10.8278 6.54903C11.0347 6.7698 11.3814 6.78111 11.6022 6.5741C11.8229 6.36721 11.8342 6.02054 11.6273 5.79976C11.2051 5.34938 10.7211 5.19001 10.1656 5.17352V4.73548C10.1656 4.43292 9.92034 4.18764 9.61778 4.18764C9.31522 4.18764 9.06994 4.43292 9.06994 4.73548V5.17386C8.50177 5.19444 8.06497 5.3907 7.7658 5.68993C7.45011 6.00569 7.29489 6.429 7.29489 6.86009C7.29489 7.79098 8.05207 8.54813 8.98295 8.54813H10.2526C10.5792 8.54813 10.845 8.81392 10.845 9.14047C10.845 9.46824 10.5797 9.73284 10.2527 9.73284L10.2442 9.73281H8.91731C8.75529 9.73119 8.58818 9.67604 8.43438 9.56933C8.18576 9.39682 7.84441 9.4586 7.67196 9.70714C7.4995 9.95574 7.56119 10.2971 7.80977 10.4696C8.32335 10.8259 8.7735 10.832 9.06988 10.8293V11.2651C9.06988 11.5676 9.31516 11.8129 9.61772 11.8129C9.92028 11.8129 10.1656 11.5676 10.1656 11.2651V10.8267C10.7405 10.806 11.1778 10.6061 11.4754 10.3047C11.7892 9.987 11.9406 9.56385 11.9406 9.14047C11.9406 8.20958 11.1835 7.45243 10.2526 7.45243H8.98292C8.65637 7.45243 8.39055 7.18663 8.39055 6.86009C8.39055 6.53232 8.65578 6.26772 8.98277 6.26772L8.99134 6.26775ZM0.287109 8.00034C0.287109 3.99131 4.11838 1.05314 8.00194 2.12185C11.8862 1.05207 15.7139 3.99498 15.7139 8.00034C15.7139 12.0012 11.891 14.95 8.00194 13.8788C4.12539 14.9456 0.287109 12.0171 0.287109 8.00034ZM2.02872 3.88319C3.48891 2.34477 5.73796 1.59186 8.00193 2.22566C11.8313 1.15274 15.6138 4.05156 15.6138 8.00037C15.6138 9.4795 15.0826 10.8124 14.2163 11.8441C15.0826 10.8124 15.6139 9.47949 15.6139 8.00034C15.6139 4.05153 11.8313 1.15272 8.00195 2.22564C5.73797 1.59183 3.48891 2.34475 2.02872 3.88319ZM1.3828 8.00034C1.3828 5.33 3.48685 3.14149 6.12547 3.00666C4.55249 4.10992 3.52166 5.93676 3.52166 8.00034C3.52166 10.0639 4.55249 11.8908 6.12547 12.994C3.4869 12.8592 1.3828 10.6707 1.3828 8.00034ZM2.49968 4.69737C1.74107 5.58792 1.28278 6.74165 1.28278 8.00037C1.28278 10.8404 3.61581 13.1459 6.4674 13.1C6.46739 13.1 6.46737 13.0999 6.46736 13.0999C6.40499 13.1009 6.34286 13.1008 6.281 13.0996C3.51486 13.0447 1.2828 10.7782 1.2828 8.00034C1.2828 6.74164 1.74108 5.58791 2.49968 4.69737ZM5.73112 3.43842C5.96213 3.24135 6.20822 3.06147 6.4674 2.90078C6.46739 2.90078 6.46739 2.90078 6.46738 2.90078C6.41498 2.93327 6.36311 2.96654 6.3118 3.00059C6.10931 3.13491 5.91542 3.2812 5.73112 3.43842ZM9.61778 13.0007C6.86063 13.0007 4.61738 10.7575 4.61738 8.00034C4.61738 5.24322 6.86063 2.99994 9.61778 2.99994C12.3749 2.99994 14.6182 5.24322 14.6182 8.00034C14.6182 10.7575 12.3749 13.0007 9.61778 13.0007ZM4.51738 8.00034C4.51738 10.8127 6.8054 13.1007 9.61778 13.1007C11.024 13.1007 12.2991 12.5287 13.2226 11.6052C12.2991 12.5287 11.024 13.1008 9.61776 13.1008C6.80537 13.1008 4.51736 10.8127 4.51736 8.00037C4.51736 6.63538 5.05634 5.3939 5.93267 4.47759C5.05636 5.3939 4.51738 6.63537 4.51738 8.00034Z" fill="white"/>
</svg>
