<svg width="16" height="16" viewBox="0 0 16 16" fill="none" xmlns="http://www.w3.org/2000/svg">
<path fill-rule="evenodd" clip-rule="evenodd" d="M14.3937 2.83698C14.6866 2.54409 14.6866 2.06921 14.3937 1.77632C14.1008 1.48342 13.6259 1.48341 13.333 1.7763L11.7572 3.35215L11.2482 2.77952C10.9824 2.48054 10.564 2.3687 10.1845 2.4952L7.98069 3.22981C7.83341 3.27891 7.69958 3.36162 7.58981 3.47139L1.67864 9.38257C1.28811 9.77309 1.28811 10.4063 1.67864 10.7968L5.03196 14.1501C5.41543 14.5336 6.03465 14.5415 6.42782 14.168L12.3254 8.56531C12.4442 8.45242 12.5335 8.31204 12.5853 8.15654L13.3413 5.88851C13.4544 5.54917 13.3777 5.17526 13.1401 4.90791L12.7554 4.4752L14.3937 2.83698ZM11.071 6.09837C11.071 6.65021 10.6236 7.09756 10.0718 7.09756C9.51995 7.09756 9.0726 6.65021 9.0726 6.09837C9.0726 5.54654 9.51995 5.09918 10.0718 5.09918C10.6236 5.09918 11.071 5.54654 11.071 6.09837Z" fill="white"/>
</svg>
