<svg width="14" height="12" viewBox="0 0 14 12" fill="none" xmlns="http://www.w3.org/2000/svg">
<circle cx="7" cy="8.9707" r="2.5" fill="white"/>
<path d="M13.9412 7.69293C13.338 6.47785 12.3822 5.44849 11.1764 4.71478L12.6567 3.20909C12.8702 2.99188 12.8702 2.63969 12.6567 2.42245C12.4431 2.20524 12.0969 2.20524 11.8833 2.42245L10.1467 4.18888C9.32817 3.84432 8.44961 3.63706 7.54686 3.57741V1.05624C7.54686 0.749029 7.30202 0.5 6.99998 0.5C6.69794 0.5 6.45311 0.749029 6.45311 1.05624V3.57738C5.55035 3.63704 4.6718 3.84429 3.85329 4.18886L2.11667 2.42243C1.90308 2.20519 1.5568 2.20519 1.34325 2.42243C1.12972 2.63964 1.12972 2.99182 1.34328 3.20906L2.82358 4.71475C1.61778 5.44846 0.661952 6.47782 0.0588038 7.6929C-0.0773133 7.96715 0.0309132 8.30168 0.300522 8.44016C0.57005 8.57863 0.899077 8.46858 1.03517 8.19432C2.04956 6.15078 4.31018 4.67181 7.00001 4.67181C9.69186 4.67181 11.9513 6.15256 12.9648 8.19435C13.1012 8.46905 13.4303 8.57844 13.6995 8.44018C13.9691 8.30171 14.0773 7.96715 13.9412 7.69293Z" fill="white"/>
</svg>
