<svg width="35" height="35" viewBox="0 0 35 35" fill="none" xmlns="http://www.w3.org/2000/svg">
<circle cx="17.5" cy="17.5" r="17.5" fill="white" fill-opacity="0.15"/>
<circle cx="17.5" cy="17.5" r="17" stroke="white" stroke-opacity="0.15"/>
<path d="M17.4974 14.2903C15.7301 14.2903 14.2878 15.7326 14.2878 17.5C14.2878 19.2674 15.7301 20.7097 17.4974 20.7097C19.2648 20.7097 20.7071 19.2674 20.7071 17.5C20.7071 15.7326 19.2648 14.2903 17.4974 14.2903ZM27.1239 17.5C27.1239 16.1709 27.136 14.8537 27.0613 13.527C26.9867 11.986 26.6351 10.6183 25.5083 9.4914C24.379 8.36211 23.0138 8.01297 21.4727 7.93832C20.1436 7.86368 18.8265 7.87572 17.4998 7.87572C16.1707 7.87572 14.8536 7.86368 13.5269 7.93832C11.9859 8.01297 10.6182 8.36452 9.49137 9.4914C8.3621 10.6207 8.01296 11.986 7.93832 13.527C7.86368 14.8562 7.87572 16.1733 7.87572 17.5C7.87572 18.8267 7.86368 20.1463 7.93832 21.473C8.01296 23.014 8.36451 24.3817 9.49137 25.5086C10.6206 26.6379 11.9859 26.987 13.5269 27.0617C14.856 27.1363 16.1731 27.1243 17.4998 27.1243C18.8289 27.1243 20.146 27.1363 21.4727 27.0617C23.0138 26.987 24.3814 26.6355 25.5083 25.5086C26.6375 24.3793 26.9867 23.014 27.0613 21.473C27.1384 20.1463 27.1239 18.8291 27.1239 17.5ZM17.4974 22.4386C14.7645 22.4386 12.5589 20.2329 12.5589 17.5C12.5589 14.7671 14.7645 12.5614 17.4974 12.5614C20.2303 12.5614 22.4359 14.7671 22.4359 17.5C22.4359 20.2329 20.2303 22.4386 17.4974 22.4386ZM22.6381 13.5126C22.0001 13.5126 21.4848 12.9973 21.4848 12.3592C21.4848 11.7211 22.0001 11.2058 22.6381 11.2058C23.2762 11.2058 23.7915 11.7211 23.7915 12.3592C23.7917 12.5107 23.762 12.6608 23.7041 12.8008C23.6462 12.9408 23.5612 13.068 23.4541 13.1752C23.347 13.2823 23.2197 13.3673 23.0797 13.4251C22.9397 13.483 22.7896 13.5127 22.6381 13.5126Z" fill="white"/>
</svg>
