<svg width="35" height="35" viewBox="0 0 35 35" fill="none" xmlns="http://www.w3.org/2000/svg">
<circle cx="17.5" cy="17.5" r="17.5" fill="white" fill-opacity="0.15"/>
<circle cx="17.5" cy="17.5" r="17" stroke="white" stroke-opacity="0.15"/>
<path d="M26.2471 24.7737V24.773H26.2515V18.3548C26.2515 15.215 25.5756 12.7964 21.9049 12.7964C20.1404 12.7964 18.9562 13.7647 18.4728 14.6827H18.4217V13.0895H14.9414V24.773H18.5654V18.9877C18.5654 17.4645 18.8541 15.9916 20.7405 15.9916C22.5991 15.9916 22.6268 17.7299 22.6268 19.0855V24.7737H26.2471Z" fill="white"/>
<path d="M9.03906 13.0908H12.6674V24.7742H9.03906V13.0908Z" fill="white"/>
<path d="M10.8515 7.27386C9.69135 7.27386 8.75 8.21522 8.75 9.37532C8.75 10.5354 9.69135 11.4965 10.8515 11.4965C12.0116 11.4965 12.9529 10.5354 12.9529 9.37532C12.9522 8.21522 12.0108 7.27386 10.8515 7.27386V7.27386Z" fill="white"/>
</svg>
