<svg width="35" height="35" viewBox="0 0 35 35" fill="none" xmlns="http://www.w3.org/2000/svg">
<circle cx="17.5" cy="17.5" r="17.5" fill="white" fill-opacity="0.15"/>
<circle cx="17.5" cy="17.5" r="17" stroke="white" stroke-opacity="0.15"/>
<path d="M17.2679 7C11.8695 7.00088 9 10.6891 9 14.7106C9 16.5753 9.97728 18.9019 11.5421 19.6396C11.9885 19.8539 11.9294 19.5923 12.3134 18.026C12.3438 17.8957 12.3282 17.7828 12.2297 17.6612C9.99287 14.9022 11.7932 9.23041 16.9487 9.23041C24.41 9.23041 23.0159 20.2398 18.2468 20.2398C17.0176 20.2398 16.1019 19.2108 16.3916 17.9377C16.7428 16.4213 17.4304 14.7911 17.4304 13.6982C17.4304 10.9437 13.582 11.3523 13.582 15.002C13.582 16.1299 13.9562 16.8911 13.9562 16.8911C13.9562 16.8911 12.7179 22.2252 12.4882 23.2219C12.0992 24.9089 12.5407 27.6398 12.5793 27.8752C12.6031 28.0047 12.7393 28.0458 12.8156 27.939C12.9378 27.7684 14.4345 25.4916 14.8538 23.8457C15.0065 23.2464 15.6325 20.8138 15.6325 20.8138C16.0453 21.6083 17.2351 22.2733 18.5028 22.2733C22.2741 22.2733 25 18.7383 25 14.3519C24.9869 10.1465 21.6119 7 17.2679 7V7Z" fill="white"/>
</svg>
