<svg width="35" height="35" viewBox="0 0 35 35" fill="none" xmlns="http://www.w3.org/2000/svg">
<circle cx="17.5" cy="17.5" r="17.5" fill="white" fill-opacity="0.15"/>
<circle cx="17.5" cy="17.5" r="17" stroke="white" stroke-opacity="0.15"/>
<path d="M24.5833 9H10.4167C10.0411 9.0004 9.68098 9.141 9.4154 9.39096C9.14981 9.64093 9.00042 9.97983 9 10.3333V22.3333C9.00042 22.6868 9.14981 23.0258 9.4154 23.2757C9.68098 23.5257 10.0411 23.6663 10.4167 23.6667H11.8333V26.3333C11.8333 26.4601 11.8717 26.5841 11.9439 26.6911C12.0162 26.798 12.1193 26.8833 12.2412 26.937C12.3631 26.9908 12.4988 27.0107 12.6323 26.9945C12.7658 26.9783 12.8917 26.9266 12.9951 26.8455L17.0481 23.6667H20.7852C21.1166 23.6665 21.4375 23.5571 21.6922 23.3576L25.4903 20.3788C25.65 20.2538 25.7785 20.0972 25.8666 19.9201C25.9547 19.7431 26.0003 19.5499 26 19.3544V10.3333C25.9996 9.97983 25.8502 9.64093 25.5846 9.39096C25.319 9.141 24.9589 9.0004 24.5833 9ZM17.5 17.6667C17.5 17.8435 17.4254 18.0131 17.2925 18.1381C17.1597 18.2631 16.9795 18.3333 16.7917 18.3333C16.6038 18.3333 16.4236 18.2631 16.2908 18.1381C16.158 18.0131 16.0833 17.8435 16.0833 17.6667V13.6667C16.0833 13.4899 16.158 13.3203 16.2908 13.1953C16.4236 13.0702 16.6038 13 16.7917 13C16.9795 13 17.1597 13.0702 17.2925 13.1953C17.4254 13.3203 17.5 13.4899 17.5 13.6667V17.6667ZM21.75 17.6667C21.75 17.8435 21.6754 18.0131 21.5425 18.1381C21.4097 18.2631 21.2295 18.3333 21.0417 18.3333C20.8538 18.3333 20.6736 18.2631 20.5408 18.1381C20.408 18.0131 20.3333 17.8435 20.3333 17.6667V13.6667C20.3333 13.4899 20.408 13.3203 20.5408 13.1953C20.6736 13.0702 20.8538 13 21.0417 13C21.2295 13 21.4097 13.0702 21.5425 13.1953C21.6754 13.3203 21.75 13.4899 21.75 13.6667V17.6667Z" fill="white"/>
</svg>
