<svg width="35" height="35" viewBox="0 0 35 35" fill="none" xmlns="http://www.w3.org/2000/svg">
<circle cx="17.5" cy="17.5" r="17.5" fill="white" fill-opacity="0.15"/>
<circle cx="17.5" cy="17.5" r="17" stroke="white" stroke-opacity="0.15"/>
<path d="M26.7545 11.6565C26.0537 11.964 25.3069 12.1677 24.5283 12.2667C25.3293 11.7885 25.9406 11.037 26.228 10.1312C25.4812 10.5764 24.6567 10.8909 23.778 11.0664C23.0689 10.3114 22.0582 9.84375 20.9557 9.84375C18.8167 9.84375 17.0946 11.58 17.0946 13.7084C17.0946 14.0147 17.1205 14.3091 17.1841 14.5895C13.972 14.4328 11.1297 12.8933 9.22038 10.5481C8.88703 11.1265 8.6915 11.7885 8.6915 12.5011C8.6915 13.8392 9.38057 15.0253 10.4077 15.712C9.78694 15.7002 9.17797 15.52 8.66206 15.2361C8.66206 15.2479 8.66206 15.2632 8.66206 15.2786C8.66206 17.1561 10.0013 18.7156 11.7576 19.0749C11.4431 19.1609 11.1003 19.2021 10.7446 19.2021C10.4972 19.2021 10.2475 19.188 10.0131 19.1362C10.5137 20.6662 11.9342 21.7911 13.6233 21.8276C12.3088 22.8559 10.6397 23.4755 8.83285 23.4755C8.516 23.4755 8.2121 23.4614 7.9082 23.4225C9.61968 24.5262 11.648 25.1564 13.8354 25.1564C20.9451 25.1564 24.8322 19.2669 24.8322 14.1619C24.8322 13.9911 24.8263 13.8262 24.818 13.6625C25.5849 13.1183 26.2292 12.4387 26.7545 11.6565Z" fill="white"/>
</svg>
