<svg width="35" height="35" viewBox="0 0 35 35" fill="none" xmlns="http://www.w3.org/2000/svg">
<circle cx="17.5" cy="17.5" r="17.5" fill="white" fill-opacity="0.15"/>
<circle cx="17.5" cy="17.5" r="17" stroke="white" stroke-opacity="0.15"/>
<path d="M27.5617 12.3432C27.4422 11.8894 27.2078 11.4756 26.882 11.1432C26.5563 10.8108 26.1505 10.5714 25.7055 10.449C24.0672 10 17.5 10 17.5 10C17.5 10 10.9328 10 9.29453 10.4467C8.84927 10.5687 8.44334 10.8079 8.11751 11.1404C7.79169 11.4729 7.55744 11.8868 7.43828 12.3408C7 14.0127 7 17.5 7 17.5C7 17.5 7 20.9873 7.43828 22.6568C7.67969 23.5788 8.39219 24.3049 9.29453 24.551C10.9328 25 17.5 25 17.5 25C17.5 25 24.0672 25 25.7055 24.551C26.6102 24.3049 27.3203 23.5788 27.5617 22.6568C28 20.9873 28 17.5 28 17.5C28 17.5 28 14.0127 27.5617 12.3432ZM15.4141 20.7006V14.2994L20.8516 17.4761L15.4141 20.7006Z" fill="white"/>
</svg>
