<svg width="22" height="18" viewBox="0 0 22 18" fill="none" xmlns="http://www.w3.org/2000/svg">
<path d="M15.2222 17V15.2222C15.2222 14.2792 14.8476 13.3749 14.1808 12.7081C13.514 12.0413 12.6097 11.6667 11.6667 11.6667H4.55556C3.61256 11.6667 2.70819 12.0413 2.0414 12.7081C1.3746 13.3749 1 14.2792 1 15.2222V17" stroke="#C3A2C5" stroke-width="1.5" stroke-linecap="round" stroke-linejoin="round"/>
<path d="M8.11122 8.11111C10.0749 8.11111 11.6668 6.51923 11.6668 4.55556C11.6668 2.59188 10.0749 1 8.11122 1C6.14754 1 4.55566 2.59188 4.55566 4.55556C4.55566 6.51923 6.14754 8.11111 8.11122 8.11111Z" stroke="#C3A2C5" stroke-width="1.5" stroke-linecap="round" stroke-linejoin="round"/>
<path d="M20.5556 16.9999V15.2221C20.555 14.4343 20.2928 13.669 19.8101 13.0464C19.3275 12.4238 18.6517 11.9791 17.8889 11.7821" stroke="#C3A2C5" stroke-width="1.5" stroke-linecap="round" stroke-linejoin="round"/>
<path d="M14.3333 1.11545C15.0981 1.31127 15.776 1.75607 16.26 2.37972C16.7441 3.00338 17.0069 3.77041 17.0069 4.55989C17.0069 5.34938 16.7441 6.11641 16.26 6.74006C15.776 7.36371 15.0981 7.80851 14.3333 8.00434" stroke="#C3A2C5" stroke-width="1.5" stroke-linecap="round" stroke-linejoin="round"/>
</svg>
