<svg width="24" height="24" viewBox="0 0 24 24" fill="none" xmlns="http://www.w3.org/2000/svg">
<path fill-rule="evenodd" clip-rule="evenodd" d="M13.2735 9.62417L13.2846 9.62421H14.8619C15.1939 9.62727 15.5212 9.77505 15.76 10.0299C15.9793 10.2638 16.3468 10.2758 16.5807 10.0565C16.6712 9.97158 16.7285 9.86452 16.752 9.75158C16.7285 9.8643 16.6712 9.97113 16.5808 10.0559C16.3469 10.2752 15.9794 10.2632 15.7601 10.0293C15.5213 9.77445 15.1941 9.62667 14.862 9.62361H13.2847L13.2736 9.62357C12.8409 9.62357 12.4796 9.92937 12.3949 10.3376C12.4798 9.92968 12.841 9.62417 13.2735 9.62417ZM16.9338 13.9146C16.7521 14.7835 16.0162 15.5364 14.6774 15.5364V15.537C16.0165 15.5369 16.7523 14.7838 16.9338 13.9146ZM14.6648 16.3529C14.6092 16.6155 14.376 16.8126 14.0968 16.8126C13.7761 16.8126 13.5162 16.5527 13.5162 16.232V15.5364C13.486 15.5364 13.4543 15.5367 13.4211 15.5371C13.0441 15.541 12.4792 15.5468 11.8268 15.0941C11.6282 14.9564 11.5422 14.717 11.5901 14.4947C11.5419 14.7172 11.6279 14.9569 11.8266 15.0947C12.4595 15.5338 13.0099 15.5415 13.3864 15.538L13.421 15.5377L13.4213 15.5376C13.4543 15.5373 13.4859 15.537 13.516 15.537V16.2326C13.516 16.5533 13.776 16.8132 14.0967 16.8132C14.3761 16.8132 14.6094 16.6158 14.6648 16.3529ZM15.7986 13.6618C15.811 13.6023 15.8175 13.5407 15.8175 13.4776C15.8175 12.9826 15.4148 12.58 14.9199 12.58H13.2738C12.1386 12.58 11.215 11.6564 11.215 10.5212C11.215 10.3718 11.2302 10.2234 11.2607 10.0788C11.2301 10.2236 11.2149 10.3722 11.2149 10.5218C11.2149 11.657 12.1385 12.5806 13.2737 12.5806H14.9198C15.4147 12.5806 15.8173 12.9832 15.8173 13.4782C15.8173 13.5411 15.8109 13.6025 15.7986 13.6618ZM13.5287 7.6465C13.5205 7.68548 13.5161 7.72591 13.5161 7.76735V8.46239C13.5162 8.46239 13.5162 8.46239 13.5163 8.46239V7.76675C13.5163 7.72552 13.5206 7.68529 13.5287 7.6465ZM13.2846 9.75386H14.8612C15.1557 9.75674 15.4496 9.88822 15.6654 10.1185C15.9336 10.4047 16.3832 10.4194 16.6694 10.151C16.9555 9.88279 16.9701 9.43336 16.7019 9.14713C16.1547 8.56323 15.5271 8.35662 14.807 8.33524V7.76735C14.807 7.3751 14.489 7.05709 14.0967 7.05709C13.7045 7.05709 13.3865 7.37509 13.3865 7.76735V8.33568C12.6499 8.36236 12.0836 8.6168 11.6957 9.00474C11.2865 9.41411 11.0852 9.9629 11.0852 10.5218C11.0852 11.7286 12.0669 12.7102 13.2737 12.7102H14.9198C15.3431 12.7102 15.6877 13.0548 15.6877 13.4782C15.6877 13.9031 15.3438 14.2462 14.9199 14.2462L14.9088 14.2461H13.1886C12.9786 14.244 12.7619 14.1725 12.5625 14.0342C12.2402 13.8105 11.7977 13.8906 11.5741 14.2128C11.3505 14.5351 11.4305 14.9776 11.7527 15.2013C12.4186 15.6632 13.0022 15.6712 13.3864 15.6676V16.2326C13.3864 16.6249 13.7044 16.9429 14.0967 16.9429C14.4889 16.9429 14.8069 16.6249 14.8069 16.2326V15.6643C15.5523 15.6374 16.1192 15.3783 16.5051 14.9875C16.9118 14.5757 17.1082 14.0271 17.1082 13.4782C17.1082 12.2713 16.1266 11.2897 14.9197 11.2897H13.2737C12.8503 11.2897 12.5057 10.9451 12.5057 10.5218C12.5057 10.0969 12.8495 9.75382 13.2735 9.75382L13.2846 9.75386ZM2 12.0001C2 6.80256 6.96705 2.99338 12.0019 4.37891C17.0376 2.99199 22 6.80733 22 12.0001C22 17.187 17.0438 21.0099 12.0019 19.6212C6.97613 21.0042 2 17.2076 2 12.0001ZM3.42051 12.0001C3.42051 8.53811 6.1483 5.70082 9.56913 5.52602C7.52985 6.95634 6.19343 9.32475 6.19343 12.0001C6.19343 14.6754 7.52985 17.0438 9.56913 18.4741C6.14836 18.2993 3.42051 15.4621 3.42051 12.0001ZM3.43352 10.6303C4.05711 7.68133 6.65206 5.45104 9.77077 5.38916C9.85072 5.38757 9.93102 5.38741 10.0116 5.3887C10.012 5.3885 10.0123 5.38831 10.0126 5.38811C6.78678 5.33617 4.07292 7.60518 3.43352 10.6303ZM10.0115 18.6108C10.0119 18.6108 10.0122 18.6108 10.0126 18.6108C7.80008 17.239 6.3232 14.7886 6.3232 11.9995C6.3232 11.4473 6.38109 10.9083 6.49112 10.3884C6.38101 10.9085 6.32307 11.4476 6.32307 12.0001C6.32307 14.7036 7.71063 17.0888 9.8107 18.482C9.87694 18.5259 9.94388 18.5689 10.0115 18.6108ZM14.0967 18.4828C10.5222 18.4828 7.61398 15.5745 7.61398 12.0001C7.61398 8.4256 10.5222 5.51731 14.0967 5.51731C17.6712 5.51731 20.5795 8.4256 20.5795 12.0001C20.5795 15.5745 17.6712 18.4828 14.0967 18.4828ZM20.5694 13.3559C20.6611 12.918 20.7093 12.4642 20.7093 11.9995C20.7093 8.3534 17.743 5.38707 14.0969 5.38707C10.9205 5.38707 8.26015 7.63823 7.6273 10.6288C8.26037 7.63853 10.9206 5.38767 14.0967 5.38767C17.7428 5.38767 20.7091 8.354 20.7091 12.0001C20.7091 12.4646 20.661 12.9181 20.5694 13.3559Z" fill="#C3A2C5"/>
</svg>
