<svg width="20" height="20" viewBox="0 0 20 20" fill="none" xmlns="http://www.w3.org/2000/svg">
<path d="M14.05 3C13.255 2.99989 12.4717 3.18562 11.7667 3.54143C11.4802 3.68598 11.2102 3.85686 10.9599 4.05114C10.4211 4.46933 9.5789 4.46933 9.04014 4.05114C8.78985 3.85686 8.51976 3.68598 8.23333 3.54143C7.52826 3.18562 6.74499 2.99989 5.95 3C4.63718 3 3.37813 3.50525 2.44982 4.40461C1.52152 5.30397 1 6.52376 1 7.79564C1 12.504 6.21348 16.4337 9.44721 18.6282C9.78166 18.8551 10.2183 18.8551 10.5528 18.6282C13.7865 16.4337 19 12.504 19 7.79564C19 7.16587 18.872 6.54226 18.6232 5.96043C18.3744 5.37859 18.0098 4.84993 17.5502 4.40461C17.0905 3.95929 16.5448 3.60605 15.9443 3.36505C15.3437 3.12404 14.7 3 14.05 3Z" stroke="#C3A2C5" stroke-width="1.6"/>
</svg>
