<svg width="20" height="20" viewBox="0 0 20 20" fill="none" xmlns="http://www.w3.org/2000/svg">
<path d="M12.1255 18.2046V13.4362C12.1255 13.2254 12.0418 13.0233 11.8928 12.8743C11.7437 12.7252 11.5416 12.6415 11.3308 12.6415H8.15192C7.94115 12.6415 7.73901 12.7252 7.58997 12.8743C7.44093 13.0233 7.3572 13.2254 7.3572 13.4362V18.2046C7.3572 18.4154 7.27349 18.6175 7.12447 18.7666C6.97545 18.9156 6.77333 18.9993 6.56258 18.9994L1.79482 19C1.69045 19 1.5871 18.9795 1.49066 18.9395C1.39423 18.8996 1.30661 18.8411 1.2328 18.7673C1.159 18.6935 1.10045 18.6059 1.0605 18.5094C1.02056 18.413 1 18.3096 1 18.2053V9.02022C1 8.9095 1.02314 8.8 1.06792 8.69875C1.11271 8.59749 1.17816 8.50671 1.26008 8.43222L9.20677 1.20672C9.35305 1.07371 9.54367 1.00001 9.74138 1C9.93909 0.999993 10.1297 1.07369 10.276 1.20669L18.2238 8.43222C18.3057 8.5067 18.3712 8.59749 18.416 8.69875C18.4608 8.80002 18.4839 8.90953 18.4839 9.02025V18.2053C18.4839 18.3097 18.4633 18.413 18.4234 18.5094C18.3835 18.6059 18.3249 18.6935 18.2511 18.7673C18.1773 18.8411 18.0897 18.8996 17.9932 18.9395C17.8968 18.9795 17.7935 19 17.6891 19L12.9202 18.9994C12.7094 18.9993 12.5073 18.9156 12.3583 18.7666C12.2093 18.6175 12.1255 18.4154 12.1255 18.2046V18.2046Z" stroke="white" stroke-width="1.6" stroke-linecap="round" stroke-linejoin="round"/>
</svg>
