<svg width="20" height="20" viewBox="0 0 20 20" fill="none" xmlns="http://www.w3.org/2000/svg">
<path d="M12.4278 8.88729H10M7.57227 15.8238H10M10 8.88729H9.30638C8.34866 8.88729 7.57227 9.66369 7.57227 10.6214V10.6214C7.57227 11.5791 8.34866 12.3555 9.30638 12.3555H10H10.6937C11.6514 12.3555 12.4278 13.1319 12.4278 14.0896V14.0896C12.4278 15.0474 11.6514 15.8238 10.6937 15.8238H10M10 8.88729V7.5M10 15.8238V17.2111" stroke="#C3A2C5" stroke-width="1.6" stroke-linecap="round"/>
<path d="M10 2L10.4532 1.34077C10.1802 1.15308 9.81978 1.15308 9.54678 1.34077L10 2ZM1.54678 6.84077C1.18269 7.09107 1.09046 7.58914 1.34077 7.95322C1.59107 8.31731 2.08914 8.40954 2.45322 8.15923L1.54678 6.84077ZM17.5468 8.15923C17.9109 8.40954 18.4089 8.31731 18.6592 7.95322C18.9095 7.58914 18.8173 7.09107 18.4532 6.84077L17.5468 8.15923ZM9.54678 1.34077L1.54678 6.84077L2.45322 8.15923L10.4532 2.65923L9.54678 1.34077ZM18.4532 6.84077L10.4532 1.34077L9.54678 2.65923L17.5468 8.15923L18.4532 6.84077Z" fill="#C3A2C5"/>
</svg>
