<svg width="20" height="20" viewBox="0 0 20 20" fill="none" xmlns="http://www.w3.org/2000/svg">
  <path d="M17.2 18C17.2 18.4418 17.5582 18.8 18 18.8C18.4418 18.8 18.8 18.4418 18.8 18H17.2ZM1.2 18C1.2 18.4418 1.55817 18.8 2 18.8C2.44183 18.8 2.8 18.4418 2.8 18H1.2ZM7 13.8H13V12.2H7V13.8ZM13 13.8C15.3196 13.8 17.2 15.6804 17.2 18H18.8C18.8 14.7967 16.2033 12.2 13 12.2V13.8ZM7 12.2C3.79675 12.2 1.2 14.7967 1.2 18H2.8C2.8 15.6804 4.6804 13.8 7 13.8V12.2Z" fill="#C3A2C5"/>
  <circle cx="10" cy="6" r="4" stroke="#C3A2C5" stroke-width="1.6"/>
</svg>
