<svg width="20" height="20" viewBox="0 0 20 20" fill="none" xmlns="http://www.w3.org/2000/svg">
<path d="M13.25 9.56699L12.85 10.2598V10.2598L13.25 9.56699ZM13.25 10.433L13.65 11.1258H13.65L13.25 10.433ZM8.75 6.96891L9.15 6.27609V6.27609L8.75 6.96891ZM8 7.40192H8.8H8ZM8 12.5981H7.2H8ZM8.75 13.0311L8.35 12.3383L8.35 12.3383L8.75 13.0311ZM1.8 5C1.8 4.33726 2.33726 3.8 3 3.8V2.2C1.4536 2.2 0.2 3.4536 0.2 5H1.8ZM1.8 15V5H0.2V15H1.8ZM3 16.2C2.33726 16.2 1.8 15.6627 1.8 15H0.2C0.2 16.5464 1.4536 17.8 3 17.8V16.2ZM17 16.2H3V17.8H17V16.2ZM18.2 15C18.2 15.6627 17.6627 16.2 17 16.2V17.8C18.5464 17.8 19.8 16.5464 19.8 15H18.2ZM18.2 5V15H19.8V5H18.2ZM17 3.8C17.6627 3.8 18.2 4.33726 18.2 5H19.8C19.8 3.4536 18.5464 2.2 17 2.2V3.8ZM3 3.8H17V2.2H3V3.8ZM12.85 10.2598C12.65 10.1443 12.65 9.85566 12.85 9.74019L13.65 11.1258C14.5167 10.6255 14.5167 9.37454 13.65 8.87417L12.85 10.2598ZM8.35 7.66173L12.85 10.2598L13.65 8.87417L9.15 6.27609L8.35 7.66173ZM8.8 7.40192C8.8 7.63286 8.55 7.7772 8.35 7.66173L9.15 6.27609C8.28333 5.77572 7.2 6.40118 7.2 7.40192H8.8ZM8.8 12.5981L8.8 7.40192H7.2L7.2 12.5981H8.8ZM8.35 12.3383C8.55 12.2228 8.8 12.3671 8.8 12.5981H7.2C7.2 13.5988 8.28333 14.2243 9.15 13.7239L8.35 12.3383ZM12.85 9.74019L8.35 12.3383L9.15 13.7239L13.65 11.1258L12.85 9.74019Z" fill="#C3A2C5"/>
</svg>
