<svg width="18" height="22" viewBox="0 0 18 22" fill="none" xmlns="http://www.w3.org/2000/svg">
<path d="M11.0576 8.86667C11.0576 8.86667 11.9909 3.38133 8.18425 1C8.12748 1.94249 7.8725 2.8624 7.43597 3.69962C6.99943 4.53685 6.39117 5.27255 5.65092 5.85867C4.02425 7.288 0.968249 10.496 1.00025 13.9253C0.989126 15.3896 1.38731 16.8278 2.14991 18.0778C2.9125 19.3278 4.00917 20.3399 5.31625 21C5.40883 19.5198 6.0429 18.1254 7.09758 17.0827C8.02515 16.1584 8.60416 14.9415 8.73625 13.6387C11.3069 14.8107 12.4936 19.0853 12.4936 20.9267V20.9427C13.7254 20.3763 14.7766 19.4804 15.5312 18.354C16.2858 17.2277 16.7144 15.9146 16.7696 14.56C16.8526 11.78 15.9181 9.06524 14.1416 6.92533" stroke="#C3A2C5" stroke-width="1.6" stroke-linecap="round" stroke-linejoin="round"/>
</svg>
