<svg width="22" height="21" viewBox="0 0 22 21" fill="none" xmlns="http://www.w3.org/2000/svg">
  <path d="M8.23826 20.0009C8.73794 20.0009 9.14302 19.5959 9.14302 19.0962C9.14302 18.5965 8.73794 18.1914 8.23826 18.1914C7.73857 18.1914 7.3335 18.5965 7.3335 19.0962C7.3335 19.5959 7.73857 20.0009 8.23826 20.0009Z" stroke="#C3A2C5" stroke-width="1.6" stroke-linecap="round" stroke-linejoin="round"/>
  <path d="M18.1904 20.0009C18.6901 20.0009 19.0952 19.5959 19.0952 19.0962C19.0952 18.5965 18.6901 18.1914 18.1904 18.1914C17.6907 18.1914 17.2856 18.5965 17.2856 19.0962C17.2856 19.5959 17.6907 20.0009 18.1904 20.0009Z" stroke="#C3A2C5" stroke-width="1.6" stroke-linecap="round" stroke-linejoin="round"/>
  <path d="M1 1H4.61905L7.04381 13.1148C7.12655 13.5313 7.35315 13.9055 7.68397 14.1718C8.01478 14.4381 8.42873 14.5796 8.85333 14.5714H17.6476C18.0722 14.5796 18.4862 14.4381 18.817 14.1718C19.1478 13.9055 19.3744 13.5313 19.4571 13.1148L20.9048 5.52381H5.52381" stroke="#C3A2C5" stroke-width="1.6" stroke-linecap="round" stroke-linejoin="round"/>
</svg>
