<svg width="22" height="18" viewBox="0 0 22 18" fill="none" xmlns="http://www.w3.org/2000/svg">
<path d="M14.3333 1H1V12.5556H14.3333V1Z" stroke="#C3A2C5" stroke-width="1.6" stroke-linecap="round" stroke-linejoin="round"/>
<path d="M14.3333 5.44444H17.8888L20.5555 8.11111V12.5556H14.3333V5.44444Z" stroke="#C3A2C5" stroke-width="1.6" stroke-linecap="round" stroke-linejoin="round"/>
<path d="M5.00005 17C6.22735 17 7.22228 16.0051 7.22228 14.7778C7.22228 13.5505 6.22735 12.5556 5.00005 12.5556C3.77275 12.5556 2.77783 13.5505 2.77783 14.7778C2.77783 16.0051 3.77275 17 5.00005 17Z" stroke="#C3A2C5" stroke-width="1.6" stroke-linecap="round" stroke-linejoin="round"/>
<path d="M16.5555 17C17.7828 17 18.7777 16.0051 18.7777 14.7778C18.7777 13.5505 17.7828 12.5556 16.5555 12.5556C15.3282 12.5556 14.3333 13.5505 14.3333 14.7778C14.3333 16.0051 15.3282 17 16.5555 17Z" stroke="#C3A2C5" stroke-width="1.6" stroke-linecap="round" stroke-linejoin="round"/>
</svg>
