<svg width="24" height="24" viewBox="0 0 24 24" fill="none" xmlns="http://www.w3.org/2000/svg">
<path d="M5 7H6.5H18.5" stroke="#1CE4F0" stroke-width="1.5" stroke-linecap="round" stroke-linejoin="round"/>
<path d="M8.75195 7V5.5C8.75195 5.10218 8.90999 4.72064 9.19129 4.43934C9.4726 4.15804 9.85413 4 10.252 4H13.252C13.6498 4 14.0313 4.15804 14.3126 4.43934C14.5939 4.72064 14.752 5.10218 14.752 5.5V7M17.002 7V17.5C17.002 17.8978 16.8439 18.2794 16.5626 18.5607C16.2813 18.842 15.8998 19 15.502 19H8.00195C7.60413 19 7.2226 18.842 6.94129 18.5607C6.65999 18.2794 6.50195 17.8978 6.50195 17.5V7H17.002Z" stroke="#1CE4F0" stroke-width="1.5" stroke-linecap="round" stroke-linejoin="round"/>
<path d="M10.25 10.75V15.25" stroke="#1CE4F0" stroke-width="1.5" stroke-linecap="round" stroke-linejoin="round"/>
<path d="M13.248 10.75V15.25" stroke="#1CE4F0" stroke-width="1.5" stroke-linecap="round" stroke-linejoin="round"/>
</svg>
